<?xml version="1.0" encoding="utf-8"?>
<!-- Generator: Adobe Illustrator 22.1.0, SVG Export Plug-In . SVG Version: 6.00 Build 0)  -->
<svg version="1.1" id="Слой_1" xmlns="http://www.w3.org/2000/svg" xmlns:xlink="http://www.w3.org/1999/xlink" x="0px" y="0px"
	 viewBox="0 0 2080 2080" style="enable-background:new 0 0 2080 2080;" xml:space="preserve">
<style type="text/css">
	.st0{fill:#FFFFFF;}
	.st1{fill:#C8C6E5;}
	.st2{fill:#FDAC40;}
	.st3{fill:#EBCAA0;}
	.st4{fill:none;stroke:#FDAC40;stroke-width:4;stroke-linecap:round;stroke-miterlimit:10;}
	.st5{fill:none;stroke:#826DFD;stroke-width:4;stroke-linecap:round;stroke-linejoin:round;stroke-miterlimit:10;}
	.st6{fill:#826DFD;}
	.st7{fill:none;stroke:#000000;stroke-width:6;stroke-linecap:round;stroke-miterlimit:10;}
	.st8{fill:none;stroke:#000000;stroke-width:3;stroke-linecap:round;stroke-miterlimit:10;}
	.st9{fill:none;stroke:#000000;stroke-width:4;stroke-linecap:round;stroke-linejoin:round;stroke-miterlimit:10;}
	.st10{fill:none;stroke:#000000;stroke-width:6;stroke-linecap:round;stroke-linejoin:round;stroke-miterlimit:10;}
	.st11{fill:none;stroke:#000000;stroke-width:3;stroke-miterlimit:10;}
	.st12{fill:none;stroke:#000000;stroke-width:7;stroke-linecap:round;stroke-miterlimit:10;}
	.st13{fill:none;stroke:#000000;stroke-width:3;stroke-linecap:round;stroke-linejoin:round;stroke-miterlimit:10;}
	.st14{fill:none;stroke:#000000;stroke-width:5;stroke-miterlimit:10;}
	.st15{fill:none;stroke:#000000;stroke-width:2;stroke-linecap:round;stroke-linejoin:round;stroke-miterlimit:10;}
	.st16{fill:none;stroke:#000000;stroke-width:8;stroke-linecap:round;stroke-linejoin:round;stroke-miterlimit:10;}
	.st17{fill:none;stroke:#000000;stroke-width:3;stroke-linejoin:round;stroke-miterlimit:10;}
	.st18{fill:none;stroke:#000000;stroke-width:5;stroke-linecap:round;stroke-linejoin:round;stroke-miterlimit:10;}
	.st19{fill:none;stroke:#000000;stroke-width:2;stroke-miterlimit:10;}
	.st20{fill:none;stroke:#000000;stroke-width:2;stroke-linecap:round;stroke-miterlimit:10;}
	.st21{stroke:#000000;stroke-width:5;stroke-linecap:round;stroke-linejoin:round;stroke-miterlimit:10;}
	.st22{stroke:#000000;stroke-width:3;stroke-linecap:round;stroke-linejoin:round;stroke-miterlimit:10;}
	.st23{fill:none;stroke:#8378BF;stroke-width:5;stroke-linecap:round;stroke-linejoin:round;stroke-miterlimit:10;}
	.st24{fill:none;stroke:#826DFD;stroke-width:3;stroke-linecap:round;stroke-linejoin:round;stroke-miterlimit:10;}
	.st25{fill:none;stroke:#FDAC40;stroke-width:3;stroke-linecap:round;stroke-linejoin:round;stroke-miterlimit:10;}
	.st26{fill:none;stroke:#FDAC40;stroke-width:7;stroke-miterlimit:10;}
	.st27{fill:none;stroke:#000000;stroke-width:11;stroke-linecap:round;stroke-linejoin:round;stroke-miterlimit:10;}
	.st28{fill:none;stroke:#333333;stroke-width:5;stroke-linecap:round;stroke-miterlimit:10;stroke-dasharray:20;}
	.st29{fill:#FADC8C;}
	.st30{fill:none;stroke:#333333;stroke-width:5;stroke-linecap:round;stroke-miterlimit:10;stroke-dasharray:44.5321,44.5321;}
	.st31{fill:#333333;}
	.st32{fill:#F29F76;}
	.st33{fill:#7BD9E5;}
	.st34{fill:none;}
	.st35{fill:#65C8D0;}
	.st36{fill:#7BD9E5;stroke:#7BD9E5;stroke-miterlimit:10;}
	.st37{fill:none;stroke:#333333;stroke-linecap:round;stroke-linejoin:round;stroke-miterlimit:10;}
	.st38{fill:#7BD9E5;stroke:#333333;stroke-miterlimit:10;}
	.st39{fill:#8FACCC;}
	.st40{fill:#F9E958;}
	.st41{fill:#231F20;}
	.st42{fill:none;stroke:#333333;stroke-width:3;stroke-linecap:round;stroke-miterlimit:10;}
	.st43{clip-path:url(#SVGID_2_);}
	.st44{clip-path:url(#SVGID_4_);}
	.st45{clip-path:url(#SVGID_6_);}
	.st46{clip-path:url(#SVGID_8_);}
	.st47{clip-path:url(#SVGID_10_);}
	.st48{clip-path:url(#SVGID_12_);}
	.st49{clip-path:url(#SVGID_14_);}
	.st50{clip-path:url(#SVGID_16_);}
	.st51{clip-path:url(#SVGID_18_);}
	.st52{clip-path:url(#SVGID_20_);}
	.st53{clip-path:url(#SVGID_22_);}
	.st54{clip-path:url(#SVGID_24_);}
	.st55{clip-path:url(#SVGID_26_);}
	.st56{clip-path:url(#SVGID_28_);}
	.st57{fill:#FF7300;}
	.st58{clip-path:url(#SVGID_30_);}
	.st59{fill:#020100;}
	.st60{fill:#FF6D00;}
	.st61{clip-path:url(#SVGID_32_);}
	.st62{clip-path:url(#SVGID_34_);fill:none;stroke:#2C1017;stroke-width:3.4838;stroke-miterlimit:10;}
	.st63{clip-path:url(#SVGID_36_);fill:none;stroke:#2C1017;stroke-width:3.4838;stroke-miterlimit:10;}
	.st64{clip-path:url(#SVGID_38_);fill:none;stroke:#2C1017;stroke-width:3.4838;stroke-miterlimit:10;}
	.st65{clip-path:url(#SVGID_40_);fill:none;stroke:#2C1017;stroke-width:3.4838;stroke-miterlimit:10;}
	.st66{clip-path:url(#SVGID_32_);fill:none;stroke:#231F20;stroke-width:2.6129;stroke-miterlimit:10;}
	.st67{clip-path:url(#SVGID_42_);fill:none;stroke:#231F20;stroke-width:0.871;stroke-miterlimit:10;}
	.st68{clip-path:url(#SVGID_44_);fill:none;stroke:#231F20;stroke-width:0.871;stroke-miterlimit:10;}
	.st69{clip-path:url(#SVGID_46_);fill:#231F20;}
	.st70{clip-path:url(#SVGID_46_);fill:none;stroke:#231F20;stroke-width:2.6129;stroke-miterlimit:10;}
	.st71{clip-path:url(#SVGID_46_);fill:#FFFFFF;}
	.st72{clip-path:url(#SVGID_46_);fill:none;stroke:#231F20;stroke-width:1.7419;stroke-miterlimit:10;}
	.st73{clip-path:url(#SVGID_48_);fill:#231F20;}
	.st74{clip-path:url(#SVGID_48_);fill:#FFFFFF;}
	.st75{fill:none;stroke:#000000;stroke-width:1.5;stroke-miterlimit:10;}
	.st76{fill:none;stroke:#000000;stroke-miterlimit:10;}
	.st77{fill:none;stroke:#000000;stroke-width:0.75;stroke-miterlimit:10;}
	.st78{stroke:#000000;stroke-miterlimit:10;}
	.st79{clip-path:url(#SVGID_49_);}
	.st80{clip-path:url(#SVGID_50_);}
	.st81{clip-path:url(#SVGID_51_);}
	.st82{clip-path:url(#SVGID_52_);}
	.st83{fill:none;stroke:#000000;stroke-width:0.25;stroke-miterlimit:10;}
	.st84{clip-path:url(#SVGID_53_);}
	.st85{fill:none;stroke:#000000;stroke-width:0.5;stroke-miterlimit:10;}
	.st86{clip-path:url(#SVGID_54_);}
	.st87{clip-path:url(#SVGID_55_);}
	.st88{clip-path:url(#SVGID_56_);}
	.st89{clip-path:url(#SVGID_57_);}
	.st90{clip-path:url(#SVGID_58_);}
	.st91{clip-path:url(#SVGID_59_);}
	.st92{clip-path:url(#SVGID_60_);}
	.st93{clip-path:url(#SVGID_61_);}
	.st94{clip-path:url(#SVGID_62_);}
	.st95{clip-path:url(#SVGID_63_);}
	.st96{clip-path:url(#SVGID_64_);}
	.st97{clip-path:url(#SVGID_65_);}
	.st98{stroke:#000000;stroke-width:0.75;stroke-miterlimit:10;}
	.st99{clip-path:url(#SVGID_67_);}
	.st100{clip-path:url(#SVGID_69_);}
	.st101{fill:none;stroke:#000000;stroke-width:6;stroke-miterlimit:10;}
	.st102{clip-path:url(#SVGID_71_);}
	.st103{clip-path:url(#SVGID_73_);}
	.st104{stroke:#000000;stroke-width:0.5;stroke-miterlimit:10;}
	.st105{clip-path:url(#SVGID_75_);}
	.st106{clip-path:url(#SVGID_77_);}
	.st107{stroke:#000000;stroke-width:0.25;stroke-miterlimit:10;}
	.st108{clip-path:url(#SVGID_79_);}
	.st109{clip-path:url(#SVGID_80_);}
	.st110{clip-path:url(#SVGID_81_);}
	.st111{clip-path:url(#SVGID_82_);}
	.st112{clip-path:url(#SVGID_83_);}
	.st113{clip-path:url(#SVGID_84_);}
	.st114{clip-path:url(#SVGID_86_);}
	.st115{stroke:#000000;stroke-linecap:round;stroke-linejoin:round;stroke-miterlimit:10;}
	.st116{clip-path:url(#SVGID_88_);}
	.st117{fill:none;stroke:#000000;stroke-width:0.25;stroke-linecap:round;stroke-linejoin:round;stroke-miterlimit:10;}
	.st118{stroke:#000000;stroke-width:0.25;stroke-linecap:round;stroke-linejoin:round;stroke-miterlimit:10;}
	.st119{clip-path:url(#SVGID_90_);}
	.st120{clip-path:url(#SVGID_92_);}
	.st121{clip-path:url(#SVGID_94_);}
	.st122{clip-path:url(#SVGID_96_);}
	.st123{fill:#F3E0B5;}
	.st124{clip-path:url(#SVGID_98_);}
	.st125{fill:#F7E7C5;}
	.st126{fill:none;stroke:#FFFFFF;stroke-width:3;stroke-miterlimit:10;}
	.st127{clip-path:url(#SVGID_100_);}
	.st128{fill:none;stroke:#FFFFFF;stroke-width:2;stroke-miterlimit:10;}
	.st129{fill:none;stroke:#FFFFFF;stroke-width:30;stroke-miterlimit:10;}
	.st130{fill:#FFFFFF;stroke:#FFFFFF;stroke-miterlimit:10;}
	.st131{stroke:#FFFFFF;stroke-miterlimit:10;}
	.st132{clip-path:url(#SVGID_102_);}
	.st133{fill:none;stroke:#FFFFFF;stroke-width:7;stroke-miterlimit:10;}
	.st134{fill:none;stroke:#FFFFFF;stroke-width:19;stroke-miterlimit:10;}
	.st135{fill:none;stroke:#FFFFFF;stroke-width:11;stroke-miterlimit:10;}
	.st136{fill:#FFFFFF;stroke:#FFFFFF;stroke-width:7;stroke-linecap:round;stroke-linejoin:round;stroke-miterlimit:10;}
	.st137{fill:none;stroke:#FFFFFF;stroke-width:0.5;stroke-miterlimit:10;}
	.st138{clip-path:url(#SVGID_104_);}
	.st139{fill:none;stroke:#FFFFFF;stroke-width:8;stroke-miterlimit:10;}
	.st140{fill:none;stroke:#FFFFFF;stroke-width:10;stroke-linejoin:bevel;stroke-miterlimit:10;}
	.st141{clip-path:url(#SVGID_106_);}
	.st142{clip-path:url(#SVGID_108_);}
	.st143{clip-path:url(#SVGID_110_);}
	.st144{clip-path:url(#SVGID_112_);}
	.st145{stroke:#000000;stroke-width:2;stroke-miterlimit:10;}
	.st146{fill:none;stroke:#000000;stroke-width:45;stroke-miterlimit:10;}
	.st147{stroke:#FFFFFF;stroke-width:4;stroke-miterlimit:10;}
	.st148{fill:none;stroke:#FFFFFF;stroke-width:4;stroke-miterlimit:10;}
	.st149{fill:#FFFFFF;stroke:#FFFFFF;stroke-width:4;stroke-miterlimit:10;}
	.st150{clip-path:url(#SVGID_114_);}
	.st151{opacity:0.51;fill:#339999;stroke:#000000;stroke-width:2;stroke-miterlimit:10;}
	.st152{opacity:0.18;fill:#FFCCFF;stroke:#000000;stroke-width:2;stroke-miterlimit:10;}
	.st153{opacity:4.000000e-02;fill:#FFCCFF;stroke:#000000;stroke-width:2;stroke-miterlimit:10;}
	.st154{opacity:0.18;fill:#003333;stroke:#000000;stroke-width:2;stroke-miterlimit:10;}
	.st155{opacity:0.46;fill:#99FFFF;stroke:#000000;stroke-width:2;stroke-miterlimit:10;}
	.st156{opacity:0.18;fill:#CC99FF;stroke:#000000;stroke-width:2;stroke-miterlimit:10;}
	.st157{opacity:0.47;fill:#FFCCFF;stroke:#000000;stroke-width:2;stroke-miterlimit:10;}
	.st158{opacity:0.11;fill:#333399;stroke:#000000;stroke-width:2;stroke-miterlimit:10;}
	.st159{opacity:0.11;fill:#99FFFF;stroke:#000000;stroke-width:2;stroke-miterlimit:10;}
	.st160{opacity:0.18;fill:#9999FF;stroke:#000000;stroke-width:2;stroke-miterlimit:10;}
	.st161{opacity:0.18;fill:none;stroke:#000000;stroke-width:2;stroke-miterlimit:10;}
	.st162{opacity:0.68;fill:#FFFFFF;}
	.st163{opacity:0.18;fill:#6666FF;stroke:#000000;stroke-width:2;stroke-miterlimit:10;}
	.st164{fill:#FFFFFF;stroke:#000000;stroke-width:2;stroke-miterlimit:10;}
	.st165{fill:none;stroke:#000000;stroke-width:0.5;stroke-linecap:round;stroke-linejoin:round;}
	.st166{opacity:0.36;fill:#FFFFFF;stroke:#000000;stroke-width:0.5;stroke-linecap:round;stroke-linejoin:round;}
	.st167{opacity:0.37;fill:#CCFFFF;stroke:#000000;stroke-width:0.5;stroke-linecap:round;stroke-linejoin:round;}
	.st168{opacity:0.69;fill:#E6FFFE;stroke:#000000;stroke-width:0.5;stroke-linecap:round;stroke-linejoin:round;}
	.st169{opacity:0.8;fill:#FFFFFF;stroke:#000000;stroke-width:0.5;stroke-linecap:round;stroke-linejoin:round;}
	.st170{opacity:0.43;fill:#CCFFFF;stroke:#000000;stroke-width:0.5;stroke-linecap:round;stroke-linejoin:round;}
	.st171{opacity:0.82;fill:#FFFFFF;stroke:#000000;stroke-width:0.5;stroke-linecap:round;stroke-linejoin:round;}
	.st172{opacity:0.76;fill:#FFFFFF;stroke:#000000;stroke-width:0.5;stroke-linecap:round;stroke-linejoin:round;}
	.st173{opacity:0.47;fill:#6633CC;stroke:#000000;stroke-width:0.5;stroke-linecap:round;stroke-linejoin:round;}
	.st174{opacity:0.51;fill:#CCFFFF;stroke:#000000;stroke-width:0.5;stroke-linecap:round;stroke-linejoin:round;}
	.st175{opacity:0.4;fill:#000033;stroke:#000000;stroke-width:0.5;stroke-linecap:round;stroke-linejoin:round;}
	.st176{opacity:0.43;fill:#330033;stroke:#000000;stroke-width:0.5;stroke-linecap:round;stroke-linejoin:round;}
	.st177{opacity:0.1;fill:#9966FF;stroke:#000000;stroke-width:2;stroke-miterlimit:10;}
	.st178{opacity:0.23;fill:#330033;stroke:#000000;stroke-width:2;stroke-miterlimit:10;}
	.st179{opacity:0.18;}
	.st180{fill:#FFCCFF;}
	.st181{opacity:0.51;}
	.st182{fill:#339999;}
	.st183{opacity:4.000000e-02;}
	.st184{fill:#003333;}
	.st185{opacity:0.46;}
	.st186{fill:#99FFFF;}
	.st187{fill:#CC99FF;}
	.st188{opacity:0.47;}
	.st189{opacity:0.11;}
	.st190{fill:#333399;}
	.st191{fill:#9999FF;}
	.st192{opacity:0.18;fill:#FFFFFF;}
	.st193{opacity:0.62;}
	.st194{fill:#6666FF;}
	.st195{opacity:0.42;}
	.st196{fill:#9C62A0;}
	.st197{fill:none;stroke:#FFFFFF;stroke-width:0.5;stroke-linecap:round;stroke-linejoin:round;}
	.st198{opacity:0.36;}
	.st199{opacity:0.37;}
	.st200{fill:#CCFFFF;}
	.st201{fill:none;stroke:#FFFFFF;stroke-width:4;stroke-linecap:round;stroke-linejoin:round;}
	.st202{opacity:0.69;}
	.st203{fill:#E6FFFE;}
	.st204{opacity:0.8;}
	.st205{opacity:0.43;}
	.st206{opacity:0.82;}
	.st207{opacity:0.76;}
	.st208{fill:#6633CC;}
	.st209{opacity:0.4;}
	.st210{fill:#000033;}
	.st211{fill:#330033;}
	.st212{opacity:0.1;}
	.st213{fill:#9966FF;}
	.st214{opacity:0.72;}
	.st215{fill:#333366;}
	.st216{fill:#E3E825;stroke:#42210B;stroke-width:10;stroke-linejoin:round;stroke-miterlimit:10;}
	.st217{fill:#C69C6D;stroke:#42210B;stroke-width:10;stroke-linejoin:round;stroke-miterlimit:10;}
	.st218{fill:#42210B;stroke:#42210B;stroke-width:10;stroke-linejoin:round;stroke-miterlimit:10;}
	.st219{fill:#E53C70;stroke:#42210B;stroke-width:10;stroke-linejoin:round;stroke-miterlimit:10;}
	.st220{fill:#F27C08;stroke:#42210B;stroke-width:10;stroke-linejoin:round;stroke-miterlimit:10;}
	.st221{fill:#AA4913;}
	.st222{fill:#D68A63;}
	.st223{fill:#EAC598;}
	.st224{fill:#F26692;}
	.st225{fill:#EDAF77;}
	.st226{fill:#FBB03B;stroke:#7A5D3B;stroke-width:12;stroke-linecap:round;stroke-miterlimit:10;}
	.st227{fill:none;stroke:#42210B;stroke-width:10;stroke-linejoin:round;stroke-miterlimit:10;}
	.st228{fill:#087F2C;stroke:#42210B;stroke-width:10;stroke-linejoin:round;stroke-miterlimit:10;}
	.st229{fill:#98D14E;}
	.st230{fill:#80A574;stroke:#071103;stroke-width:14;stroke-linejoin:round;stroke-miterlimit:10;}
	.st231{fill:#EF2E2E;stroke:#071103;stroke-width:14;stroke-linejoin:round;stroke-miterlimit:10;}
	.st232{fill:#5D7554;stroke:#051101;stroke-width:14;stroke-linejoin:round;stroke-miterlimit:10;}
	.st233{fill:none;stroke:#6B996E;stroke-width:40;stroke-linecap:round;stroke-miterlimit:10;}
	.st234{fill:none;stroke:#203316;stroke-width:14;stroke-linejoin:round;stroke-miterlimit:10;}
	.st235{fill:none;stroke:#071103;stroke-width:14;stroke-linejoin:round;stroke-miterlimit:10;}
	.st236{fill:#42210B;}
	.st237{fill:#47683E;}
	.st238{fill:#5D7554;stroke:#071103;stroke-width:14;stroke-linejoin:round;stroke-miterlimit:10;}
	.st239{fill:#E3E825;stroke:#071103;stroke-width:14;stroke-linejoin:round;stroke-miterlimit:10;}
	.st240{fill:#F4F490;}
	.st241{fill:#E53C70;stroke:#071103;stroke-width:14;stroke-linejoin:round;stroke-miterlimit:10;}
	.st242{fill:#071103;stroke:#071103;stroke-width:14;stroke-linejoin:round;stroke-miterlimit:10;}
	.st243{fill:#E53C70;stroke:#EF95B1;stroke-width:14;stroke-linecap:round;stroke-linejoin:round;stroke-miterlimit:10;}
	.st244{fill:#E3E825;stroke:#071103;stroke-width:10;stroke-linejoin:round;stroke-miterlimit:10;}
	.st245{fill:#071103;}
	.st246{fill:#FFFF00;}
	.st247{fill:none;stroke:#752525;stroke-width:4;stroke-miterlimit:10;}
	.st248{fill:none;stroke:#AA3333;stroke-width:5;stroke-miterlimit:10;}
	.st249{fill:none;stroke:#ED1C24;stroke-width:3;stroke-miterlimit:10;}
	.st250{fill:#AA3333;}
	.st251{fill:#F94B4B;}
	.st252{fill:none;stroke:#AA3333;stroke-width:9;stroke-miterlimit:10;}
	.st253{fill:#FC7E7E;}
	.st254{fill:#FC7E7E;stroke:#FC7E7E;stroke-width:7;stroke-miterlimit:10;}
	.st255{fill:none;stroke:#FC7E7E;stroke-width:9;stroke-miterlimit:10;}
	.st256{fill:none;stroke:#FCFAFA;stroke-width:4;stroke-miterlimit:10;}
	.st257{fill:#681D1D;}
	.st258{fill:#BA4FB0;}
	.st259{fill:#A068A0;}
	.st260{fill:#E0A6E0;}
	.st261{fill:none;stroke:#540E56;stroke-width:4;stroke-miterlimit:10;}
	.st262{fill:#7A347A;}
	.st263{fill:#007F82;}
	.st264{fill:#04A8A8;}
	.st265{fill:none;stroke:#764977;stroke-width:3;stroke-miterlimit:10;}
	.st266{fill:#3ECCC5;}
	.st267{fill:none;stroke:#004242;stroke-width:3;stroke-miterlimit:10;}
	.st268{fill:none;stroke:#7C0C00;stroke-width:3;stroke-miterlimit:10;}
	.st269{fill:#004242;}
	.st270{fill:#510600;}
	.st271{fill:#FF866E;}
	.st272{fill:#D30B0B;}
	.st273{fill:none;stroke:#F200FF;stroke-width:3;stroke-miterlimit:10;}
	.st274{fill:none;stroke:#F200FF;stroke-miterlimit:10;}
	.st275{fill:none;stroke:#04070F;stroke-width:3;stroke-miterlimit:10;}
	.st276{fill:#005654;}
</style>
<rect x="-5503" y="-1344" class="st0" width="14249" height="14249"/>
<g>
	<path class="st216" d="M478.1,617.4c0-1,0.1-2.1,0.1-3.1c0-54.7-44.3-99-99-99s-99,44.3-99,99c0,1,0,2.1,0.1,3.1H478.1z"/>
	<polygon class="st217" points="379.4,898.1 472.1,649.9 286.7,649.9 	"/>
	<path class="st218" d="M479.8,648.7H279c-11,0-20-9-20-20v-8.2c0-11,9-20,20-20h200.8c11,0,20,9,20,20v8.2
		C499.8,639.7,490.8,648.7,479.8,648.7z"/>
	<circle class="st219" cx="321.6" cy="543.9" r="40.9"/>
	<circle class="st220" cx="464.9" cy="577.7" r="24.1"/>
	<path class="st221" d="M322.2,641.5h-44.6c-5,0-9-4-9-9v-15.7c0-4.9,4-9,9-9h44.6c4.9,0,9,4.1,9,9v15.7
		C331.2,637.4,327.2,641.5,322.2,641.5z"/>
	<path class="st222" d="M298.8,633h-19.3c-3.3,0-6-2.7-6-6v-9.7c0-3.3,2.7-6,6-6h19.3c3.3,0,6,2.7,6,6v9.7
		C304.8,630.3,302.1,633,298.8,633z"/>
	<path class="st223" d="M282.5,628.2h-3.6c-1.6,0-3-1.4-3-3V618c0-1.6,1.4-3,3-3h3.6c1.6,0,3,1.4,3,3v7.2
		C285.5,626.9,284.1,628.2,282.5,628.2z"/>
	<circle class="st224" cx="311.4" cy="531.3" r="17.5"/>
	<circle class="st225" cx="459.5" cy="573.4" r="6.6"/>
	<line class="st226" x1="299.9" y1="666.8" x2="440.8" y2="720.9"/>
	<line class="st226" x1="321.6" y1="731.8" x2="422.8" y2="770.3"/>
	<line class="st226" x1="344.5" y1="794.4" x2="405.9" y2="817.3"/>
	<line class="st226" x1="397.5" y1="652.3" x2="458.9" y2="676.4"/>
	<polygon class="st227" points="379.4,896.9 472.1,648.7 286.7,648.7 	"/>
	<circle class="st228" cx="416.1" cy="531.3" r="17.5"/>
	<circle class="st229" cx="411.9" cy="527.1" r="4.8"/>
</g>
<circle class="st230" cx="1046.5" cy="690.8" r="190.2"/>
<circle class="st231" cx="1046.5" cy="690.8" r="140"/>
<path class="st232" d="M1046.5,500.6v380.5c105.1,0,190.2-85.2,190.2-190.2S1151.5,500.6,1046.5,500.6z"/>
<path class="st233" d="M1082.6,550.9c0,0,29.1,6,54.7,27.8c28.4,24.3,53.7,64.7,53.7,64.7"/>
<path class="st234" d="M1121.4,864.7c26.8-41.5,58.5-104.5,58.5-170.5c0-64.8-31.1-132.7-57.7-179"/>
<path class="st234" d="M1086.5,875.8c12.9-40.2,30-107.6,28.9-179.4c0-1.1,0-2.2-0.1-3.3c-1.1-69.8-17.3-143.5-29.4-189.4"/>
<g>
	<path class="st235" d="M1086,504.7c-12.7-2.7-26-4.1-39.5-4.1V880c13.7,0,27.1-1.5,40.1-4.2"/>
	<path class="st235" d="M1086.5,875.8c12.1-2.6,23.7-6.3,34.9-11.1"/>
	<path class="st235" d="M1086,504.7c12.6,2.6,24.7,6.5,36.2,11.5"/>
	<path class="st235" d="M1121.4,864.7c67.8-29,115.3-96.2,115.3-174.4c0-77.9-47.1-144.9-114.6-174.1"/>
</g>
<circle class="st236" cx="1020.8" cy="588.6" r="6"/>
<circle class="st236" cx="1019.7" cy="656.4" r="6"/>
<circle class="st236" cx="1020.8" cy="724.2" r="6"/>
<circle class="st236" cx="1019.7" cy="789.8" r="6"/>
<circle class="st236" cx="979.2" cy="624.7" r="6"/>
<circle class="st236" cx="979.2" cy="690.3" r="6"/>
<circle class="st236" cx="981.4" cy="755.9" r="6"/>
<circle class="st236" cx="941" cy="656.4" r="6"/>
<circle class="st236" cx="941" cy="724.2" r="6"/>
<path class="st237" d="M1085.5,528.6c-0.4-0.1-0.8-0.2-1.2-0.2c3.8,15.4,7.6,32.4,11.1,50.5c5.3,2.5,11.3,5.8,17.4,9.8
	c-3.5-19.5-7.4-38-11.4-54.8C1092.3,530.2,1086.1,528.7,1085.5,528.6z"/>
<path class="st237" d="M1155.6,564.8c-8.5-7.2-17.3-13-25.5-17.8c13.9,27.2,27.6,59.2,35.7,92.4c10.6,13.5,17.6,24.1,17.8,24.3
	c0.9,1.4,1.9,2.6,3,3.7C1181.9,631.6,1169.7,596.1,1155.6,564.8z"/>
<g>
	<path class="st230" d="M1703.9,601c-86.6,22.9-148.1,80.9-148.1,148.8s61.5,126,148.1,148.8V601z"/>
	<path class="st238" d="M1703.9,601c86.6,22.9,148.1,80.9,148.1,148.8s-61.5,126-148.1,148.8V601z"/>
	<path class="st239" d="M1703.9,639.7c-64.1,16.9-109.6,59.9-109.6,110.1c0,50.3,45.5,93.2,109.6,110.1V639.7z"/>
	<line class="st235" x1="1703.9" y1="749.8" x2="1594.3" y2="749.8"/>
	<line class="st235" x1="1703.9" y1="749.8" x2="1626.4" y2="672.4"/>
	<line class="st235" x1="1626.4" y1="825.7" x2="1703.9" y2="748.2"/>
	<path class="st240" d="M1641.7,726.3l-28.4,2.9c1.1-4,2.6-8.7,4.9-13.8c2.2-4.8,4.6-8.9,6.8-12.3
		C1630.5,710.9,1636.1,718.6,1641.7,726.3z"/>
	<path class="st240" d="M1645.5,774.1l-17.7,22.4c-2.1-3.6-4.4-8-6.4-13.1c-1.9-4.9-3.2-9.5-4.1-13.5
		C1626.7,771.3,1636.1,772.7,1645.5,774.1z"/>
	<path class="st240" d="M1681.9,806l0.5,28.6c-3.9-1.4-8.5-3.4-13.3-6c-4.6-2.6-8.5-5.3-11.7-7.8
		C1665.6,815.9,1673.7,811,1681.9,806z"/>
	<path class="st240" d="M1679.8,693.6l-21.5-18.9c3.7-2,8.2-4,13.4-5.8c5-1.7,9.7-2.7,13.6-3.4
		C1683.5,674.9,1681.6,684.2,1679.8,693.6z"/>
	
		<ellipse transform="matrix(0.9214 -0.3886 0.3886 0.9214 -60.5604 734.5219)" class="st238" cx="1785.6" cy="517" rx="60.8" ry="27.8"/>
	<line class="st235" x1="1842.1" y1="493" x2="1735.5" y2="537.6"/>
	<line class="st235" x1="1769" y1="493.6" x2="1760" y2="527.4"/>
	<line class="st235" x1="1801.7" y1="480.9" x2="1792.8" y2="514.6"/>
	<path class="st235" d="M1703.9,600.5c0-37.3,19.9-67.4,44.6-67.4"/>
</g>
<path class="st241" d="M782.4,1385.9c0.4-2.9-1.7-9.5-5.4-16.6l-62.8-120.7v-83.5c0-3.4-2.4-6.3-5.3-6.3h-59.8
	c-2.9,0-5.3,2.8-5.3,6.3v83.9l-62.6,120.4c-3.5,6.7-5.5,13-5.4,16.1c-0.2,0.6-0.3,1.3-0.3,2.1v198.1c0,3.4,2.4,6.3,5.3,6.3h196.4
	c2.9,0,5.3-2.8,5.3-6.3v-198.1C782.6,1387,782.6,1386.4,782.4,1385.9z"/>
<path class="st230" d="M777.6,1514.7H580.5c-2.8,0-5-2.3-5-5v-86.3c0-2.8,2.3-5,5-5h197.1c2.8,0,5,2.3,5,5v86.3
	C782.6,1512.4,780.4,1514.7,777.6,1514.7z"/>
<path class="st242" d="M709,1151h-61c-2.8,0-5-2.3-5-5v-33.3c0-2.8,2.3-5,5-5h61c2.8,0,5,2.3,5,5v33.3
	C714,1148.8,711.8,1151,709,1151z"/>
<line class="st243" x1="618.9" y1="1367.8" x2="655" y2="1295.5"/>
<line class="st243" x1="668.2" y1="1232.9" x2="668.2" y2="1197.3"/>
<g>
	<rect x="1329.7" y="1242.5" class="st244" width="29.5" height="250.1"/>
	<rect x="1283.9" y="1241.4" class="st244" width="29.5" height="250.1"/>
	<rect x="1407.3" y="1267.7" class="st244" width="29.5" height="250.1"/>
	<rect x="1309" y="1302.6" class="st244" width="29.5" height="250.1"/>
	
		<rect x="1461.9" y="1276.4" transform="matrix(0.9712 0.2384 -0.2384 0.9712 359.9052 -313.6639)" class="st244" width="29.5" height="109.2"/>
	
		<rect x="1157.2" y="1280.8" transform="matrix(0.9458 -0.3247 0.3247 0.9458 -370.0784 452.8445)" class="st244" width="29.5" height="109.2"/>
	
		<rect x="1182.3" y="1239.3" transform="matrix(-0.9901 0.1402 -0.1402 -0.9901 2573.5103 2547.3501)" class="st244" width="29.5" height="250.1"/>
	
		<rect x="1430.2" y="1242.5" transform="matrix(0.9901 0.1402 -0.1402 0.9901 205.979 -189.0526)" class="st244" width="29.5" height="250.1"/>
	
		<rect x="1371.2" y="1245.8" transform="matrix(0.9901 0.1402 -0.1402 0.9901 205.856 -180.753)" class="st244" width="29.5" height="250.1"/>
	<rect x="1208.5" y="1267.7" class="st244" width="29.5" height="250.1"/>
	
		<rect x="1245.6" y="1245.8" transform="matrix(-0.9901 0.1402 -0.1402 -0.9901 2700.4915 2551.5115)" class="st244" width="29.5" height="250.1"/>
	<rect x="1196.5" y="1307" class="st244" width="29.5" height="150.7"/>
	<rect x="1421.5" y="1302.6" class="st244" width="29.5" height="155.1"/>
	<rect x="1351.6" y="1209.8" class="st244" width="29.5" height="250.1"/>
	<rect x="1265.3" y="1209.8" class="st244" width="29.5" height="250.1"/>
	
		<rect x="1225.3" y="1329.5" transform="matrix(-0.9616 -0.2746 0.2746 -0.9616 2045.5654 3104.6165)" class="st244" width="29.5" height="159.3"/>
	
		<rect x="1384.8" y="1328.6" transform="matrix(0.9616 -0.2746 0.2746 0.9616 -331.5698 438.2309)" class="st244" width="29.5" height="149.7"/>
	<rect x="1263.1" y="1351.8" class="st244" width="29.5" height="102.7"/>
	<rect x="1358.1" y="1351.8" class="st244" width="29.5" height="102.7"/>
	<path class="st231" d="M1501.2,1348.5h-56.8c-0.8,45.9-54.3,83-120.1,83s-119.3-37.1-120.1-83h-55.7c-2.7,0-4,3.2-2.9,7.1
		l63.7,222.3c0.5,1.6,2.2,2.9,3.9,2.9h223.2c1.7,0,3.5-1.3,3.9-2.9l63.7-222.3C1505.2,1351.7,1503.9,1348.5,1501.2,1348.5z"/>
</g>
<g>
	<path class="st245" d="M1346.7,1482.8c8.3,0,15.2,22.6,16.6,52.4h7.5c0-39.9-10.8-72.2-24.1-72.2c-13.3,0-24.1,32.3-24.1,72.2h7.5
		C1331.5,1505.4,1338.4,1482.8,1346.7,1482.8z"/>
	<path class="st245" d="M1301.5,1483.2c0.6-0.3,1.3-0.4,1.9-0.4c0.9,0,1.7,0.2,2.5,0.7c7.2,4.1,12.8,25,14,51.7h7.5
		c0-39.9-10.8-72.2-24.1-72.2c-13.3,0-24.1,32.3-24.1,72.2h7.5C1288.1,1507.7,1294,1486.3,1301.5,1483.2z"/>
	<path class="st246" d="M1344.3,1482.8c8.3,0,15.2,22.6,16.6,52.4h7.5c0-39.9-10.8-72.2-24.1-72.2c-13.3,0-24.1,32.3-24.1,72.2h7.5
		C1329.1,1505.4,1336,1482.8,1344.3,1482.8z"/>
	<path class="st246" d="M1299.1,1483.2c0.6-0.3,1.3-0.4,1.9-0.4c0.9,0,1.7,0.2,2.5,0.7c7.2,4.1,12.8,25,14,51.7h7.5
		c0-39.9-10.8-72.2-24.1-72.2c-13.3,0-24.1,32.3-24.1,72.2h7.5C1285.7,1507.7,1291.6,1486.3,1299.1,1483.2z"/>
</g>
</svg>
