<?xml version="1.0" encoding="utf-8"?>
<!-- Generator: Adobe Illustrator 22.1.0, SVG Export Plug-In . SVG Version: 6.00 Build 0)  -->
<svg version="1.1" id="Слой_1" xmlns="http://www.w3.org/2000/svg" xmlns:xlink="http://www.w3.org/1999/xlink" x="0px" y="0px"
	 viewBox="0 0 2080 2080" style="enable-background:new 0 0 2080 2080;" xml:space="preserve">
<style type="text/css">
	.st0{fill:#FFFFFF;}
	.st1{fill:#C8C6E5;}
	.st2{fill:#FDAC40;}
	.st3{fill:#EBCAA0;}
	.st4{fill:none;stroke:#FDAC40;stroke-width:4;stroke-linecap:round;stroke-miterlimit:10;}
	.st5{fill:none;stroke:#826DFD;stroke-width:4;stroke-linecap:round;stroke-linejoin:round;stroke-miterlimit:10;}
	.st6{fill:#826DFD;}
	.st7{fill:none;stroke:#000000;stroke-width:6;stroke-linecap:round;stroke-miterlimit:10;}
	.st8{fill:none;stroke:#000000;stroke-width:3;stroke-linecap:round;stroke-miterlimit:10;}
	.st9{fill:none;stroke:#000000;stroke-width:4;stroke-linecap:round;stroke-linejoin:round;stroke-miterlimit:10;}
	.st10{fill:none;stroke:#000000;stroke-width:6;stroke-linecap:round;stroke-linejoin:round;stroke-miterlimit:10;}
	.st11{fill:none;stroke:#000000;stroke-width:3;stroke-miterlimit:10;}
	.st12{fill:none;stroke:#000000;stroke-width:7;stroke-linecap:round;stroke-miterlimit:10;}
	.st13{fill:none;stroke:#000000;stroke-width:3;stroke-linecap:round;stroke-linejoin:round;stroke-miterlimit:10;}
	.st14{fill:none;stroke:#000000;stroke-width:5;stroke-miterlimit:10;}
	.st15{fill:none;stroke:#000000;stroke-width:2;stroke-linecap:round;stroke-linejoin:round;stroke-miterlimit:10;}
	.st16{fill:none;stroke:#000000;stroke-width:8;stroke-linecap:round;stroke-linejoin:round;stroke-miterlimit:10;}
	.st17{fill:none;stroke:#000000;stroke-width:3;stroke-linejoin:round;stroke-miterlimit:10;}
	.st18{fill:none;stroke:#000000;stroke-width:5;stroke-linecap:round;stroke-linejoin:round;stroke-miterlimit:10;}
	.st19{fill:none;stroke:#000000;stroke-width:2;stroke-miterlimit:10;}
	.st20{fill:none;stroke:#000000;stroke-width:2;stroke-linecap:round;stroke-miterlimit:10;}
	.st21{stroke:#000000;stroke-width:5;stroke-linecap:round;stroke-linejoin:round;stroke-miterlimit:10;}
	.st22{stroke:#000000;stroke-width:3;stroke-linecap:round;stroke-linejoin:round;stroke-miterlimit:10;}
	.st23{fill:none;stroke:#8378BF;stroke-width:5;stroke-linecap:round;stroke-linejoin:round;stroke-miterlimit:10;}
	.st24{fill:none;stroke:#826DFD;stroke-width:3;stroke-linecap:round;stroke-linejoin:round;stroke-miterlimit:10;}
	.st25{fill:none;stroke:#FDAC40;stroke-width:3;stroke-linecap:round;stroke-linejoin:round;stroke-miterlimit:10;}
	.st26{fill:none;stroke:#FDAC40;stroke-width:7;stroke-miterlimit:10;}
	.st27{fill:none;stroke:#000000;stroke-width:11;stroke-linecap:round;stroke-linejoin:round;stroke-miterlimit:10;}
	.st28{fill:none;stroke:#333333;stroke-width:5;stroke-linecap:round;stroke-miterlimit:10;stroke-dasharray:20;}
	.st29{fill:#FADC8C;}
	.st30{fill:none;stroke:#333333;stroke-width:5;stroke-linecap:round;stroke-miterlimit:10;stroke-dasharray:44.5321,44.5321;}
	.st31{fill:#333333;}
	.st32{fill:#F29F76;}
	.st33{fill:#7BD9E5;}
	.st34{fill:none;}
	.st35{fill:#65C8D0;}
	.st36{fill:#7BD9E5;stroke:#7BD9E5;stroke-miterlimit:10;}
	.st37{fill:none;stroke:#333333;stroke-linecap:round;stroke-linejoin:round;stroke-miterlimit:10;}
	.st38{fill:#7BD9E5;stroke:#333333;stroke-miterlimit:10;}
	.st39{fill:#8FACCC;}
	.st40{fill:#F9E958;}
	.st41{fill:#231F20;}
	.st42{fill:none;stroke:#333333;stroke-width:3;stroke-linecap:round;stroke-miterlimit:10;}
	.st43{clip-path:url(#SVGID_2_);}
	.st44{clip-path:url(#SVGID_4_);}
	.st45{clip-path:url(#SVGID_6_);}
	.st46{clip-path:url(#SVGID_8_);}
	.st47{clip-path:url(#SVGID_10_);}
	.st48{clip-path:url(#SVGID_12_);}
	.st49{clip-path:url(#SVGID_14_);}
	.st50{clip-path:url(#SVGID_16_);}
	.st51{clip-path:url(#SVGID_18_);}
	.st52{clip-path:url(#SVGID_20_);}
	.st53{clip-path:url(#SVGID_22_);}
	.st54{clip-path:url(#SVGID_24_);}
	.st55{clip-path:url(#SVGID_26_);}
	.st56{clip-path:url(#SVGID_28_);}
	.st57{fill:#FF7300;}
	.st58{clip-path:url(#SVGID_30_);}
	.st59{fill:#020100;}
	.st60{fill:#FF6D00;}
	.st61{clip-path:url(#SVGID_32_);}
	.st62{clip-path:url(#SVGID_34_);fill:none;stroke:#2C1017;stroke-width:3.4838;stroke-miterlimit:10;}
	.st63{clip-path:url(#SVGID_36_);fill:none;stroke:#2C1017;stroke-width:3.4838;stroke-miterlimit:10;}
	.st64{clip-path:url(#SVGID_38_);fill:none;stroke:#2C1017;stroke-width:3.4838;stroke-miterlimit:10;}
	.st65{clip-path:url(#SVGID_40_);fill:none;stroke:#2C1017;stroke-width:3.4838;stroke-miterlimit:10;}
	.st66{clip-path:url(#SVGID_32_);fill:none;stroke:#231F20;stroke-width:2.6129;stroke-miterlimit:10;}
	.st67{clip-path:url(#SVGID_42_);fill:none;stroke:#231F20;stroke-width:0.871;stroke-miterlimit:10;}
	.st68{clip-path:url(#SVGID_44_);fill:none;stroke:#231F20;stroke-width:0.871;stroke-miterlimit:10;}
	.st69{clip-path:url(#SVGID_46_);fill:#231F20;}
	.st70{clip-path:url(#SVGID_46_);fill:none;stroke:#231F20;stroke-width:2.6129;stroke-miterlimit:10;}
	.st71{clip-path:url(#SVGID_46_);fill:#FFFFFF;}
	.st72{clip-path:url(#SVGID_46_);fill:none;stroke:#231F20;stroke-width:1.7419;stroke-miterlimit:10;}
	.st73{clip-path:url(#SVGID_48_);fill:#231F20;}
	.st74{clip-path:url(#SVGID_48_);fill:#FFFFFF;}
	.st75{fill:none;stroke:#000000;stroke-width:1.5;stroke-miterlimit:10;}
	.st76{fill:none;stroke:#000000;stroke-miterlimit:10;}
	.st77{fill:none;stroke:#000000;stroke-width:0.75;stroke-miterlimit:10;}
	.st78{stroke:#000000;stroke-miterlimit:10;}
	.st79{clip-path:url(#SVGID_49_);}
	.st80{clip-path:url(#SVGID_50_);}
	.st81{clip-path:url(#SVGID_51_);}
	.st82{clip-path:url(#SVGID_52_);}
	.st83{fill:none;stroke:#000000;stroke-width:0.25;stroke-miterlimit:10;}
	.st84{clip-path:url(#SVGID_53_);}
	.st85{fill:none;stroke:#000000;stroke-width:0.5;stroke-miterlimit:10;}
	.st86{clip-path:url(#SVGID_54_);}
	.st87{clip-path:url(#SVGID_55_);}
	.st88{clip-path:url(#SVGID_56_);}
	.st89{clip-path:url(#SVGID_57_);}
	.st90{clip-path:url(#SVGID_58_);}
	.st91{clip-path:url(#SVGID_59_);}
	.st92{clip-path:url(#SVGID_60_);}
	.st93{clip-path:url(#SVGID_61_);}
	.st94{clip-path:url(#SVGID_62_);}
	.st95{clip-path:url(#SVGID_63_);}
	.st96{clip-path:url(#SVGID_64_);}
	.st97{clip-path:url(#SVGID_65_);}
	.st98{stroke:#000000;stroke-width:0.75;stroke-miterlimit:10;}
	.st99{clip-path:url(#SVGID_67_);}
	.st100{clip-path:url(#SVGID_69_);}
	.st101{fill:none;stroke:#000000;stroke-width:6;stroke-miterlimit:10;}
	.st102{clip-path:url(#SVGID_71_);}
	.st103{clip-path:url(#SVGID_73_);}
	.st104{stroke:#000000;stroke-width:0.5;stroke-miterlimit:10;}
	.st105{clip-path:url(#SVGID_75_);}
	.st106{clip-path:url(#SVGID_77_);}
	.st107{stroke:#000000;stroke-width:0.25;stroke-miterlimit:10;}
	.st108{clip-path:url(#SVGID_79_);}
	.st109{clip-path:url(#SVGID_80_);}
	.st110{clip-path:url(#SVGID_81_);}
	.st111{clip-path:url(#SVGID_82_);}
	.st112{clip-path:url(#SVGID_83_);}
	.st113{clip-path:url(#SVGID_84_);}
	.st114{clip-path:url(#SVGID_86_);}
	.st115{stroke:#000000;stroke-linecap:round;stroke-linejoin:round;stroke-miterlimit:10;}
	.st116{clip-path:url(#SVGID_88_);}
	.st117{fill:none;stroke:#000000;stroke-width:0.25;stroke-linecap:round;stroke-linejoin:round;stroke-miterlimit:10;}
	.st118{stroke:#000000;stroke-width:0.25;stroke-linecap:round;stroke-linejoin:round;stroke-miterlimit:10;}
	.st119{clip-path:url(#SVGID_90_);}
	.st120{clip-path:url(#SVGID_92_);}
	.st121{clip-path:url(#SVGID_94_);}
	.st122{clip-path:url(#SVGID_96_);}
	.st123{fill:#F3E0B5;}
	.st124{clip-path:url(#SVGID_98_);}
	.st125{fill:#F7E7C5;}
	.st126{fill:none;stroke:#FFFFFF;stroke-width:3;stroke-miterlimit:10;}
	.st127{clip-path:url(#SVGID_100_);}
	.st128{fill:none;stroke:#FFFFFF;stroke-width:2;stroke-miterlimit:10;}
	.st129{fill:none;stroke:#FFFFFF;stroke-width:30;stroke-miterlimit:10;}
	.st130{fill:#FFFFFF;stroke:#FFFFFF;stroke-miterlimit:10;}
	.st131{stroke:#FFFFFF;stroke-miterlimit:10;}
	.st132{clip-path:url(#SVGID_102_);}
	.st133{fill:none;stroke:#FFFFFF;stroke-width:7;stroke-miterlimit:10;}
	.st134{fill:none;stroke:#FFFFFF;stroke-width:19;stroke-miterlimit:10;}
	.st135{fill:none;stroke:#FFFFFF;stroke-width:11;stroke-miterlimit:10;}
	.st136{fill:#FFFFFF;stroke:#FFFFFF;stroke-width:7;stroke-linecap:round;stroke-linejoin:round;stroke-miterlimit:10;}
	.st137{fill:none;stroke:#FFFFFF;stroke-width:0.5;stroke-miterlimit:10;}
	.st138{clip-path:url(#SVGID_104_);}
	.st139{fill:none;stroke:#FFFFFF;stroke-width:8;stroke-miterlimit:10;}
	.st140{fill:none;stroke:#FFFFFF;stroke-width:10;stroke-linejoin:bevel;stroke-miterlimit:10;}
	.st141{clip-path:url(#SVGID_106_);}
	.st142{clip-path:url(#SVGID_108_);}
	.st143{clip-path:url(#SVGID_110_);}
	.st144{clip-path:url(#SVGID_112_);}
	.st145{stroke:#000000;stroke-width:2;stroke-miterlimit:10;}
	.st146{fill:none;stroke:#000000;stroke-width:45;stroke-miterlimit:10;}
	.st147{stroke:#FFFFFF;stroke-width:4;stroke-miterlimit:10;}
	.st148{fill:none;stroke:#FFFFFF;stroke-width:4;stroke-miterlimit:10;}
	.st149{fill:#FFFFFF;stroke:#FFFFFF;stroke-width:4;stroke-miterlimit:10;}
	.st150{clip-path:url(#SVGID_114_);}
	.st151{opacity:0.51;fill:#339999;stroke:#000000;stroke-width:2;stroke-miterlimit:10;}
	.st152{opacity:0.18;fill:#FFCCFF;stroke:#000000;stroke-width:2;stroke-miterlimit:10;}
	.st153{opacity:4.000000e-02;fill:#FFCCFF;stroke:#000000;stroke-width:2;stroke-miterlimit:10;}
	.st154{opacity:0.18;fill:#003333;stroke:#000000;stroke-width:2;stroke-miterlimit:10;}
	.st155{opacity:0.46;fill:#99FFFF;stroke:#000000;stroke-width:2;stroke-miterlimit:10;}
	.st156{opacity:0.18;fill:#CC99FF;stroke:#000000;stroke-width:2;stroke-miterlimit:10;}
	.st157{opacity:0.47;fill:#FFCCFF;stroke:#000000;stroke-width:2;stroke-miterlimit:10;}
	.st158{opacity:0.11;fill:#333399;stroke:#000000;stroke-width:2;stroke-miterlimit:10;}
	.st159{opacity:0.11;fill:#99FFFF;stroke:#000000;stroke-width:2;stroke-miterlimit:10;}
	.st160{opacity:0.18;fill:#9999FF;stroke:#000000;stroke-width:2;stroke-miterlimit:10;}
	.st161{opacity:0.18;fill:none;stroke:#000000;stroke-width:2;stroke-miterlimit:10;}
	.st162{opacity:0.68;fill:#FFFFFF;}
	.st163{opacity:0.18;fill:#6666FF;stroke:#000000;stroke-width:2;stroke-miterlimit:10;}
	.st164{fill:#FFFFFF;stroke:#000000;stroke-width:2;stroke-miterlimit:10;}
	.st165{fill:none;stroke:#000000;stroke-width:0.5;stroke-linecap:round;stroke-linejoin:round;}
	.st166{opacity:0.36;fill:#FFFFFF;stroke:#000000;stroke-width:0.5;stroke-linecap:round;stroke-linejoin:round;}
	.st167{opacity:0.37;fill:#CCFFFF;stroke:#000000;stroke-width:0.5;stroke-linecap:round;stroke-linejoin:round;}
	.st168{opacity:0.69;fill:#E6FFFE;stroke:#000000;stroke-width:0.5;stroke-linecap:round;stroke-linejoin:round;}
	.st169{opacity:0.8;fill:#FFFFFF;stroke:#000000;stroke-width:0.5;stroke-linecap:round;stroke-linejoin:round;}
	.st170{opacity:0.43;fill:#CCFFFF;stroke:#000000;stroke-width:0.5;stroke-linecap:round;stroke-linejoin:round;}
	.st171{opacity:0.82;fill:#FFFFFF;stroke:#000000;stroke-width:0.5;stroke-linecap:round;stroke-linejoin:round;}
	.st172{opacity:0.76;fill:#FFFFFF;stroke:#000000;stroke-width:0.5;stroke-linecap:round;stroke-linejoin:round;}
	.st173{opacity:0.47;fill:#6633CC;stroke:#000000;stroke-width:0.5;stroke-linecap:round;stroke-linejoin:round;}
	.st174{opacity:0.51;fill:#CCFFFF;stroke:#000000;stroke-width:0.5;stroke-linecap:round;stroke-linejoin:round;}
	.st175{opacity:0.4;fill:#000033;stroke:#000000;stroke-width:0.5;stroke-linecap:round;stroke-linejoin:round;}
	.st176{opacity:0.43;fill:#330033;stroke:#000000;stroke-width:0.5;stroke-linecap:round;stroke-linejoin:round;}
	.st177{opacity:0.1;fill:#9966FF;stroke:#000000;stroke-width:2;stroke-miterlimit:10;}
	.st178{opacity:0.23;fill:#330033;stroke:#000000;stroke-width:2;stroke-miterlimit:10;}
	.st179{opacity:0.18;}
	.st180{fill:#FFCCFF;}
	.st181{opacity:0.51;}
	.st182{fill:#339999;}
	.st183{opacity:4.000000e-02;}
	.st184{fill:#003333;}
	.st185{opacity:0.46;}
	.st186{fill:#99FFFF;}
	.st187{fill:#CC99FF;}
	.st188{opacity:0.47;}
	.st189{opacity:0.11;}
	.st190{fill:#333399;}
	.st191{fill:#9999FF;}
	.st192{opacity:0.18;fill:#FFFFFF;}
	.st193{opacity:0.62;}
	.st194{fill:#6666FF;}
	.st195{opacity:0.42;}
	.st196{fill:#9C62A0;}
	.st197{fill:none;stroke:#FFFFFF;stroke-width:0.5;stroke-linecap:round;stroke-linejoin:round;}
	.st198{opacity:0.36;}
	.st199{opacity:0.37;}
	.st200{fill:#CCFFFF;}
	.st201{fill:none;stroke:#FFFFFF;stroke-width:4;stroke-linecap:round;stroke-linejoin:round;}
	.st202{opacity:0.69;}
	.st203{fill:#E6FFFE;}
	.st204{opacity:0.8;}
	.st205{opacity:0.43;}
	.st206{opacity:0.82;}
	.st207{opacity:0.76;}
	.st208{fill:#6633CC;}
	.st209{opacity:0.4;}
	.st210{fill:#000033;}
	.st211{fill:#330033;}
	.st212{opacity:0.1;}
	.st213{fill:#9966FF;}
	.st214{opacity:0.72;}
	.st215{fill:#333366;}
	.st216{fill:#E3E825;stroke:#42210B;stroke-width:10;stroke-linejoin:round;stroke-miterlimit:10;}
	.st217{fill:#C69C6D;stroke:#42210B;stroke-width:10;stroke-linejoin:round;stroke-miterlimit:10;}
	.st218{fill:#42210B;stroke:#42210B;stroke-width:10;stroke-linejoin:round;stroke-miterlimit:10;}
	.st219{fill:#E53C70;stroke:#42210B;stroke-width:10;stroke-linejoin:round;stroke-miterlimit:10;}
	.st220{fill:#F27C08;stroke:#42210B;stroke-width:10;stroke-linejoin:round;stroke-miterlimit:10;}
	.st221{fill:#AA4913;}
	.st222{fill:#D68A63;}
	.st223{fill:#EAC598;}
	.st224{fill:#F26692;}
	.st225{fill:#EDAF77;}
	.st226{fill:#FBB03B;stroke:#7A5D3B;stroke-width:12;stroke-linecap:round;stroke-miterlimit:10;}
	.st227{fill:none;stroke:#42210B;stroke-width:10;stroke-linejoin:round;stroke-miterlimit:10;}
	.st228{fill:#087F2C;stroke:#42210B;stroke-width:10;stroke-linejoin:round;stroke-miterlimit:10;}
	.st229{fill:#98D14E;}
	.st230{fill:#80A574;stroke:#071103;stroke-width:14;stroke-linejoin:round;stroke-miterlimit:10;}
	.st231{fill:#EF2E2E;stroke:#071103;stroke-width:14;stroke-linejoin:round;stroke-miterlimit:10;}
	.st232{fill:#5D7554;stroke:#051101;stroke-width:14;stroke-linejoin:round;stroke-miterlimit:10;}
	.st233{fill:none;stroke:#6B996E;stroke-width:40;stroke-linecap:round;stroke-miterlimit:10;}
	.st234{fill:none;stroke:#203316;stroke-width:14;stroke-linejoin:round;stroke-miterlimit:10;}
	.st235{fill:none;stroke:#071103;stroke-width:14;stroke-linejoin:round;stroke-miterlimit:10;}
	.st236{fill:#42210B;}
	.st237{fill:#47683E;}
	.st238{fill:#5D7554;stroke:#071103;stroke-width:14;stroke-linejoin:round;stroke-miterlimit:10;}
	.st239{fill:#E3E825;stroke:#071103;stroke-width:14;stroke-linejoin:round;stroke-miterlimit:10;}
	.st240{fill:#F4F490;}
	.st241{fill:#E53C70;stroke:#071103;stroke-width:14;stroke-linejoin:round;stroke-miterlimit:10;}
	.st242{fill:#071103;stroke:#071103;stroke-width:14;stroke-linejoin:round;stroke-miterlimit:10;}
	.st243{fill:#E53C70;stroke:#EF95B1;stroke-width:14;stroke-linecap:round;stroke-linejoin:round;stroke-miterlimit:10;}
	.st244{fill:#E3E825;stroke:#071103;stroke-width:10;stroke-linejoin:round;stroke-miterlimit:10;}
	.st245{fill:#071103;}
	.st246{fill:#FFFF00;}
	.st247{fill:none;stroke:#752525;stroke-width:4;stroke-miterlimit:10;}
	.st248{fill:none;stroke:#AA3333;stroke-width:5;stroke-miterlimit:10;}
	.st249{fill:none;stroke:#ED1C24;stroke-width:3;stroke-miterlimit:10;}
	.st250{fill:#AA3333;}
	.st251{fill:#F94B4B;}
	.st252{fill:none;stroke:#AA3333;stroke-width:9;stroke-miterlimit:10;}
	.st253{fill:#FC7E7E;}
	.st254{fill:#FC7E7E;stroke:#FC7E7E;stroke-width:7;stroke-miterlimit:10;}
	.st255{fill:none;stroke:#FC7E7E;stroke-width:9;stroke-miterlimit:10;}
	.st256{fill:none;stroke:#FCFAFA;stroke-width:4;stroke-miterlimit:10;}
	.st257{fill:#681D1D;}
	.st258{fill:#BA4FB0;}
	.st259{fill:#A068A0;}
	.st260{fill:#E0A6E0;}
	.st261{fill:none;stroke:#540E56;stroke-width:4;stroke-miterlimit:10;}
	.st262{fill:#7A347A;}
	.st263{fill:#007F82;}
	.st264{fill:#04A8A8;}
	.st265{fill:none;stroke:#764977;stroke-width:3;stroke-miterlimit:10;}
	.st266{fill:#3ECCC5;}
	.st267{fill:none;stroke:#004242;stroke-width:3;stroke-miterlimit:10;}
	.st268{fill:none;stroke:#7C0C00;stroke-width:3;stroke-miterlimit:10;}
	.st269{fill:#004242;}
	.st270{fill:#510600;}
	.st271{fill:#FF866E;}
	.st272{fill:#D30B0B;}
	.st273{fill:none;stroke:#F200FF;stroke-width:3;stroke-miterlimit:10;}
	.st274{fill:none;stroke:#F200FF;stroke-miterlimit:10;}
	.st275{fill:none;stroke:#04070F;stroke-width:3;stroke-miterlimit:10;}
	.st276{fill:#005654;}
</style>
<rect x="-5354" y="-4187" class="st0" width="14249" height="14249"/>
<g>
	<path class="st1" d="M968.3,1089.8l-28.4-70.5l-0.1-5.3l3.9-6.4l12.5-9.3l27.8-14.9l28.6-7.6l14,0.7l8.3,2.2l4.1,9.3l7.6,18.1
		l6.3,15.9l8.9,24.6C1061.8,1046.6,980.8,1046.6,968.3,1089.8z"/>
	<path class="st2" d="M985.6,1029.6c-3.1,3.5-2.8,8.1-2.7,15.4c0.4,15.8-0.7,14.4,0.3,18c0.9,3.2,2.9,10.3,9.5,15.3
		c2,1.5,7.2,5.4,14.1,4.7c5.3-0.6,8.8-3.6,10.6-5.2c6.3-5.5,8-12.8,8.8-16.4c2.5-11-0.9-19.9-2.3-23.4c-2.2-5.6-4.9-12.3-11.8-15.5
		c-5.4-2.5-10.7-1.6-11.6-1.4c-4.4,0.8-7.7,3.2-11.5,5.8C987.2,1028.2,986.3,1028.8,985.6,1029.6z"/>
	<polygon class="st1" points="223.5,834.3 79.7,834.3 79.7,780.2 162.5,780.2 162.5,814.2 223.5,814.2 223.5,834.3 	"/>
	<rect x="1166.1" y="787.8" class="st1" width="153.7" height="32.9"/>
	<rect x="993.4" y="839.2" class="st1" width="61.2" height="23.7"/>
	<rect x="1009" y="849.9" class="st3" width="11" height="19.5"/>
	<polygon class="st3" points="1229.4,932.6 1230.2,951.2 1240.4,950.3 1240.4,932.6 	"/>
	<polygon class="st3" points="317.1,921.3 317.1,940.7 328.1,941.2 328.1,921.3 	"/>
	<polygon class="st3" points="198.2,829.6 198.2,849.5 209.1,848.8 209.1,829.6 	"/>
	<path class="st4" d="M226.5,1270.8c0,0-9-193.6,31.6-245.6"/>
	<path class="st5" d="M174.9,1270.8c0,0-26-39.6-57.6-48.5"/>
	<path class="st2" d="M989.8,1134.5c0,0,5.8-16.4,24.4-22.9c18.6-6.5,36.5-15.6,50.4-15.6s14.2,0,14.2,1.3s-4.8,11.9-20.9,19.5
		c-16.2,7.6-48.8,18.9-55.1,19.8C996.3,1137.4,989.8,1137.3,989.8,1134.5z"/>
	<polygon class="st2" points="1319.8,1468 1388.5,1616.7 1392.1,1620.7 1394.8,1620.7 1397.6,1611.3 1397.6,1603.8 1372.7,1552.1 
		1331,1463.1 1326.2,1455.9 1322.8,1453.8 1320.8,1457.3 1319.8,1464.6 	"/>
	<polygon class="st2" points="1392.4,1340.7 1402.7,1340.7 1411.6,1283.9 1517.8,1283.9 1516.6,1271.6 1404.6,1271.6 1402.4,1273.7 
			"/>
	<path class="st1" d="M1448.6,1353.4v2.9c0,2.4,2,4.4,4.4,4.4h45.5l-4.3,14.7c-0.8,2.7,1.3,5.3,4.1,5.2l6.5-0.3l7.2-27H1448.6z"/>
	<path class="st1" d="M1527.2,1461.3c0,0,1,8.4-2.1,11.4c-3.1,3.1-1.5,0-1.5,0s9.3-6.8,19.5,22.8l22.9,41.7l25.7,46.4l6.4,9.9
		l2.9,0.5l2.6,7.6v12.1v2.9l6.5-0.8l4.6-1.2c0,0,5.7-3.9,4.5-8.8s-5-17.6-7.9-20.5c-2.9-2.9-29.6-55.8-29.6-55.8l-27.3-51.2
		l-14-25.5l-2.9-3l-8.1-1.5h-9.5l2.5,3.9l4.3,4.8L1527.2,1461.3z"/>
	<rect x="310.9" y="829.6" class="st1" width="100.2" height="29.4"/>
	<polygon class="st1" points="547.1,787.8 547.1,801 611.5,802.9 611.5,787.8 	"/>
	<rect x="308.2" y="908.9" class="st3" width="138.4" height="20.3"/>
	<rect x="536.3" y="908.9" class="st3" width="75.2" height="41.7"/>
	<polygon class="st3" points="1060.2,941.2 1060.2,993.3 1099.4,993.3 1099.4,941.3 	"/>
	<polygon class="st3" points="1178.4,967.3 1249.8,965.6 1249.8,918.5 1178.4,918.5 	"/>
	<polygon class="st1" points="1662.8,596.9 1657.3,666.4 1703.1,668.6 	"/>
	<polygon class="st2" points="1628.9,511.3 1630.4,567.2 1611.7,567.2 1611.7,510.4 	"/>
	<path class="st2" d="M730.3,1537l-22.4-66.8c0,0-48.7-15.7-58.2-39.1l-102.6-167.7l25.5,149.8l21.8,102.3c0,0,26.5,7.9,36.5,15.1
		c10,7.2,13.7,7.8,13.7,7.8L730.3,1537z"/>
	<polygon class="st1" points="883,1256 939.2,1470.2 945.9,1503.4 945.9,1524.1 944.3,1535.8 897,1536.1 880.4,1515.7 875.4,1475 
		862.3,1306.8 873.1,1285.2 871.8,1272.8 	"/>
	<path class="st2" d="M817.1,1152.3c0,0,36.6-28.1,42.8-41.5c0,0-39.9-27.2-60.8-40.9c-20.4-13.4-43.5-23-46.4-25.9
		c-2.9-2.9-22.8-18.9-25-18.9c-2.1,0-6.8,2.1-8.3,9.8s-11.6,21.3-11.6,21.3L817.1,1152.3z"/>
	<path class="st1" d="M829.4,1144.4c0,0,27.1-22.9,30.5-31.7l4.3-1.8l-1.1,5.6l-8.3,19.5l-10.5,24.4L829.4,1144.4z"/>
	<path class="st2" d="M937.6,814.8c0,0,22.9-39.4,6.4-46.2c-16.5-6.9-74.1-6.6-79.2-6.6c-5,0-69.8-7.1-79.5-2.1
		c-9.7,5-31.8,13.7-23.3,29.3l-14.1,0.9c0,0-1-11.3,1.3-15.9c2.3-4.6,8.1-14.3,18-18.4c9.9-4.1,26-10.2,44.5-10.2
		c18.5,0,47.8,2.2,49.4,2.2s37.1-1.2,53.4,1.3c16.2,2.4,33,4.3,39.4,10.7c6.4,6.4,11.4,16.7,10,28.1c-1.5,11.4-10.5,20-10.5,20
		L937.6,814.8z"/>
	<path class="st2" d="M776.1,874.6c0,0-12.7-8.1-20-0.8s-10.8,14.9-7.6,30.8c3.2,15.9,6.9,22.3,9.6,25.1
		c2.7,2.7,10.5,12.1,13.5,12.1s8.5,1,8.5,2.7s-3.5,4.1-3.5,4.1h-4.3l-5-1.9l-4.4-2.6l-9.4-10.4l-9-24.1l-2.1-17l1.7-16.5l7-7
		l10.1-3.7h6.7L776.1,874.6z"/>
	<path class="st2" d="M927.2,989.9c0,0,0,0.2-0.1,0.6c-0.6,2.3-2.8,10.1-6.6,10.1c0,0-26.8-11.9-29.7-19.7c0,0,19.7,6.7,28.2,6.7
		s9.9-1.6,9.9-1.6"/>
	<path class="st2" d="M871.3,888.3c0,0-0.9,2.6,2.6,2.6c3.5,0,20-9.3,27.1-8.5s18.8,3.1,20,4.2c1.2,1.2,8.5-2.2,6.7-5.6
		s-19.1-9.9-24.1-8.1s-22.2,9.3-26,10.8C873.8,885.1,871.3,888.3,871.3,888.3z"/>
	<polygon class="st2" points="1078.1,1567.4 1095.6,1574.8 1111.6,1574.8 1101.1,1568.1 	"/>
	<rect x="1042.8" y="1595.1" class="st2" width="259.4" height="8.7"/>
	<polygon class="st6" points="1219.2,1573.4 1230.4,1573.4 1221.8,1567.1 1190.9,1566.8 	"/>
	<polygon class="st6" points="1044.7,1610.2 1042.8,1603.8 1235.9,1603.2 1223.1,1610.2 	"/>
	<path class="st6" d="M882,1589.3c0,0,26.2-5.4,33-3.5c6.8,1.9,17.1,6.5,19.2,11.9c2.1,5.4,3.2,6.9,2.2,9c-1,2.1-8.3,2.8-8.3,2.8
		l-4.9-1.3c0,0-4.8-11-19.1-14.8C889.8,1589.7,882,1589.3,882,1589.3z"/>
	<polygon class="st2" points="917.1,1585.8 938.1,1585.8 947.7,1592.2 950.2,1597.4 949.6,1602.2 944.3,1606.4 934.5,1609.5 
		936.4,1604.6 935.3,1599.4 930,1592.5 923.2,1588.3 	"/>
	<ellipse class="st1" cx="209.8" cy="1289.3" rx="66.2" ry="10.1"/>
	<path class="st2" d="M1040.5,1300.3c0,0,13.3,19.2,73.9,17.4l2.8-24.1l6.2-20.9v-10.5l-3.7,5l-13.7,3.6l-32.6,0.2l-12-5.3l-8.2-10
		L1040.5,1300.3z"/>
	<path class="st2" d="M800.4,1203.3c0,0,51.1,47.3,56.4,52.7s11.4,12.8,11.4,12.8l3.6,4l29.9-46.3l3.5-7.1v-6.9l-7.4-10.3
		l-13.6-14.6l-25.4-18.6l-17.6-10.4l-6.2-1.6l-9.4,10.3L810,1189L800.4,1203.3z"/>
	<path class="st2" d="M1968,789.9c0,0,14.1,13.5,1.7,35.5l6.6-3l5.4-13.1l-4.9-16.1L1968,789.9z"/>
	<path class="st1" d="M1962.9,935.7c0,0,14.1,13.5,1.7,35.5l6.6-3l5.4-13.1l-4.9-16.1L1962.9,935.7z"/>
	<polygon class="st1" points="1972,1544.5 1972,1570.5 1981.7,1572.7 1981.7,1545.8 	"/>
	<polygon class="st2" points="1913.6,1511.3 1912.2,1525.6 1912.8,1542.1 1915.7,1553.3 1919.3,1556.7 1921.4,1555.5 1925.7,1542.2 
		1926.4,1523.8 1923.5,1509.7 1919.3,1504.2 1916.2,1507.2 	"/>
	<polygon class="st1" points="2031.4,1232.7 1967,1246 1975.7,1251.9 1985.5,1256.4 1992.8,1258.4 2032.7,1250 	"/>
	<polygon class="st2" points="1901,1246.6 1937.3,1257.6 1963.9,1251.9 1963.9,1246.6 1999.9,1237.8 1998.3,1227.7 1987.3,1230.5 	
		"/>
	<g>
		<g>
			<path class="st2" d="M688,1584.8c0,0,0.2,1.6,0.2,1.8c0,0.8-0.2,1.5-0.5,2.2c-0.6,1.3-1.5,2.3-2.6,3.1c-1.5,1.2,0.6,3.3,2.1,2.1
				c1.9-1.5,3.3-3.5,3.8-5.9c0.3-1.7,0.2-5.1-1.6-6C687.8,1581.4,686.3,1584,688,1584.8L688,1584.8z"/>
		</g>
	</g>
	<g>
		<g>
			<path class="st2" d="M707.2,1580.5c0.4,2,0.9,4.9-0.5,6.6c-1.2,1.5,0.9,3.6,2.1,2.1c2.2-2.7,1.9-6.3,1.2-9.5
				C709.7,1577.8,706.8,1578.6,707.2,1580.5L707.2,1580.5z"/>
		</g>
	</g>
	<g>
		<g>
			<path class="st2" d="M669.4,1580.4c-0.6,2.3-1,6-3.4,7.1c-1.8,0.8-0.2,3.3,1.5,2.6c3.3-1.4,4-5.8,4.8-8.9
				C672.7,1579.4,669.8,1578.6,669.4,1580.4L669.4,1580.4z"/>
		</g>
	</g>
	<g>
		<g>
			<path class="st2" d="M656.1,1564.6c-6,0.9-10.8,6.3-7.3,12.2c2.2,3.7,9.4,6.8,11.1,1c1.3-4.4,3.3-12.7-4.1-12.1
				c-5.1,0.4-9.1,5.9-6.4,10.6c1,1.7,3.6,0.2,2.6-1.5c-1.6-2.8,1.1-5.9,4-6.1c3.7-0.3,1.9,5.7,1.1,7.8c-1.3,3.4-5,0.2-6-1.9
				c-1.9-4.1,2.4-6.6,5.8-7.2C658.8,1567.2,658,1564.3,656.1,1564.6L656.1,1564.6z"/>
		</g>
	</g>
	<g>
		<g>
			<path class="st2" d="M677.9,1570.8c1.1,0.3,2.3,0.1,3.2-0.5c0.7-0.5,1-1.3,0.5-2.1c-0.4-0.7-1.4-1-2.1-0.5
				c-0.1,0.1-0.3,0.2-0.4,0.2c0.2-0.1-0.1,0-0.2,0c-0.2,0,0.3,0-0.1,0c-0.3,0,0.1,0-0.2,0c-0.8-0.2-1.7,0.3-1.8,1
				C676.6,1569.8,677,1570.6,677.9,1570.8L677.9,1570.8z"/>
		</g>
	</g>
	<g>
		<g>
			<path class="st2" d="M685.6,1571.6c0.9,0.1,1.8,0.1,2.7,0.2c0.8,0.1,1.5-0.7,1.5-1.5c0-0.9-0.7-1.4-1.5-1.5
				c-0.9-0.1-1.8-0.1-2.7-0.2c-0.8-0.1-1.5,0.7-1.5,1.5C684.1,1571,684.8,1571.5,685.6,1571.6L685.6,1571.6z"/>
		</g>
	</g>
	<g>
		<path class="st1" d="M694.1,1570.3c0.9,0,1.7,0,2.6,0c0.4,0,0.8,0,1-0.4"/>
	</g>
	<g>
		<g>
			<path class="st6" d="M694.7,1585.3c0.3,2-0.3,4.1-1.7,5.7c-1.2,1.5,0.9,3.6,2.1,2.1c2.1-2.5,2.9-5.4,2.4-8.6
				C697.3,1582.6,694.4,1583.4,694.7,1585.3L694.7,1585.3z"/>
		</g>
	</g>
	<g>
		<g>
			<path class="st6" d="M701.2,1583c0,1.1,0,2.2-0.2,3.2c-0.1,0.6-0.2,2.1-0.8,2.4c-1.7,0.9-0.2,3.5,1.5,2.6
				c2.5-1.4,2.5-5.8,2.5-8.2C704.2,1581,701.2,1581,701.2,1583L701.2,1583z"/>
		</g>
	</g>
	<g>
		<g>
			<path class="st6" d="M713.6,1578.1c-0.2,1.7-0.3,3.4-0.2,5c0.1,1.9,3.1,1.9,3,0c-0.1-1.7,0-3.4,0.2-5c0.1-0.8-0.8-1.5-1.5-1.5
				C714.2,1576.5,713.7,1577.3,713.6,1578.1L713.6,1578.1z"/>
		</g>
	</g>
	<g>
		<g>
			<path class="st6" d="M707.6,1568.1c2.8,0.7,5.8,1.3,8.5,2.3c3.8,1.3,6,5.2,3.1,8.6c-1.2,1.5,0.9,3.6,2.1,2.1
				c2.6-3.1,3.1-7.4,0.4-10.7c-3-3.7-9.1-4.2-13.3-5.3C706.5,1564.7,705.7,1567.6,707.6,1568.1L707.6,1568.1z"/>
		</g>
	</g>
	<path class="st2" d="M662.1,713.4v-9.2c0,0,6.9,3.3,10.1,10.8c3.2,7.6,6.4,19.7,6.4,29.3s0,54.9,0,54.9l-6.4-7.2V783v-32.5
		l-0.8-13.5l-3.6-15.9L662.1,713.4z"/>
	<path class="st2" d="M659.4,675.4l4,12.4l19.2,0.9v14.6c0,0,3.3,10.1,5.1,10.1s3.1,0,3.1,0v-21.2v-16.8H659.4z"/>
	<path class="st2" d="M487.9,1283.4c0,0-12.1-2-15.1-4.2c-2.9-2.2-10.7-9.9-11.9-15.9c-1.2-6-14.1-86.8-14.1-91.5s-2-15.1,1.8-19.3
		c3.8-4.2,6.1-7.9,9.1-8.1c3-0.2,9.8,17.9,11.7,26.4c1.8,8.5,11.1,63.4,12.8,74.9S487.9,1283.4,487.9,1283.4z"/>
	<g>
		<g>
			<path class="st2" d="M474.3,1517.1C474.3,1517.1,474.3,1517.2,474.3,1517.1c0.1,0.1,0.2,0.2,0.2,0.3c0.1,0.1,0.2,0.3,0.3,0.4
				c0.2,0.3,0.5,0.5,0.7,0.8c0.6,0.5,1.2,0.9,2,1.2c0.4,0.2,0.8,0.3,1.2,0.5c0.4,0.1,0.9,0.3,1.3,0.3c0.5,0.1,0.9,0.2,1.4,0.3
				l1.4,0.2l12.6,1.5l12.6,1.4l6.3,0.6l1.5,0.1c0.3,0,0.5,0,0.7,0l0.3,0c0.1,0,0.1,0,0.2,0c0.9-0.1,1.9-0.3,3-0.4
				c8.3-1.4,16.7-2.9,25.2-3.8c4.3-0.5,8.5-0.9,13-0.8c1.1,0,2.2,0.1,3.4,0.2c1.1,0.1,2.2,0.2,3.2,0.4c2.1,0.3,4.2,0.6,6.3,1
				c8.4,1.4,16.8,3,25.1,4.7c8.3,1.8,16.6,3.8,24.8,6.2c4.1,1.2,8.2,2.5,12.2,3.9c4,1.5,8,3.1,11.9,5l22.4,12l-1.3,2.4l-22.6-11.5
				c-3.7-1.8-7.6-3.3-11.6-4.6c-4-1.3-8-2.5-12.1-3.6c-8.1-2.2-16.3-4.1-24.6-5.8c-8.3-1.7-16.6-3.2-24.9-4.4
				c-2.1-0.3-4.2-0.6-6.2-0.9c-1-0.1-2.1-0.3-3.1-0.3c-1-0.1-2-0.1-3-0.1c-4.1,0-8.2,0.4-12.4,0.9c-8.3,1-16.6,2.5-25,4
				c-1.1,0.2-2.1,0.4-3.3,0.5c-0.2,0-0.5,0-0.6,0l-0.5,0c-0.3,0-0.6,0-0.9,0l-1.6-0.1l-6.4-0.6l-12.7-1.3l-12.7-1.4
				c-2.3-0.3-4.6-0.8-6.8-2.1c-1.1-0.6-2.2-1.5-3-2.6c-0.4-0.6-0.8-1.2-1-1.8c-0.1-0.3-0.2-0.7-0.3-1c0-0.2-0.1-0.4-0.1-0.6
				c0-0.2,0-0.3,0-0.7L474.3,1517.1z"/>
		</g>
		<path class="st7" d="M846.8,806.9c0,0-29.5,18.2-29.5,84l-24.6,0"/>
		<path class="st8" d="M731.7,1026.7c6.6-6.6-9.5-84.6-13.5-97.1c-5.2-16-7.9-29.1-4.2-59.1c5-40.8,33.9-80.4,33.9-80.4
			s41.2-4.8,63.8,7.2"/>
		<path class="st9" d="M785.3,894.6c0,0-10-38.5-31.7-27s-6.8,60.8,3.6,71.2c10.4,10.4,7.6,5.3,11.4,9.1c3.3,3.3,10.8,2.5,12.9-7.5"
			/>
		<path class="st8" d="M946.1,877.4c0,0-11.7,9-11.7,26.4s21.5,55.8,7.8,55.8c-13.3,0-19.5-0.9-29-3"/>
		<path class="st10" d="M871.3,888.3c6.7-5.8,35.5-24.2,54.3-7.9"/>
		<path class="st8" d="M885.1,901.5c0,0,14.8,17.6,33.7-1.2"/>
		<path class="st11" d="M859.9,1110.9c0,0-65.4-43.9-86.7-54.3c-21.4-10.4-41.5-29.9-41.5-29.9s-8.2-5.5-11,4.6
			c-2.7,10.1-12.8,25-12.8,25s106.5,93.3,109.2,96.1C819.8,1155.1,864,1114.4,859.9,1110.9z"/>
		<path class="st11" d="M803.3,1205.2c-4.3-3.9-10.8-3.9-15,0c-23.8,21.5-96.8,87.5-106,96.7c-11,11-14.6,37.5-14.6,37.5"/>
		<path class="st12" d="M566.6,1295.4c14.6,14.6,80,174.8,141.3,174.8s165.7-173.9,165.7-188.5c0,0,0.4-16.2-16.7-25.7"/>
		<path class="st11" d="M707.9,1056.3c0,0-113.5,40.6-124.5,73.5c-11,32.9-47.6,124.5-32.9,139.1"/>
		<path class="st11" d="M657.6,1144.4c0,0,47.1,65,54.8,90.6"/>
		<path class="st11" d="M800.4,1203.3c0,0,30.6-46.5,35.6-46.5c5,0,49.9,28.4,59.9,43c10.1,14.6,9.2,11,9.2,18.3
			c0,7.3-33.3,54.7-33.3,54.7"/>
		<path class="st11" d="M961.2,1069.9c-7.6,4.3-16.3,9.9-16.3,12.6"/>
		<path class="st11" d="M970.8,1092.7c-5,3.7-9.6,7.8-9.6,10.7"/>
		<path class="st11" d="M981.1,1117.7c-8,8-18.1,15.1-18.1,15.1s-45,56.4-67,67"/>
		<path class="st11" d="M547.1,1263.5c0,0,26.4,172.7,47.3,252.2"/>
		<path class="st11" d="M913.2,1187.1c0,0,93,162.3,103.1,192.5"/>
		<path class="st13" d="M983.8,1441.8c0,0,34.3-62.2,40.7-85.1c6.4-22.9,29.3-103.4,29.3-103.4s2.7,31.1,65.8,14.7
			c0,0,3.2-3.9,3.2-12c0,0,4.6,15.2-5.5,36.7c0,0-3.2,20.1-3.2,31.1c0,9.9-19.1,143.5-49.5,197.3c-5.3,9.4-14.5,16-25,18.2
			c-9.3,2-21.7,4.4-33.3,5.7c-9.4,1.1-18.9-0.7-27.3-5.1l-33-17.6"/>
		<path class="st13" d="M1122.9,1256c0,0,17.1-33.8,13.9-40.7s-15.9-24.2-18.2-24.2s-52.7,3.2-50.4,11.8c2.3,8.6,4.5,9.1,10,9.1
			s19.1,0,20.9-1.8s3.6-3.6,3.6-3.6s14.3,20.2,22.6,17.9"/>
		<path class="st11" d="M1069.9,1199.7c0,0-10.9-4.1-10.9-8.6s8.2-12.1,12.7-13.3c4.5-1.2,35.1-9.7,39.1-8.5s28.2,18.8,28.2,21.8
			s2.9,15.6-1.7,23.2"/>
		<path class="st11" d="M1133.5,1183.5c3.5-3.5,2.9-13.4,0-16.3s-20.2-12.4-30.8-13.6c-8.3-0.9-30.3,9.4-39.5,13.9
			c-2.5,1.2-4.5,3.3-5.8,5.8c-2.8,5.7-5.9,10.2,4.2,12.2"/>
		<path class="st11" d="M1120.8,1159.2c0-2.5,0.4-7.1-6.8-14.3c-7.2-7.2-16.1-7.3-21.8-7.3c-5.8,0-34.1,18.2-34.1,18.2
			s-9.7,13.2,3,13.6"/>
		<path class="st13" d="M970.8,1092.7c7,16.5,13.3,31.1,16.6,38.5c1.3,2.9,2.2,4.7,2.4,4.9"/>
		<path class="st13" d="M1078.8,1097.4c0,19.2-90.7,48.7-89.2,37.7C994.9,1108.1,1075.1,1089.4,1078.8,1097.4
			c-10-39.3-38.8-108.3-43.9-118.6c-15.9-15.9-95.7,17.1-95.7,38.6c1.5,3.6,11.4,27.2,22,52.5c3.2,7.6,6.5,15.4,9.6,22.8"/>
		<path class="st13" d="M964.5,1131.7c3.7,0,15.3,7.1,22.9-0.5"/>
		<path class="st13" d="M923.3,1035c0,0,2-9.6,15.9-17.6"/>
		<path class="st11" d="M843.9,807.7c25.7-8.3,81.3-12,91.6,7.2s10.5,49.4,10.5,62.5"/>
		<g>
			<path d="M929.4,987.9c-1.8,0.4-3.4,0.7-5.1,0.9c-1.7,0.1-3.3,0.3-5,0.3c-3.3,0-6.7-0.3-9.9-0.9c-3.3-0.7-6.5-1.5-9.6-2.7
				c-1.6-0.6-3.1-1.3-4.6-2c-1.5-0.7-2.9-1.6-4.3-2.4c-0.7-0.4-0.9-1.2-0.6-1.9c0.4-0.6,1.1-0.9,1.8-0.6l0.1,0
				c2.9,1.3,5.7,2.6,8.7,3.5c3,1,6,1.7,9.1,2.1c3.1,0.5,6.2,0.7,9.3,0.7c1.5,0,3.1-0.1,4.6-0.2c1.5-0.1,3.1-0.3,4.5-0.6l0.1,0
				c1.1-0.2,2.1,0.4,2.4,1.5C931.1,986.6,930.4,987.7,929.4,987.9z"/>
		</g>
		<g>
			<path d="M931.7,966.1c-0.5,1.7-1,3.4-1.4,5c-0.2,0.8-0.3,1.6-0.3,2.2c0,0.6,0.2,1.1,0.7,1.9c0.4,0.7,1,1.7,1.3,2.8
				c0.3,1,0.3,2.1,0.2,3.2c-0.1,1-0.4,2-0.9,2.9c-0.4,0.9-0.9,1.7-1.7,2.5c-0.4,0.4-1,0.5-1.5,0.1c-0.4-0.4-0.5-1-0.2-1.4l0.1-0.1
				c0.9-1.3,1.5-2.9,1.6-4.4c0-0.7-0.1-1.5-0.3-2.2c-0.2-0.7-0.6-1.3-1.1-2.1c-0.2-0.4-0.5-0.8-0.8-1.4c-0.2-0.5-0.4-1.2-0.4-1.7
				c-0.1-1.2,0.1-2.2,0.2-3.1c0.4-1.9,1-3.6,1.6-5.3c0.3-0.8,1.1-1.2,1.9-0.9C931.5,964.5,931.9,965.3,931.7,966.1L931.7,966.1z"/>
		</g>
		<path class="st13" d="M820.1,1009.9c-5.4-5.4-23.7-34.7-23.7-34.7"/>
		<path class="st13" d="M927.2,990.5c0,2-1.3,8.4-6.7,10.1c0,0,1.1,28.1-8.3,37.4c-9.3,9.3-75-13.3-80.4-18.7"/>
		<path class="st13" d="M764.9,878c0,0-21.6-3.2-8.9,34.2s18.2,8.4,18.2,8.4"/>
		<path class="st11" d="M748,790.1c0,0-15.8-56.1,113.2-42.4c0,0,89.8-5.1,100.1,20.1c10.2,25.2-6.7,47.1-25.7,47.1"/>
		<ellipse transform="matrix(0.6597 -0.7515 0.7515 0.6597 -623.1466 1068.3701)" cx="868.2" cy="1222.3" rx="5.1" ry="3.8"/>
		<path class="st13" d="M856.2,1222.3c0,0,4.9-10.5,12-12"/>
		<path class="st11" d="M866.1,1031.9c0,0-1.4,9.1,0,13c1.4,4,0.5,10.6-1.2,14.3c-3.4,7.4-3,10.7-3,10.7"/>
		<path class="st11" d="M861.9,1068.7c0,0,0.9,37.6,2.3,42.2"/>
		<path class="st8" d="M725.2,963.3c0,0,12.9-19.7,17.4-29.6"/>
		<path class="st11" d="M1079.4,1143.4c0,0-8.6-27.7-11.9-31"/>
		<path class="st11" d="M1056,1118c0,0,0.3,29.1,7,35.7"/>
		<path class="st11" d="M1061.4,1265.9c0,0,9.4-23,9.4-26.2c0-3.2-8-42.2-8-42.2"/>
		<path class="st8" d="M1068.3,1225.3c0,0,3.7,19.1,14.4,22.1"/>
		<path class="st13" d="M1053.9,1253.3c0,0-2.7-3.4,13.3-2.2"/>
		<path class="st11" d="M951.4,1046.6c-8.4,4.7-21.1,11.7-21.1,15.8"/>
		<path class="st13" d="M829.4,1144.4l14.8,15.9c0,0,32.6-74.6,35.6-85.3c3.1-10.7,20.9-26.7,34.3-34.9c7.3-4.5,19.6-10.5,28.9-13.2
			"/>
		<path class="st14" d="M944.3,1535.8l2.4-18.1c0.6-4.8,0.3-9.7-0.8-14.3L883,1256"/>
		<path class="st11" d="M861.8,1300.3l15.9,203.6c0.8,10.1,5.4,19.5,12.9,26.4l6.4,5.8l47.4-0.3"/>
		<line class="st16" x1="308.3" y1="1645" x2="1833.2" y2="1645"/>
		<polyline class="st11" points="1322.8,1500.2 1193.6,1502.8 1230.1,1158.7 1703.6,1155.3 1656.6,1493.6 		"/>
		<path class="st11" d="M1331.8,1464.6c0,0-12-25.6-12,3.4l67.7,147c0,0,10.1,19,10.1-9.9L1331.8,1464.6z"/>
		<path class="st11" d="M1322.1,1454c0,0,10.3-3.8,18-2.7c0,0,8,5.1,8,13.1c0,0-9.7-3.9-5.5,6c4.2,9.8,54.9,117.7,54.9,117.7
			s10.7,9,18.9,10.2c8.2,1.1,4.1,21.3,2.8,22.4c-1.3,1.1-25.5,0.5-25.5,0.5"/>
		<path class="st17" d="M1518,1448c0,0,17.9-0.7,21.1,2.9c3.1,3.6,77.6,144.7,77.6,144.7s4.6,14.3,0,18.3
			c-6.6,2.9-13.9,2.8-13.9,2.8s4.8-23.9-6.6-25.5c-0.9-0.1-60.6-109.3-60.6-109.3s-1.7-7.2-10.5-9.2
			C1525.1,1472.7,1533.5,1458.8,1518,1448z"/>
		<line class="st18" x1="1371.8" y1="1450.7" x2="1486.7" y2="1448.6"/>
		<polyline class="st11" points="1525.1,1472.7 1345.4,1476.2 1347.9,1463.1 		"/>
		<line class="st14" x1="1418.7" y1="1599.2" x2="1602.8" y2="1595.2"/>
		<line class="st14" x1="1419.3" y1="1620.7" x2="1602.8" y2="1616.7"/>
		<polyline class="st13" points="1385.2,1610.2 1320.6,1587.6 1320.6,1566.8 1373.3,1584.7 		"/>
		<line class="st13" x1="1320.6" y1="1566.8" x2="1360" y2="1568"/>
		<polyline class="st13" points="1409.4,1568.1 1510.7,1568.6 1599.9,1594.1 		"/>
		<line class="st12" x1="1195.1" y1="1502.9" x2="1230.1" y2="1158.7"/>
		<line class="st12" x1="1569.9" y1="1493" x2="1655.5" y2="1491.3"/>
		<line class="st12" x1="1357.4" y1="1495.6" x2="1538.8" y2="1492"/>
		<line class="st12" x1="1195.1" y1="1502.9" x2="1322.1" y2="1500.1"/>
		<path class="st14" d="M536.3,1505.8c0,0-13.3-44.7-24.2-79.4c-5.8-18.4-15.2-82.4-24.1-143c-7.9-53.7-15.6-104.6-20.1-118.5
			c-9.6-29.5-10.6-21-19.2-12.4s12.4,110.8,12.4,110.8s5.4,20.1,26.9,20.1"/>
		<line class="st14" x1="457.8" y1="1144.4" x2="580.7" y2="1137.7"/>
		<path class="st11" d="M477.3,1534.3c0,0-5-7.8-5-13.7s1.9-15.1,32.9-15.1s97-4.1,165.2,51.7c5,5,3.2,11.4-13.7,4.6
			c-16.9-6.9-79.2-30.2-90.1-30.2c-11,0-5.5,5.9-6.9,7.3c-1.4,1.4-41.2,0.9-43.9,0.9C513,1539.8,479.6,1538.6,477.3,1534.3z"/>
		<path class="st19" d="M383.9,1555.4c-6.1-0.6-10.4-6.3-9.3-12.3c1.6-8.7,5.4-19.2,14.8-19.2c15.9,0,120.8,24.4,125.1,20.1
			c4.3-4.3,64.1-6.1,87.9,3.1c23.8,9.2,50.6,17.6,50.6,17.6s-8.7,10.3,0,16.5c0,0-80.5-25.1-142.2-13.1L383.9,1555.4z"/>
		<line class="st19" x1="385.8" y1="1523.9" x2="472.2" y2="1528.2"/>
		<line class="st9" x1="519.6" y1="1595.4" x2="502.4" y2="1568.4"/>
		<path class="st15" d="M397,1556.7c0,0,16.5,20.6,18.6,30c2.1,9.5,84.2,9.1,98.8,9.2c2.4,0,5.5,0,5.5,0"/>
		<polyline class="st15" points="520,1595.9 654.8,1589.2 653,1581.3 		"/>
		<path class="st9" d="M654.8,1580.9c1.8,1.1,7.6-0.1,7.6-8.5s-8.8-7.2-8.8-7.2s-5.8,3.7-4.4,10.1"/>
		<path class="st15" d="M655.7,1582.8c0,0,11.5,11.3,22.4,13.1s32.9-6.9,39.4-11.4c6.4-4.5,8.2-13.1-0.2-16.8
			c-8.5-3.7-42.6-4.6-42.6-4.6"/>
		<path class="st20" d="M666.1,1590.5c0,0,7.4-2.8,6.2-10.6"/>
		<path class="st20" d="M661.2,1587.9c0,0,7.4-2.8,6.2-10.6"/>
		<path class="st20" d="M680.4,1596.1c0,0,6.3-4.7,2.9-11.9"/>
		<path class="st20" d="M686.9,1595.2c0,0,6.3-4.7,2.9-11.9"/>
		<path class="st20" d="M699.7,1592.3c0,0,6.3-4.7,2.9-11.9"/>
		<path class="st20" d="M673.8,1594.5c0,0,6.3-4.7,2.9-11.9"/>
		<path class="st20" d="M693.4,1594.5c0,0,6.3-4.7,2.9-11.9"/>
		<path class="st20" d="M705.9,1590.2c0,0,6.3-4.7,2.9-11.9"/>
		<path class="st20" d="M711.6,1587.2c0,0,6.3-4.7,2.9-11.9"/>
		<path class="st15" d="M661.2,1567.8c0,0,5.7,4.4,5.7,6"/>
		<path class="st19" d="M677.1,1580.5c0,0,14.1-3.1,18.3-0.9"/>
		<path class="st20" d="M668.1,1570c5.3,1.4,37,1.9,37.8,2.7c2.7,2.6-6.2,4.6-6.2,4.6"/>
		<path class="st20" d="M678.5,1570.8c0,0,4.7-0.3,5-3"/>
		<path class="st20" d="M685.8,1571.5c0,0,4.7-0.3,5-3"/>
		<path class="st20" d="M695.3,1571.9c0,0,4.7-0.3,5-3"/>
		<polyline class="st11" points="2045,424.9 1853.5,469.7 1853.5,1645 2045,1645 		"/>
		<line class="st11" x1="1879.3" y1="881" x2="2029.4" y2="881"/>
		<line class="st11" x1="1882.9" y1="1174.6" x2="2014.7" y2="1197.6"/>
		<ellipse class="st11" cx="1964.8" cy="954.5" rx="11.9" ry="17.8"/>
		<path class="st13" d="M1979.4,944h7c0,0,10.2,8.7,0,18.9h-11"/>
		<path class="st8" d="M1958.6,949.8c0,0-1.4,5.9,1.5,8.8"/>
		<ellipse class="st11" cx="1969.8" cy="807.6" rx="11.9" ry="17.8"/>
		<path class="st13" d="M1988.1,797.1h3.2c0,0,10.2,8.7,0,18.9h-11"/>
		<path class="st8" d="M1963.5,802.9c0,0-1.4,5.9,1.5,8.8"/>
		<line class="st11" x1="1867.4" y1="1171.9" x2="1867.4" y2="1645"/>
		<polyline class="st13" points="2007.4,1645 1867.4,1594.1 1898.2,1590.6 2034.9,1641.3 		"/>
		<polyline class="st18" points="1898.2,1590.6 1898.2,1246.6 1937.3,1257.6 1937.3,1569.4 		"/>
		<polyline class="st10" points="1989.7,1625.4 1989.7,1281.4 2028.8,1292.4 2028.8,1639.9 		"/>
		<polyline class="st13" points="1950.6,1267 1963.9,1271.6 1962.5,1614.5 		"/>
		<polyline class="st10" points="1963.9,1281.4 1963.9,1246.6 1989.7,1258.4 1989.7,1382.4 		"/>
		<line class="st13" x1="1989.7" y1="1279.9" x2="2032.7" y2="1273.2"/>
		<line class="st13" x1="1989.7" y1="1258.4" x2="2032.7" y2="1250"/>
		<line class="st13" x1="1963.9" y1="1246.6" x2="2032.7" y2="1232.3"/>
		<polyline class="st13" points="1898.2,1246.6 1998.3,1227.7 1998.3,1194.7 		"/>
		<line class="st13" x1="1937.3" y1="1257.6" x2="1963.9" y2="1251.9"/>
		<line class="st13" x1="1998.3" y1="1227.7" x2="1998.3" y2="1237.8"/>
		<ellipse class="st13" cx="1919.3" cy="1530.7" rx="7.2" ry="26"/>
		<ellipse class="st21" cx="2004.5" cy="1562.4" rx="3.4" ry="10.4"/>
		<polygon class="st22" points="1954.1,1565.3 1944.4,1561.1 1944.4,1511.3 1954.1,1515.4 		"/>
		<polygon class="st13" points="1981.7,1572.7 1972,1570.5 1972,1544 1981.7,1546.2 		"/>
		<polyline class="st13" points="2034.9,523 1861.9,556 1861.9,476.4 2034.9,436.1 		"/>
		<line class="st13" x1="1983.1" y1="511.6" x2="1983.1" y2="533.4"/>
		<line class="st13" x1="1861.9" y1="476.4" x2="1966.8" y2="493.4"/>
		<line class="st13" x1="1993.4" y1="493.4" x2="2034.9" y2="482.8"/>
		<line class="st13" x1="1853.5" y1="575.2" x2="2034.9" y2="542.2"/>
		<line class="st13" x1="1588.8" y1="1543" x2="1833.2" y2="1645"/>
		<line class="st13" x1="1050.6" y1="1535.2" x2="1328.4" y2="1533.7"/>
		<line class="st13" x1="669.2" y1="1537.4" x2="971" y2="1535.7"/>
		<polyline class="st13" points="308.3,1645 98.4,1540.6 349.2,1539.2 		"/>
		<path class="st13" d="M169.8,1421.7c0,0-27.5-14.6-27.5-130c0,0,53.1,20.1,136.4,0c0,0-3.7,108-25.6,130
			C253.1,1421.7,219.2,1438.2,169.8,1421.7z"/>
		<path class="st18" d="M162.5,1280.8c0,0-32.5-103.9-90.6-162c-58.1-58.1-47.6-45.8-47.6-45.8"/>
		<path class="st13" d="M243,1280.8c0,0,13.7-65.9,49.4-85.1"/>
		<path class="st13" d="M218.3,1280.8c0,0-14.6-174.8,80.5-247.1"/>
		<path class="st23" d="M198.2,1276.2c0,0,30.4-274.9-64.3-387.9"/>
		<path class="st13" d="M181.4,1280.8c0,0,2.5-121.4-13.1-156.2"/>
		<path class="st13" d="M172.2,1276.2c0,0-45.8-106.5-29.9-221.2s13.3-103.1,13.3-103.1"/>
		<path class="st13" d="M234.8,1276.2c0,0,22-177.5-4.6-264.5s-26.5-86.9-26.5-86.9"/>
		<path class="st24" d="M258.1,1276.2c0,0,7.7-24.7,40.7-38"/>
		<line class="st13" x1="17.4" y1="1448" x2="386.4" y2="1440"/>
		<line class="st13" x1="17.4" y1="1481.9" x2="483.4" y2="1471.2"/>
		<polyline class="st13" points="79.7,469.7 79.7,1302.2 472.2,1302.2 		"/>
		<line class="st13" x1="628.9" y1="482.8" x2="626.1" y2="1092.9"/>
		<line class="st13" x1="725.6" y1="694.4" x2="725.9" y2="829.6"/>
		<line class="st13" x1="725.2" y1="469.7" x2="725.5" y2="608.1"/>
		<line class="st13" x1="803.3" y1="469.7" x2="803.3" y2="746.5"/>
		<polyline class="st13" points="652.1,629.2 652.1,834.2 672.2,834.2 		"/>
		<path class="st13" d="M662.1,713.4c0,0,10.1,3.9,10.1,39.2c0,35.4,0,39.5,0,39.5l6.4,8.9"/>
		<polyline class="st13" points="659.4,675.4 690,675.4 690,713.4 		"/>
		<path class="st13" d="M662.1,687.8h20.4l-0.3,16.5c10.5,10.5,10.1,41.3,10.1,41.3V801h-13.7c0,0,0-19,0-54.5s-16.5-42.2-16.5-42.2
			"/>
		<line class="st13" x1="670.4" y1="704.2" x2="682.3" y2="704.2"/>
		<line class="st13" x1="646.3" y1="629.2" x2="646.3" y2="820.8"/>
		<line class="st13" x1="611.5" y1="482.8" x2="611.5" y2="1100.5"/>
		<polyline class="st13" points="79.7,780.2 162.5,780.2 162.5,814.9 223.5,814.9 223.5,885.9 310.9,885.9 310.9,829.6 411.1,829.6 
			411.1,888.3 483.9,888.3 483.9,846.6 562.1,846.6 562.1,801 547.1,801 547.1,787.8 611.5,787.8 		"/>
		<polyline class="st13" points="308.2,987 308.2,908.9 446.6,908.9 446.6,1017.4 536.3,1017.4 536.3,908.9 611.5,908.9 		"/>
		<polyline class="st13" points="372.7,1124.6 372.7,1042.4 459.8,1042.4 459.8,1092.9 536.3,1092.9 536.3,1042.4 611.5,1042.4 		
			"/>
		<polyline class="st13" points="976,839.2 1054.6,839.2 1054.6,894.7 1166.1,894.7 1166.1,787.8 1308.8,787.8 		"/>
		<polyline class="st13" points="1002.7,941.3 1099.4,941.3 1099.4,993.5 1178.4,993.5 1178.4,918.5 1249.8,918.5 1249.8,1042.4 
			1319.8,1042.4 1319.8,460.8 		"/>
		<line class="st13" x1="1347.3" y1="833.3" x2="1347.3" y2="1156.8"/>
		<line class="st13" x1="1347.3" y1="469.7" x2="1347.3" y2="668.6"/>
		<line class="st13" x1="1319.8" y1="953.5" x2="1319.8" y2="1156.8"/>
		<line class="st13" x1="1447.3" y1="469.7" x2="1447.3" y2="1157.1"/>
		<polyline class="st13" points="1078.8,1088.8 1179.8,1088.8 1179.8,1202.3 1225,1202.3 1225,1127.9 1319.8,1127.9 		"/>
		<line class="st13" x1="972.9" y1="1293.7" x2="1042.4" y2="1293.7"/>
		<line class="st13" x1="1117.4" y1="1292.7" x2="1210.6" y2="1292.7"/>
		<rect x="496.5" y="858" class="st13" width="11" height="19.9"/>
		<rect x="198.2" y="829.6" class="st13" width="11" height="19.9"/>
		<rect x="93" y="787.8" class="st13" width="11" height="19.9"/>
		<rect x="317.1" y="921.3" class="st13" width="11" height="19.9"/>
		<rect x="425.1" y="921.3" class="st13" width="11" height="19.9"/>
		<rect x="434.6" y="1048.4" class="st13" width="11" height="19.9"/>
		<rect x="575.2" y="810.8" class="st13" width="11" height="19.9"/>
		<rect x="1185.6" y="810.8" class="st13" width="11" height="19.9"/>
		<rect x="1229.4" y="931.3" class="st13" width="11" height="19.9"/>
		<rect x="1204.5" y="931.3" class="st13" width="11" height="19.9"/>
		<rect x="1282" y="810.8" class="st13" width="11" height="19.9"/>
		<rect x="1250.9" y="1055.6" class="st13" width="11" height="19.9"/>
		<rect x="1271" y="1055.6" class="st13" width="11" height="19.9"/>
		<rect x="1077.2" y="954.5" class="st13" width="11" height="19.9"/>
		<rect x="1032.7" y="849.5" class="st13" width="11" height="19.9"/>
		<rect x="1009" y="849.5" class="st13" width="11" height="19.9"/>
		<rect x="383.9" y="839.5" class="st13" width="11" height="19.9"/>
		<rect x="383.9" y="867.9" class="st13" width="11" height="19.9"/>
		<polyline class="st13" points="1260.3,865.6 1260.3,884.5 1266.4,884.5 		"/>
		<polyline class="st13" points="1200.9,970.4 1200.9,989.3 1207,989.3 		"/>
		<polyline class="st13" points="1006,878.8 1006,897.7 1012.1,897.7 		"/>
		<polyline class="st13" points="1247.8,1099 1247.8,1118 1253.9,1118 		"/>
		<polyline class="st13" points="591.3,931.8 591.3,950.7 597.4,950.7 		"/>
		<polyline class="st13" points="339.5,921.8 339.5,940.7 345.6,940.7 		"/>
		<polyline class="st13" points="319.6,840 319.6,859 325.7,859 		"/>
		<polyline class="st13" points="472.5,1046.8 472.5,1065.7 478.6,1065.7 		"/>
		<polyline class="st13" points="519.3,857.8 519.3,876.7 525.4,876.7 		"/>
		<polyline class="st13" points="232.9,931.3 232.9,950.2 239,950.2 		"/>
		<line class="st13" x1="561.5" y1="858" x2="580.7" y2="858"/>
		<line class="st13" x1="556" y1="950.7" x2="575.2" y2="950.7"/>
		<line class="st13" x1="1126.2" y1="964.4" x2="1145.5" y2="964.4"/>
		<line class="st13" x1="1225.3" y1="989.3" x2="1244.6" y2="989.3"/>
		<line class="st13" x1="1250.7" y1="830.7" x2="1270" y2="830.7"/>
		<line class="st13" x1="1213.2" y1="810.8" x2="1226.8" y2="810.8"/>
		<line class="st13" x1="1215.7" y1="1113.9" x2="1234.9" y2="1113.9"/>
		<path class="st25" d="M69.1,1025.2c0,0,120.8,80.1,120.8,245.6"/>
		<path class="st18" d="M243.3,1256c0,0,12.5-88.7,49.1-136.3"/>
		<polygon class="st13" points="1552.7,1026.2 1782.1,1064.7 1782.1,482.8 1551.8,482.8 		"/>
		<polyline class="st13" points="1791.4,496 1791.4,1075.6 1579.1,1042.4 		"/>
		<g>
			<path d="M1632.7,537.5L1632.7,537.5c0.6-0.7,1.4-1.7,2-2.4l6.2-7.3h4.6l-8.2,8.7l9.3,12.5h-4.7l-7.3-10.1l-2,2.2v8h-3.8v-31h3.8
				V537.5z"/>
			<path d="M1651.5,539.1c0.1,5.2,3.4,7.3,7.3,7.3c2.8,0,4.4-0.5,5.9-1.1l0.7,2.8c-1.4,0.6-3.7,1.3-7,1.3c-6.5,0-10.4-4.3-10.4-10.7
				c0-6.4,3.8-11.4,9.9-11.4c6.9,0,8.7,6.1,8.7,10c0,0.8-0.1,1.4-0.1,1.8H1651.5z M1662.8,536.4c0-2.4-1-6.3-5.3-6.3
				c-3.9,0-5.6,3.6-5.9,6.3H1662.8z"/>
			<path d="M1673.4,539.1c0.1,5.2,3.4,7.3,7.3,7.3c2.8,0,4.4-0.5,5.9-1.1l0.7,2.8c-1.4,0.6-3.7,1.3-7,1.3c-6.5,0-10.4-4.3-10.4-10.7
				c0-6.4,3.8-11.4,9.9-11.4c6.9,0,8.7,6.1,8.7,10c0,0.8-0.1,1.4-0.1,1.8H1673.4z M1684.7,536.4c0-2.4-1-6.3-5.3-6.3
				c-3.9,0-5.6,3.6-5.9,6.3H1684.7z"/>
			<path d="M1693.2,534.7c0-2.7-0.1-4.9-0.2-6.9h3.5l0.2,3.6h0.1c1.6-2.6,4.1-4.1,7.5-4.1c5.1,0,9,4.3,9,10.8
				c0,7.6-4.6,11.4-9.6,11.4c-2.8,0-5.2-1.2-6.5-3.3h-0.1v11.5h-3.8V534.7z M1697,540.4c0,0.6,0.1,1.1,0.2,1.6
				c0.7,2.7,3,4.5,5.8,4.5c4.1,0,6.4-3.3,6.4-8.2c0-4.2-2.2-7.9-6.3-7.9c-2.6,0-5.1,1.9-5.8,4.8c-0.1,0.5-0.3,1-0.3,1.6V540.4z"/>
		</g>
		<g>
			<path d="M1592,1003.9c1.3,1.1,3.7,2.5,5.9,2.9c3.3,0.6,4.8-0.7,4.8-2.7c0-2.1-1.3-3.5-4.6-5.3c-4.4-2.4-6.5-5.2-6.5-8.1
				c0-3.9,3.2-6.5,8.5-5.5c2.5,0.5,4.7,1.6,6,2.7l-1.1,3c-1-0.8-2.7-1.9-5-2.4c-2.6-0.5-4.1,0.7-4.1,2.5c0,2,1.5,3.2,4.7,5
				c4.3,2.4,6.5,5,6.5,8.6c0,4.3-3.4,6.6-9.2,5.5c-2.7-0.5-5.2-1.7-6.9-3L1592,1003.9z"/>
			<path d="M1618.1,982.3l0,6.9l6.4,1.2l0,3.4l-6.4-1.2l0,13.1c0,3,0.9,4.9,3.4,5.3c1.2,0.2,2,0.2,2.6,0.2l0.2,3.3
				c-0.9,0.2-2.2,0.2-4-0.2c-2.1-0.4-3.8-1.4-4.8-2.8c-1.3-1.5-1.7-3.8-1.7-6.6l0-13.2l-3.8-0.7l0-3.4l3.8,0.7l0-5.8L1618.1,982.3z"
				/>
			<path d="M1650.1,1013.1c0,2.5,0,4.7,0.2,6.6l-4-0.8l-0.3-4l-0.1,0c-1.2,1.7-3.8,3.8-8.1,2.9c-3.9-0.7-8.5-3.7-8.5-12.2l0-14.2
				l4.5,0.9l0,13.4c0,4.6,1.4,8,5.5,8.8c3,0.6,5.1-1.1,5.9-2.9c0.3-0.6,0.4-1.4,0.4-2.2l0-14.9l4.5,0.9L1650.1,1013.1z"/>
			<path d="M1678.8,989.7l0,29.3c0,2.2,0,4.6,0.2,6.3l-4-0.8l-0.2-4.2l-0.1,0c-1.4,2.4-4.4,3.9-8.4,3.1c-5.9-1.2-10.5-7-10.5-14.3
				c0-8.1,5-12,11-10.9c3.8,0.7,6.3,3,7.4,5.1l0.1,0l0-14.5L1678.8,989.7z M1674.3,1010c0-0.5-0.1-1.3-0.2-1.9
				c-0.7-2.9-3.1-5.7-6.5-6.4c-4.6-0.9-7.4,2.6-7.4,7.9c0,4.9,2.4,9.4,7.3,10.4c3,0.6,5.7-0.8,6.6-4c0.2-0.6,0.2-1.2,0.2-1.9
				L1674.3,1010z"/>
			<path d="M1688.7,1015.8c0.1,6,4,9.2,8.4,10c3.2,0.6,5.1,0.4,6.8,0.1l0.8,3.3c-1.6,0.4-4.3,0.7-8.2-0.1
				c-7.6-1.5-12.1-7.2-12.1-14.5c0-7.3,4.4-12.2,11.5-10.8c8,1.6,10.2,8.9,10.2,13.4c0,0.9-0.1,1.6-0.2,2L1688.7,1015.8z
				 M1701.8,1015.2c0.1-2.8-1.2-7.4-6.2-8.4c-4.5-0.9-6.5,2.8-6.9,5.8L1701.8,1015.2z"/>
			<path d="M1711.7,1013.9c0-2.5,0-4.6-0.2-6.6l4,0.8l0.3,4.1l0.1,0c1.2-2.1,4.1-3.8,8.1-3c3.4,0.7,8.7,3.7,8.7,12l0,14.5l-4.5-0.9
				l0-14c0-3.9-1.5-7.4-5.7-8.3c-2.9-0.6-5.2,1-6,3.3c-0.2,0.5-0.3,1.2-0.3,2l0,14.6l-4.5-0.9L1711.7,1013.9z"/>
			<path d="M1745.1,1006.9l0,6.9l6.4,1.2l0,3.4l-6.4-1.2l0,13.1c0,3,0.9,4.9,3.4,5.3c1.2,0.2,2,0.2,2.6,0.2l0.2,3.3
				c-0.9,0.2-2.2,0.2-4-0.2c-2.1-0.4-3.8-1.4-4.8-2.8c-1.3-1.5-1.7-3.8-1.7-6.6l0-13.2l-3.8-0.7l0-3.4l3.8,0.7l0-5.8L1745.1,1006.9z
				"/>
		</g>
		<rect x="1611.7" y="510.4" class="st11" width="110.5" height="56.8"/>
		<g>
			<path d="M1428.3,1311L1428.3,1311c0.7-0.7,1.6-1.7,2.3-2.4l7.4-7.3h4.6l-9.5,8.7l7.4,12.5h-4.7l-5.7-10.1l-2.3,2.2l-1.2,8h-3.8
				l4.9-31h3.8L1428.3,1311z"/>
			<path d="M1446.9,1312.6c-0.7,5.2,2.3,7.3,6.1,7.3c2.8,0,4.5-0.5,6-1.1l0.2,2.8c-1.5,0.6-3.9,1.3-7.2,1.3c-6.5,0-9.7-4.3-8.7-10.7
				c1-6.4,5.5-11.4,11.7-11.4c6.9,0,7.8,6.1,7.2,10c-0.1,0.8-0.3,1.4-0.4,1.8H1446.9z M1458.6,1309.8c0.4-2.4,0-6.3-4.4-6.3
				c-3.9,0-6.2,3.6-6.9,6.3H1458.6z"/>
			<path d="M1468.8,1312.6c-0.7,5.2,2.3,7.3,6.1,7.3c2.8,0,4.5-0.5,6-1.1l0.2,2.8c-1.5,0.6-3.9,1.3-7.2,1.3c-6.5,0-9.7-4.3-8.7-10.7
				c1-6.4,5.5-11.4,11.7-11.4c6.9,0,7.8,6.1,7.2,10c-0.1,0.8-0.3,1.4-0.4,1.8H1468.8z M1480.5,1309.8c0.4-2.4,0-6.3-4.4-6.3
				c-3.9,0-6.2,3.6-6.9,6.3H1480.5z"/>
			<path d="M1489.2,1308.2c0.4-2.7,0.7-4.9,0.9-6.9h3.5l-0.4,3.6h0.1c2-2.6,4.7-4.1,8.2-4.1c5.1,0,8.3,4.3,7.3,10.8
				c-1.2,7.6-6.4,11.4-11.4,11.4c-2.8,0-5.1-1.2-6-3.3h-0.1l-1.8,11.5h-3.8L1489.2,1308.2z M1492.2,1313.9c-0.1,0.6-0.1,1.1-0.1,1.6
				c0.3,2.7,2.3,4.5,5.1,4.5c4.1,0,6.9-3.3,7.7-8.2c0.7-4.2-1-7.9-5.1-7.9c-2.6,0-5.4,1.9-6.6,4.8c-0.2,0.5-0.4,1-0.5,1.6
				L1492.2,1313.9z"/>
		</g>
		<polygon class="st13" points="1513.2,1340.7 1402.7,1340.7 1411.6,1283.9 1522.1,1283.9 		"/>
		<g>
			<path d="M1657.3,629.8c0,1.1-0.8,1.9-2,1.9c-1.1-0.1-1.9-1-1.9-2.1c0-1.1,0.8-2,2-1.9C1656.5,627.8,1657.3,628.7,1657.3,629.8z
				 M1653.7,652.2v-17.6l3.2,0.2v17.6L1653.7,652.2z"/>
			<path d="M1666.1,630.1v5.1l4.6,0.2v2.4l-4.6-0.2v9.5c0,2.2,0.6,3.4,2.4,3.5c0.8,0,1.5,0,1.9-0.1l0.1,2.4
				c-0.6,0.2-1.6,0.4-2.8,0.3c-1.5-0.1-2.7-0.6-3.5-1.5c-0.9-1-1.2-2.6-1.2-4.6v-9.6l-2.7-0.1v-2.4l2.7,0.1v-4.2L1666.1,630.1z"/>
		</g>
		<polygon class="st11" points="1662.8,596.9 1622.5,664.8 1703.1,668.6 		"/>
		<g>
			<path d="M1599.6,845.9c1.3,2.7,3.7,5.6,6.1,6c3.4,0.6,5.2-3.7,5.3-9.4c0.2-6-1.1-9.5-4.4-13.5c-4.5-5.2-6.5-12.4-6.3-20.6
				c0.3-11.1,4-19.6,9.5-18.7c2.6,0.4,4.9,2.8,6.2,5.3l-1.4,8.9c-1-1.9-2.8-4.5-5.2-4.9c-2.8-0.5-4.5,3.5-4.6,8.7
				c-0.2,5.7,1.3,8.5,4.6,12.5c4.4,5.3,6.5,11.7,6.2,21.9c-0.4,12.1-4.1,20-10.3,19c-2.8-0.5-5.4-2.8-7.1-5.9L1599.6,845.9z"/>
			<path d="M1628.9,775.1c-0.1,4.3-1.3,7.5-3.2,7.2c-1.7-0.3-2.7-3.9-2.6-8.2c0.1-4.4,1.5-7.6,3.2-7.3
				C1628,767,1629,770.6,1628.9,775.1z M1621,862.4l2-68.9l4.7,0.8l-2,68.9L1621,862.4z"/>
			<path d="M1635,814.3c0.2-7.1,0.3-13,0.3-18.7l4.1,0.7l-0.1,11.1l0.2,0c1.6-6.3,4.2-12,8.5-11.3c3.5,0.6,6,6.7,6.9,15l0.1,0
				c0.9-3.7,2-6.5,3.2-8.5c1.6-2.9,3.4-4.3,5.9-3.9c3.4,0.6,8.3,7.4,7.6,31.3l-1.2,40.6l-4.6-0.8l1.1-39c0.4-13.2-1.2-21.5-5-22.2
				c-2.7-0.4-4.9,4.5-5.9,10.4c-0.3,1.7-0.5,3.9-0.6,6.2l-1.3,42.6l-4.6-0.8l1.2-41.3c0.3-11-1.3-19.2-4.8-19.8
				c-2.9-0.5-5.3,5.4-6.2,11.5c-0.3,1.8-0.5,3.9-0.6,6.1l-1.2,41.6l-4.6-0.8L1635,814.3z"/>
			<path d="M1679.5,825.6c0.3-8.8,0.4-16,0.4-22.5l4.2,0.7l-0.1,11.8l0.1,0c2.2-8.1,5.4-12.5,9.6-11.8c6.3,1.1,10.5,15.9,9.9,36.9
				c-0.7,24.8-6.8,36-12.8,35c-3.4-0.6-6.3-5.1-7.6-12.2l-0.1,0l-1.1,37.4l-4.7-0.8L1679.5,825.6z M1683.6,844.8
				c-0.1,1.9,0,3.6,0.1,5.2c0.6,8.8,3.3,15.3,6.6,15.8c5,0.8,8.2-9.5,8.6-25.3c0.4-13.8-2-26.1-6.9-26.9c-3.2-0.5-6.4,5.1-7.6,14.3
				c-0.2,1.5-0.4,3.4-0.5,5.1L1683.6,844.8z"/>
			<path d="M1711.5,776.1l4.7,0.8l-3,101l-4.7-0.8L1711.5,776.1z"/>
			<path d="M1724.7,847.5c-0.4,17,3.5,24.6,8.2,25.4c3.4,0.6,5.4-0.7,7.3-2.4l0.5,9.1c-1.7,1.7-4.6,3.5-8.7,2.8
				c-8-1.3-12.3-16.1-11.7-36.9c0.6-20.8,5.7-36.4,13.2-35.1c8.4,1.4,10.1,21.6,9.7,34.2c-0.1,2.6-0.2,4.5-0.3,5.8L1724.7,847.5z
				 M1738.8,840.9c0.3-8-0.6-20.6-5.9-21.4c-4.8-0.8-7.2,10.5-7.8,19.1L1738.8,840.9z"/>
		</g>
		
			<ellipse transform="matrix(0.9679 -0.2515 0.2515 0.9679 -157.1247 446.9256)" class="st26" cx="1670.2" cy="838.3" rx="92.3" ry="139.8"/>
		<g>
			<g>
				<path d="M179.5,1376.6c0,0,0.1,0,0.1,0c0.7-0.6,1.8-1.3,2.6-1.9c3.3-2.3,5-3.5,8.1-6c2,0.3,3,0.4,5,0.6c-3.9,3.1-6,4.5-10.3,7.3
					c3.4,5.6,5.3,8.4,9.5,13.8c-2.3-0.2-3.5-0.4-5.8-0.7c-3.1-4.5-4.5-6.8-7.1-11.4c-1.1,0.7-1.6,1-2.7,1.6c-0.6,3.1-1,4.6-1.6,7.7
					c-1.9-0.4-2.8-0.6-4.7-1.1c2.4-9.9,4.8-19.8,7.1-29.7c1.5,0.3,2.3,0.5,3.8,0.8C181.8,1365.2,181.1,1369,179.5,1376.6z"/>
				<path d="M205.2,1364.1c0,1.3-1.1,2.3-2.7,2.3c-1.4-0.1-2.4-1.2-2.3-2.5c0.1-1.3,1.2-2.3,2.6-2.3
					C204.3,1361.6,205.2,1362.7,205.2,1364.1z M198.8,1390.9c0.6-8.4,0.9-12.6,1.5-21.1c1.7,0.1,2.5,0.2,4.2,0.2
					c-0.3,8.5-0.5,12.7-0.9,21.2C201.7,1391.1,200.7,1391,198.8,1390.9z"/>
				<path d="M210.9,1387.4c1.4,0.8,3.9,1.5,6.3,1.4c3.4-0.1,5-1.7,4.8-3.4c-0.1-1.9-1.5-2.8-4.9-3.7c-4.5-1.2-6.6-3.3-6.6-5.9
					c0-3.4,3-6.2,7.9-6.5c2.3-0.1,4.4,0.3,5.8,0.9c-0.3,1.2-0.5,1.8-0.8,2.9c-1-0.4-2.7-1-4.9-0.9c-2.5,0.1-3.9,1.5-3.8,3.1
					c0.1,1.8,1.5,2.5,4.8,3.4c4.3,1.2,6.7,2.8,7.1,5.9c0.4,3.7-2.9,6.8-9.3,7c-2.9,0.1-5.6-0.5-7.5-1.4
					C210.2,1389.2,210.4,1388.6,210.9,1387.4z"/>
				<path d="M232,1386.1c1.5,0.6,4.1,1,6.4,0.6c3.4-0.6,4.7-2.3,4.3-4.1c-0.4-1.8-1.9-2.6-5.4-3c-4.7-0.6-7-2.5-7.4-5
					c-0.5-3.4,2.1-6.6,7-7.6c2.3-0.4,4.4-0.3,5.8,0.1c-0.2,1.2-0.2,1.8-0.4,3c-1-0.3-2.8-0.6-5-0.2c-2.5,0.5-3.7,2-3.4,3.6
					c0.3,1.8,1.8,2.3,5.2,2.8c4.5,0.6,7.1,1.9,7.8,5c0.9,3.7-2,7.2-8.3,8.3c-2.9,0.5-5.6,0.3-7.6-0.4
					C231.5,1387.9,231.7,1387.3,232,1386.1z"/>
			</g>
		</g>
		<path class="st11" d="M174.9,1342.5c0,0,17.3,11,70.8,4.6c0,0,5.9-24.3,5.9-30.2c0,0-24.6,4.6-48.9,2.3"/>
		<polyline class="st11" points="137.1,1603.6 308.3,1693.5 308.3,1645 		"/>
		<line class="st11" x1="98.4" y1="1540.6" x2="98.4" y2="1564.7"/>
		<line class="st27" x1="410.2" y1="1693.5" x2="1946.8" y2="1693.5"/>
		<polyline class="st13" points="1392.4,1340.7 1402.7,1271.6 1517.8,1271.6 		"/>
		<polyline class="st18" points="1448.6,1353.4 1511.4,1353.4 1504.7,1380.8 		"/>
		<line class="st13" x1="1397.6" y1="1532.3" x2="1535.8" y2="1532.3"/>
		<polyline class="st13" points="1302.3,1610.2 1042.4,1610.2 979.7,1581.1 979.7,1568.1 1042.4,1595.9 1256.1,1595.9 		"/>
		<polyline class="st13" points="1000.1,1567.4 1022.7,1567.4 1035,1574.8 1017.6,1574.8 		"/>
		<polyline class="st13" points="1142.6,1581 1165.2,1581 1177.5,1588.5 1160,1588.5 		"/>
		<polyline class="st13" points="1078.1,1567.4 1100.7,1567.4 1113,1574.8 1095.6,1574.8 		"/>
		<polyline class="st13" points="1035,1584.7 1046.5,1589.3 1065.4,1589.3 		"/>
		<polyline class="st13" points="1124,1568.8 1135.4,1573.4 1154.3,1573.4 		"/>
		<polyline class="st13" points="1186.8,1582.4 1198.3,1587 1217.2,1587 		"/>
		<polyline class="st13" points="1189.7,1567.2 1221.3,1566.8 1232.7,1573.4 1218.5,1573.4 		"/>
		<polyline class="st13" points="1268.9,1595.1 1302.3,1595.1 1251.5,1577.3 		"/>
		<line class="st13" x1="1042.8" y1="1603.8" x2="1241.4" y2="1603.8"/>
		<line class="st13" x1="1270.3" y1="1603.8" x2="1302.3" y2="1603.8"/>
		<line class="st13" x1="1056.1" y1="1566.8" x2="1091.8" y2="1588.5"/>
		<path class="st13" d="M880.3,1589.4c33.7,1.3,50.7,18.6,37.2,21s-50.8-13.7-50.8-13.7c-4.8-3.3-4.2-11.8,20.5-14.3s36-0.6,36-0.6"
			/>
		<path class="st15" d="M914.4,1585c0,0,15.7,3.7,20.6,14.1c2.3,4.9,1.2,6.8,0.3,8.2s-8.6,2.5-8.6,2.5"/>
		<path class="st13" d="M936.7,1585.8c0,0,15.2,4.1,13.6,14.5c-1.4,8.8-22.2,9.2-22.2,9.2"/>
		<path class="st11" d="M997.8,1022c0,0-10.5,2.1-12.2,7.6c-1.7,5.5-6.7,32.8,1.4,42.9c8.1,10.1,17.1,13.4,30.5,5.3
			c13.4-8.1,9-34.6,5.3-42.8c-0.9-1.9-2-3.9-3.4-5.7c-4.5-5.9-11.2-10.5-17.6-8.6C993.4,1023.3,997.8,1022,997.8,1022z"/>
		<g>
			<path d="M1000.6,1030.2c0.6,0.8,1.4,1.6,2.1,2.5c0.8,0.9,1.5,1.9,2.1,2.9c1.3,2.1,2.1,4.4,2.5,6.9c0.1,0.6,0.2,1.2,0.2,1.8
				c0.1,0.6,0.1,1.2,0.1,1.8c0,1.2-0.1,2.5-0.3,3.7c-0.4,2.5-1.6,4.8-2.3,6.7c-0.4,1-0.6,1.9-0.7,2.9c-0.1,0.5-0.1,1-0.1,1.4
				c0.1,0.5,0,0.9,0.2,1.4c0.4,1.8,1.4,3.6,2.7,5.2c2.6,3.3,6.1,6,9.7,8.9l0,0c1.1,0.9,1.2,2.4,0.4,3.5c-0.9,1.1-2.4,1.2-3.5,0.4
				c0,0-0.1-0.1-0.1-0.1c-3.4-3.1-7-6.1-9.9-10.2c-1.4-2-2.7-4.3-3.1-7.1c-0.1-0.7-0.1-1.4-0.1-2c0-0.7,0.1-1.3,0.2-2
				c0.2-1.3,0.7-2.6,1.1-3.7c1-2.2,2-4,2.5-6c0.2-1,0.4-2,0.4-3.1c0-0.5,0-1.1,0-1.6c0-0.5,0-1.1-0.1-1.6c-0.2-2.1-0.8-4.1-1.8-6
				c-0.5-0.9-1.1-1.8-1.8-2.7c-0.7-0.9-1.4-1.7-2.1-2.8c-0.3-0.5-0.2-1.1,0.3-1.5C999.6,1029.5,1000.2,1029.7,1000.6,1030.2
				L1000.6,1030.2z"/>
		</g>
	</g>
</g>
</svg>
