<?xml version="1.0" encoding="utf-8"?>
<!-- Generator: Adobe Illustrator 22.1.0, SVG Export Plug-In . SVG Version: 6.00 Build 0)  -->
<svg version="1.1" id="Слой_1" xmlns="http://www.w3.org/2000/svg" xmlns:xlink="http://www.w3.org/1999/xlink" x="0px" y="0px"
	 viewBox="0 0 2080 2080" style="enable-background:new 0 0 2080 2080;" xml:space="preserve">
<style type="text/css">
	.st0{fill:#FFFFFF;}
	.st1{fill:#C8C6E5;}
	.st2{fill:#FDAC40;}
	.st3{fill:#EBCAA0;}
	.st4{fill:none;stroke:#FDAC40;stroke-width:4;stroke-linecap:round;stroke-miterlimit:10;}
	.st5{fill:none;stroke:#826DFD;stroke-width:4;stroke-linecap:round;stroke-linejoin:round;stroke-miterlimit:10;}
	.st6{fill:#826DFD;}
	.st7{fill:none;stroke:#000000;stroke-width:6;stroke-linecap:round;stroke-miterlimit:10;}
	.st8{fill:none;stroke:#000000;stroke-width:3;stroke-linecap:round;stroke-miterlimit:10;}
	.st9{fill:none;stroke:#000000;stroke-width:4;stroke-linecap:round;stroke-linejoin:round;stroke-miterlimit:10;}
	.st10{fill:none;stroke:#000000;stroke-width:6;stroke-linecap:round;stroke-linejoin:round;stroke-miterlimit:10;}
	.st11{fill:none;stroke:#000000;stroke-width:3;stroke-miterlimit:10;}
	.st12{fill:none;stroke:#000000;stroke-width:7;stroke-linecap:round;stroke-miterlimit:10;}
	.st13{fill:none;stroke:#000000;stroke-width:3;stroke-linecap:round;stroke-linejoin:round;stroke-miterlimit:10;}
	.st14{fill:none;stroke:#000000;stroke-width:5;stroke-miterlimit:10;}
	.st15{fill:none;stroke:#000000;stroke-width:2;stroke-linecap:round;stroke-linejoin:round;stroke-miterlimit:10;}
	.st16{fill:none;stroke:#000000;stroke-width:8;stroke-linecap:round;stroke-linejoin:round;stroke-miterlimit:10;}
	.st17{fill:none;stroke:#000000;stroke-width:3;stroke-linejoin:round;stroke-miterlimit:10;}
	.st18{fill:none;stroke:#000000;stroke-width:5;stroke-linecap:round;stroke-linejoin:round;stroke-miterlimit:10;}
	.st19{fill:none;stroke:#000000;stroke-width:2;stroke-miterlimit:10;}
	.st20{fill:none;stroke:#000000;stroke-width:2;stroke-linecap:round;stroke-miterlimit:10;}
	.st21{stroke:#000000;stroke-width:5;stroke-linecap:round;stroke-linejoin:round;stroke-miterlimit:10;}
	.st22{stroke:#000000;stroke-width:3;stroke-linecap:round;stroke-linejoin:round;stroke-miterlimit:10;}
	.st23{fill:none;stroke:#8378BF;stroke-width:5;stroke-linecap:round;stroke-linejoin:round;stroke-miterlimit:10;}
	.st24{fill:none;stroke:#826DFD;stroke-width:3;stroke-linecap:round;stroke-linejoin:round;stroke-miterlimit:10;}
	.st25{fill:none;stroke:#FDAC40;stroke-width:3;stroke-linecap:round;stroke-linejoin:round;stroke-miterlimit:10;}
	.st26{fill:none;stroke:#FDAC40;stroke-width:7;stroke-miterlimit:10;}
	.st27{fill:none;stroke:#000000;stroke-width:11;stroke-linecap:round;stroke-linejoin:round;stroke-miterlimit:10;}
	.st28{fill:none;stroke:#333333;stroke-width:5;stroke-linecap:round;stroke-miterlimit:10;stroke-dasharray:20;}
	.st29{fill:#FADC8C;}
	.st30{fill:none;stroke:#333333;stroke-width:5;stroke-linecap:round;stroke-miterlimit:10;stroke-dasharray:44.5321,44.5321;}
	.st31{fill:#333333;}
	.st32{fill:#F29F76;}
	.st33{fill:#7BD9E5;}
	.st34{fill:none;}
	.st35{fill:#65C8D0;}
	.st36{fill:#7BD9E5;stroke:#7BD9E5;stroke-miterlimit:10;}
	.st37{fill:none;stroke:#333333;stroke-linecap:round;stroke-linejoin:round;stroke-miterlimit:10;}
	.st38{fill:#7BD9E5;stroke:#333333;stroke-miterlimit:10;}
	.st39{fill:#8FACCC;}
	.st40{fill:#F9E958;}
	.st41{fill:#231F20;}
	.st42{fill:none;stroke:#333333;stroke-width:3;stroke-linecap:round;stroke-miterlimit:10;}
	.st43{clip-path:url(#SVGID_2_);}
	.st44{clip-path:url(#SVGID_4_);}
	.st45{clip-path:url(#SVGID_6_);}
	.st46{clip-path:url(#SVGID_8_);}
	.st47{clip-path:url(#SVGID_10_);}
	.st48{clip-path:url(#SVGID_12_);}
	.st49{clip-path:url(#SVGID_14_);}
	.st50{clip-path:url(#SVGID_16_);}
	.st51{clip-path:url(#SVGID_18_);}
	.st52{clip-path:url(#SVGID_20_);}
	.st53{clip-path:url(#SVGID_22_);}
	.st54{clip-path:url(#SVGID_24_);}
	.st55{clip-path:url(#SVGID_26_);}
	.st56{clip-path:url(#SVGID_28_);}
	.st57{fill:#FF7300;}
	.st58{clip-path:url(#SVGID_30_);}
	.st59{fill:#020100;}
	.st60{fill:#FF6D00;}
	.st61{clip-path:url(#SVGID_32_);}
	.st62{clip-path:url(#SVGID_34_);fill:none;stroke:#2C1017;stroke-width:3.4838;stroke-miterlimit:10;}
	.st63{clip-path:url(#SVGID_36_);fill:none;stroke:#2C1017;stroke-width:3.4838;stroke-miterlimit:10;}
	.st64{clip-path:url(#SVGID_38_);fill:none;stroke:#2C1017;stroke-width:3.4838;stroke-miterlimit:10;}
	.st65{clip-path:url(#SVGID_40_);fill:none;stroke:#2C1017;stroke-width:3.4838;stroke-miterlimit:10;}
	.st66{clip-path:url(#SVGID_32_);fill:none;stroke:#231F20;stroke-width:2.6129;stroke-miterlimit:10;}
	.st67{clip-path:url(#SVGID_42_);fill:none;stroke:#231F20;stroke-width:0.871;stroke-miterlimit:10;}
	.st68{clip-path:url(#SVGID_44_);fill:none;stroke:#231F20;stroke-width:0.871;stroke-miterlimit:10;}
	.st69{clip-path:url(#SVGID_46_);fill:#231F20;}
	.st70{clip-path:url(#SVGID_46_);fill:none;stroke:#231F20;stroke-width:2.6129;stroke-miterlimit:10;}
	.st71{clip-path:url(#SVGID_46_);fill:#FFFFFF;}
	.st72{clip-path:url(#SVGID_46_);fill:none;stroke:#231F20;stroke-width:1.7419;stroke-miterlimit:10;}
	.st73{clip-path:url(#SVGID_48_);fill:#231F20;}
	.st74{clip-path:url(#SVGID_48_);fill:#FFFFFF;}
	.st75{fill:none;stroke:#000000;stroke-width:1.5;stroke-miterlimit:10;}
	.st76{fill:none;stroke:#000000;stroke-miterlimit:10;}
	.st77{fill:none;stroke:#000000;stroke-width:0.75;stroke-miterlimit:10;}
	.st78{stroke:#000000;stroke-miterlimit:10;}
	.st79{clip-path:url(#SVGID_49_);}
	.st80{clip-path:url(#SVGID_50_);}
	.st81{clip-path:url(#SVGID_51_);}
	.st82{clip-path:url(#SVGID_52_);}
	.st83{fill:none;stroke:#000000;stroke-width:0.25;stroke-miterlimit:10;}
	.st84{clip-path:url(#SVGID_53_);}
	.st85{fill:none;stroke:#000000;stroke-width:0.5;stroke-miterlimit:10;}
	.st86{clip-path:url(#SVGID_54_);}
	.st87{clip-path:url(#SVGID_55_);}
	.st88{clip-path:url(#SVGID_56_);}
	.st89{clip-path:url(#SVGID_57_);}
	.st90{clip-path:url(#SVGID_58_);}
	.st91{clip-path:url(#SVGID_59_);}
	.st92{clip-path:url(#SVGID_60_);}
	.st93{clip-path:url(#SVGID_61_);}
	.st94{clip-path:url(#SVGID_62_);}
	.st95{clip-path:url(#SVGID_63_);}
	.st96{clip-path:url(#SVGID_64_);}
	.st97{clip-path:url(#SVGID_65_);}
	.st98{stroke:#000000;stroke-width:0.75;stroke-miterlimit:10;}
	.st99{clip-path:url(#SVGID_67_);}
	.st100{clip-path:url(#SVGID_69_);}
	.st101{fill:none;stroke:#000000;stroke-width:6;stroke-miterlimit:10;}
	.st102{clip-path:url(#SVGID_71_);}
	.st103{clip-path:url(#SVGID_73_);}
	.st104{stroke:#000000;stroke-width:0.5;stroke-miterlimit:10;}
	.st105{clip-path:url(#SVGID_75_);}
	.st106{clip-path:url(#SVGID_77_);}
	.st107{stroke:#000000;stroke-width:0.25;stroke-miterlimit:10;}
	.st108{clip-path:url(#SVGID_79_);}
	.st109{clip-path:url(#SVGID_80_);}
	.st110{clip-path:url(#SVGID_81_);}
	.st111{clip-path:url(#SVGID_82_);}
	.st112{clip-path:url(#SVGID_83_);}
	.st113{clip-path:url(#SVGID_84_);}
	.st114{clip-path:url(#SVGID_86_);}
	.st115{stroke:#000000;stroke-linecap:round;stroke-linejoin:round;stroke-miterlimit:10;}
	.st116{clip-path:url(#SVGID_88_);}
	.st117{fill:none;stroke:#000000;stroke-width:0.25;stroke-linecap:round;stroke-linejoin:round;stroke-miterlimit:10;}
	.st118{stroke:#000000;stroke-width:0.25;stroke-linecap:round;stroke-linejoin:round;stroke-miterlimit:10;}
	.st119{clip-path:url(#SVGID_90_);}
	.st120{clip-path:url(#SVGID_92_);}
	.st121{clip-path:url(#SVGID_94_);}
	.st122{clip-path:url(#SVGID_96_);}
	.st123{fill:#F3E0B5;}
	.st124{clip-path:url(#SVGID_98_);}
	.st125{fill:#F7E7C5;}
	.st126{fill:none;stroke:#FFFFFF;stroke-width:3;stroke-miterlimit:10;}
	.st127{clip-path:url(#SVGID_100_);}
	.st128{fill:none;stroke:#FFFFFF;stroke-width:2;stroke-miterlimit:10;}
	.st129{fill:none;stroke:#FFFFFF;stroke-width:30;stroke-miterlimit:10;}
	.st130{fill:#FFFFFF;stroke:#FFFFFF;stroke-miterlimit:10;}
	.st131{stroke:#FFFFFF;stroke-miterlimit:10;}
	.st132{clip-path:url(#SVGID_102_);}
	.st133{fill:none;stroke:#FFFFFF;stroke-width:7;stroke-miterlimit:10;}
	.st134{fill:none;stroke:#FFFFFF;stroke-width:19;stroke-miterlimit:10;}
	.st135{fill:none;stroke:#FFFFFF;stroke-width:11;stroke-miterlimit:10;}
	.st136{fill:#FFFFFF;stroke:#FFFFFF;stroke-width:7;stroke-linecap:round;stroke-linejoin:round;stroke-miterlimit:10;}
	.st137{fill:none;stroke:#FFFFFF;stroke-width:0.5;stroke-miterlimit:10;}
	.st138{clip-path:url(#SVGID_104_);}
	.st139{fill:none;stroke:#FFFFFF;stroke-width:8;stroke-miterlimit:10;}
	.st140{fill:none;stroke:#FFFFFF;stroke-width:10;stroke-linejoin:bevel;stroke-miterlimit:10;}
	.st141{clip-path:url(#SVGID_106_);}
	.st142{clip-path:url(#SVGID_108_);}
	.st143{clip-path:url(#SVGID_110_);}
	.st144{clip-path:url(#SVGID_112_);}
	.st145{stroke:#000000;stroke-width:2;stroke-miterlimit:10;}
	.st146{fill:none;stroke:#000000;stroke-width:45;stroke-miterlimit:10;}
	.st147{stroke:#FFFFFF;stroke-width:4;stroke-miterlimit:10;}
	.st148{fill:none;stroke:#FFFFFF;stroke-width:4;stroke-miterlimit:10;}
	.st149{fill:#FFFFFF;stroke:#FFFFFF;stroke-width:4;stroke-miterlimit:10;}
	.st150{clip-path:url(#SVGID_114_);}
	.st151{opacity:0.51;fill:#339999;stroke:#000000;stroke-width:2;stroke-miterlimit:10;}
	.st152{opacity:0.18;fill:#FFCCFF;stroke:#000000;stroke-width:2;stroke-miterlimit:10;}
	.st153{opacity:4.000000e-02;fill:#FFCCFF;stroke:#000000;stroke-width:2;stroke-miterlimit:10;}
	.st154{opacity:0.18;fill:#003333;stroke:#000000;stroke-width:2;stroke-miterlimit:10;}
	.st155{opacity:0.46;fill:#99FFFF;stroke:#000000;stroke-width:2;stroke-miterlimit:10;}
	.st156{opacity:0.18;fill:#CC99FF;stroke:#000000;stroke-width:2;stroke-miterlimit:10;}
	.st157{opacity:0.47;fill:#FFCCFF;stroke:#000000;stroke-width:2;stroke-miterlimit:10;}
	.st158{opacity:0.11;fill:#333399;stroke:#000000;stroke-width:2;stroke-miterlimit:10;}
	.st159{opacity:0.11;fill:#99FFFF;stroke:#000000;stroke-width:2;stroke-miterlimit:10;}
	.st160{opacity:0.18;fill:#9999FF;stroke:#000000;stroke-width:2;stroke-miterlimit:10;}
	.st161{opacity:0.18;fill:none;stroke:#000000;stroke-width:2;stroke-miterlimit:10;}
	.st162{opacity:0.68;fill:#FFFFFF;}
	.st163{opacity:0.18;fill:#6666FF;stroke:#000000;stroke-width:2;stroke-miterlimit:10;}
	.st164{fill:#FFFFFF;stroke:#000000;stroke-width:2;stroke-miterlimit:10;}
	.st165{fill:none;stroke:#000000;stroke-width:0.5;stroke-linecap:round;stroke-linejoin:round;}
	.st166{opacity:0.36;fill:#FFFFFF;stroke:#000000;stroke-width:0.5;stroke-linecap:round;stroke-linejoin:round;}
	.st167{opacity:0.37;fill:#CCFFFF;stroke:#000000;stroke-width:0.5;stroke-linecap:round;stroke-linejoin:round;}
	.st168{opacity:0.69;fill:#E6FFFE;stroke:#000000;stroke-width:0.5;stroke-linecap:round;stroke-linejoin:round;}
	.st169{opacity:0.8;fill:#FFFFFF;stroke:#000000;stroke-width:0.5;stroke-linecap:round;stroke-linejoin:round;}
	.st170{opacity:0.43;fill:#CCFFFF;stroke:#000000;stroke-width:0.5;stroke-linecap:round;stroke-linejoin:round;}
	.st171{opacity:0.82;fill:#FFFFFF;stroke:#000000;stroke-width:0.5;stroke-linecap:round;stroke-linejoin:round;}
	.st172{opacity:0.76;fill:#FFFFFF;stroke:#000000;stroke-width:0.5;stroke-linecap:round;stroke-linejoin:round;}
	.st173{opacity:0.47;fill:#6633CC;stroke:#000000;stroke-width:0.5;stroke-linecap:round;stroke-linejoin:round;}
	.st174{opacity:0.51;fill:#CCFFFF;stroke:#000000;stroke-width:0.5;stroke-linecap:round;stroke-linejoin:round;}
	.st175{opacity:0.4;fill:#000033;stroke:#000000;stroke-width:0.5;stroke-linecap:round;stroke-linejoin:round;}
	.st176{opacity:0.43;fill:#330033;stroke:#000000;stroke-width:0.5;stroke-linecap:round;stroke-linejoin:round;}
	.st177{opacity:0.1;fill:#9966FF;stroke:#000000;stroke-width:2;stroke-miterlimit:10;}
	.st178{opacity:0.23;fill:#330033;stroke:#000000;stroke-width:2;stroke-miterlimit:10;}
	.st179{opacity:0.18;}
	.st180{fill:#FFCCFF;}
	.st181{opacity:0.51;}
	.st182{fill:#339999;}
	.st183{opacity:4.000000e-02;}
	.st184{fill:#003333;}
	.st185{opacity:0.46;}
	.st186{fill:#99FFFF;}
	.st187{fill:#CC99FF;}
	.st188{opacity:0.47;}
	.st189{opacity:0.11;}
	.st190{fill:#333399;}
	.st191{fill:#9999FF;}
	.st192{opacity:0.18;fill:#FFFFFF;}
	.st193{opacity:0.62;}
	.st194{fill:#6666FF;}
	.st195{opacity:0.42;}
	.st196{fill:#9C62A0;}
	.st197{fill:none;stroke:#FFFFFF;stroke-width:0.5;stroke-linecap:round;stroke-linejoin:round;}
	.st198{opacity:0.36;}
	.st199{opacity:0.37;}
	.st200{fill:#CCFFFF;}
	.st201{fill:none;stroke:#FFFFFF;stroke-width:4;stroke-linecap:round;stroke-linejoin:round;}
	.st202{opacity:0.69;}
	.st203{fill:#E6FFFE;}
	.st204{opacity:0.8;}
	.st205{opacity:0.43;}
	.st206{opacity:0.82;}
	.st207{opacity:0.76;}
	.st208{fill:#6633CC;}
	.st209{opacity:0.4;}
	.st210{fill:#000033;}
	.st211{fill:#330033;}
	.st212{opacity:0.1;}
	.st213{fill:#9966FF;}
	.st214{opacity:0.72;}
	.st215{fill:#333366;}
	.st216{fill:#E3E825;stroke:#42210B;stroke-width:10;stroke-linejoin:round;stroke-miterlimit:10;}
	.st217{fill:#C69C6D;stroke:#42210B;stroke-width:10;stroke-linejoin:round;stroke-miterlimit:10;}
	.st218{fill:#42210B;stroke:#42210B;stroke-width:10;stroke-linejoin:round;stroke-miterlimit:10;}
	.st219{fill:#E53C70;stroke:#42210B;stroke-width:10;stroke-linejoin:round;stroke-miterlimit:10;}
	.st220{fill:#F27C08;stroke:#42210B;stroke-width:10;stroke-linejoin:round;stroke-miterlimit:10;}
	.st221{fill:#AA4913;}
	.st222{fill:#D68A63;}
	.st223{fill:#EAC598;}
	.st224{fill:#F26692;}
	.st225{fill:#EDAF77;}
	.st226{fill:#FBB03B;stroke:#7A5D3B;stroke-width:12;stroke-linecap:round;stroke-miterlimit:10;}
	.st227{fill:none;stroke:#42210B;stroke-width:10;stroke-linejoin:round;stroke-miterlimit:10;}
	.st228{fill:#087F2C;stroke:#42210B;stroke-width:10;stroke-linejoin:round;stroke-miterlimit:10;}
	.st229{fill:#98D14E;}
	.st230{fill:#80A574;stroke:#071103;stroke-width:14;stroke-linejoin:round;stroke-miterlimit:10;}
	.st231{fill:#EF2E2E;stroke:#071103;stroke-width:14;stroke-linejoin:round;stroke-miterlimit:10;}
	.st232{fill:#5D7554;stroke:#051101;stroke-width:14;stroke-linejoin:round;stroke-miterlimit:10;}
	.st233{fill:none;stroke:#6B996E;stroke-width:40;stroke-linecap:round;stroke-miterlimit:10;}
	.st234{fill:none;stroke:#203316;stroke-width:14;stroke-linejoin:round;stroke-miterlimit:10;}
	.st235{fill:none;stroke:#071103;stroke-width:14;stroke-linejoin:round;stroke-miterlimit:10;}
	.st236{fill:#42210B;}
	.st237{fill:#47683E;}
	.st238{fill:#5D7554;stroke:#071103;stroke-width:14;stroke-linejoin:round;stroke-miterlimit:10;}
	.st239{fill:#E3E825;stroke:#071103;stroke-width:14;stroke-linejoin:round;stroke-miterlimit:10;}
	.st240{fill:#F4F490;}
	.st241{fill:#E53C70;stroke:#071103;stroke-width:14;stroke-linejoin:round;stroke-miterlimit:10;}
	.st242{fill:#071103;stroke:#071103;stroke-width:14;stroke-linejoin:round;stroke-miterlimit:10;}
	.st243{fill:#E53C70;stroke:#EF95B1;stroke-width:14;stroke-linecap:round;stroke-linejoin:round;stroke-miterlimit:10;}
	.st244{fill:#E3E825;stroke:#071103;stroke-width:10;stroke-linejoin:round;stroke-miterlimit:10;}
	.st245{fill:#071103;}
	.st246{fill:#FFFF00;}
	.st247{fill:none;stroke:#752525;stroke-width:4;stroke-miterlimit:10;}
	.st248{fill:none;stroke:#AA3333;stroke-width:5;stroke-miterlimit:10;}
	.st249{fill:none;stroke:#ED1C24;stroke-width:3;stroke-miterlimit:10;}
	.st250{fill:#AA3333;}
	.st251{fill:#F94B4B;}
	.st252{fill:none;stroke:#AA3333;stroke-width:9;stroke-miterlimit:10;}
	.st253{fill:#FC7E7E;}
	.st254{fill:#FC7E7E;stroke:#FC7E7E;stroke-width:7;stroke-miterlimit:10;}
	.st255{fill:none;stroke:#FC7E7E;stroke-width:9;stroke-miterlimit:10;}
	.st256{fill:none;stroke:#FCFAFA;stroke-width:4;stroke-miterlimit:10;}
	.st257{fill:#681D1D;}
	.st258{fill:#BA4FB0;}
	.st259{fill:#A068A0;}
	.st260{fill:#E0A6E0;}
	.st261{fill:none;stroke:#540E56;stroke-width:4;stroke-miterlimit:10;}
	.st262{fill:#7A347A;}
	.st263{fill:#007F82;}
	.st264{fill:#04A8A8;}
	.st265{fill:none;stroke:#764977;stroke-width:3;stroke-miterlimit:10;}
	.st266{fill:#3ECCC5;}
	.st267{fill:none;stroke:#004242;stroke-width:3;stroke-miterlimit:10;}
	.st268{fill:none;stroke:#7C0C00;stroke-width:3;stroke-miterlimit:10;}
	.st269{fill:#004242;}
	.st270{fill:#510600;}
	.st271{fill:#FF866E;}
	.st272{fill:#D30B0B;}
	.st273{fill:none;stroke:#F200FF;stroke-width:3;stroke-miterlimit:10;}
	.st274{fill:none;stroke:#F200FF;stroke-miterlimit:10;}
	.st275{fill:none;stroke:#04070F;stroke-width:3;stroke-miterlimit:10;}
	.st276{fill:#005654;}
</style>
<rect x="-1989" y="-6267" class="st0" width="14249" height="14249"/>
<rect x="-12.1" y="-6.1" width="2093.1" height="2093.1"/>
<polygon class="st126" points="269.1,1205.4 321.5,1205.4 355.9,1316.9 405.2,1382.7 405.2,1499.3 352.9,1557.7 269.1,1557.7 
	195.8,1502.3 195.8,1363.2 "/>
<line class="st126" x1="269.1" y1="1205.4" x2="269.1" y2="1557.9"/>
<circle class="st126" cx="290.3" cy="1437.8" r="59.3"/>
<polygon class="st0" points="269.1,1205.4 269.1,1557.7 195.8,1502.3 195.8,1363.2 "/>
<g>
	<defs>
		
			<ellipse id="SVGID_99_" transform="matrix(0.9998 -2.138485e-02 2.138485e-02 0.9998 -30.6746 6.537)" cx="290.3" cy="1437.5" rx="60.2" ry="58.8"/>
	</defs>
	<clipPath id="SVGID_2_">
		<use xlink:href="#SVGID_99_"  style="overflow:visible;"/>
	</clipPath>
	<g class="st43">
		
			<rect x="200.9" y="1387.1" transform="matrix(0.9998 -2.138485e-02 2.138485e-02 0.9998 -30.9801 6.6683)" class="st126" width="190.8" height="129.4"/>
		<line class="st126" x1="392.9" y1="1505.9" x2="202.1" y2="1510"/>
		<line class="st126" x1="392.7" y1="1497.3" x2="201.9" y2="1501.4"/>
		<line class="st126" x1="391.9" y1="1462.8" x2="201.2" y2="1466.8"/>
		<line class="st126" x1="391.8" y1="1454.1" x2="201" y2="1458.2"/>
		<line class="st126" x1="391.6" y1="1445.5" x2="200.8" y2="1449.6"/>
		<line class="st126" x1="391.4" y1="1436.9" x2="200.7" y2="1441"/>
		<line class="st126" x1="391.2" y1="1428.3" x2="200.5" y2="1432.3"/>
		<line class="st126" x1="391" y1="1419.6" x2="200.3" y2="1423.7"/>
		<line class="st126" x1="390.8" y1="1411" x2="200.1" y2="1415.1"/>
		<line class="st126" x1="390.6" y1="1402.4" x2="199.9" y2="1406.5"/>
		<line class="st126" x1="390.5" y1="1393.7" x2="199.7" y2="1397.8"/>
	</g>
	<use xlink:href="#SVGID_99_"  style="overflow:visible;fill:none;stroke:#FFFFFF;stroke-width:10;stroke-miterlimit:10;"/>
</g>
<path class="st11" d="M269.6,1493.4c-22.5-8.4-38.6-30.1-38.6-55.6c0-25.5,16.1-47.2,38.6-55.6"/>
<g>
	<g>
		<g>
			<line class="st128" x1="1645.1" y1="1416.2" x2="1644.9" y2="1572.2"/>
			<line class="st128" x1="1645.1" y1="1416.2" x2="1644.9" y2="1261.2"/>
			<line class="st128" x1="1645.1" y1="1416.2" x2="1492.1" y2="1342.5"/>
			<line class="st128" x1="1645.1" y1="1416.2" x2="1491.6" y2="1490.5"/>
		</g>
	</g>
	<polygon class="st126" points="1745.1,1261 1544.7,1261 1444.5,1416.5 1544.7,1572 1745.1,1572 1845.3,1416.5 	"/>
</g>
<polygon class="st129" points="1642.2,1261.2 1748.5,1260.7 1845.2,1416.5 1748,1571.7 1642.2,1572.2 "/>
<polygon class="st0" points="1599.8,1416.1 1506.1,1370.6 1477,1415.9 1505.8,1461.2 "/>
<polygon class="st0" points="1611.4,1379.2 1611.4,1287.3 1554.4,1288.2 1525.5,1336.8 "/>
<polygon class="st0" points="1610.9,1459.1 1526.8,1499.8 1555.7,1545.1 1610.9,1546 "/>
<polygon class="st130" points="681.4,1563.5 582.8,1563.5 513,1493.7 513,1395.1 582.8,1325.4 681.4,1325.4 751.1,1395.1 
	751.1,1493.7 "/>
<g>
	<path d="M673.2,1345.8l57.7,57.7v81.5l-57.7,57.7h-81.5L534,1485v-81.5l57.7-57.7H673.2 M680.2,1328.8h-95.6l-67.6,67.6v95.6
		l67.6,67.6h95.6l67.6-67.6v-95.6L680.2,1328.8L680.2,1328.8z"/>
</g>
<polygon class="st131" points="642.4,1410.4 620.2,1410.4 604.5,1430.3 604.5,1458.6 620.2,1478.5 642.4,1478.5 658.1,1458.6 
	658.1,1430.3 "/>
<g>
	<g>
		<line class="st76" x1="632.1" y1="1444.4" x2="632.1" y2="1531.1"/>
		<line class="st76" x1="632.1" y1="1444.4" x2="675.4" y2="1519.5"/>
		<line class="st76" x1="632.1" y1="1444.4" x2="707.1" y2="1487.8"/>
		<line class="st76" x1="632.1" y1="1444.4" x2="718.7" y2="1444.4"/>
		<line class="st76" x1="632.1" y1="1444.4" x2="707.1" y2="1401.1"/>
		<line class="st76" x1="632.1" y1="1444.4" x2="675.4" y2="1369.4"/>
		<line class="st76" x1="632.1" y1="1444.4" x2="632.1" y2="1357.8"/>
		<line class="st76" x1="632.1" y1="1444.4" x2="588.7" y2="1369.4"/>
		<line class="st76" x1="632.1" y1="1444.4" x2="557" y2="1401.1"/>
		<line class="st76" x1="632.1" y1="1444.4" x2="545.4" y2="1444.4"/>
		<line class="st76" x1="632.1" y1="1444.4" x2="557" y2="1487.8"/>
		<line class="st76" x1="632.1" y1="1444.4" x2="588.7" y2="1519.5"/>
	</g>
</g>
<g>
	<g>
		<line class="st19" x1="632.1" y1="1444.4" x2="639.7" y2="1501.6"/>
		<line class="st19" x1="632.1" y1="1444.4" x2="664.2" y2="1486.1"/>
		<line class="st19" x1="632.1" y1="1444.4" x2="680.7" y2="1464.5"/>
		<line class="st19" x1="632.1" y1="1444.4" x2="684.2" y2="1437.5"/>
		<line class="st19" x1="632.1" y1="1444.4" x2="673.8" y2="1412.3"/>
		<line class="st19" x1="632.1" y1="1444.4" x2="653.6" y2="1392.3"/>
		<line class="st19" x1="632.1" y1="1444.4" x2="624.5" y2="1387.9"/>
		<line class="st19" x1="632.1" y1="1444.4" x2="600" y2="1402.7"/>
		<line class="st19" x1="632.1" y1="1444.4" x2="583.4" y2="1424.4"/>
		<line class="st19" x1="632.1" y1="1444.4" x2="579.9" y2="1451.4"/>
		<line class="st19" x1="632.1" y1="1444.4" x2="590.4" y2="1476.5"/>
		<line class="st19" x1="632.1" y1="1444.4" x2="609.6" y2="1498.9"/>
	</g>
</g>
<g>
	<g>
		<line class="st19" x1="631.8" y1="1449.2" x2="624" y2="1501.6"/>
		<line class="st19" x1="632.1" y1="1444.4" x2="652.4" y2="1495.9"/>
		<line class="st19" x1="632.1" y1="1444.4" x2="673.3" y2="1477.1"/>
		<line class="st19" x1="632.1" y1="1444.4" x2="684.1" y2="1452.2"/>
		<line class="st19" x1="632.1" y1="1444.4" x2="681" y2="1425.1"/>
		<line class="st19" x1="632.1" y1="1444.4" x2="664.8" y2="1403.2"/>
		<line class="st19" x1="632.1" y1="1444.4" x2="640.4" y2="1387.9"/>
		<line class="st19" x1="632.1" y1="1444.4" x2="611.5" y2="1392.3"/>
		<line class="st19" x1="632.1" y1="1444.4" x2="590.9" y2="1411.7"/>
		<line class="st19" x1="632.1" y1="1444.4" x2="580" y2="1436.7"/>
		<line class="st19" x1="632.1" y1="1444.4" x2="583.1" y2="1463.8"/>
		<line class="st19" x1="632.1" y1="1444.4" x2="596.6" y2="1489.1"/>
	</g>
</g>
<g>
	<g>
		<line class="st76" x1="632.1" y1="1444.4" x2="654" y2="1529.6"/>
		<line class="st76" x1="632.1" y1="1444.4" x2="693.7" y2="1507.2"/>
		<line class="st76" x1="632.1" y1="1444.4" x2="716.8" y2="1468"/>
		<line class="st76" x1="632.1" y1="1444.4" x2="717.2" y2="1422.5"/>
		<line class="st76" x1="632.1" y1="1444.4" x2="694.8" y2="1382.8"/>
		<line class="st76" x1="632.1" y1="1444.4" x2="655.6" y2="1359.7"/>
		<line class="st76" x1="632.1" y1="1444.4" x2="610.1" y2="1359.3"/>
		<line class="st76" x1="632.1" y1="1444.4" x2="570.5" y2="1381.7"/>
		<line class="st76" x1="632.1" y1="1444.4" x2="547.3" y2="1420.9"/>
		<line class="st76" x1="632.1" y1="1444.4" x2="546.9" y2="1466.4"/>
		<line class="st76" x1="632.1" y1="1444.4" x2="569.3" y2="1506"/>
		<line class="st76" x1="632.1" y1="1444.4" x2="608.5" y2="1529.2"/>
	</g>
</g>
<g>
	<defs>
		<polygon id="SVGID_101_" points="1642.2,1260.6 1748.5,1260.1 1845.2,1415.9 1748,1571.1 1642.2,1571.6 		"/>
	</defs>
	<clipPath id="SVGID_4_">
		<use xlink:href="#SVGID_101_"  style="overflow:visible;"/>
	</clipPath>
	<g class="st44">
		<rect x="1743.7" y="1213.2" class="st126" width="170.4" height="405"/>
		<line class="st126" x1="1902.7" y1="1213.2" x2="1902.7" y2="1618.2"/>
		<line class="st126" x1="1891.4" y1="1213.2" x2="1891.4" y2="1618.2"/>
		<line class="st126" x1="1880" y1="1213.2" x2="1880" y2="1618.2"/>
		<line class="st126" x1="1868.6" y1="1213.2" x2="1868.6" y2="1618.2"/>
		<line class="st126" x1="1857.3" y1="1213.2" x2="1857.3" y2="1618.2"/>
		<line class="st126" x1="1845.9" y1="1213.2" x2="1845.9" y2="1618.2"/>
		<line class="st126" x1="1834.6" y1="1213.2" x2="1834.6" y2="1618.2"/>
		<line class="st126" x1="1823.2" y1="1213.2" x2="1823.2" y2="1618.2"/>
		<line class="st126" x1="1811.8" y1="1213.2" x2="1811.8" y2="1618.2"/>
		<line class="st126" x1="1800.5" y1="1213.2" x2="1800.5" y2="1618.2"/>
		<line class="st126" x1="1789.1" y1="1213.2" x2="1789.1" y2="1618.2"/>
		<line class="st126" x1="1777.8" y1="1213.2" x2="1777.8" y2="1618.2"/>
		<line class="st126" x1="1766.4" y1="1213.2" x2="1766.4" y2="1618.2"/>
		<line class="st126" x1="1755.1" y1="1213.2" x2="1755.1" y2="1618.2"/>
	</g>
</g>
<path class="st0" d="M1094.9,1259.5v41.4c-22.7,0-41.4-18.7-41.4-41.4c0-22.7,18.7-41.4,41.4-41.4c0.1,0,0.3,0,0.4,0L1094.9,1259.5z
	"/>
<path class="st0" d="M1642.2,1388.8c0,0-27.5,6.7-27.5,27.6c0,20.9,27.5,24.3,27.5,24.3"/>
<path class="st133" d="M834.1,1259.5l158,294h220.7 M990.3,1553.5H1211l103.3-111.1l63.2-191.4l-129.6-252.9l-146.3,0.8"/>
<line class="st134" x1="1101.6" y1="995.6" x2="1101.6" y2="1553.5"/>
<polygon class="st135" points="834.1,1259.5 992.3,1406.5 1101.6,1406.5 1101.6,1131.3 992.3,1130.9 "/>
<line class="st135" x1="834.1" y1="1259.5" x2="1058.7" y2="1259.5"/>
<line class="st135" x1="1066.8" y1="1243.3" x2="992.3" y2="1130.9"/>
<line class="st135" x1="992.3" y1="1406.5" x2="1072.8" y2="1271.2"/>
<polygon class="st136" points="1101.6,1406.5 992.3,1406.5 839.2,1264.2 992.2,1553.5 1097.1,1549 "/>
<g>
	<defs>
		<polygon id="SVGID_103_" points="1106.6,992.8 1106.6,1547.3 1216.1,1547.3 1319.4,1436.2 1374.1,1253.3 1247.5,990.1 		"/>
	</defs>
	<clipPath id="SVGID_6_">
		<use xlink:href="#SVGID_103_"  style="overflow:visible;"/>
	</clipPath>
	<g class="st45">
		<rect x="922.2" y="893" class="st139" width="671" height="666"/>
		<line class="st139" x1="922.2" y1="1492.3" x2="1593.2" y2="1492.3"/>
		<line class="st139" x1="922.2" y1="1425.7" x2="1593.2" y2="1425.7"/>
		<line class="st139" x1="922.2" y1="1359.1" x2="1593.2" y2="1359.1"/>
		<line class="st139" x1="922.2" y1="1292.5" x2="1593.2" y2="1292.5"/>
		<line class="st139" x1="922.2" y1="1226" x2="1593.2" y2="1226"/>
		<line class="st139" x1="922.2" y1="1159.4" x2="1593.2" y2="1159.4"/>
		<line class="st139" x1="922.2" y1="1092.8" x2="1593.2" y2="1092.8"/>
		<line class="st139" x1="922.2" y1="1026.2" x2="1593.2" y2="1026.2"/>
		<line class="st139" x1="922.2" y1="959.6" x2="1593.2" y2="959.6"/>
	</g>
</g>
<path class="st140" d="M1094.5,875.8l283-50.1l-132.4,171.9L1094.5,875.8z M1097.1,721l0.3,281.7L1315,651.2L1097.1,721z
	 M1097.1,857.8l148.1-346.3l-150.7,130.3L1097.1,857.8z M1164.9,699.3l-69.3-291.4l1.5,313.1"/>
<g>
	<defs>
		<polygon id="SVGID_105_" points="1152.2,919.5 1187.6,862.3 1374.1,826.3 1247.9,998.2 		"/>
	</defs>
	<clipPath id="SVGID_8_">
		<use xlink:href="#SVGID_105_"  style="overflow:visible;"/>
	</clipPath>
	<g class="st46">
		
			<rect x="1030.8" y="543.4" transform="matrix(0.6646 -0.7472 0.7472 0.6646 -81.6532 1259.7747)" class="st128" width="663.4" height="355"/>
		<line class="st128" x1="1704" y1="580.7" x2="1263.1" y2="1076.4"/>
		<line class="st128" x1="1692.5" y1="570.5" x2="1251.6" y2="1066.1"/>
		<line class="st128" x1="1681" y1="560.2" x2="1240.1" y2="1055.9"/>
		<line class="st128" x1="1669.4" y1="550" x2="1228.5" y2="1045.6"/>
		<line class="st128" x1="1657.9" y1="539.7" x2="1217" y2="1035.3"/>
		<line class="st128" x1="1646.4" y1="529.4" x2="1205.5" y2="1025.1"/>
		<line class="st128" x1="1634.9" y1="519.2" x2="1194" y2="1014.8"/>
		<line class="st128" x1="1623.3" y1="508.9" x2="1182.4" y2="1004.6"/>
		<line class="st128" x1="1611.8" y1="498.7" x2="1170.9" y2="994.3"/>
		<line class="st128" x1="1600.3" y1="488.4" x2="1159.4" y2="984.1"/>
		<line class="st128" x1="1588.7" y1="478.1" x2="1147.8" y2="973.8"/>
		<line class="st128" x1="1577.2" y1="467.9" x2="1136.3" y2="963.5"/>
		<line class="st128" x1="1565.7" y1="457.6" x2="1124.8" y2="953.3"/>
		<line class="st128" x1="1554.1" y1="447.4" x2="1113.2" y2="943"/>
		<line class="st128" x1="1542.6" y1="437.1" x2="1101.7" y2="932.8"/>
		<line class="st128" x1="1531.1" y1="426.9" x2="1090.2" y2="922.5"/>
		<line class="st128" x1="1519.5" y1="416.6" x2="1078.6" y2="912.3"/>
		<line class="st128" x1="1508" y1="406.3" x2="1067.1" y2="902"/>
		<line class="st128" x1="1496.5" y1="396.1" x2="1055.6" y2="891.7"/>
		<line class="st128" x1="1484.9" y1="385.8" x2="1044" y2="881.5"/>
		<line class="st128" x1="1473.4" y1="375.6" x2="1032.5" y2="871.2"/>
		<line class="st128" x1="1461.9" y1="365.3" x2="1021" y2="861"/>
	</g>
</g>
<g>
	<defs>
		<polygon id="SVGID_107_" points="1141.6,601.1 1245.2,511.5 1164.9,699.3 		"/>
	</defs>
	<clipPath id="SVGID_10_">
		<use xlink:href="#SVGID_107_"  style="overflow:visible;"/>
	</clipPath>
	<g class="st47">
		
			<rect x="838.6" y="461.4" transform="matrix(0.6304 -0.7763 0.7763 0.6304 -63.3861 1144.6133)" class="st128" width="663.4" height="355"/>
		<line class="st128" x1="1505.1" y1="483.5" x2="1087" y2="998.5"/>
		<line class="st128" x1="1493.2" y1="473.8" x2="1075" y2="988.8"/>
		<line class="st128" x1="1481.2" y1="464.1" x2="1063" y2="979.1"/>
		<line class="st128" x1="1469.2" y1="454.3" x2="1051" y2="969.3"/>
		<line class="st128" x1="1457.2" y1="444.6" x2="1039" y2="959.6"/>
		<line class="st128" x1="1445.2" y1="434.9" x2="1027.1" y2="949.9"/>
		<line class="st128" x1="1433.3" y1="425.2" x2="1015.1" y2="940.1"/>
		<line class="st128" x1="1421.3" y1="415.4" x2="1003.1" y2="930.4"/>
		<line class="st128" x1="1409.3" y1="405.7" x2="991.1" y2="920.7"/>
		<line class="st128" x1="1397.3" y1="396" x2="979.1" y2="910.9"/>
		<line class="st128" x1="1385.3" y1="386.2" x2="967.2" y2="901.2"/>
		<line class="st128" x1="1373.3" y1="376.5" x2="955.2" y2="891.5"/>
		<line class="st128" x1="1361.4" y1="366.8" x2="943.2" y2="881.8"/>
		<line class="st128" x1="1349.4" y1="357.1" x2="931.2" y2="872"/>
		<line class="st128" x1="1337.4" y1="347.3" x2="919.2" y2="862.3"/>
		<line class="st128" x1="1325.4" y1="337.6" x2="907.3" y2="852.6"/>
		<line class="st128" x1="1313.4" y1="327.9" x2="895.3" y2="842.8"/>
		<line class="st128" x1="1301.5" y1="318.1" x2="883.3" y2="833.1"/>
		<line class="st128" x1="1289.5" y1="308.4" x2="871.3" y2="823.4"/>
		<line class="st128" x1="1277.5" y1="298.7" x2="859.3" y2="813.7"/>
		<line class="st128" x1="1265.5" y1="289" x2="847.3" y2="803.9"/>
		<line class="st128" x1="1253.5" y1="279.2" x2="835.4" y2="794.2"/>
	</g>
</g>
<g>
	<defs>
		<polygon id="SVGID_109_" points="1099.5,873.5 1164.9,708.6 1312.6,651.2 1196.8,847.9 		"/>
	</defs>
	<clipPath id="SVGID_12_">
		<use xlink:href="#SVGID_109_"  style="overflow:visible;"/>
	</clipPath>
	<g class="st48">
		
			<rect x="928.4" y="415.7" transform="matrix(0.7051 -0.7091 0.7091 0.7051 -49.0287 1068.5231)" class="st128" width="663.4" height="355"/>
		<line class="st128" x1="1608.9" y1="472.3" x2="1141.2" y2="942.7"/>
		<line class="st128" x1="1597.9" y1="461.4" x2="1130.2" y2="931.8"/>
		<line class="st128" x1="1587" y1="450.5" x2="1119.3" y2="920.9"/>
		<line class="st128" x1="1576" y1="439.6" x2="1108.3" y2="910"/>
		<line class="st128" x1="1565.1" y1="428.7" x2="1097.4" y2="899.1"/>
		<line class="st128" x1="1554.2" y1="417.8" x2="1086.4" y2="888.3"/>
		<line class="st128" x1="1543.2" y1="407" x2="1075.5" y2="877.4"/>
		<line class="st128" x1="1532.3" y1="396.1" x2="1064.5" y2="866.5"/>
		<line class="st128" x1="1521.3" y1="385.2" x2="1053.6" y2="855.6"/>
		<line class="st128" x1="1510.4" y1="374.3" x2="1042.6" y2="844.7"/>
		<line class="st128" x1="1499.4" y1="363.4" x2="1031.7" y2="833.9"/>
		<line class="st128" x1="1488.5" y1="352.6" x2="1020.8" y2="823"/>
		<line class="st128" x1="1477.5" y1="341.7" x2="1009.8" y2="812.1"/>
		<line class="st128" x1="1466.6" y1="330.8" x2="998.9" y2="801.2"/>
		<line class="st128" x1="1455.7" y1="319.9" x2="987.9" y2="790.3"/>
		<line class="st128" x1="1444.7" y1="309" x2="977" y2="779.4"/>
		<line class="st128" x1="1433.8" y1="298.1" x2="966" y2="768.6"/>
		<line class="st128" x1="1422.8" y1="287.3" x2="955.1" y2="757.7"/>
		<line class="st128" x1="1411.9" y1="276.4" x2="944.1" y2="746.8"/>
		<line class="st128" x1="1400.9" y1="265.5" x2="933.2" y2="735.9"/>
		<line class="st128" x1="1390" y1="254.6" x2="922.3" y2="725"/>
		<line class="st128" x1="1379" y1="243.7" x2="911.3" y2="714.2"/>
	</g>
</g>
<g>
	<defs>
		<polygon id="SVGID_111_" points="1094.5,650.7 1141.6,598.7 1097.1,423 		"/>
	</defs>
	<clipPath id="SVGID_14_">
		<use xlink:href="#SVGID_111_"  style="overflow:visible;"/>
	</clipPath>
	<g class="st49">
		<rect x="875.3" y="292" class="st128" width="355" height="663.4"/>
		<line class="st128" x1="1214.9" y1="292" x2="1214.9" y2="955.4"/>
		<line class="st128" x1="1199.5" y1="292" x2="1199.5" y2="955.4"/>
		<line class="st128" x1="1184" y1="292" x2="1184" y2="955.4"/>
		<line class="st128" x1="1168.6" y1="292" x2="1168.6" y2="955.4"/>
		<line class="st128" x1="1153.2" y1="292" x2="1153.2" y2="955.4"/>
		<line class="st128" x1="1137.7" y1="292" x2="1137.7" y2="955.4"/>
		<line class="st128" x1="1122.3" y1="292" x2="1122.3" y2="955.4"/>
		<line class="st128" x1="1106.9" y1="292" x2="1106.9" y2="955.4"/>
		<line class="st128" x1="1091.4" y1="292" x2="1091.4" y2="955.4"/>
		<line class="st128" x1="1076" y1="292" x2="1076" y2="955.4"/>
		<line class="st128" x1="1060.6" y1="292" x2="1060.6" y2="955.4"/>
		<line class="st128" x1="1045.1" y1="292" x2="1045.1" y2="955.4"/>
		<line class="st128" x1="1029.7" y1="292" x2="1029.7" y2="955.4"/>
		<line class="st128" x1="1014.3" y1="292" x2="1014.3" y2="955.4"/>
		<line class="st128" x1="998.8" y1="292" x2="998.8" y2="955.4"/>
		<line class="st128" x1="983.4" y1="292" x2="983.4" y2="955.4"/>
		<line class="st128" x1="968" y1="292" x2="968" y2="955.4"/>
		<line class="st128" x1="952.5" y1="292" x2="952.5" y2="955.4"/>
		<line class="st128" x1="937.1" y1="292" x2="937.1" y2="955.4"/>
		<line class="st128" x1="921.7" y1="292" x2="921.7" y2="955.4"/>
		<line class="st128" x1="906.2" y1="292" x2="906.2" y2="955.4"/>
		<line class="st128" x1="890.8" y1="292" x2="890.8" y2="955.4"/>
	</g>
</g>
</svg>
