<?xml version="1.0" encoding="utf-8"?>
<!-- Generator: Adobe Illustrator 22.1.0, SVG Export Plug-In . SVG Version: 6.00 Build 0)  -->
<svg version="1.1" id="Слой_1" xmlns="http://www.w3.org/2000/svg" xmlns:xlink="http://www.w3.org/1999/xlink" x="0px" y="0px"
	 viewBox="0 0 2080 2080" style="enable-background:new 0 0 2080 2080;" xml:space="preserve">
<style type="text/css">
	.st0{fill:#FFFFFF;}
	.st1{fill:#C8C6E5;}
	.st2{fill:#FDAC40;}
	.st3{fill:#EBCAA0;}
	.st4{fill:none;stroke:#FDAC40;stroke-width:4;stroke-linecap:round;stroke-miterlimit:10;}
	.st5{fill:none;stroke:#826DFD;stroke-width:4;stroke-linecap:round;stroke-linejoin:round;stroke-miterlimit:10;}
	.st6{fill:#826DFD;}
	.st7{fill:none;stroke:#000000;stroke-width:6;stroke-linecap:round;stroke-miterlimit:10;}
	.st8{fill:none;stroke:#000000;stroke-width:3;stroke-linecap:round;stroke-miterlimit:10;}
	.st9{fill:none;stroke:#000000;stroke-width:4;stroke-linecap:round;stroke-linejoin:round;stroke-miterlimit:10;}
	.st10{fill:none;stroke:#000000;stroke-width:6;stroke-linecap:round;stroke-linejoin:round;stroke-miterlimit:10;}
	.st11{fill:none;stroke:#000000;stroke-width:3;stroke-miterlimit:10;}
	.st12{fill:none;stroke:#000000;stroke-width:7;stroke-linecap:round;stroke-miterlimit:10;}
	.st13{fill:none;stroke:#000000;stroke-width:3;stroke-linecap:round;stroke-linejoin:round;stroke-miterlimit:10;}
	.st14{fill:none;stroke:#000000;stroke-width:5;stroke-miterlimit:10;}
	.st15{fill:none;stroke:#000000;stroke-width:2;stroke-linecap:round;stroke-linejoin:round;stroke-miterlimit:10;}
	.st16{fill:none;stroke:#000000;stroke-width:8;stroke-linecap:round;stroke-linejoin:round;stroke-miterlimit:10;}
	.st17{fill:none;stroke:#000000;stroke-width:3;stroke-linejoin:round;stroke-miterlimit:10;}
	.st18{fill:none;stroke:#000000;stroke-width:5;stroke-linecap:round;stroke-linejoin:round;stroke-miterlimit:10;}
	.st19{fill:none;stroke:#000000;stroke-width:2;stroke-miterlimit:10;}
	.st20{fill:none;stroke:#000000;stroke-width:2;stroke-linecap:round;stroke-miterlimit:10;}
	.st21{stroke:#000000;stroke-width:5;stroke-linecap:round;stroke-linejoin:round;stroke-miterlimit:10;}
	.st22{stroke:#000000;stroke-width:3;stroke-linecap:round;stroke-linejoin:round;stroke-miterlimit:10;}
	.st23{fill:none;stroke:#8378BF;stroke-width:5;stroke-linecap:round;stroke-linejoin:round;stroke-miterlimit:10;}
	.st24{fill:none;stroke:#826DFD;stroke-width:3;stroke-linecap:round;stroke-linejoin:round;stroke-miterlimit:10;}
	.st25{fill:none;stroke:#FDAC40;stroke-width:3;stroke-linecap:round;stroke-linejoin:round;stroke-miterlimit:10;}
	.st26{fill:none;stroke:#FDAC40;stroke-width:7;stroke-miterlimit:10;}
	.st27{fill:none;stroke:#000000;stroke-width:11;stroke-linecap:round;stroke-linejoin:round;stroke-miterlimit:10;}
	.st28{fill:none;stroke:#333333;stroke-width:5;stroke-linecap:round;stroke-miterlimit:10;stroke-dasharray:20;}
	.st29{fill:#FADC8C;}
	.st30{fill:none;stroke:#333333;stroke-width:5;stroke-linecap:round;stroke-miterlimit:10;stroke-dasharray:44.5321,44.5321;}
	.st31{fill:#333333;}
	.st32{fill:#F29F76;}
	.st33{fill:#7BD9E5;}
	.st34{fill:none;}
	.st35{fill:#65C8D0;}
	.st36{fill:#7BD9E5;stroke:#7BD9E5;stroke-miterlimit:10;}
	.st37{fill:none;stroke:#333333;stroke-linecap:round;stroke-linejoin:round;stroke-miterlimit:10;}
	.st38{fill:#7BD9E5;stroke:#333333;stroke-miterlimit:10;}
	.st39{fill:#8FACCC;}
	.st40{fill:#F9E958;}
	.st41{fill:#231F20;}
	.st42{font-family:'ComicSansMS';}
	.st43{font-size:31.3041px;}
	.st44{fill:none;stroke:#333333;stroke-width:3;stroke-linecap:round;stroke-miterlimit:10;}
	.st45{clip-path:url(#SVGID_2_);}
	.st46{clip-path:url(#SVGID_4_);}
	.st47{clip-path:url(#SVGID_6_);}
	.st48{clip-path:url(#SVGID_8_);}
	.st49{clip-path:url(#SVGID_10_);}
	.st50{clip-path:url(#SVGID_12_);}
	.st51{clip-path:url(#SVGID_14_);}
	.st52{clip-path:url(#SVGID_16_);}
	.st53{clip-path:url(#SVGID_18_);}
	.st54{clip-path:url(#SVGID_20_);}
	.st55{clip-path:url(#SVGID_22_);}
	.st56{clip-path:url(#SVGID_24_);}
	.st57{clip-path:url(#SVGID_26_);}
	.st58{clip-path:url(#SVGID_28_);}
	.st59{fill:#FF7300;}
	.st60{clip-path:url(#SVGID_30_);}
	.st61{fill:#020100;}
	.st62{fill:#FF6D00;}
	.st63{clip-path:url(#SVGID_32_);}
	.st64{clip-path:url(#SVGID_34_);fill:none;stroke:#2C1017;stroke-width:3.4838;stroke-miterlimit:10;}
	.st65{clip-path:url(#SVGID_36_);fill:none;stroke:#2C1017;stroke-width:3.4838;stroke-miterlimit:10;}
	.st66{clip-path:url(#SVGID_38_);fill:none;stroke:#2C1017;stroke-width:3.4838;stroke-miterlimit:10;}
	.st67{clip-path:url(#SVGID_40_);fill:none;stroke:#2C1017;stroke-width:3.4838;stroke-miterlimit:10;}
	.st68{clip-path:url(#SVGID_32_);fill:none;stroke:#231F20;stroke-width:2.6129;stroke-miterlimit:10;}
	.st69{clip-path:url(#SVGID_42_);fill:none;stroke:#231F20;stroke-width:0.871;stroke-miterlimit:10;}
	.st70{clip-path:url(#SVGID_44_);fill:none;stroke:#231F20;stroke-width:0.871;stroke-miterlimit:10;}
	.st71{clip-path:url(#SVGID_46_);fill:#231F20;}
	.st72{clip-path:url(#SVGID_46_);fill:none;stroke:#231F20;stroke-width:2.6129;stroke-miterlimit:10;}
	.st73{clip-path:url(#SVGID_46_);fill:#FFFFFF;}
	.st74{clip-path:url(#SVGID_46_);fill:none;stroke:#231F20;stroke-width:1.7419;stroke-miterlimit:10;}
	.st75{clip-path:url(#SVGID_48_);fill:#231F20;}
	.st76{clip-path:url(#SVGID_48_);fill:#FFFFFF;}
	.st77{fill:none;stroke:#000000;stroke-width:1.5;stroke-miterlimit:10;}
	.st78{fill:none;stroke:#000000;stroke-miterlimit:10;}
	.st79{fill:none;stroke:#000000;stroke-width:0.75;stroke-miterlimit:10;}
	.st80{stroke:#000000;stroke-miterlimit:10;}
	.st81{clip-path:url(#SVGID_49_);}
	.st82{clip-path:url(#SVGID_50_);}
	.st83{clip-path:url(#SVGID_51_);}
	.st84{clip-path:url(#SVGID_52_);}
	.st85{fill:none;stroke:#000000;stroke-width:0.25;stroke-miterlimit:10;}
	.st86{clip-path:url(#SVGID_53_);}
	.st87{fill:none;stroke:#000000;stroke-width:0.5;stroke-miterlimit:10;}
	.st88{clip-path:url(#SVGID_54_);}
	.st89{clip-path:url(#SVGID_55_);}
	.st90{clip-path:url(#SVGID_56_);}
	.st91{clip-path:url(#SVGID_57_);}
	.st92{clip-path:url(#SVGID_58_);}
	.st93{clip-path:url(#SVGID_59_);}
	.st94{clip-path:url(#SVGID_60_);}
	.st95{clip-path:url(#SVGID_61_);}
	.st96{clip-path:url(#SVGID_62_);}
	.st97{clip-path:url(#SVGID_63_);}
	.st98{clip-path:url(#SVGID_64_);}
	.st99{clip-path:url(#SVGID_65_);}
	.st100{stroke:#000000;stroke-width:0.75;stroke-miterlimit:10;}
	.st101{clip-path:url(#SVGID_67_);}
	.st102{clip-path:url(#SVGID_69_);}
	.st103{fill:none;stroke:#000000;stroke-width:6;stroke-miterlimit:10;}
	.st104{clip-path:url(#SVGID_71_);}
	.st105{clip-path:url(#SVGID_73_);}
	.st106{stroke:#000000;stroke-width:0.5;stroke-miterlimit:10;}
	.st107{clip-path:url(#SVGID_75_);}
	.st108{clip-path:url(#SVGID_77_);}
	.st109{stroke:#000000;stroke-width:0.25;stroke-miterlimit:10;}
	.st110{clip-path:url(#SVGID_79_);}
	.st111{clip-path:url(#SVGID_80_);}
	.st112{clip-path:url(#SVGID_81_);}
	.st113{clip-path:url(#SVGID_82_);}
	.st114{clip-path:url(#SVGID_83_);}
	.st115{clip-path:url(#SVGID_84_);}
	.st116{clip-path:url(#SVGID_86_);}
	.st117{stroke:#000000;stroke-linecap:round;stroke-linejoin:round;stroke-miterlimit:10;}
	.st118{clip-path:url(#SVGID_88_);}
	.st119{fill:none;stroke:#000000;stroke-width:0.25;stroke-linecap:round;stroke-linejoin:round;stroke-miterlimit:10;}
	.st120{stroke:#000000;stroke-width:0.25;stroke-linecap:round;stroke-linejoin:round;stroke-miterlimit:10;}
	.st121{clip-path:url(#SVGID_90_);}
	.st122{clip-path:url(#SVGID_92_);}
	.st123{clip-path:url(#SVGID_94_);}
	.st124{clip-path:url(#SVGID_96_);}
	.st125{fill:#F3E0B5;}
	.st126{clip-path:url(#SVGID_98_);}
	.st127{fill:#F7E7C5;}
	.st128{fill:none;stroke:#FFFFFF;stroke-width:3;stroke-miterlimit:10;}
	.st129{clip-path:url(#SVGID_100_);}
	.st130{fill:none;stroke:#FFFFFF;stroke-width:2;stroke-miterlimit:10;}
	.st131{fill:none;stroke:#FFFFFF;stroke-width:30;stroke-miterlimit:10;}
	.st132{fill:#FFFFFF;stroke:#FFFFFF;stroke-miterlimit:10;}
	.st133{stroke:#FFFFFF;stroke-miterlimit:10;}
	.st134{clip-path:url(#SVGID_102_);}
	.st135{fill:none;stroke:#FFFFFF;stroke-width:7;stroke-miterlimit:10;}
	.st136{fill:none;stroke:#FFFFFF;stroke-width:19;stroke-miterlimit:10;}
	.st137{fill:none;stroke:#FFFFFF;stroke-width:11;stroke-miterlimit:10;}
	.st138{fill:#FFFFFF;stroke:#FFFFFF;stroke-width:7;stroke-linecap:round;stroke-linejoin:round;stroke-miterlimit:10;}
	.st139{fill:none;stroke:#FFFFFF;stroke-width:0.5;stroke-miterlimit:10;}
	.st140{clip-path:url(#SVGID_104_);}
	.st141{fill:none;stroke:#FFFFFF;stroke-width:8;stroke-miterlimit:10;}
	.st142{fill:none;stroke:#FFFFFF;stroke-width:10;stroke-linejoin:bevel;stroke-miterlimit:10;}
	.st143{clip-path:url(#SVGID_106_);}
	.st144{clip-path:url(#SVGID_108_);}
	.st145{clip-path:url(#SVGID_110_);}
	.st146{clip-path:url(#SVGID_112_);}
	.st147{stroke:#000000;stroke-width:2;stroke-miterlimit:10;}
	.st148{fill:none;stroke:#000000;stroke-width:45;stroke-miterlimit:10;}
	.st149{stroke:#FFFFFF;stroke-width:4;stroke-miterlimit:10;}
	.st150{fill:none;stroke:#FFFFFF;stroke-width:4;stroke-miterlimit:10;}
	.st151{fill:#FFFFFF;stroke:#FFFFFF;stroke-width:4;stroke-miterlimit:10;}
	.st152{clip-path:url(#SVGID_114_);}
	.st153{opacity:0.51;fill:#339999;stroke:#000000;stroke-width:2;stroke-miterlimit:10;}
	.st154{opacity:0.18;fill:#FFCCFF;stroke:#000000;stroke-width:2;stroke-miterlimit:10;}
	.st155{opacity:4.000000e-02;fill:#FFCCFF;stroke:#000000;stroke-width:2;stroke-miterlimit:10;}
	.st156{opacity:0.18;fill:#003333;stroke:#000000;stroke-width:2;stroke-miterlimit:10;}
	.st157{opacity:0.46;fill:#99FFFF;stroke:#000000;stroke-width:2;stroke-miterlimit:10;}
	.st158{opacity:0.18;fill:#CC99FF;stroke:#000000;stroke-width:2;stroke-miterlimit:10;}
	.st159{opacity:0.47;fill:#FFCCFF;stroke:#000000;stroke-width:2;stroke-miterlimit:10;}
	.st160{opacity:0.11;fill:#333399;stroke:#000000;stroke-width:2;stroke-miterlimit:10;}
	.st161{opacity:0.11;fill:#99FFFF;stroke:#000000;stroke-width:2;stroke-miterlimit:10;}
	.st162{opacity:0.18;fill:#9999FF;stroke:#000000;stroke-width:2;stroke-miterlimit:10;}
	.st163{opacity:0.18;fill:none;stroke:#000000;stroke-width:2;stroke-miterlimit:10;}
	.st164{opacity:0.68;fill:#FFFFFF;}
	.st165{opacity:0.18;fill:#6666FF;stroke:#000000;stroke-width:2;stroke-miterlimit:10;}
	.st166{fill:#FFFFFF;stroke:#000000;stroke-width:2;stroke-miterlimit:10;}
	.st167{fill:none;stroke:#000000;stroke-width:0.5;stroke-linecap:round;stroke-linejoin:round;}
	.st168{opacity:0.36;fill:#FFFFFF;stroke:#000000;stroke-width:0.5;stroke-linecap:round;stroke-linejoin:round;}
	.st169{opacity:0.37;fill:#CCFFFF;stroke:#000000;stroke-width:0.5;stroke-linecap:round;stroke-linejoin:round;}
	.st170{opacity:0.69;fill:#E6FFFE;stroke:#000000;stroke-width:0.5;stroke-linecap:round;stroke-linejoin:round;}
	.st171{opacity:0.8;fill:#FFFFFF;stroke:#000000;stroke-width:0.5;stroke-linecap:round;stroke-linejoin:round;}
	.st172{opacity:0.43;fill:#CCFFFF;stroke:#000000;stroke-width:0.5;stroke-linecap:round;stroke-linejoin:round;}
	.st173{opacity:0.82;fill:#FFFFFF;stroke:#000000;stroke-width:0.5;stroke-linecap:round;stroke-linejoin:round;}
	.st174{opacity:0.76;fill:#FFFFFF;stroke:#000000;stroke-width:0.5;stroke-linecap:round;stroke-linejoin:round;}
	.st175{opacity:0.47;fill:#6633CC;stroke:#000000;stroke-width:0.5;stroke-linecap:round;stroke-linejoin:round;}
	.st176{opacity:0.51;fill:#CCFFFF;stroke:#000000;stroke-width:0.5;stroke-linecap:round;stroke-linejoin:round;}
	.st177{opacity:0.4;fill:#000033;stroke:#000000;stroke-width:0.5;stroke-linecap:round;stroke-linejoin:round;}
	.st178{opacity:0.43;fill:#330033;stroke:#000000;stroke-width:0.5;stroke-linecap:round;stroke-linejoin:round;}
	.st179{opacity:0.1;fill:#9966FF;stroke:#000000;stroke-width:2;stroke-miterlimit:10;}
	.st180{opacity:0.23;fill:#330033;stroke:#000000;stroke-width:2;stroke-miterlimit:10;}
	.st181{opacity:0.18;}
	.st182{fill:#FFCCFF;}
	.st183{opacity:0.51;}
	.st184{fill:#339999;}
	.st185{opacity:4.000000e-02;}
	.st186{fill:#003333;}
	.st187{opacity:0.46;}
	.st188{fill:#99FFFF;}
	.st189{fill:#CC99FF;}
	.st190{opacity:0.47;}
	.st191{opacity:0.11;}
	.st192{fill:#333399;}
	.st193{fill:#9999FF;}
	.st194{opacity:0.18;fill:#FFFFFF;}
	.st195{opacity:0.62;}
	.st196{fill:#6666FF;}
	.st197{opacity:0.42;}
	.st198{fill:#9C62A0;}
	.st199{fill:none;stroke:#FFFFFF;stroke-width:0.5;stroke-linecap:round;stroke-linejoin:round;}
	.st200{opacity:0.36;}
	.st201{opacity:0.37;}
	.st202{fill:#CCFFFF;}
	.st203{fill:none;stroke:#FFFFFF;stroke-width:4;stroke-linecap:round;stroke-linejoin:round;}
	.st204{opacity:0.69;}
	.st205{fill:#E6FFFE;}
	.st206{opacity:0.8;}
	.st207{opacity:0.43;}
	.st208{opacity:0.82;}
	.st209{opacity:0.76;}
	.st210{fill:#6633CC;}
	.st211{opacity:0.4;}
	.st212{fill:#000033;}
	.st213{fill:#330033;}
	.st214{opacity:0.1;}
	.st215{fill:#9966FF;}
	.st216{opacity:0.72;}
	.st217{fill:#333366;}
	.st218{fill:#E3E825;stroke:#42210B;stroke-width:10;stroke-linejoin:round;stroke-miterlimit:10;}
	.st219{fill:#C69C6D;stroke:#42210B;stroke-width:10;stroke-linejoin:round;stroke-miterlimit:10;}
	.st220{fill:#42210B;stroke:#42210B;stroke-width:10;stroke-linejoin:round;stroke-miterlimit:10;}
	.st221{fill:#E53C70;stroke:#42210B;stroke-width:10;stroke-linejoin:round;stroke-miterlimit:10;}
	.st222{fill:#F27C08;stroke:#42210B;stroke-width:10;stroke-linejoin:round;stroke-miterlimit:10;}
	.st223{fill:#AA4913;}
	.st224{fill:#D68A63;}
	.st225{fill:#EAC598;}
	.st226{fill:#F26692;}
	.st227{fill:#EDAF77;}
	.st228{fill:#FBB03B;stroke:#7A5D3B;stroke-width:12;stroke-linecap:round;stroke-miterlimit:10;}
	.st229{fill:none;stroke:#42210B;stroke-width:10;stroke-linejoin:round;stroke-miterlimit:10;}
	.st230{fill:#087F2C;stroke:#42210B;stroke-width:10;stroke-linejoin:round;stroke-miterlimit:10;}
	.st231{fill:#98D14E;}
	.st232{fill:#80A574;stroke:#071103;stroke-width:14;stroke-linejoin:round;stroke-miterlimit:10;}
	.st233{fill:#EF2E2E;stroke:#071103;stroke-width:14;stroke-linejoin:round;stroke-miterlimit:10;}
	.st234{fill:#5D7554;stroke:#051101;stroke-width:14;stroke-linejoin:round;stroke-miterlimit:10;}
	.st235{fill:none;stroke:#6B996E;stroke-width:40;stroke-linecap:round;stroke-miterlimit:10;}
	.st236{fill:none;stroke:#203316;stroke-width:14;stroke-linejoin:round;stroke-miterlimit:10;}
	.st237{fill:none;stroke:#071103;stroke-width:14;stroke-linejoin:round;stroke-miterlimit:10;}
	.st238{fill:#42210B;}
	.st239{fill:#47683E;}
	.st240{fill:#5D7554;stroke:#071103;stroke-width:14;stroke-linejoin:round;stroke-miterlimit:10;}
	.st241{fill:#E3E825;stroke:#071103;stroke-width:14;stroke-linejoin:round;stroke-miterlimit:10;}
	.st242{fill:#F4F490;}
	.st243{fill:#E53C70;stroke:#071103;stroke-width:14;stroke-linejoin:round;stroke-miterlimit:10;}
	.st244{fill:#071103;stroke:#071103;stroke-width:14;stroke-linejoin:round;stroke-miterlimit:10;}
	.st245{fill:#E53C70;stroke:#EF95B1;stroke-width:14;stroke-linecap:round;stroke-linejoin:round;stroke-miterlimit:10;}
	.st246{fill:#E3E825;stroke:#071103;stroke-width:10;stroke-linejoin:round;stroke-miterlimit:10;}
	.st247{fill:#071103;}
	.st248{fill:#FFFF00;}
	.st249{fill:none;stroke:#752525;stroke-width:4;stroke-miterlimit:10;}
	.st250{fill:none;stroke:#AA3333;stroke-width:5;stroke-miterlimit:10;}
	.st251{fill:none;stroke:#ED1C24;stroke-width:3;stroke-miterlimit:10;}
	.st252{fill:#AA3333;}
	.st253{fill:#F94B4B;}
	.st254{fill:none;stroke:#AA3333;stroke-width:9;stroke-miterlimit:10;}
	.st255{fill:#FC7E7E;}
	.st256{fill:#FC7E7E;stroke:#FC7E7E;stroke-width:7;stroke-miterlimit:10;}
	.st257{fill:none;stroke:#FC7E7E;stroke-width:9;stroke-miterlimit:10;}
	.st258{fill:none;stroke:#FCFAFA;stroke-width:4;stroke-miterlimit:10;}
	.st259{fill:#681D1D;}
	.st260{fill:#BA4FB0;}
	.st261{fill:#A068A0;}
	.st262{fill:#E0A6E0;}
	.st263{fill:none;stroke:#540E56;stroke-width:4;stroke-miterlimit:10;}
	.st264{fill:#7A347A;}
	.st265{fill:#007F82;}
	.st266{fill:#04A8A8;}
	.st267{fill:none;stroke:#764977;stroke-width:3;stroke-miterlimit:10;}
	.st268{fill:#3ECCC5;}
	.st269{fill:none;stroke:#004242;stroke-width:3;stroke-miterlimit:10;}
	.st270{fill:none;stroke:#7C0C00;stroke-width:3;stroke-miterlimit:10;}
	.st271{fill:#004242;}
	.st272{fill:#510600;}
	.st273{fill:#FF866E;}
	.st274{fill:#D30B0B;}
	.st275{fill:none;stroke:#F200FF;stroke-width:3;stroke-miterlimit:10;}
	.st276{fill:none;stroke:#F200FF;stroke-miterlimit:10;}
	.st277{fill:none;stroke:#04070F;stroke-width:3;stroke-miterlimit:10;}
	.st278{fill:#005654;}
</style>
<rect x="-10192" y="-4187" class="st0" width="14249" height="14249"/>
<g id="Success_trail_one_1_">
	<circle class="st39" cx="1732.8" cy="892.4" r="210.3"/>
	<circle class="st40" cx="292.3" cy="862.8" r="121"/>
	<circle class="st40" cx="669" cy="809.4" r="24.4"/>
	<g>
		<path class="st31" d="M292.3,928.4c-36,0-65.4-29.4-65.4-65.6c0-36.2,29.3-65.6,65.4-65.6s65.4,29.4,65.4,65.6
			C357.6,899,328.3,928.4,292.3,928.4z M292.3,807.8c-30.2,0-54.7,24.7-54.7,55c0,30.3,24.6,55,54.7,55c30.2,0,54.7-24.7,54.7-55
			C347,832.5,322.5,807.8,292.3,807.8z"/>
	</g>
	<g>
		<g>
			<g>
				<path class="st31" d="M259.9,1475.2c-10.3,0-20.1-3.5-27.4-9.9c-7.6-6.7-11.7-15.9-11.7-25.9v-212.6c-5,2.5-10.6,3.9-16.3,3.9
					c-9.3,0-17.9-3.4-24.3-9.4c-6.6-6.1-10.1-14.3-10.1-23l1.1-182.4c0-0.1,0-0.1,0-0.2c1.4-34.6,33.3-71.7,82.3-71.7
					c0.3,0,0.6,0,0.8,0l1,0l85.8-0.4l0.4,5.3l0-5.3l1.3,0c45.1,1,81.4,36.3,81,78.8l-1.6,175.1c-0.2,17.7-15.6,32-34.4,32
					c-0.1,0-0.2,0-0.3,0c-7-0.1-13.6-2.1-19.2-5.7v210.9c0,23.2-16.6,40.1-39.5,40.2c-0.1,0-0.2,0-0.3,0c-17.2,0-27.6-9.8-33.1-19.8
					c-5.4,9-14.8,18-29.8,19.9C263.7,1475.1,261.8,1475.2,259.9,1475.2z M226.1,1211c0.7,0,1.3,0.1,2,0.4c2,0.8,3.3,2.8,3.3,4.9v223
					c0,7,2.9,13.3,8.1,18c6.3,5.6,15.4,8.2,24.8,7c21.4-2.7,26-24.3,26.1-25.2c0.5-2.5,2.9-4.3,5.3-4.3c2.6,0.1,4.7,1.9,5.1,4.5
					c0.2,1,4.4,24.9,27.6,24.9c0.1,0,0.1,0,0.2,0c17-0.1,28.9-12.3,28.9-29.6v-223.4c0-2.3,1.5-4.4,3.8-5.1c2.2-0.7,4.7,0.2,6,2.2
					c4.3,6.5,11.9,10.5,20.2,10.6c0.1,0,0.1,0,0.2,0c13,0,23.7-9.6,23.8-21.5l1.6-175.1c0.3-36.7-31.3-67.2-70.6-68l-1.5,0
					l-85.8,0.4l-1,0c-0.2,0-0.5,0-0.7,0c-42.7,0-70.4,31.7-71.7,61.4l-1.1,182.3c0,5.7,2.4,11.1,6.7,15.2c4.5,4.2,10.5,6.5,16.9,6.6
					c6.9,0,13.4-2.7,17.9-7.3C223.3,1211.6,224.7,1211,226.1,1211z"/>
			</g>
		</g>
		<g>
			<path class="st31" d="M363,1216.5c-2.9,0-5.3-2.4-5.3-5.3l-0.2-175c0-2.9,2.4-5.3,5.3-5.3c0,0,0,0,0,0c2.9,0,5.3,2.4,5.3,5.3
				l0.2,175C368.3,1214.1,366,1216.5,363,1216.5C363,1216.5,363,1216.5,363,1216.5z"/>
		</g>
		<g>
			<path class="st31" d="M226.1,1221.7c-2.9,0-5.3-2.4-5.3-5.3v-180.2c0-2.9,2.4-5.3,5.3-5.3s5.3,2.4,5.3,5.3v180.2
				C231.4,1219.3,229.1,1221.7,226.1,1221.7z"/>
		</g>
		<g>
			<path class="st31" d="M295.7,1445.5c-2.9,0-5.3-2.4-5.3-5.3v-231.8c0-2.9,2.4-5.3,5.3-5.3c2.9,0,5.3,2.4,5.3,5.3v231.8
				C301,1443.1,298.7,1445.5,295.7,1445.5z"/>
		</g>
	</g>
	<g>
		<path class="st39" d="M138,1327.1h125.8c0.6,0,1.1-0.5,1.1-1.1v-96.3c0-0.6-0.5-1.1-1.1-1.1H138c-0.6,0-1.1,0.5-1.1,1.1v96.3
			C136.8,1326.6,137.3,1327.1,138,1327.1z"/>
		<path class="st31" d="M261,1332.4H140.8c-5.1,0-9.2-4.1-9.2-9.2v-90.6c0-5.1,4.1-9.2,9.2-9.2H261c5.1,0,9.2,4.1,9.2,9.2v90.6
			C270.2,1328.3,266.1,1332.4,261,1332.4z M142.2,1321.8h117.4v-87.9H142.2V1321.8z"/>
		<g>
			<path class="st0" d="M136.8,1231.8L150,1259l2.6,5.6c3.9,8.5,12.1,14,21.3,14h54c9.1,0,17.3-5.4,21.2-13.8l2.7-5.9l13.1-27.1"/>
			<path class="st31" d="M227.9,1283.9h-54c-11.1,0-21.4-6.7-26.1-17.1l-2.6-5.6l-13.1-27.1c-1.3-2.6-0.2-5.8,2.5-7.1
				c2.6-1.3,5.8-0.2,7.1,2.5l15.8,32.9c3,6.6,9.5,10.9,16.4,10.9h54c6.9,0,13.4-4.2,16.4-10.8l2.7-5.8l13.2-27.2
				c1.3-2.6,4.5-3.7,7.1-2.5c2.6,1.3,3.7,4.5,2.5,7.1l-15.8,32.9C249.1,1277.2,238.9,1283.9,227.9,1283.9z"/>
		</g>
	</g>
	<g>
		<path class="st0" d="M175.4,1226.6h50.9v-25c0-0.6-0.5-1.1-1.1-1.1h-48.7c-0.6,0-1.1,0.5-1.1,1.1V1226.6z"/>
		<path class="st31" d="M226.3,1231.9h-50.9c-2.9,0-5.3-2.4-5.3-5.3v-22.3c0-5,4.1-9.1,9.1-9.1h43.3c5,0,9.1,4.1,9.1,9.1v22.3
			C231.6,1229.5,229.2,1231.9,226.3,1231.9z M180.8,1221.3H221v-15.4h-40.2V1221.3z"/>
	</g>
	<g>
		<path class="st31" d="M669,837.6c-15.5,0-28.1-12.7-28.1-28.2c0-15.6,12.6-28.2,28.1-28.2c15.5,0,28.1,12.7,28.1,28.2
			C697.2,824.9,684.5,837.6,669,837.6z M669,786.1c-12.8,0-23.2,10.5-23.2,23.3c0,12.8,10.4,23.3,23.2,23.3
			c12.8,0,23.2-10.5,23.2-23.3C692.2,796.5,681.8,786.1,669,786.1z"/>
	</g>
	<g>
		<g>
			<g>
				<path class="st31" d="M682.9,1078.3c-0.8,0-1.7-0.1-2.5-0.2c-6.3-0.8-10.3-4.5-12.7-8.3c-2.4,4.2-6.9,8.3-14.2,8.3
					c0,0-0.1,0-0.1,0c-9.9-0.1-17.1-7.4-17.1-17.4V964c-2.3,1.4-5.1,2.2-8,2.3c0,0-0.1,0-0.1,0c-8.2,0-14.8-6.2-14.9-13.9l-0.7-74.9
					c-0.2-18.2,15.4-33.4,34.8-33.9l0.5,0c0,0,0.3,0,0.3,0l36.7,0.2l0.3,2.5l0-2.5c9.3-0.6,18.6,2.7,25.5,9
					c6.4,5.9,10.1,13.6,10.3,21.8c0,0,0,0,0,0.1l0.5,78c0,3.8-1.5,7.3-4.4,10c-2.8,2.6-6.5,4.1-10.4,4.1c-2.4,0-4.8-0.5-6.9-1.5
					v97.5c0,4.4-1.8,8.3-5.1,11.2C691.5,1076.8,687.3,1078.3,682.9,1078.3z M667.6,1060.6c1.2,0,2.2,0.8,2.4,2
					c0.1,0.4,2,9.5,11,10.6c4,0.5,7.8-0.6,10.4-2.9c2.2-1.9,3.4-4.6,3.4-7.5V960.5c0-1,0.6-1.9,1.5-2.3c0.9-0.4,2-0.2,2.7,0.6
					c1.9,2,4.6,3.1,7.5,3.1c2.8,0,5.3-1,7.2-2.8c1.8-1.7,2.8-4,2.8-6.4l-0.5-77.9c-0.2-6.8-3.3-13.3-8.7-18.3
					c-5.9-5.4-13.9-8.2-21.9-7.8c-0.1,0-0.3,0-0.5,0l-36.8-0.2l-0.2-2.5l0,2.5l-0.4,0c-16.7,0.4-30.1,13.3-30,28.9l0.7,74.9
					c0,5,4.5,9,10,9c0,0,0.1,0,0.1,0c3.5,0,6.7-1.7,8.5-4.4c0.6-0.9,1.7-1.3,2.8-1c1,0.3,1.8,1.3,1.8,2.4v102.5
					c0,7.3,5,12.4,12.2,12.5c10,0.1,11.6-10,11.7-10.5C665.3,1061.5,666.3,1060.7,667.6,1060.6
					C667.5,1060.6,667.6,1060.6,667.6,1060.6z"/>
			</g>
		</g>
		<g>
			<path class="st31" d="M638.8,960.7C638.8,960.7,638.8,960.7,638.8,960.7c-1.4,0-2.5-1.1-2.5-2.5l0.1-74.8c0-1.4,1.1-2.5,2.5-2.5
				c0,0,0,0,0,0c1.4,0,2.5,1.1,2.5,2.5l-0.1,74.8C641.3,959.6,640.2,960.7,638.8,960.7z"/>
		</g>
		<g>
			<path class="st31" d="M697.3,962.9c-1.4,0-2.5-1.1-2.5-2.5v-77c0-1.4,1.1-2.5,2.5-2.5c1.4,0,2.5,1.1,2.5,2.5v77
				C699.8,961.8,698.7,962.9,697.3,962.9z"/>
		</g>
		<g>
			<path class="st31" d="M667.6,1065.6c-1.4,0-2.5-1.1-2.5-2.5v-106c0-1.4,1.1-2.5,2.5-2.5c1.4,0,2.5,1.1,2.5,2.5v106
				C670,1064.5,668.9,1065.6,667.6,1065.6z"/>
		</g>
	</g>
	<g>
		<path class="st39" d="M681,1011.9h54.7c0.6,0,1.1-0.5,1.1-1.1v-41.6c0-0.6-0.5-1.1-1.1-1.1H681c-0.6,0-1.1,0.5-1.1,1.1v41.6
			C679.9,1011.4,680.4,1011.9,681,1011.9z"/>
		<path class="st31" d="M735.1,1014.3h-53.5c-2.3,0-4.1-1.8-4.1-4.1v-40.3c0-2.3,1.8-4.1,4.1-4.1h53.5c2.3,0,4.1,1.8,4.1,4.1v40.3
			C739.2,1012.4,737.4,1014.3,735.1,1014.3z M682.3,1009.5h52.2v-39.1h-52.2V1009.5z"/>
		<g>
			<path class="st0" d="M735.8,970l-5.6,11.6L729,984c-1.6,3.6-5.2,6-9.1,6h-23.1c-3.9,0-7.4-2.3-9.1-5.9l-1.2-2.5L681,970"/>
			<path class="st31" d="M719.9,992.5h-23.1c-4.8,0-9.2-2.9-11.3-7.3l-1.2-2.5l-5.6-11.5c-0.6-1.2-0.1-2.7,1.1-3.3
				c1.2-0.6,2.7-0.1,3.3,1.1l6.8,14.1c1.3,2.7,3.9,4.5,6.8,4.5h23.1c2.9,0,5.6-1.8,6.9-4.5l1.1-2.4l5.7-11.7
				c0.6-1.2,2.1-1.7,3.3-1.1c1.2,0.6,1.7,2.1,1.1,3.3l-6.7,14C729.2,989.6,724.8,992.5,719.9,992.5z"/>
		</g>
	</g>
	<g>
		<path class="st0" d="M719,964.8h-21.7v-10.1c0-0.5,0.4-1,1-1H718c0.5,0,1,0.4,1,1V964.8z"/>
		<path class="st31" d="M719,967.3h-21.7c-1.4,0-2.5-1.1-2.5-2.5v-9.5c0-2.2,1.8-4.1,4.1-4.1h18.5c2.2,0,4.1,1.8,4.1,4.1v9.5
			C721.4,966.2,720.3,967.3,719,967.3z M699.7,962.4h16.8v-6.2h-16.8V962.4z"/>
	</g>
	<g>
		<line class="st0" x1="746.7" y1="944.4" x2="781.5" y2="943.7"/>
		<path class="st31" d="M746.7,946.9c-1.3,0-2.4-1.1-2.5-2.4c0-1.4,1.1-2.5,2.4-2.5l34.8-0.7c1.4,0,2.5,1.1,2.5,2.4
			c0,1.4-1.1,2.5-2.4,2.5L746.7,946.9C746.7,946.9,746.7,946.9,746.7,946.9z"/>
	</g>
	<g>
		<path class="st31" d="M825.3,946.2h-43.8c-1.4,0-2.5-1.1-2.5-2.5c0-1.4,1.1-2.5,2.5-2.5h43.8c1.4,0,2.5,1.1,2.5,2.5
			C827.8,945.1,826.7,946.2,825.3,946.2z"/>
	</g>
	<g>
		<path class="st31" d="M825.3,1049.8h-38.8c-4.1,0-7.5-3.4-7.5-7.5V850.1c0-4.1,3.4-7.5,7.5-7.5h38.8c1.4,0,2.5,1.1,2.5,2.5
			s-1.1,2.5-2.5,2.5h-38.8c-1.4,0-2.6,1.1-2.6,2.6v192.2c0,1.4,1.1,2.6,2.6,2.6h38.8c1.4,0,2.5,1.1,2.5,2.5
			C827.8,1048.7,826.7,1049.8,825.3,1049.8z"/>
	</g>
	<g>
		<circle class="st0" cx="834.5" cy="845.1" r="14"/>
		<path class="st31" d="M834.5,861.5c-9.1,0-16.5-7.4-16.5-16.5s7.4-16.5,16.5-16.5S851,836,851,845.1S843.6,861.5,834.5,861.5z
			 M834.5,833.5c-6.4,0-11.5,5.2-11.5,11.5s5.2,11.5,11.5,11.5c6.4,0,11.5-5.2,11.5-11.5S840.9,833.5,834.5,833.5z"/>
	</g>
	<g>
		<circle class="st0" cx="834.5" cy="943.7" r="14"/>
		<path class="st31" d="M834.5,960.2c-9.1,0-16.5-7.4-16.5-16.5c0-9.1,7.4-16.5,16.5-16.5s16.5,7.4,16.5,16.5
			C851,952.8,843.6,960.2,834.5,960.2z M834.5,932.2c-6.4,0-11.5,5.2-11.5,11.5c0,6.4,5.2,11.5,11.5,11.5c6.4,0,11.5-5.2,11.5-11.5
			C846,937.3,840.9,932.2,834.5,932.2z"/>
	</g>
	<g>
		<circle class="st0" cx="834.5" cy="1047.3" r="14"/>
		<path class="st31" d="M834.5,1063.8c-9.1,0-16.5-7.4-16.5-16.5c0-9.1,7.4-16.5,16.5-16.5s16.5,7.4,16.5,16.5
			C851,1056.4,843.6,1063.8,834.5,1063.8z M834.5,1035.8c-6.4,0-11.5,5.2-11.5,11.5c0,6.4,5.2,11.5,11.5,11.5
			c6.4,0,11.5-5.2,11.5-11.5C846,1040.9,840.9,1035.8,834.5,1035.8z"/>
	</g>
	<circle class="st40" cx="834.5" cy="845.1" r="11.6"/>
	<circle class="st40" cx="834.5" cy="943.7" r="11.6"/>
	<circle class="st40" cx="834.5" cy="1047.3" r="11.6"/>
	<polygon class="st40" points="1295.2,1276.2 1295.2,1285.3 1291.7,1293.6 1335.9,1294.3 1336.9,1133.8 1334.8,1128.6 1329,1127.1 
		1322.1,1129.1 1319.8,1134 1320.1,1146.6 1320.6,1268.9 1320,1272 1318,1273.3 1313.5,1276 1303.2,1275.7 	"/>
	<g>
		<path class="st31" d="M1336.7,1297.1h-113.6c-6.7,0-12.1-5.4-12.1-12.1s5.4-12.1,12.1-12.1h88.1c3.7,0,6.7-3,6.7-6.7v-132.2
			c0-5.1,4.1-9.2,9.2-9.2h3.2c5.1,0,9.2,4.1,9.2,9.2v160.3C1339.4,1295.9,1338.2,1297.1,1336.7,1297.1z M1223.1,1278.4
			c-3.7,0-6.7,3-6.7,6.7s3,6.7,6.7,6.7H1334v-157.6c0-2.1-1.7-3.8-3.8-3.8h-3.2c-2.1,0-3.8,1.7-3.8,3.8v132.2
			c0,6.7-5.4,12.1-12.1,12.1H1223.1z"/>
	</g>
	<g>
		<g>
			<circle class="st0" cx="1158.3" cy="1108" r="48.2"/>
			<path class="st31" d="M1158.3,1158.9c-28,0-50.9-22.8-50.9-50.9c0-28,22.8-50.9,50.9-50.9c28,0,50.9,22.8,50.9,50.9
				C1209.2,1136.1,1186.4,1158.9,1158.3,1158.9z M1158.3,1062.6c-25.1,0-45.4,20.4-45.4,45.4s20.4,45.4,45.4,45.4
				c25.1,0,45.4-20.4,45.4-45.4S1183.4,1062.6,1158.3,1062.6z"/>
		</g>
		<g>
			<path class="st0" d="M1160.8,1265.7l27.6,37.3c4.5,6.9,85.5,1.9,85.5,1.9c13-1.8,23-13.5,21.5-26.6
				c-1.5-13.5-11.2-20.9-27.3-21.1l-48.2,1c-6.5,0.1-12.4-3.9-14.6-10c0,0-18.9-43.7-29.3-57l-0.1-0.1c-7.5-9.6-19.2-15.4-30.8-16.2
				c-39.6-2.6-57.8,20.9-60.1,51.8l-6.4,82.9"/>
			<path class="st31" d="M1078.7,1312.2c-0.1,0-0.1,0-0.2,0c-1.5-0.1-2.6-1.4-2.5-2.9l6.4-82.9c2.7-36.4,26.2-56.7,62.9-54.3
				c12.8,0.8,25,7.3,32.7,17.2c10.6,13.6,29,55.9,29.8,57.7c1.9,5.2,6.7,8.5,12.1,8.3l48.2-1c17.7,0.3,28.3,8.6,30,23.5
				c1.6,14.2-9.1,27.5-23.8,29.6c-0.1,0-0.1,0-0.2,0c-0.2,0-20.6,1.3-41.2,1.6c-43.1,0.8-45.5-2.8-46.8-4.7l-27.5-37.1
				c-0.9-1.2-0.6-2.9,0.6-3.8c1.2-0.9,2.9-0.6,3.8,0.6l27.6,37.2c4.5,3.4,45.7,3.1,83.1,0.8c11.8-1.7,20.4-12.3,19.1-23.6
				c-1.7-15.2-14.3-18.6-24.6-18.7l-48.1,1c-0.1,0-0.2,0-0.4,0c-7.5,0-14.3-4.7-16.9-11.8c-0.1-0.3-18.8-43.4-28.9-56.3
				c-6.9-8.9-17.7-14.5-28.9-15.3c-33.9-2.3-54.7,15.7-57.2,49.3l-6.4,82.9C1081.3,1311.1,1080.1,1312.2,1078.7,1312.2z
				 M1190.6,1301.4L1190.6,1301.4L1190.6,1301.4C1190.6,1301.4,1190.6,1301.4,1190.6,1301.4z M1190.5,1301.3"/>
		</g>
	</g>
	<g>
		<path class="st0" d="M1380,1303.2c0-4.8-3.6-8.7-8.1-8.7l-213.7-0.9l-1.3,18.3h215C1376.4,1311.9,1380,1307.9,1380,1303.2z"/>
		<path class="st31" d="M1371.9,1314.6h-215c-0.8,0-1.5-0.3-2-0.9c-0.5-0.6-0.8-1.3-0.7-2l1.3-18.3c0.1-1.4,1.3-2.5,2.7-2.5
			c0,0,0,0,0,0l213.7,0.9c5.9,0,10.8,5.1,10.8,11.4C1382.7,1309.5,1377.9,1314.6,1371.9,1314.6z M1159.9,1309.2h212.1
			c3,0,5.4-2.7,5.4-6c0-3.3-2.4-6-5.4-6l-211.1-0.8L1159.9,1309.2z"/>
	</g>
	<circle class="st39" cx="1294.7" cy="1017.5" r="70.4"/>
	<circle class="st0" cx="1295.6" cy="1017.5" r="52.5"/>
	<g>
		<path class="st31" d="M1295.6,1090c-37.7,0-69.6-29.2-72.3-67.4c-2.8-39.9,27.3-74.6,67.2-77.5c19.3-1.4,38,4.9,52.6,17.6
			s23.4,30.3,24.8,49.6l0,0c2.8,39.9-27.3,74.6-67.2,77.5C1299,1089.9,1297.3,1090,1295.6,1090z M1295.7,950.4
			c-1.6,0-3.2,0.1-4.9,0.2c-36.9,2.6-64.8,34.8-62.2,71.7c2.6,36.9,34.7,64.8,71.7,62.2c36.9-2.6,64.8-34.8,62.2-71.7l0,0
			c-1.3-17.9-9.4-34.2-23-45.9C1327.3,956.1,1311.8,950.4,1295.7,950.4z"/>
	</g>
	<g>
		<path class="st31" d="M1295.6,1073.9c-29.3,0-54.2-22.8-56.3-52.5c-1.1-15,3.8-29.6,13.7-41c9.9-11.4,23.6-18.3,38.7-19.3
			c31.1-2.2,58.1,21.3,60.3,52.3l0,0c2.2,31.1-21.3,58.1-52.3,60.3C1298.2,1073.9,1296.9,1073.9,1295.6,1073.9z M1295.6,966.4
			c-1.2,0-2.4,0-3.6,0.1c-13.6,1-26,7.2-34.9,17.5c-8.9,10.3-13.3,23.5-12.4,37.1c2,28.1,26.5,49.3,54.5,47.3
			c28.1-2,49.3-26.5,47.3-54.5l0,0C1344.6,987,1322.1,966.4,1295.6,966.4z"/>
	</g>
	<g>
		<path class="st40" d="M1297.4,1016.9c-1.5,0-2.7-1.2-2.7-2.7v-35.3c0-1.5,1.2-2.7,2.7-2.7c1.5,0,2.7,1.2,2.7,2.7v35.3
			C1300.1,1015.7,1298.9,1016.9,1297.4,1016.9z"/>
	</g>
	<g>
		<path class="st40" d="M1289.5,1024.3h-27.5c-1.5,0-2.7-1.2-2.7-2.7s1.2-2.7,2.7-2.7h27.5c1.5,0,2.7,1.2,2.7,2.7
			S1291,1024.3,1289.5,1024.3z"/>
	</g>
	<g>
		<path class="st31" d="M1296.9,1031.6c-0.2,0-0.5,0-0.7,0c-5.5-0.4-9.7-5.2-9.3-10.7c0.4-5.5,5.2-9.7,10.7-9.3
			c5.5,0.4,9.7,5.2,9.3,10.7C1306.5,1027.5,1302.1,1031.6,1296.9,1031.6z M1296.9,1016.9c-2.4,0-4.4,1.9-4.6,4.3
			c-0.2,2.5,1.7,4.8,4.3,4.9c2.5,0.1,4.8-1.7,4.9-4.3c0.2-2.5-1.7-4.8-4.3-4.9C1297.1,1016.9,1297,1016.9,1296.9,1016.9z"/>
	</g>
	<g>
		<ellipse class="st0" cx="624" cy="1233.5" rx="25.3" ry="26.2"/>
		<path class="st31" d="M624,1262.2c-15.3,0-27.8-12.9-27.8-28.7s12.5-28.7,27.8-28.7c15.3,0,27.8,12.9,27.8,28.7
			S639.3,1262.2,624,1262.2z M624,1209.8c-12.6,0-22.9,10.7-22.9,23.8s10.3,23.8,22.9,23.8c12.6,0,22.9-10.7,22.9-23.8
			S636.6,1209.8,624,1209.8z"/>
	</g>
	<g>
		<path class="st39" d="M672.5,1333.1c0,0-2.4-50.9-32.4-51.9c-12.3-0.4-23-0.2-31.9-0.1c-31.4,0.6-31,52.2-31,52.3l0,0
			c0,4.6,21.4,8.4,47.7,8.4c26.3,0,47.7-3.7,47.7-8.4C672.5,1333.3,672.5,1333.2,672.5,1333.1L672.5,1333.1z"/>
	</g>
	<path class="st31" d="M624.8,1344.2c-5.1,0-50.2-0.3-50.2-10.8c0-2.2,0.1-54.1,33.5-54.7c9.6-0.2,20.1-0.3,32,0.1
		c32,1,34.7,52,34.8,54.2c0,0.1,0,0.2,0,0.3c0,0.1,0,0.1,0,0.2C675,1343.9,629.9,1344.2,624.8,1344.2z M579.6,1333.1
		c1.9,2.2,17,6.2,45.2,6.2c28.1,0,43.2-4,45.2-6.1c0-0.1,0-0.2,0-0.3c-0.3-4-3.7-48.4-30-49.2c-11.8-0.4-22.3-0.2-31.8-0.1
		C580.7,1284.1,579.6,1329.3,579.6,1333.1z M579.6,1333.4C579.6,1333.4,579.6,1333.4,579.6,1333.4
		C579.6,1333.4,579.6,1333.4,579.6,1333.4z"/>
	<g>
		<ellipse class="st0" cx="837.9" cy="1233.5" rx="25.3" ry="26.2"/>
		<path class="st31" d="M837.9,1262.2c-15.3,0-27.8-12.9-27.8-28.7s12.5-28.7,27.8-28.7c15.3,0,27.8,12.9,27.8,28.7
			S853.2,1262.2,837.9,1262.2z M837.9,1209.8c-12.6,0-22.9,10.7-22.9,23.8s10.3,23.8,22.9,23.8c12.6,0,22.9-10.7,22.9-23.8
			S850.5,1209.8,837.9,1209.8z"/>
	</g>
	<g>
		<path class="st39" d="M886.5,1333.1c0,0-2.4-50.9-32.4-51.9c-12.3-0.4-23-0.2-31.9-0.1c-31.4,0.6-31,52.2-31,52.3l0,0
			c0,4.6,21.4,8.4,47.7,8.4c26.3,0,47.7-3.7,47.7-8.4C886.5,1333.3,886.4,1333.2,886.5,1333.1L886.5,1333.1z"/>
	</g>
	<path class="st31" d="M838.8,1344.2c-5.1,0-50.2-0.3-50.2-10.8c0-2.2,0.1-54.1,33.5-54.7c9.6-0.2,20.1-0.3,32,0.1
		c32,1,34.7,52,34.8,54.2c0,0.1,0,0.2,0,0.3c0,0.1,0,0.1,0,0.2C888.9,1343.9,843.9,1344.2,838.8,1344.2z M793.5,1333.1
		c1.9,2.2,17,6.2,45.2,6.2c28.1,0,43.2-4,45.2-6.1c0-0.1,0-0.2,0-0.3c-0.3-4-3.7-48.4-30-49.2c-11.8-0.4-22.3-0.2-31.8-0.1
		C794.7,1284.1,793.6,1329.3,793.5,1333.1z M793.5,1333.4C793.5,1333.4,793.5,1333.4,793.5,1333.4
		C793.5,1333.4,793.5,1333.4,793.5,1333.4z"/>
	<g>
		<ellipse class="st0" cx="731.5" cy="1369.5" rx="25.3" ry="26.2"/>
		<path class="st31" d="M731.5,1398.2c-15.3,0-27.8-12.9-27.8-28.7s12.5-28.7,27.8-28.7s27.8,12.9,27.8,28.7
			S746.9,1398.2,731.5,1398.2z M731.5,1345.7c-12.6,0-22.9,10.7-22.9,23.8s10.3,23.8,22.9,23.8c12.6,0,22.9-10.7,22.9-23.8
			S744.2,1345.7,731.5,1345.7z"/>
	</g>
	<g>
		<path class="st39" d="M780.1,1469c0,0-2.4-50.9-32.4-51.9c-12.3-0.4-23-0.2-31.9-0.1c-31.4,0.6-31,52.2-31,52.3l0,0
			c0,4.6,21.4,8.4,47.7,8.4c26.3,0,47.7-3.7,47.7-8.4C780.1,1469.2,780.1,1469.1,780.1,1469L780.1,1469z"/>
	</g>
	<path class="st31" d="M732.4,1480.2c-5.1,0-50.2-0.3-50.2-10.8c0-2.2,0.2-54.1,33.5-54.7c9.6-0.2,20.1-0.3,32,0.1
		c32,1,34.7,52,34.8,54.2c0,0.1,0,0.2,0,0.3c0,0.1,0,0.1,0,0.2C782.5,1479.8,737.5,1480.2,732.4,1480.2z M687.1,1469.1
		c1.9,2.2,17,6.2,45.2,6.2c28.1,0,43.2-4,45.2-6.1c0-0.1,0-0.2,0-0.3c-0.3-4-3.7-48.4-30-49.2c-11.8-0.4-22.3-0.2-31.8-0.1
		C688.3,1420.1,687.2,1465.2,687.1,1469.1z M687.1,1469.3C687.1,1469.3,687.1,1469.3,687.1,1469.3
		C687.1,1469.3,687.1,1469.3,687.1,1469.3z"/>
	<g>
		<path class="st40" d="M657.2,1461.6c-0.4,0-0.9-0.1-1.3-0.3c-10.8-6.4-20.9-14.2-29.8-23.1c-13.8-13.8-24.6-29.9-32.2-47.8
			c-2.6-6-4.7-12.3-6.5-18.6c-0.4-1.3,0.4-2.7,1.7-3c1.3-0.4,2.7,0.4,3,1.7c1.7,6.1,3.8,12.2,6.2,18c7.3,17.3,17.8,32.8,31.1,46.2
			c8.6,8.6,18.3,16.2,28.8,22.4c1.2,0.7,1.6,2.2,0.9,3.4C658.9,1461.2,658.1,1461.6,657.2,1461.6z"/>
	</g>
	<g>
		<path class="st40" d="M811.7,1459c-0.8,0-1.6-0.4-2.1-1.1c-0.7-1.1-0.4-2.7,0.8-3.4c8.9-5.7,17.2-12.4,24.7-19.9
			c13.3-13.3,23.8-28.9,31.1-46.2c2.6-6.2,4.8-12.7,6.6-19.2c0.3-1.3,1.7-2.1,3-1.7c1.3,0.3,2.1,1.7,1.7,3
			c-1.8,6.8-4.1,13.5-6.8,19.9c-7.6,17.9-18.4,34-32.2,47.8c-7.7,7.7-16.3,14.7-25.6,20.5C812.6,1458.9,812.2,1459,811.7,1459z"/>
	</g>
	<g>
		<path class="st40" d="M789.9,1198.2c-0.3,0-0.6-0.1-1-0.2c-17.9-7.6-36.9-11.4-56.6-11.4c-19.6,0-38.7,3.8-56.6,11.4
			c-1.3,0.5-2.7-0.1-3.2-1.3c-0.5-1.3,0.1-2.7,1.3-3.2c18.5-7.8,38.2-11.8,58.5-11.8c20.3,0,40,4,58.5,11.8c1.3,0.5,1.8,2,1.3,3.2
			C791.8,1197.6,790.9,1198.2,789.9,1198.2z"/>
	</g>
	<ellipse class="st0" cx="1733.6" cy="897.5" rx="52.7" ry="52.9"/>
	<path class="st31" d="M1733.6,955.4c-31.8,0-57.7-26-57.7-57.9c0-31.9,25.9-57.9,57.7-57.9c31.8,0,57.7,26,57.7,57.9
		C1791.3,929.4,1765.4,955.4,1733.6,955.4z M1733.6,849.6c-26.3,0-47.7,21.5-47.7,47.9s21.4,47.9,47.7,47.9
		c26.3,0,47.7-21.5,47.7-47.9S1759.9,849.6,1733.6,849.6z"/>
	<g>
		<path class="st31" d="M1737.8,1355.2c-2.8,0-5-2.2-5-5v-165.9c0-2.8,2.2-5,5-5c2.8,0,5,2.2,5,5v165.9
			C1742.8,1353,1740.6,1355.2,1737.8,1355.2z"/>
	</g>
	<path class="st41" d="M1769.9,1381.9c-1.7,0-3.5-0.1-5.2-0.3c-13.3-1.6-21.7-9.6-26.6-17.6c-5,8.9-14.3,17.5-29.7,17.5
		c-0.1,0-0.2,0-0.2,0c-20.7-0.1-35.7-15.4-35.6-36.3v-160.9c0,0,0,0,0,0l0.4-124.4c0-4.1-1.4-8-4.1-11.2L1557,915.1
		c-10.7-13.5-8.4-33.1,5-43.6c6.5-5.1,14.6-7.4,22.8-6.4c8.2,1,15.6,5.1,20.7,11.6l86.6,102.1c2.9,3.7,8.1,2.7,10.2,2.1
		c23.6-6.9,48.4-6.5,69.8,1.1c2.8,1,6.9-0.1,8.7-2.4l79.7-102.2c5.3-6.7,12.8-10.8,21.2-11.7c8.4-0.9,16.6,1.6,23.1,7.1
		c12.7,10.7,14.4,30.3,3.7,43.8l-99.6,129.9c-2.3,3-3.6,6.8-3.6,10.6l0,292.5c0,9.1-3.8,17.4-10.6,23.4
		C1788,1378.8,1779.2,1381.9,1769.9,1381.9z M1737.8,1345.3c2.4,0,4.5,1.7,4.9,4c0.2,0.8,4.2,20,23.2,22.4c8.4,1,16.4-1.2,22.1-6.2
		c4.6-4.1,7.2-9.8,7.2-15.9l0-292.6c0-6,2-11.9,5.7-16.7l99.7-129.9c7.4-9.4,6.3-22.8-2.3-30c-4.4-3.7-10-5.4-15.7-4.8
		c-5.7,0.6-10.8,3.4-14.3,7.9l-79.7,102.2c-4.5,5.7-13,8.1-19.8,5.6c-19.5-6.9-42.1-7.2-63.6-0.9c-8.4,2.4-16.1,0.4-20.7-5.4
		L1597.8,883c-3.6-4.5-8.6-7.3-14.1-8c-5.6-0.7-11.1,0.9-15.5,4.4c-9.1,7.2-10.7,20.4-3.5,29.5l111.7,133.6
		c4.1,4.9,6.4,11.2,6.4,17.6l-0.4,124.4v160.9c0,15.4,10.6,26.2,25.7,26.3c0.1,0,0.1,0,0.2,0c20.6,0,24.4-21.2,24.5-22.1
		C1733.3,1347.1,1735.3,1345.3,1737.8,1345.3C1737.8,1345.3,1737.8,1345.3,1737.8,1345.3z"/>
	<g>
		<rect x="1665.2" y="1364.6" class="st40" width="146.9" height="92.2"/>
		<path class="st31" d="M1812.1,1461.8h-146.9c-2.8,0-5-2.2-5-5v-92.2c0-2.8,2.2-5,5-5h146.9c2.8,0,5,2.2,5,5v92.2
			C1817.1,1459.6,1814.9,1461.8,1812.1,1461.8z M1670.2,1451.8h136.9v-82.2h-136.9V1451.8z"/>
	</g>
	<g>
		<path class="st31" d="M1959,1461.8h-146.9c-2.8,0-5-2.2-5-5v-68c0-2.8,2.2-5,5-5H1959c2.8,0,5,2.2,5,5v68
			C1964,1459.6,1961.8,1461.8,1959,1461.8z M1817.1,1451.8H1954v-58h-136.9V1451.8z"/>
	</g>
	<rect x="1521.3" y="1410.7" class="st39" width="141" height="46.1"/>
	<path class="st31" d="M1665.2,1461.8h-146.9c-2.8,0-5-2.2-5-5v-50.4c0-2.8,2.2-5,5-5h146.9c2.8,0,5,2.2,5,5v50.4
		C1670.2,1459.6,1668,1461.8,1665.2,1461.8z M1523.3,1451.8h136.9v-40.4h-136.9V1451.8z"/>
	<text transform="matrix(1.3357 0 0 1 1075.9814 1367.3584)"><tspan x="0" y="0" class="st40 st42 st43">Work</tspan><tspan x="81" y="0" class="st31 st42 st43"> and </tspan><tspan x="150.5" y="0" class="st39 st42 st43">chill</tspan></text>
	<g>
		<line class="st44" x1="1431.6" y1="1173" x2="1462.9" y2="1173"/>
		<line class="st44" x1="1485.9" y1="1173" x2="1517.3" y2="1173"/>
		<line class="st44" x1="1540.2" y1="1173" x2="1571.6" y2="1173"/>
		<line class="st44" x1="1594.6" y1="1173" x2="1625.9" y2="1173"/>
	</g>
	<line class="st44" x1="1431.6" y1="1198.5" x2="1462.9" y2="1198.5"/>
	<line class="st44" x1="1485.9" y1="1198.5" x2="1517.3" y2="1198.5"/>
	<line class="st44" x1="1540.2" y1="1198.5" x2="1571.6" y2="1198.5"/>
	<line class="st44" x1="1594.6" y1="1198.5" x2="1625.9" y2="1198.5"/>
	<g>
		<line class="st44" x1="388" y1="845.2" x2="419.3" y2="845.2"/>
		<line class="st44" x1="442.3" y1="845.2" x2="473.6" y2="845.2"/>
		<line class="st44" x1="496.6" y1="845.2" x2="528" y2="845.2"/>
		<line class="st44" x1="550.9" y1="845.2" x2="582.3" y2="845.2"/>
	</g>
	<line class="st44" x1="388" y1="870.8" x2="419.3" y2="870.8"/>
	<line class="st44" x1="442.3" y1="870.8" x2="473.6" y2="870.8"/>
	<line class="st44" x1="496.6" y1="870.8" x2="528" y2="870.8"/>
	<line class="st44" x1="550.9" y1="870.8" x2="582.3" y2="870.8"/>
	<line class="st44" x1="918.2" y1="1318.5" x2="949.5" y2="1318.5"/>
	<line class="st44" x1="972.5" y1="1318.5" x2="1003.9" y2="1318.5"/>
	<line class="st44" x1="731.5" y1="1073.3" x2="731.5" y2="1104.7"/>
	<line class="st44" x1="731.5" y1="1127.7" x2="731.5" y2="1159"/>
</g>
</svg>
