<?xml version="1.0" encoding="utf-8"?>
<!-- Generator: Adobe Illustrator 22.1.0, SVG Export Plug-In . SVG Version: 6.00 Build 0)  -->
<svg version="1.1" id="Слой_1" xmlns="http://www.w3.org/2000/svg" xmlns:xlink="http://www.w3.org/1999/xlink" x="0px" y="0px"
	 viewBox="0 0 2080 2080" style="enable-background:new 0 0 2080 2080;" xml:space="preserve">
<style type="text/css">
	.st0{fill:#FFFFFF;}
	.st1{fill:#C8C6E5;}
	.st2{fill:#FDAC40;}
	.st3{fill:#EBCAA0;}
	.st4{fill:none;stroke:#FDAC40;stroke-width:4;stroke-linecap:round;stroke-miterlimit:10;}
	.st5{fill:none;stroke:#826DFD;stroke-width:4;stroke-linecap:round;stroke-linejoin:round;stroke-miterlimit:10;}
	.st6{fill:#826DFD;}
	.st7{fill:none;stroke:#000000;stroke-width:6;stroke-linecap:round;stroke-miterlimit:10;}
	.st8{fill:none;stroke:#000000;stroke-width:3;stroke-linecap:round;stroke-miterlimit:10;}
	.st9{fill:none;stroke:#000000;stroke-width:4;stroke-linecap:round;stroke-linejoin:round;stroke-miterlimit:10;}
	.st10{fill:none;stroke:#000000;stroke-width:6;stroke-linecap:round;stroke-linejoin:round;stroke-miterlimit:10;}
	.st11{fill:none;stroke:#000000;stroke-width:3;stroke-miterlimit:10;}
	.st12{fill:none;stroke:#000000;stroke-width:7;stroke-linecap:round;stroke-miterlimit:10;}
	.st13{fill:none;stroke:#000000;stroke-width:3;stroke-linecap:round;stroke-linejoin:round;stroke-miterlimit:10;}
	.st14{fill:none;stroke:#000000;stroke-width:5;stroke-miterlimit:10;}
	.st15{fill:none;stroke:#000000;stroke-width:2;stroke-linecap:round;stroke-linejoin:round;stroke-miterlimit:10;}
	.st16{fill:none;stroke:#000000;stroke-width:8;stroke-linecap:round;stroke-linejoin:round;stroke-miterlimit:10;}
	.st17{fill:none;stroke:#000000;stroke-width:3;stroke-linejoin:round;stroke-miterlimit:10;}
	.st18{fill:none;stroke:#000000;stroke-width:5;stroke-linecap:round;stroke-linejoin:round;stroke-miterlimit:10;}
	.st19{fill:none;stroke:#000000;stroke-width:2;stroke-miterlimit:10;}
	.st20{fill:none;stroke:#000000;stroke-width:2;stroke-linecap:round;stroke-miterlimit:10;}
	.st21{stroke:#000000;stroke-width:5;stroke-linecap:round;stroke-linejoin:round;stroke-miterlimit:10;}
	.st22{stroke:#000000;stroke-width:3;stroke-linecap:round;stroke-linejoin:round;stroke-miterlimit:10;}
	.st23{fill:none;stroke:#8378BF;stroke-width:5;stroke-linecap:round;stroke-linejoin:round;stroke-miterlimit:10;}
	.st24{fill:none;stroke:#826DFD;stroke-width:3;stroke-linecap:round;stroke-linejoin:round;stroke-miterlimit:10;}
	.st25{fill:none;stroke:#FDAC40;stroke-width:3;stroke-linecap:round;stroke-linejoin:round;stroke-miterlimit:10;}
	.st26{fill:none;stroke:#FDAC40;stroke-width:7;stroke-miterlimit:10;}
	.st27{fill:none;stroke:#000000;stroke-width:11;stroke-linecap:round;stroke-linejoin:round;stroke-miterlimit:10;}
	.st28{fill:none;stroke:#333333;stroke-width:5;stroke-linecap:round;stroke-miterlimit:10;stroke-dasharray:20;}
	.st29{fill:#FADC8C;}
	.st30{fill:none;stroke:#333333;stroke-width:5;stroke-linecap:round;stroke-miterlimit:10;stroke-dasharray:44.5321,44.5321;}
	.st31{fill:#333333;}
	.st32{fill:#F29F76;}
	.st33{fill:#7BD9E5;}
	.st34{fill:none;}
	.st35{fill:#65C8D0;}
	.st36{fill:#7BD9E5;stroke:#7BD9E5;stroke-miterlimit:10;}
	.st37{fill:none;stroke:#333333;stroke-linecap:round;stroke-linejoin:round;stroke-miterlimit:10;}
	.st38{fill:#7BD9E5;stroke:#333333;stroke-miterlimit:10;}
	.st39{fill:#8FACCC;}
	.st40{fill:#F9E958;}
	.st41{fill:#231F20;}
	.st42{fill:none;stroke:#333333;stroke-width:3;stroke-linecap:round;stroke-miterlimit:10;}
	.st43{clip-path:url(#SVGID_2_);}
	.st44{clip-path:url(#SVGID_4_);}
	.st45{clip-path:url(#SVGID_6_);}
	.st46{clip-path:url(#SVGID_8_);}
	.st47{clip-path:url(#SVGID_10_);}
	.st48{clip-path:url(#SVGID_12_);}
	.st49{clip-path:url(#SVGID_14_);}
	.st50{clip-path:url(#SVGID_16_);}
	.st51{clip-path:url(#SVGID_18_);}
	.st52{clip-path:url(#SVGID_20_);}
	.st53{clip-path:url(#SVGID_22_);}
	.st54{clip-path:url(#SVGID_24_);}
	.st55{clip-path:url(#SVGID_26_);}
	.st56{clip-path:url(#SVGID_28_);}
	.st57{fill:#FF7300;}
	.st58{clip-path:url(#SVGID_30_);}
	.st59{fill:#020100;}
	.st60{fill:#FF6D00;}
	.st61{clip-path:url(#SVGID_32_);}
	.st62{clip-path:url(#SVGID_34_);fill:none;stroke:#2C1017;stroke-width:3.4838;stroke-miterlimit:10;}
	.st63{clip-path:url(#SVGID_36_);fill:none;stroke:#2C1017;stroke-width:3.4838;stroke-miterlimit:10;}
	.st64{clip-path:url(#SVGID_38_);fill:none;stroke:#2C1017;stroke-width:3.4838;stroke-miterlimit:10;}
	.st65{clip-path:url(#SVGID_40_);fill:none;stroke:#2C1017;stroke-width:3.4838;stroke-miterlimit:10;}
	.st66{clip-path:url(#SVGID_32_);fill:none;stroke:#231F20;stroke-width:2.6129;stroke-miterlimit:10;}
	.st67{clip-path:url(#SVGID_42_);fill:none;stroke:#231F20;stroke-width:0.871;stroke-miterlimit:10;}
	.st68{clip-path:url(#SVGID_44_);fill:none;stroke:#231F20;stroke-width:0.871;stroke-miterlimit:10;}
	.st69{clip-path:url(#SVGID_46_);fill:#231F20;}
	.st70{clip-path:url(#SVGID_46_);fill:none;stroke:#231F20;stroke-width:2.6129;stroke-miterlimit:10;}
	.st71{clip-path:url(#SVGID_46_);fill:#FFFFFF;}
	.st72{clip-path:url(#SVGID_46_);fill:none;stroke:#231F20;stroke-width:1.7419;stroke-miterlimit:10;}
	.st73{clip-path:url(#SVGID_48_);fill:#231F20;}
	.st74{clip-path:url(#SVGID_48_);fill:#FFFFFF;}
	.st75{fill:none;stroke:#000000;stroke-width:1.5;stroke-miterlimit:10;}
	.st76{fill:none;stroke:#000000;stroke-miterlimit:10;}
	.st77{fill:none;stroke:#000000;stroke-width:0.75;stroke-miterlimit:10;}
	.st78{stroke:#000000;stroke-miterlimit:10;}
	.st79{clip-path:url(#SVGID_49_);}
	.st80{clip-path:url(#SVGID_50_);}
	.st81{clip-path:url(#SVGID_51_);}
	.st82{clip-path:url(#SVGID_52_);}
	.st83{fill:none;stroke:#000000;stroke-width:0.25;stroke-miterlimit:10;}
	.st84{clip-path:url(#SVGID_53_);}
	.st85{fill:none;stroke:#000000;stroke-width:0.5;stroke-miterlimit:10;}
	.st86{clip-path:url(#SVGID_54_);}
	.st87{clip-path:url(#SVGID_55_);}
	.st88{clip-path:url(#SVGID_56_);}
	.st89{clip-path:url(#SVGID_57_);}
	.st90{clip-path:url(#SVGID_58_);}
	.st91{clip-path:url(#SVGID_59_);}
	.st92{clip-path:url(#SVGID_60_);}
	.st93{clip-path:url(#SVGID_61_);}
	.st94{clip-path:url(#SVGID_62_);}
	.st95{clip-path:url(#SVGID_63_);}
	.st96{clip-path:url(#SVGID_64_);}
	.st97{clip-path:url(#SVGID_65_);}
	.st98{stroke:#000000;stroke-width:0.75;stroke-miterlimit:10;}
	.st99{clip-path:url(#SVGID_67_);}
	.st100{clip-path:url(#SVGID_69_);}
	.st101{fill:none;stroke:#000000;stroke-width:6;stroke-miterlimit:10;}
	.st102{clip-path:url(#SVGID_71_);}
	.st103{clip-path:url(#SVGID_73_);}
	.st104{stroke:#000000;stroke-width:0.5;stroke-miterlimit:10;}
	.st105{clip-path:url(#SVGID_75_);}
	.st106{clip-path:url(#SVGID_77_);}
	.st107{stroke:#000000;stroke-width:0.25;stroke-miterlimit:10;}
	.st108{clip-path:url(#SVGID_79_);}
	.st109{clip-path:url(#SVGID_80_);}
	.st110{clip-path:url(#SVGID_81_);}
	.st111{clip-path:url(#SVGID_82_);}
	.st112{clip-path:url(#SVGID_83_);}
	.st113{clip-path:url(#SVGID_84_);}
	.st114{clip-path:url(#SVGID_86_);}
	.st115{stroke:#000000;stroke-linecap:round;stroke-linejoin:round;stroke-miterlimit:10;}
	.st116{clip-path:url(#SVGID_88_);}
	.st117{fill:none;stroke:#000000;stroke-width:0.25;stroke-linecap:round;stroke-linejoin:round;stroke-miterlimit:10;}
	.st118{stroke:#000000;stroke-width:0.25;stroke-linecap:round;stroke-linejoin:round;stroke-miterlimit:10;}
	.st119{clip-path:url(#SVGID_90_);}
	.st120{clip-path:url(#SVGID_92_);}
	.st121{clip-path:url(#SVGID_94_);}
	.st122{clip-path:url(#SVGID_96_);}
	.st123{fill:#F3E0B5;}
	.st124{clip-path:url(#SVGID_98_);}
	.st125{fill:#F7E7C5;}
	.st126{fill:none;stroke:#FFFFFF;stroke-width:3;stroke-miterlimit:10;}
	.st127{clip-path:url(#SVGID_100_);}
	.st128{fill:none;stroke:#FFFFFF;stroke-width:2;stroke-miterlimit:10;}
	.st129{fill:none;stroke:#FFFFFF;stroke-width:30;stroke-miterlimit:10;}
	.st130{fill:#FFFFFF;stroke:#FFFFFF;stroke-miterlimit:10;}
	.st131{stroke:#FFFFFF;stroke-miterlimit:10;}
	.st132{clip-path:url(#SVGID_102_);}
	.st133{fill:none;stroke:#FFFFFF;stroke-width:7;stroke-miterlimit:10;}
	.st134{fill:none;stroke:#FFFFFF;stroke-width:19;stroke-miterlimit:10;}
	.st135{fill:none;stroke:#FFFFFF;stroke-width:11;stroke-miterlimit:10;}
	.st136{fill:#FFFFFF;stroke:#FFFFFF;stroke-width:7;stroke-linecap:round;stroke-linejoin:round;stroke-miterlimit:10;}
	.st137{fill:none;stroke:#FFFFFF;stroke-width:0.5;stroke-miterlimit:10;}
	.st138{clip-path:url(#SVGID_104_);}
	.st139{fill:none;stroke:#FFFFFF;stroke-width:8;stroke-miterlimit:10;}
	.st140{fill:none;stroke:#FFFFFF;stroke-width:10;stroke-linejoin:bevel;stroke-miterlimit:10;}
	.st141{clip-path:url(#SVGID_106_);}
	.st142{clip-path:url(#SVGID_108_);}
	.st143{clip-path:url(#SVGID_110_);}
	.st144{clip-path:url(#SVGID_112_);}
	.st145{stroke:#000000;stroke-width:2;stroke-miterlimit:10;}
	.st146{fill:none;stroke:#000000;stroke-width:45;stroke-miterlimit:10;}
	.st147{stroke:#FFFFFF;stroke-width:4;stroke-miterlimit:10;}
	.st148{fill:none;stroke:#FFFFFF;stroke-width:4;stroke-miterlimit:10;}
	.st149{fill:#FFFFFF;stroke:#FFFFFF;stroke-width:4;stroke-miterlimit:10;}
	.st150{clip-path:url(#SVGID_114_);}
	.st151{opacity:0.51;fill:#339999;stroke:#000000;stroke-width:2;stroke-miterlimit:10;}
	.st152{opacity:0.18;fill:#FFCCFF;stroke:#000000;stroke-width:2;stroke-miterlimit:10;}
	.st153{opacity:4.000000e-02;fill:#FFCCFF;stroke:#000000;stroke-width:2;stroke-miterlimit:10;}
	.st154{opacity:0.18;fill:#003333;stroke:#000000;stroke-width:2;stroke-miterlimit:10;}
	.st155{opacity:0.46;fill:#99FFFF;stroke:#000000;stroke-width:2;stroke-miterlimit:10;}
	.st156{opacity:0.18;fill:#CC99FF;stroke:#000000;stroke-width:2;stroke-miterlimit:10;}
	.st157{opacity:0.47;fill:#FFCCFF;stroke:#000000;stroke-width:2;stroke-miterlimit:10;}
	.st158{opacity:0.11;fill:#333399;stroke:#000000;stroke-width:2;stroke-miterlimit:10;}
	.st159{opacity:0.11;fill:#99FFFF;stroke:#000000;stroke-width:2;stroke-miterlimit:10;}
	.st160{opacity:0.18;fill:#9999FF;stroke:#000000;stroke-width:2;stroke-miterlimit:10;}
	.st161{opacity:0.18;fill:none;stroke:#000000;stroke-width:2;stroke-miterlimit:10;}
	.st162{opacity:0.68;fill:#FFFFFF;}
	.st163{opacity:0.18;fill:#6666FF;stroke:#000000;stroke-width:2;stroke-miterlimit:10;}
	.st164{fill:#FFFFFF;stroke:#000000;stroke-width:2;stroke-miterlimit:10;}
	.st165{fill:none;stroke:#000000;stroke-width:0.5;stroke-linecap:round;stroke-linejoin:round;}
	.st166{opacity:0.36;fill:#FFFFFF;stroke:#000000;stroke-width:0.5;stroke-linecap:round;stroke-linejoin:round;}
	.st167{opacity:0.37;fill:#CCFFFF;stroke:#000000;stroke-width:0.5;stroke-linecap:round;stroke-linejoin:round;}
	.st168{opacity:0.69;fill:#E6FFFE;stroke:#000000;stroke-width:0.5;stroke-linecap:round;stroke-linejoin:round;}
	.st169{opacity:0.8;fill:#FFFFFF;stroke:#000000;stroke-width:0.5;stroke-linecap:round;stroke-linejoin:round;}
	.st170{opacity:0.43;fill:#CCFFFF;stroke:#000000;stroke-width:0.5;stroke-linecap:round;stroke-linejoin:round;}
	.st171{opacity:0.82;fill:#FFFFFF;stroke:#000000;stroke-width:0.5;stroke-linecap:round;stroke-linejoin:round;}
	.st172{opacity:0.76;fill:#FFFFFF;stroke:#000000;stroke-width:0.5;stroke-linecap:round;stroke-linejoin:round;}
	.st173{opacity:0.47;fill:#6633CC;stroke:#000000;stroke-width:0.5;stroke-linecap:round;stroke-linejoin:round;}
	.st174{opacity:0.51;fill:#CCFFFF;stroke:#000000;stroke-width:0.5;stroke-linecap:round;stroke-linejoin:round;}
	.st175{opacity:0.4;fill:#000033;stroke:#000000;stroke-width:0.5;stroke-linecap:round;stroke-linejoin:round;}
	.st176{opacity:0.43;fill:#330033;stroke:#000000;stroke-width:0.5;stroke-linecap:round;stroke-linejoin:round;}
	.st177{opacity:0.1;fill:#9966FF;stroke:#000000;stroke-width:2;stroke-miterlimit:10;}
	.st178{opacity:0.23;fill:#330033;stroke:#000000;stroke-width:2;stroke-miterlimit:10;}
	.st179{opacity:0.18;}
	.st180{fill:#FFCCFF;}
	.st181{opacity:0.51;}
	.st182{fill:#339999;}
	.st183{opacity:4.000000e-02;}
	.st184{fill:#003333;}
	.st185{opacity:0.46;}
	.st186{fill:#99FFFF;}
	.st187{fill:#CC99FF;}
	.st188{opacity:0.47;}
	.st189{opacity:0.11;}
	.st190{fill:#333399;}
	.st191{fill:#9999FF;}
	.st192{opacity:0.18;fill:#FFFFFF;}
	.st193{opacity:0.62;}
	.st194{fill:#6666FF;}
	.st195{opacity:0.42;}
	.st196{fill:#9C62A0;}
	.st197{fill:none;stroke:#FFFFFF;stroke-width:0.5;stroke-linecap:round;stroke-linejoin:round;}
	.st198{opacity:0.36;}
	.st199{opacity:0.37;}
	.st200{fill:#CCFFFF;}
	.st201{fill:none;stroke:#FFFFFF;stroke-width:4;stroke-linecap:round;stroke-linejoin:round;}
	.st202{opacity:0.69;}
	.st203{fill:#E6FFFE;}
	.st204{opacity:0.8;}
	.st205{opacity:0.43;}
	.st206{opacity:0.82;}
	.st207{opacity:0.76;}
	.st208{fill:#6633CC;}
	.st209{opacity:0.4;}
	.st210{fill:#000033;}
	.st211{fill:#330033;}
	.st212{opacity:0.1;}
	.st213{fill:#9966FF;}
	.st214{opacity:0.72;}
	.st215{fill:#333366;}
	.st216{fill:#E3E825;stroke:#42210B;stroke-width:10;stroke-linejoin:round;stroke-miterlimit:10;}
	.st217{fill:#C69C6D;stroke:#42210B;stroke-width:10;stroke-linejoin:round;stroke-miterlimit:10;}
	.st218{fill:#42210B;stroke:#42210B;stroke-width:10;stroke-linejoin:round;stroke-miterlimit:10;}
	.st219{fill:#E53C70;stroke:#42210B;stroke-width:10;stroke-linejoin:round;stroke-miterlimit:10;}
	.st220{fill:#F27C08;stroke:#42210B;stroke-width:10;stroke-linejoin:round;stroke-miterlimit:10;}
	.st221{fill:#AA4913;}
	.st222{fill:#D68A63;}
	.st223{fill:#EAC598;}
	.st224{fill:#F26692;}
	.st225{fill:#EDAF77;}
	.st226{fill:#FBB03B;stroke:#7A5D3B;stroke-width:12;stroke-linecap:round;stroke-miterlimit:10;}
	.st227{fill:none;stroke:#42210B;stroke-width:10;stroke-linejoin:round;stroke-miterlimit:10;}
	.st228{fill:#087F2C;stroke:#42210B;stroke-width:10;stroke-linejoin:round;stroke-miterlimit:10;}
	.st229{fill:#98D14E;}
	.st230{fill:#80A574;stroke:#071103;stroke-width:14;stroke-linejoin:round;stroke-miterlimit:10;}
	.st231{fill:#EF2E2E;stroke:#071103;stroke-width:14;stroke-linejoin:round;stroke-miterlimit:10;}
	.st232{fill:#5D7554;stroke:#051101;stroke-width:14;stroke-linejoin:round;stroke-miterlimit:10;}
	.st233{fill:none;stroke:#6B996E;stroke-width:40;stroke-linecap:round;stroke-miterlimit:10;}
	.st234{fill:none;stroke:#203316;stroke-width:14;stroke-linejoin:round;stroke-miterlimit:10;}
	.st235{fill:none;stroke:#071103;stroke-width:14;stroke-linejoin:round;stroke-miterlimit:10;}
	.st236{fill:#42210B;}
	.st237{fill:#47683E;}
	.st238{fill:#5D7554;stroke:#071103;stroke-width:14;stroke-linejoin:round;stroke-miterlimit:10;}
	.st239{fill:#E3E825;stroke:#071103;stroke-width:14;stroke-linejoin:round;stroke-miterlimit:10;}
	.st240{fill:#F4F490;}
	.st241{fill:#E53C70;stroke:#071103;stroke-width:14;stroke-linejoin:round;stroke-miterlimit:10;}
	.st242{fill:#071103;stroke:#071103;stroke-width:14;stroke-linejoin:round;stroke-miterlimit:10;}
	.st243{fill:#E53C70;stroke:#EF95B1;stroke-width:14;stroke-linecap:round;stroke-linejoin:round;stroke-miterlimit:10;}
	.st244{fill:#E3E825;stroke:#071103;stroke-width:10;stroke-linejoin:round;stroke-miterlimit:10;}
	.st245{fill:#071103;}
	.st246{fill:#FFFF00;}
	.st247{fill:none;stroke:#752525;stroke-width:4;stroke-miterlimit:10;}
	.st248{fill:none;stroke:#AA3333;stroke-width:5;stroke-miterlimit:10;}
	.st249{fill:none;stroke:#ED1C24;stroke-width:3;stroke-miterlimit:10;}
	.st250{fill:#AA3333;}
	.st251{fill:#F94B4B;}
	.st252{fill:none;stroke:#AA3333;stroke-width:9;stroke-miterlimit:10;}
	.st253{fill:#FC7E7E;}
	.st254{fill:#FC7E7E;stroke:#FC7E7E;stroke-width:7;stroke-miterlimit:10;}
	.st255{fill:none;stroke:#FC7E7E;stroke-width:9;stroke-miterlimit:10;}
	.st256{fill:none;stroke:#FCFAFA;stroke-width:4;stroke-miterlimit:10;}
	.st257{fill:#681D1D;}
	.st258{fill:#BA4FB0;}
	.st259{fill:#A068A0;}
	.st260{fill:#E0A6E0;}
	.st261{fill:none;stroke:#540E56;stroke-width:4;stroke-miterlimit:10;}
	.st262{fill:#7A347A;}
	.st263{fill:#007F82;}
	.st264{fill:#04A8A8;}
	.st265{fill:none;stroke:#764977;stroke-width:3;stroke-miterlimit:10;}
	.st266{fill:#3ECCC5;}
	.st267{fill:none;stroke:#004242;stroke-width:3;stroke-miterlimit:10;}
	.st268{fill:none;stroke:#7C0C00;stroke-width:3;stroke-miterlimit:10;}
	.st269{fill:#004242;}
	.st270{fill:#510600;}
	.st271{fill:#FF866E;}
	.st272{fill:#D30B0B;}
	.st273{fill:none;stroke:#F200FF;stroke-width:3;stroke-miterlimit:10;}
	.st274{fill:none;stroke:#F200FF;stroke-miterlimit:10;}
	.st275{fill:none;stroke:#04070F;stroke-width:3;stroke-miterlimit:10;}
	.st276{fill:#005654;}
</style>
<rect x="-5354" y="-6684" class="st0" width="14249" height="14249"/>
<rect class="st0" width="2080" height="2080"/>
<g>
	<circle class="st0" cx="506.2" cy="494.2" r="157.2"/>
	<path d="M506.2,347.5c80.9,0,146.7,65.8,146.7,146.7s-65.8,146.7-146.7,146.7c-80.9,0-146.7-65.8-146.7-146.7
		S425.3,347.5,506.2,347.5 M506.2,337C419.4,337,349,407.4,349,494.2c0,86.8,70.4,157.2,157.2,157.2c86.8,0,157.2-70.4,157.2-157.2
		C663.4,407.4,593.1,337,506.2,337L506.2,337z"/>
</g>
<g>
	<ellipse class="st0" cx="506.2" cy="494.9" rx="20" ry="21"/>
	<path d="M506.2,474c-11,0-20,9.4-20,21s8.9,21,20,21c11,0,20-9.4,20-21S517.3,474,506.2,474L506.2,474z"/>
</g>
<path d="M506.2,559.3c-35.1,0-63.6-28.5-63.6-63.6s28.5-63.6,63.6-63.6c12.1,0,23.9,3.4,34.2,9.9l-2.4,3.8c-9.5-6-20.5-9.2-31.7-9.2
	c-32.6,0-59.1,26.5-59.1,59.1s26.5,59.1,59.1,59.1s59.1-26.5,59.1-59.1h4.5C569.9,530.8,541.3,559.3,506.2,559.3z"/>
<path d="M524.7,594.3l-0.5-2.9c52.7-9.9,87.6-60.8,77.8-113.5C592,425,541.1,390.1,488.4,400c-25.3,4.7-47.3,18.9-61.9,40l-2.5-1.7
	c15.1-21.7,37.8-36.4,63.9-41.2c54.4-10.2,106.9,25.8,117,80.2c4.9,26.2-0.8,52.8-16,75C573.6,574.5,550.8,589.4,524.7,594.3z"/>
<path d="M506.2,417.8c42.9,0,77.9,34.9,77.9,77.9s-34.9,77.9-77.9,77.9s-77.9-34.9-77.9-77.9S463.3,417.8,506.2,417.8 M506.2,416.3
	c-43.8,0-79.3,35.5-79.3,79.3c0,43.8,35.5,79.3,79.3,79.3c43.8,0,79.3-35.5,79.3-79.3C585.6,451.9,550.1,416.3,506.2,416.3
	L506.2,416.3z"/>
<path d="M506.2,611.7c-30.8,0-59.9-12.1-81.9-34.1c-22-22-34.1-51.1-34.1-81.9c0-30.8,12.1-59.9,34.1-81.9
	c22-22,51.1-34.1,81.9-34.1c45.2,0,86.6,26.5,105.4,67.6l-1.4,0.6c-18.6-40.5-59.5-66.7-104.1-66.7c-63.2,0-114.5,51.4-114.5,114.5
	s51.4,114.5,114.5,114.5s114.5-51.4,114.5-114.5h1.5c0,30.8-12.1,59.9-34.1,81.9C566.1,599.6,537,611.7,506.2,611.7z"/>
<path d="M506.4,625.9c-39.4,0-77.5-17.9-102.5-49.6l2.4-1.9c30.7,38.9,81.6,56.6,129.8,44.9c32.8-7.9,60.7-28.3,78.5-57.5
	c17.8-29.1,23.3-63.3,15.3-96.1c-16.5-68.2-85.3-110.3-153.6-93.8c-68.2,16.5-110.3,85.4-93.8,153.6l-2.9,0.7
	c-8.1-33.6-2.5-68.5,15.7-98.3c18.2-29.8,46.8-50.7,80.4-58.8c33.6-8.1,68.5-2.5,98.3,15.7c29.8,18.2,50.7,46.8,58.8,80.4
	c8.1,33.6,2.5,68.5-15.7,98.3c-18.2,29.8-46.8,50.7-80.4,58.8C526.7,624.7,516.5,625.9,506.4,625.9z"/>
<path d="M673.4,901.3c0,0-0.1,0-0.1,0L321,900.6l-0.3-0.2l-111.6-57.3V335.7l175.2-205.3h203.6c25.7,0,50.4,7.9,71.3,22.9
	l182.4,130.5v416.5c0,13.2-4.4,26.3-12.4,36.8L723.5,876.4C711.7,892,693,901.3,673.4,901.3z M321.7,897.7l351.6,0.7
	c0,0,0.1,0,0.1,0c18.6,0,36.5-8.9,47.8-23.7l105.7-139.4c7.6-10,11.8-22.4,11.8-35V285.3L657.5,155.7
	c-20.4-14.6-44.5-22.3-69.6-22.3H385.7L212.1,336.8v504.6L321.7,897.7z"/>
<path d="M843.8,307.7l43.4,22.2v323l-43.4,32.8V307.7 M833.4,290.6v416.2l64.4-48.6V323.5L833.4,290.6L833.4,290.6z"/>
<g>
	<rect x="897" y="343" width="22.5" height="314.4"/>
	<path d="M920.9,658.9h-25.5V341.5h25.5V658.9z M898.5,655.9h19.5V344.5h-19.5V655.9z"/>
</g>
<path d="M995.8,652.9h-59.9v-304l59.9,47.3V652.9z M938.9,649.9h53.9V397.6L938.9,355V649.9z"/>
<g>
	<path class="st0" d="M994.3,396.9l53.9,11.5c21.8,4.7,37.5,23.9,37.5,46.3v196.8h-91.3"/>
	<path d="M1090.9,656.6h-96.6v-10.5h86.1V454.6c0-19.7-14-37-33.3-41.2L993.2,402l2.2-10.2l53.9,11.5c24.1,5.1,41.6,26.8,41.6,51.4
		V656.6z"/>
</g>
<polygon points="1136.5,765.1 1019.8,682.1 1019.8,651.4 1022.7,651.4 1022.7,680.5 1133.5,759.3 1133.5,288.3 1023,403.8 
	1020.8,401.7 1136.5,280.8 "/>
<path d="M1869.4,724h-738.1V282.6l95.4-63.1h235.4l0.7,0.3l406.6,158.1V724z M1138.8,716.5h723.1V383l-401.2-156H1229l-90.2,59.7
	V716.5z"/>
<path d="M1933,763.7h-799.5v-44.9h730.6V378.9h68.9V763.7z M1136.5,760.7H1930V381.9h-62.9v339.8h-730.6V760.7z"/>
<g>
	<path d="M1931.5,380.4v-17.2c0-26.6-16.5-50.3-41.3-59.7L1700.5,232c-15.5-5.8-32-8.8-48.6-8.8h-190.5l404.2,157.2H1931.5"/>
	<path d="M1933,381.9h-67.7l-0.3-0.1l-411.7-160.1h198.5c16.8,0,33.4,3,49.1,8.9l189.7,71.4c25.3,9.5,42.3,34.1,42.3,61.1V381.9z
		 M1865.9,378.9h64.1v-15.7c0-25.8-16.2-49.2-40.3-58.3L1700,233.4c-15.4-5.8-31.6-8.7-48.1-8.7h-182.5L1865.9,378.9z"/>
</g>
<g>
	<path d="M408.9,170.8h153.5c26,0,47.2-21.1,47.2-47.2V94.4H428.8c-11,0-19.8,8.9-19.8,19.8V170.8z"/>
	<path d="M562.4,172.3h-155v-58c0-11.8,9.6-21.3,21.3-21.3H611v30.7C611,150.5,589.2,172.3,562.4,172.3z M410.4,169.3h152
		c25.2,0,45.7-20.5,45.7-45.7V95.9H428.8c-10.1,0-18.3,8.2-18.3,18.3V169.3z"/>
</g>
<g>
	<polygon points="356.5,899.2 356.5,781.6 256.2,720.2 203.1,720.2 203.8,843 314.6,899.9 	"/>
	<path d="M314.3,901.4l-111.9-57.5l-0.8-125.2h55.1l0.4,0.2l101,61.8v119.9L314.3,901.4z M205.3,842.1L315,898.4l40.1-0.6V782.5
		l-99.2-60.7h-51.2L205.3,842.1z"/>
</g>
<rect x="356.5" y="874.4" width="357.8" height="3"/>
<g>
	<defs>
		<polygon id="SVGID_1_" points="937.4,351.9 937.4,651.4 994.3,651.4 994.3,396.9 		"/>
	</defs>
	<clipPath id="SVGID_2_">
		<use xlink:href="#SVGID_1_"  style="overflow:visible;"/>
	</clipPath>
	<g class="st43">
		<path d="M1089.8,861.2l-1.1-1L675.8,490.9l1-1.1l309-345.4l414,370.3l-1,1.1L1089.8,861.2z M680,490.7L1089.5,857l306-342.1
			L986.1,148.6L680,490.7z"/>
		<rect x="889.6" y="390.5" transform="matrix(0.6667 -0.7453 0.7453 0.6667 -199.9503 886.3326)" width="3" height="552.4"/>
		<rect x="897" y="382.3" transform="matrix(0.6667 -0.7453 0.7453 0.6667 -191.3965 889.0674)" width="3" height="552.4"/>
		<rect x="904.3" y="374.1" transform="matrix(0.6667 -0.7453 0.7453 0.6667 -182.8431 891.8006)" width="3" height="552.4"/>
		<rect x="911.6" y="365.9" transform="matrix(0.6667 -0.7453 0.7453 0.6667 -174.2893 894.5356)" width="3" height="552.4"/>
		<rect x="919" y="357.7" transform="matrix(0.6667 -0.7453 0.7453 0.6667 -165.7358 897.2693)" width="3" height="552.4"/>
		<rect x="926.3" y="349.5" transform="matrix(0.6667 -0.7453 0.7453 0.6667 -157.1824 900.0023)" width="3" height="552.4"/>
		<rect x="933.6" y="341.3" transform="matrix(0.6667 -0.7453 0.7453 0.6667 -148.6289 902.736)" width="3" height="552.4"/>
		<rect x="941" y="333.1" transform="matrix(0.6667 -0.7453 0.7453 0.6667 -140.0755 905.4697)" width="3" height="552.4"/>
		<rect x="948.3" y="325" transform="matrix(0.6668 -0.7453 0.7453 0.6668 -131.5221 908.2028)" width="3" height="552.4"/>
		<rect x="955.6" y="316.8" transform="matrix(0.6667 -0.7453 0.7453 0.6667 -122.9679 910.9389)" width="3" height="552.4"/>
		<rect x="963" y="308.6" transform="matrix(0.6667 -0.7453 0.7453 0.6667 -114.4144 913.6726)" width="3" height="552.4"/>
		<rect x="970.3" y="300.4" transform="matrix(0.6667 -0.7453 0.7453 0.6667 -105.8611 916.4057)" width="3" height="552.4"/>
		<rect x="977.6" y="292.2" transform="matrix(0.6667 -0.7453 0.7453 0.6667 -97.3076 919.1394)" width="3" height="552.4"/>
		<rect x="985" y="284" transform="matrix(0.6667 -0.7453 0.7453 0.6667 -88.7541 921.8731)" width="3" height="552.4"/>
		<rect x="992.3" y="275.8" transform="matrix(0.6668 -0.7453 0.7453 0.6668 -80.2009 924.6061)" width="3" height="552.4"/>
		<rect x="999.6" y="267.6" transform="matrix(0.6667 -0.7453 0.7453 0.6667 -71.6465 927.3423)" width="3" height="552.4"/>
		<rect x="1007" y="259.4" transform="matrix(0.6667 -0.7453 0.7453 0.6667 -63.093 930.076)" width="3" height="552.4"/>
		<rect x="1014.3" y="251.2" transform="matrix(0.6668 -0.7453 0.7453 0.6668 -54.5411 932.8072)" width="3" height="552.4"/>
		<rect x="1021.6" y="243" transform="matrix(0.6668 -0.7453 0.7453 0.6668 -45.9876 935.5409)" width="3" height="552.4"/>
		<rect x="1029" y="234.8" transform="matrix(0.6668 -0.7453 0.7453 0.6668 -37.4342 938.2746)" width="3" height="552.4"/>
		<rect x="1036.3" y="226.6" transform="matrix(0.6668 -0.7453 0.7453 0.6668 -28.8807 941.0083)" width="3" height="552.4"/>
		<rect x="1043.6" y="218.4" transform="matrix(0.6668 -0.7453 0.7453 0.6668 -20.3265 943.7438)" width="3" height="552.4"/>
		<rect x="1051" y="210.2" transform="matrix(0.6668 -0.7453 0.7453 0.6668 -11.7731 946.4775)" width="3" height="552.4"/>
		<rect x="1058.3" y="202" transform="matrix(0.6668 -0.7453 0.7453 0.6668 -3.2196 949.2112)" width="3" height="552.4"/>
		<rect x="1065.6" y="193.8" transform="matrix(0.6668 -0.7453 0.7453 0.6668 5.3336 951.9443)" width="3" height="552.4"/>
		<rect x="1073" y="185.6" transform="matrix(0.6668 -0.7453 0.7453 0.6668 13.887 954.678)" width="3" height="552.4"/>
		<rect x="1080.3" y="177.4" transform="matrix(0.6668 -0.7453 0.7453 0.6668 22.4405 957.4117)" width="3" height="552.4"/>
		<rect x="1087.6" y="169.2" transform="matrix(0.6668 -0.7453 0.7453 0.6668 30.9936 960.1448)" width="3" height="552.4"/>
		<rect x="1095" y="161" transform="matrix(0.6668 -0.7453 0.7453 0.6668 39.5482 962.8809)" width="3" height="552.4"/>
		<rect x="1102.3" y="152.8" transform="matrix(0.6668 -0.7453 0.7453 0.6668 48.1017 965.6146)" width="3" height="552.4"/>
		<rect x="1109.6" y="144.6" transform="matrix(0.6668 -0.7453 0.7453 0.6668 56.6548 968.3477)" width="3" height="552.4"/>
		<rect x="1117" y="136.4" transform="matrix(0.6668 -0.7453 0.7453 0.6668 65.2082 971.0812)" width="3" height="552.4"/>
		<rect x="1124.3" y="128.2" transform="matrix(0.6668 -0.7453 0.7453 0.6668 73.7619 973.8162)" width="3" height="552.4"/>
		<rect x="1131.6" y="120" transform="matrix(0.6668 -0.7453 0.7453 0.6668 82.315 976.5493)" width="3" height="552.4"/>
		<rect x="1139" y="111.8" transform="matrix(0.6667 -0.7453 0.7453 0.6667 90.8698 979.2855)" width="3" height="552.4"/>
		<rect x="1146.3" y="103.6" transform="matrix(0.6667 -0.7453 0.7453 0.6667 99.4233 982.0192)" width="3" height="552.4"/>
		<rect x="1153.6" y="95.4" transform="matrix(0.6668 -0.7453 0.7453 0.6668 107.9758 984.7515)" width="3" height="552.4"/>
		<rect x="1161" y="87.2" transform="matrix(0.6668 -0.7453 0.7453 0.6668 116.5293 987.4852)" width="3" height="552.4"/>
		<rect x="1168.3" y="79" transform="matrix(0.6668 -0.7453 0.7453 0.6668 125.0827 990.2189)" width="3" height="552.4"/>
		<rect x="1175.6" y="70.8" transform="matrix(0.6668 -0.7453 0.7453 0.6668 133.6362 992.9527)" width="3" height="552.4"/>
		<rect x="1183" y="62.6" transform="matrix(0.6667 -0.7453 0.7453 0.6667 142.1911 995.6888)" width="3" height="552.4"/>
	</g>
</g>
<g>
	<defs>
		<polygon id="SVGID_3_" points="1135,762.2 1931.5,762.2 1931.5,380.4 1865.6,380.4 1865.6,720.2 1135,720.2 		"/>
	</defs>
	<clipPath id="SVGID_4_">
		<use xlink:href="#SVGID_3_"  style="overflow:visible;"/>
	</clipPath>
	<g class="st44">
		<path d="M1862.1,1724.4l-0.9-1.2L785.1,364l1.2-0.9l709.4-561.6l0.9,1.2l1076.1,1359.3l-1.2,0.9L1862.1,1724.4z M789.3,364.5
			l1073.3,1355.8l705.8-558.8L1495.1-194.3L789.3,364.5z"/>
		<rect x="1340.1" y="163.8" transform="matrix(0.784 -0.6207 0.6207 0.784 -349.5491 1055.1683)" width="3" height="1732.2"/>
		<rect x="1357" y="150.5" transform="matrix(0.784 -0.6207 0.6207 0.784 -337.6224 1062.7517)" width="3" height="1732.2"/>
		<rect x="1373.9" y="137.1" transform="matrix(0.784 -0.6207 0.6207 0.784 -325.6952 1070.3359)" width="3" height="1732.2"/>
		<rect x="1390.7" y="123.8" transform="matrix(0.784 -0.6207 0.6207 0.784 -313.7685 1077.9193)" width="3" height="1732.2"/>
		<rect x="1407.6" y="110.4" transform="matrix(0.784 -0.6207 0.6207 0.784 -301.8415 1085.5017)" width="3" height="1732.2"/>
		<rect x="1424.4" y="97.1" transform="matrix(0.784 -0.6207 0.6207 0.784 -289.9148 1093.0852)" width="3" height="1732.2"/>
		<rect x="1441.3" y="83.7" transform="matrix(0.784 -0.6207 0.6207 0.784 -277.9875 1100.6693)" width="3" height="1732.2"/>
		<rect x="1458.2" y="70.4" transform="matrix(0.784 -0.6207 0.6207 0.784 -266.0609 1108.2528)" width="3" height="1732.2"/>
		<rect x="1475" y="57.1" transform="matrix(0.784 -0.6207 0.6207 0.784 -254.1338 1115.8352)" width="3" height="1732.2"/>
		<rect x="1491.9" y="43.7" transform="matrix(0.784 -0.6207 0.6207 0.784 -242.2066 1123.4193)" width="3" height="1732.2"/>
		<rect x="1508.8" y="30.4" transform="matrix(0.784 -0.6207 0.6207 0.784 -230.28 1131.0023)" width="3" height="1732.2"/>
		<rect x="1525.6" y="17" transform="matrix(0.784 -0.6207 0.6207 0.784 -218.3531 1138.5852)" width="3" height="1732.2"/>
		<rect x="1542.5" y="3.7" transform="matrix(0.784 -0.6207 0.6207 0.784 -206.4265 1146.1687)" width="3" height="1732.2"/>
		<rect x="1559.3" y="-9.7" transform="matrix(0.784 -0.6207 0.6207 0.784 -194.499 1153.7523)" width="3" height="1732.2"/>
		<rect x="1576.2" y="-23" transform="matrix(0.784 -0.6207 0.6207 0.784 -182.5723 1161.3357)" width="3" height="1732.2"/>
		<rect x="1593.1" y="-36.4" transform="matrix(0.784 -0.6207 0.6207 0.784 -170.6455 1168.9186)" width="3" height="1732.2"/>
		<rect x="1609.9" y="-49.7" transform="matrix(0.784 -0.6207 0.6207 0.784 -158.7188 1176.5021)" width="3" height="1732.2"/>
		<rect x="1626.8" y="-63.1" transform="matrix(0.784 -0.6207 0.6207 0.784 -146.7914 1184.0857)" width="3" height="1732.2"/>
		<rect x="1643.6" y="-76.4" transform="matrix(0.784 -0.6207 0.6207 0.784 -134.8647 1191.6692)" width="3" height="1732.2"/>
		<rect x="1660.5" y="-89.8" transform="matrix(0.784 -0.6207 0.6207 0.784 -122.938 1199.2517)" width="3" height="1732.2"/>
		<rect x="1677.4" y="-103.1" transform="matrix(0.784 -0.6207 0.6207 0.784 -111.0113 1206.8351)" width="3" height="1732.2"/>
		<rect x="1694.2" y="-116.5" transform="matrix(0.784 -0.6207 0.6207 0.784 -99.0838 1214.4188)" width="3" height="1732.2"/>
		<rect x="1711.1" y="-129.8" transform="matrix(0.784 -0.6207 0.6207 0.784 -87.1572 1222.0022)" width="3" height="1732.2"/>
		<rect x="1728" y="-143.2" transform="matrix(0.784 -0.6207 0.6207 0.784 -75.2304 1229.5851)" width="3" height="1732.2"/>
		<rect x="1744.8" y="-156.5" transform="matrix(0.784 -0.6207 0.6207 0.784 -63.3037 1237.1686)" width="3" height="1732.2"/>
		<rect x="1761.7" y="-169.9" transform="matrix(0.784 -0.6207 0.6207 0.784 -51.3762 1244.7522)" width="3" height="1732.2"/>
		<rect x="1778.5" y="-183.2" transform="matrix(0.784 -0.6207 0.6207 0.784 -39.4495 1252.3357)" width="3" height="1732.2"/>
		<rect x="1795.4" y="-196.6" transform="matrix(0.784 -0.6207 0.6207 0.784 -27.5228 1259.9185)" width="3" height="1732.2"/>
		<rect x="1812.3" y="-209.9" transform="matrix(0.784 -0.6207 0.6207 0.784 -15.5961 1267.502)" width="3" height="1732.2"/>
		<rect x="1829.1" y="-223.3" transform="matrix(0.784 -0.6207 0.6207 0.784 -3.6686 1275.0856)" width="3" height="1732.2"/>
		<rect x="1846" y="-236.6" transform="matrix(0.784 -0.6207 0.6207 0.784 8.2581 1282.6691)" width="3" height="1732.2"/>
		<rect x="1862.8" y="-250" transform="matrix(0.784 -0.6207 0.6207 0.784 20.1848 1290.252)" width="3" height="1732.2"/>
		<rect x="1879.7" y="-263.3" transform="matrix(0.784 -0.6207 0.6207 0.784 32.1115 1297.8353)" width="3" height="1732.2"/>
		<rect x="1896.6" y="-276.7" transform="matrix(0.784 -0.6207 0.6207 0.784 44.039 1305.4191)" width="3" height="1732.2"/>
		<rect x="1913.4" y="-290" transform="matrix(0.784 -0.6207 0.6207 0.784 55.9657 1313.0024)" width="3" height="1732.2"/>
		<rect x="1930.3" y="-303.4" transform="matrix(0.784 -0.6207 0.6207 0.784 67.893 1320.587)" width="3" height="1732.2"/>
		<rect x="1947.2" y="-316.7" transform="matrix(0.784 -0.6207 0.6207 0.784 79.8197 1328.1699)" width="3" height="1732.2"/>
		<rect x="1964" y="-330.1" transform="matrix(0.784 -0.6207 0.6207 0.784 91.7473 1335.7542)" width="3" height="1732.2"/>
		<rect x="1980.9" y="-343.4" transform="matrix(0.784 -0.6207 0.6207 0.784 103.674 1343.337)" width="3" height="1732.2"/>
		<rect x="1997.7" y="-356.8" transform="matrix(0.784 -0.6207 0.6207 0.784 115.6007 1350.9204)" width="3" height="1732.2"/>
		<rect x="2014.6" y="-370.1" transform="matrix(0.784 -0.6207 0.6207 0.784 127.5274 1358.5033)" width="3" height="1732.2"/>
	</g>
</g>
<g>
	<rect x="992.8" y="396.9" width="3" height="254.5"/>
</g>
<g>
	<path class="st0" d="M1182.9,416.3H1550c12.3,0,24,5,32.5,13.8l54.8,56.8c9.1,9.4,14.2,22,14.2,35.1v129.3h-468.6V416.3z"/>
	<path d="M1550,461.2c0.1,0,0.2,0,0.2,0.1l54.8,56.8c1,1.1,1.6,2.4,1.6,3.9v84.4h-378.8V461.2H1550 M1550,416.3h-367.1v235h468.6
		V522.1c0-13.1-5.1-25.7-14.2-35.1l-54.8-56.8C1574,421.3,1562.3,416.3,1550,416.3L1550,416.3z"/>
</g>
<g>
	<defs>
		<path id="SVGID_5_" d="M584.1,824.3c0,10.3-2.3,20.1-6.4,28.9l-123.3,0.3c-4.2-8.8-6.6-18.7-6.6-29.2c0-20.7,9.2-39.2,23.7-51.7
			l88.8,0C574.9,785.1,584.1,803.6,584.1,824.3z"/>
	</defs>
	<clipPath id="SVGID_6_">
		<use xlink:href="#SVGID_5_"  style="overflow:visible;"/>
	</clipPath>
	<g class="st45">
		<path d="M672.4,986.7H402.9v-545h269.5V986.7z M405.9,983.7h263.5v-539H405.9V983.7z"/>
		<rect x="404.4" y="970.8" width="266.5" height="3"/>
		<rect x="404.4" y="957.9" width="266.5" height="3"/>
		<rect x="404.4" y="945" width="266.5" height="3"/>
		<rect x="404.4" y="932.1" width="266.5" height="3"/>
		<rect x="404.4" y="919.2" width="266.5" height="3"/>
		<rect x="404.4" y="906.3" width="266.5" height="3"/>
		<rect x="404.4" y="893.4" width="266.5" height="3"/>
		<rect x="404.4" y="880.5" width="266.5" height="3"/>
		<rect x="404.4" y="867.6" width="266.5" height="3"/>
		<rect x="404.4" y="854.7" width="266.5" height="3"/>
		<rect x="404.4" y="841.8" width="266.5" height="3"/>
		<rect x="404.4" y="828.9" width="266.5" height="3"/>
		<rect x="404.4" y="816" width="266.5" height="3"/>
		<rect x="404.4" y="803.1" width="266.5" height="3"/>
		<rect x="404.4" y="790.2" width="266.5" height="3"/>
		<rect x="404.4" y="777.3" width="266.5" height="3"/>
		<rect x="404.4" y="764.4" width="266.5" height="3"/>
		<rect x="404.4" y="751.5" width="266.5" height="3"/>
		<rect x="404.4" y="738.6" width="266.5" height="3"/>
		<rect x="404.4" y="725.7" width="266.5" height="3"/>
		<rect x="404.4" y="712.8" width="266.5" height="3"/>
		<rect x="404.4" y="699.9" width="266.5" height="3"/>
		<rect x="404.4" y="686.9" width="266.5" height="3"/>
		<rect x="404.4" y="674" width="266.5" height="3"/>
		<rect x="404.4" y="661.1" width="266.5" height="3"/>
		<rect x="404.4" y="648.2" width="266.5" height="3"/>
		<rect x="404.4" y="635.3" width="266.5" height="3"/>
		<rect x="404.4" y="622.4" width="266.5" height="3"/>
		<rect x="404.4" y="609.5" width="266.5" height="3"/>
		<rect x="404.4" y="596.6" width="266.5" height="3"/>
		<rect x="404.4" y="583.7" width="266.5" height="3"/>
		<rect x="404.4" y="570.8" width="266.5" height="3"/>
		<rect x="404.4" y="557.9" width="266.5" height="3"/>
		<rect x="404.4" y="545" width="266.5" height="3"/>
		<rect x="404.4" y="532.1" width="266.5" height="3"/>
		<rect x="404.4" y="519.2" width="266.5" height="3"/>
		<rect x="404.4" y="506.3" width="266.5" height="3"/>
		<rect x="404.4" y="493.4" width="266.5" height="3"/>
		<rect x="404.4" y="480.5" width="266.5" height="3"/>
		<rect x="404.4" y="467.6" width="266.5" height="3"/>
		<rect x="404.4" y="454.7" width="266.5" height="3"/>
	</g>
</g>
<g>
	<defs>
		<path id="SVGID_7_" d="M399.9,787.6v51c0,8.2,6.7,14.9,14.9,14.9h197.6c5.6,0,10.7-3.1,13.2-8.1l26.4-51
			c5.1-9.9-2.1-21.8-13.2-21.8h-224C406.6,772.6,399.9,779.3,399.9,787.6z"/>
	</defs>
	<clipPath id="SVGID_8_">
		<use xlink:href="#SVGID_7_"  style="overflow:visible;"/>
	</clipPath>
	<g class="st46">
		<path d="M730.1,1011.4H319.8V587.7h410.2V1011.4z M321.3,1009.9h407.2V589.2H321.3V1009.9z"/>
		<rect x="714" y="588.5" width="1.5" height="422.2"/>
		<rect x="699.4" y="588.5" width="1.5" height="422.2"/>
		<rect x="684.8" y="588.5" width="1.5" height="422.2"/>
		<rect x="670.2" y="588.5" width="1.5" height="422.2"/>
		<rect x="655.6" y="588.5" width="1.5" height="422.2"/>
		<rect x="641" y="588.5" width="1.5" height="422.2"/>
		<rect x="626.4" y="588.5" width="1.5" height="422.2"/>
		<rect x="611.8" y="588.5" width="1.5" height="422.2"/>
		<rect x="597.2" y="588.5" width="1.5" height="422.2"/>
		<rect x="582.6" y="588.5" width="1.5" height="422.2"/>
		<rect x="568" y="588.5" width="1.5" height="422.2"/>
		<rect x="553.4" y="588.5" width="1.5" height="422.2"/>
		<rect x="538.8" y="588.5" width="1.5" height="422.2"/>
		<rect x="524.2" y="588.5" width="1.5" height="422.2"/>
		<rect x="509.6" y="588.5" width="1.5" height="422.2"/>
		<rect x="495" y="588.5" width="1.5" height="422.2"/>
		<rect x="480.4" y="588.5" width="1.5" height="422.2"/>
		<rect x="465.8" y="588.5" width="1.5" height="422.2"/>
		<rect x="451.2" y="588.5" width="1.5" height="422.2"/>
		<rect x="436.6" y="588.5" width="1.5" height="422.2"/>
		<rect x="422" y="588.5" width="1.5" height="422.2"/>
		<rect x="407.4" y="588.5" width="1.5" height="422.2"/>
		<rect x="392.8" y="588.5" width="1.5" height="422.2"/>
		<rect x="378.2" y="588.5" width="1.5" height="422.2"/>
		<rect x="363.6" y="588.5" width="1.5" height="422.2"/>
		<rect x="349" y="588.5" width="1.5" height="422.2"/>
		<rect x="334.4" y="588.5" width="1.5" height="422.2"/>
	</g>
</g>
<g>
	<defs>
		<path id="SVGID_9_" d="M741.3,498.7c0,129.8-105.2,235-235,235s-235-105.2-235-235s105.2-235,235-235S741.3,368.9,741.3,498.7z
			 M506.2,346c-82.7,0-149.7,67-149.7,149.7s67,149.7,149.7,149.7S656,578.4,656,495.7S588.9,346,506.2,346z"/>
	</defs>
	<clipPath id="SVGID_10_">
		<use xlink:href="#SVGID_9_"  style="overflow:visible;"/>
	</clipPath>
	<g class="st47">
		<circle class="st0" cx="506.2" cy="495.7" r="250"/>
		<path d="M506.2,274.1c59.2,0,114.8,23,156.7,64.9c41.8,41.8,64.9,97.5,64.9,156.7s-23,114.8-64.9,156.7
			c-41.8,41.8-97.5,64.9-156.7,64.9s-114.8-23-156.7-64.9c-41.8-41.8-64.9-97.5-64.9-156.7s23-114.8,64.9-156.7
			C391.4,297.1,447.1,274.1,506.2,274.1 M506.2,245.7c-138.1,0-250,111.9-250,250s111.9,250,250,250s250-111.9,250-250
			S644.3,245.7,506.2,245.7L506.2,245.7z"/>
	</g>
	<g class="st47">
		<g>
			<path d="M506.2,1170.9c-90.6,0-178.5-17.8-261.2-53c-79.9-33.9-151.6-82.6-213.2-144.5c-61.6-61.9-109.9-134-143.7-214.4
				c-34.9-83.2-52.7-171.5-52.7-262.7s17.7-179.5,52.7-262.7C-78.1,153.4-29.7,81.3,31.9,19.4S165.2-91.1,245-125.1
				c82.7-35.1,170.6-53,261.2-53c90.6,0,178.5,17.8,261.2,53c79.9,33.9,151.6,82.6,213.2,144.5c61.6,61.9,109.9,134,143.7,214.4
				c34.9,83.2,52.7,171.5,52.7,262.7s-17.7,179.5-52.7,262.7c-33.8,80.3-82.1,152.5-143.7,214.4c-61.6,61.9-133.3,110.5-213.2,144.5
				C684.7,1153.1,596.9,1170.9,506.2,1170.9z M506.2-172c-366.5,0-664.7,299.9-664.7,668.5c0,368.6,298.2,668.5,664.7,668.5
				S1171,865,1171,496.4C1171,127.8,872.8-172,506.2-172z"/>
		</g>
		<g>
			<rect x="503.2" y="496.4" width="6" height="671.5"/>
			<rect x="586.3" y="486" transform="matrix(0.9689 -0.2474 0.2474 0.9689 -184.9387 171.316)" width="6" height="671.2"/>
			<rect x="664.1" y="455.3" transform="matrix(0.8774 -0.4797 0.4797 0.8774 -297.4949 416.8876)" width="6" height="670.6"/>
			<rect x="731.8" y="406.3" transform="matrix(0.7309 -0.6825 0.6825 0.7309 -308.1007 700.9617)" width="6" height="669.7"/>
			<rect x="785.1" y="341.9" transform="matrix(0.538 -0.843 0.843 0.538 -205.9684 976.8483)" width="6" height="668.8"/>
			<rect x="820.8" y="266.1" transform="matrix(0.3106 -0.9505 0.9505 0.3106 -2.5747 1196.7864)" width="6" height="668.1"/>
			
				<rect x="836.4" y="183.6" transform="matrix(6.314231e-02 -0.998 0.998 6.314231e-02 269.9659 1322.5908)" width="6" height="667.7"/>
			<rect x="500.3" y="430.5" transform="matrix(0.9821 -0.1885 0.1885 0.9821 -66.7636 165.0184)" width="667.8" height="6"/>
			<rect x="474.1" y="350.5" transform="matrix(0.9039 -0.4278 0.4278 0.9039 -73.5158 379.7516)" width="668.4" height="6"/>
			<rect x="428.9" y="279.4" transform="matrix(0.7686 -0.6397 0.6397 0.7686 -4.011 553.7485)" width="669.2" height="6"/>
			<rect x="367.4" y="221.8" transform="matrix(0.5855 -0.8107 0.8107 0.5855 108.9155 662.6434)" width="670.2" height="6"/>
			<rect x="293.7" y="181.3" transform="matrix(0.3662 -0.9305 0.9305 0.3662 227.2552 702.2062)" width="671" height="6"/>
			<rect x="212.4" y="160.3" transform="matrix(0.1245 -0.9922 0.9922 0.1245 317.771 686.8182)" width="671.4" height="6"/>
			<rect x="461.4" y="-172.4" transform="matrix(0.9922 -0.1246 0.1246 0.9922 -16.7378 59.1591)" width="6" height="671.4"/>
			<rect x="380.3" y="-151.2" transform="matrix(0.9305 -0.3663 0.3663 0.9305 -40.8555 153.2464)" width="6" height="671"/>
			<rect x="307" y="-110.3" transform="matrix(0.8106 -0.5856 0.5856 0.8106 -72.9343 224.1331)" width="6" height="670.2"/>
			<rect x="246" y="-52.2" transform="matrix(0.6395 -0.7688 0.7688 0.6395 -127.3583 293.2205)" width="6" height="669.2"/>
			<rect x="201.2" y="19.3" transform="matrix(0.4277 -0.9039 0.9039 0.4277 -202.6762 386.8203)" width="6" height="668.4"/>
			<rect x="175.3" y="99.6" transform="matrix(0.1884 -0.9821 0.9821 0.1884 -281.0447 526.9428)" width="6" height="667.8"/>
			
				<rect x="-160.8" y="514.5" transform="matrix(0.998 -6.322939e-02 6.322939e-02 0.998 -32.3751 11.9767)" width="667.7" height="6"/>
			<rect x="-145.3" y="597.2" transform="matrix(0.9506 -0.3105 0.3105 0.9506 -177.0297 88.2658)" width="668.1" height="6"/>
			<rect x="-110" y="673.3" transform="matrix(0.8429 -0.5381 0.5381 0.8429 -328.6955 227.0117)" width="668.8" height="6"/>
			<rect x="-57.2" y="738.2" transform="matrix(0.6825 -0.7309 0.7309 0.6825 -453.5218 438.2558)" width="669.7" height="6"/>
			<rect x="10.1" y="787.6" transform="matrix(0.4795 -0.8775 0.8775 0.4795 -514.021 714.5888)" width="670.6" height="6"/>
			<rect x="87.6" y="818.6" transform="matrix(0.2475 -0.9689 0.9689 0.2475 -477.582 1028.2751)" width="671.2" height="6"/>
		</g>
	</g>
</g>
<path d="M613.5,856.5H410.8c-7.6,0-13.8-6.2-13.8-13.8v-73h240.1c6.7,0,12.8,3.4,16.3,9.1c3.5,5.7,3.7,12.7,0.6,18.6l-26.1,50.3
	C625.1,853.1,619.6,856.5,613.5,856.5z M402.9,775.6v67c0,4.3,3.5,7.9,7.9,7.9h202.7c3.8,0,7.3-2.1,9-5.5l26.1-50.3
	c2.1-4.1,2-8.8-0.4-12.8c-2.4-3.9-6.5-6.3-11.1-6.3H402.9z"/>
<g>
	<defs>
		<path id="SVGID_11_" d="M1211.4,378.4h367.1c12.3,0,24,5,32.5,13.8l54.8,56.8c9.1,9.4,14.2,22,14.2,35.1v129.3h-468.6V378.4z"/>
	</defs>
	<clipPath id="SVGID_12_">
		<use xlink:href="#SVGID_11_"  style="overflow:visible;"/>
	</clipPath>
	<g class="st48">
		<path d="M1642.6,700.3h-377.3V303.5h377.3V700.3z M1268.4,697.3h371.3V306.5h-371.3V697.3z"/>
		<rect x="1620" y="305" width="3" height="393.7"/>
		<rect x="1600.3" y="305" width="3" height="393.7"/>
		<rect x="1580.6" y="305" width="3" height="393.7"/>
		<rect x="1560.9" y="305" width="3" height="393.7"/>
		<rect x="1541.2" y="305" width="3" height="393.7"/>
		<rect x="1521.5" y="305" width="3" height="393.7"/>
		<rect x="1501.8" y="305" width="3" height="393.7"/>
		<rect x="1482.1" y="305" width="3" height="393.7"/>
		<rect x="1462.4" y="305" width="3" height="393.7"/>
		<rect x="1442.7" y="305" width="3" height="393.7"/>
		<rect x="1423" y="305" width="3" height="393.7"/>
		<rect x="1403.3" y="305" width="3" height="393.7"/>
		<rect x="1383.6" y="305" width="3" height="393.7"/>
		<rect x="1363.9" y="305" width="3" height="393.7"/>
		<rect x="1344.2" y="305" width="3" height="393.7"/>
		<rect x="1324.5" y="305" width="3" height="393.7"/>
		<rect x="1304.8" y="305" width="3" height="393.7"/>
		<rect x="1285.1" y="305" width="3" height="393.7"/>
	</g>
</g>
<polygon points="230.1,719.7 201.6,719.7 201.6,331.2 384.4,117.2 422.4,117.2 422.4,145.6 397.6,145.6 230.1,341.7 "/>
<path d="M506.2,649.9c-85,0-154.2-69.2-154.2-154.2s69.2-154.2,154.2-154.2s154.2,69.2,154.2,154.2S591.3,649.9,506.2,649.9z
	 M506.2,353.4c-78.4,0-142.2,63.8-142.2,142.2s63.8,142.2,142.2,142.2s142.2-63.8,142.2-142.2S584.7,353.4,506.2,353.4z"/>
<path d="M506.2,743.2c-137.9,0-250-110.9-250-247.3s112.2-247.3,250-247.3s250,110.9,250,247.3S644.1,743.2,506.2,743.2z
	 M506.2,278.6c-121.4,0-220.1,97.5-220.1,217.3s98.7,217.3,220.1,217.3s220.1-97.5,220.1-217.3S627.6,278.6,506.2,278.6z"/>
<g>
	<path class="st0" d="M768.2,288.9v460.5c0,7.1,9.1,9.9,13.1,4l31.8-46.7V290.6l-23.3-14C780.4,270.9,768.2,277.8,768.2,288.9z"/>
	<path d="M775.5,758.8c-0.9,0-1.9-0.1-2.9-0.4c-4-1.2-6.6-4.8-6.6-9V288.9c0-6,3.1-11.4,8.4-14.4c5.3-3,11.5-2.9,16.7,0.2l24.4,14.6
		v418.2l-32.2,47.2C781.4,757.4,778.5,758.8,775.5,758.8z M782.5,276.8c-2,0-4.1,0.5-5.9,1.6c-3.8,2.2-6.1,6.1-6.1,10.5v460.5
		c0,2.7,1.8,4.2,3.5,4.7c1.7,0.5,4,0.3,5.5-1.9l31.4-46.1V291.8l-22.2-13.3C786.8,277.4,784.7,276.8,782.5,276.8z"/>
</g>
<path d="M1416.6,1962.5H532.8c-7.3,0-14.2-2.9-19.4-8l-203.9-203.9l123.3-36.7l2.1-228.5l-53.3-27.6l176.8-101.1h1036.9l27.6,100.5
	v197.1l-0.4,0.7l-179.9,293C1437,1957,1427.1,1962.5,1416.6,1962.5z M320.8,1753.4l196.8,196.8c4.1,4.1,9.4,6.3,15.2,6.3h883.8
	c8.4,0,16.3-4.4,20.7-11.6l179.5-292.3v-194.6l-26.1-95.3H560l-165.9,94.8l46.8,24.2l-2.2,236.6L320.8,1753.4z"/>
<path d="M1597.2,1361.2H570.6l108.8-36.5l815.8-45.9l0.4,0.4L1597.2,1361.2z M589,1358.2h999.8l-94.5-76.4l-814.4,45.9L589,1358.2z"
	/>
<path d="M1799.9,1451.1l-85.5-21.4l-101.8,3.1l-1.5-1.1l-19.5-71.1l-97.9-79.1l0.9-2.7h305.5l1.5,1.5v169.4L1799.9,1451.1z
	 M1714.5,1426.8l0.4,0l83.8,21v-166H1499l94.9,76.8l0.5,0.8l19.3,70.5L1714.5,1426.8z"/>
<g>
	<path d="M1820.7,1454.2v-170.4c0-14.4,11.6-26,26-26h8.7v218.4h-12.7C1830.5,1476.1,1820.7,1466.3,1820.7,1454.2z"/>
	<path d="M1856.8,1477.6h-14.2c-13,0-23.5-10.5-23.5-23.5v-170.4c0-15.2,12.3-27.5,27.5-27.5h10.2V1477.6z M1846.7,1259.2
		c-13.5,0-24.5,11-24.5,24.5v170.4c0,11.3,9.2,20.5,20.5,20.5h11.2v-215.4H1846.7z"/>
</g>
<g>
	<polyline points="1916.5,1257.7 1916.5,1476.1 1931.5,1476.1 1931.5,1257.7 1916.5,1257.7 	"/>
	<path d="M1933,1477.6h-18v-221.4h18V1477.6z M1918,1474.6h12v-215.4h-12V1474.6z"/>
</g>
<g>
	<rect x="1855.3" y="1257.9" width="64.6" height="12"/>
</g>
<g>
	<rect x="1869.5" y="1257.7" width="3" height="218.4"/>
</g>
<g>
	<rect x="1885.5" y="1257.7" width="3" height="218.4"/>
</g>
<g>
	<rect x="1901.8" y="1257.7" width="3" height="218.4"/>
</g>
<path d="M315.6,1755h-44v-301.7h117l52.3,28.5l-2.2,236.5L315.6,1755z M277.6,1749h37.1l118-35.2l2.1-228.5l-47.8-26H277.6V1749z"/>
<g>
	<defs>
		<path id="SVGID_13_" d="M254.4,1759.8h-71.8v-313.5h71.8V1759.8z M183,1759.4h71v-312.8h-71V1759.4z"/>
	</defs>
	<use xlink:href="#SVGID_13_"  style="overflow:visible;"/>
	<clipPath id="SVGID_14_">
		<use xlink:href="#SVGID_13_"  style="overflow:visible;"/>
	</clipPath>
	<g class="st49">
		<path d="M413.8,1891.7H116v-566.1h297.8V1891.7z M119,1888.7h291.8v-560.1H119V1888.7z"/>
		<rect x="117.5" y="1869.9" width="294.8" height="3"/>
		<rect x="117.5" y="1851.1" width="294.8" height="3"/>
		<rect x="117.5" y="1832.4" width="294.8" height="3"/>
		<rect x="117.5" y="1813.6" width="294.8" height="3"/>
		<rect x="117.5" y="1794.8" width="294.8" height="3"/>
		<rect x="117.5" y="1776.1" width="294.8" height="3"/>
		<rect x="117.5" y="1757.3" width="294.8" height="3"/>
		<rect x="117.5" y="1738.5" width="294.8" height="3"/>
		<rect x="117.5" y="1719.8" width="294.8" height="3"/>
		<rect x="117.5" y="1701" width="294.8" height="3"/>
		<rect x="117.5" y="1682.2" width="294.8" height="3"/>
		<rect x="117.5" y="1663.4" width="294.8" height="3"/>
		<rect x="117.5" y="1644.7" width="294.8" height="3"/>
		<rect x="117.5" y="1625.9" width="294.8" height="3"/>
		<rect x="117.5" y="1607.1" width="294.8" height="3"/>
		<rect x="117.5" y="1588.4" width="294.8" height="3"/>
		<rect x="117.5" y="1569.6" width="294.8" height="3"/>
		<rect x="117.5" y="1550.8" width="294.8" height="3"/>
		<rect x="117.5" y="1532.1" width="294.8" height="3"/>
		<rect x="117.5" y="1513.3" width="294.8" height="3"/>
		<rect x="117.5" y="1494.5" width="294.8" height="3"/>
		<rect x="117.5" y="1475.8" width="294.8" height="3"/>
		<rect x="117.5" y="1457" width="294.8" height="3"/>
		<rect x="117.5" y="1438.2" width="294.8" height="3"/>
		<rect x="117.5" y="1419.4" width="294.8" height="3"/>
		<rect x="117.5" y="1400.7" width="294.8" height="3"/>
		<rect x="117.5" y="1381.9" width="294.8" height="3"/>
		<rect x="117.5" y="1363.1" width="294.8" height="3"/>
		<rect x="117.5" y="1344.4" width="294.8" height="3"/>
	</g>
</g>
<path d="M256.4,1761.8h-75.9v-317.6h75.9V1761.8z M185,1757.4h66.9v-308.7H185V1757.4z"/>
<polygon points="182.8,1752.9 147.6,1752.9 147.6,1454.8 182.8,1454.8 182.8,1457.8 150.6,1457.8 150.6,1749.9 182.8,1749.9 "/>
<g>
	<path d="M268,1456.9v294.3c0,5-4,9-9,9h-26.7v-312.3H259C264,1447.9,268,1451.9,268,1456.9z"/>
	<path d="M259,1761.7h-28.2v-315.3H259c5.8,0,10.5,4.7,10.5,10.5v294.3C269.5,1757,264.8,1761.7,259,1761.7z M233.8,1758.8H259
		c4.2,0,7.5-3.4,7.5-7.5v-294.3c0-4.2-3.4-7.5-7.5-7.5h-25.2V1758.8z"/>
</g>
<g>
	<rect x="208.5" y="1457.8" width="9" height="295.1"/>
</g>
<g>
	<path class="st0" d="M430.1,1538.3h18.4c7.6,0,13.8,6.2,13.8,13.8v93.8c0,7.6-6.2,13.8-13.8,13.8h-18.4c-7.6,0-13.8-6.2-13.8-13.8
		V1552C416.4,1544.4,422.5,1538.3,430.1,1538.3z"/>
	<path d="M448.5,1661.1h-18.4c-8.4,0-15.3-6.8-15.3-15.3V1552c0-8.4,6.8-15.3,15.3-15.3h18.4c8.4,0,15.3,6.8,15.3,15.3v93.8
		C463.8,1654.3,456.9,1661.1,448.5,1661.1z M430.1,1539.7c-6.8,0-12.3,5.5-12.3,12.3v93.8c0,6.8,5.5,12.3,12.3,12.3h18.4
		c6.8,0,12.3-5.5,12.3-12.3V1552c0-6.8-5.5-12.3-12.3-12.3H430.1z"/>
</g>
<g>
	<rect x="416.4" y="1587.9" width="45.9" height="15"/>
</g>
<g>
	<rect x="424.8" y="1572.1" width="28.6" height="4.5"/>
</g>
<g>
	<rect x="424.8" y="1561.4" width="28.6" height="3"/>
</g>
<g>
	<rect x="425.3" y="1615.6" width="28.1" height="4.5"/>
</g>
<g>
	<rect x="425.3" y="1627.5" width="28.1" height="3"/>
</g>
<polygon points="540.3,1731.4 435.5,1717.6 435.9,1714.6 537.3,1728 537.3,1496.1 438.1,1510.8 437.7,1507.9 540.3,1492.7 "/>
<polygon points="1302.4,1875.3 577.3,1875.3 503.3,1725.8 506,1724.5 579.2,1872.4 1301.2,1872.4 1396.2,1777.3 1396.2,1509.2 
	1319.5,1424.5 587.2,1424.5 540,1495.2 537.5,1493.6 585.6,1421.5 1320.8,1421.5 1399.2,1508.1 1399.2,1778.6 "/>
<g>
	<defs>
		<polygon id="SVGID_15_" points="210.6,632.3 255.5,632.3 356.5,758.1 356.5,801.1 210.6,756.6 		"/>
	</defs>
	<clipPath id="SVGID_16_">
		<use xlink:href="#SVGID_15_"  style="overflow:visible;"/>
	</clipPath>
	<g class="st50">
		<path d="M401.4,862.5h-238V522.6h238V862.5z M166.4,859.5h232.1V525.6H166.4V859.5z"/>
		<rect x="164.9" y="848.2" width="235" height="3"/>
		<rect x="164.9" y="837" width="235" height="3"/>
		<rect x="164.9" y="825.8" width="235" height="3"/>
		<rect x="164.9" y="814.6" width="235" height="3"/>
		<rect x="164.9" y="803.3" width="235" height="3"/>
		<rect x="164.9" y="792.1" width="235" height="3"/>
		<rect x="164.9" y="780.9" width="235" height="3"/>
		<rect x="164.9" y="769.6" width="235" height="3"/>
		<rect x="164.9" y="758.4" width="235" height="3"/>
		<rect x="164.9" y="747.2" width="235" height="3"/>
		<rect x="164.9" y="736" width="235" height="3"/>
		<rect x="164.9" y="724.7" width="235" height="3"/>
		<rect x="164.9" y="713.5" width="235" height="3"/>
		<rect x="164.9" y="702.3" width="235" height="3"/>
		<rect x="164.9" y="691" width="235" height="3"/>
		<rect x="164.9" y="679.8" width="235" height="3"/>
		<rect x="164.9" y="668.6" width="235" height="3"/>
		<rect x="164.9" y="657.4" width="235" height="3"/>
		<rect x="164.9" y="646.1" width="235" height="3"/>
		<rect x="164.9" y="634.9" width="235" height="3"/>
		<rect x="164.9" y="623.7" width="235" height="3"/>
		<rect x="164.9" y="612.4" width="235" height="3"/>
		<rect x="164.9" y="601.2" width="235" height="3"/>
		<rect x="164.9" y="590" width="235" height="3"/>
		<rect x="164.9" y="578.8" width="235" height="3"/>
		<rect x="164.9" y="567.5" width="235" height="3"/>
		<rect x="164.9" y="556.3" width="235" height="3"/>
		<rect x="164.9" y="545.1" width="235" height="3"/>
		<rect x="164.9" y="533.8" width="235" height="3"/>
	</g>
</g>
<g>
	<path class="st0" d="M514.3,1519.9h107.1c2.8,0,5.1,2.3,5.1,5.1v179.5H514.3V1519.9z"/>
	<path d="M628,1706H512.8v-187.6h108.6c3.6,0,6.6,3,6.6,6.6V1706z M515.8,1703H625v-178c0-2-1.6-3.6-3.6-3.6H515.8V1703z"/>
</g>
<path d="M1101.3,1802H674.2c-6.9,0-12.4-5.6-12.4-12.4v-261.1c0-2.6,1.1-4.9,3.1-6.5c2-1.6,4.6-2.2,7.1-1.7l351.4,74.2
	c45.2,9.5,78,50,78,96.2V1802z M670.1,1523c-1.2,0-2.4,0.4-3.4,1.2c-1.3,1-2,2.6-2,4.2v261.1c0,5.2,4.2,9.4,9.4,9.4h424.2v-108.4
	c0-44.8-31.8-84.1-75.7-93.3l-351.4-74.2C670.9,1523,670.5,1523,670.1,1523z"/>
<g>
	<defs>
		<polygon id="SVGID_17_" points="1320.1,1423 1435.4,1423 1480,1462.8 1480,1729.7 1397.7,1778 1397.7,1508.7 		"/>
	</defs>
	<clipPath id="SVGID_18_">
		<use xlink:href="#SVGID_17_"  style="overflow:visible;"/>
	</clipPath>
	<g class="st51">
		<path d="M1339.8,1984.2L1007,1651.4l462.8-462.8l332.8,332.8L1339.8,1984.2z M1011.2,1651.4l328.6,328.6l458.5-458.5l-328.6-328.6
			L1011.2,1651.4z"/>
		<rect x="1233.4" y="1739.3" transform="matrix(0.7071 -0.7071 0.7071 0.7071 -774.2336 1612.3364)" width="651.5" height="3"/>
		<rect x="1222.4" y="1728.2" transform="matrix(0.7071 -0.7071 0.7071 0.7071 -769.6674 1601.3126)" width="651.5" height="3"/>
		<rect x="1211.4" y="1717.2" transform="matrix(0.7071 -0.7071 0.7071 0.7071 -765.1012 1590.2889)" width="651.5" height="3"/>
		<rect x="1200.3" y="1706.2" transform="matrix(0.7071 -0.7071 0.7071 0.7071 -760.535 1579.2651)" width="651.5" height="3"/>
		<rect x="1189.3" y="1695.2" transform="matrix(0.7071 -0.7071 0.7071 0.7071 -755.9685 1568.2406)" width="651.5" height="3"/>
		<rect x="1178.3" y="1684.1" transform="matrix(0.7071 -0.7071 0.7071 0.7071 -751.402 1557.2162)" width="651.5" height="3"/>
		<rect x="1167.3" y="1673.1" transform="matrix(0.7071 -0.7071 0.7071 0.7071 -746.8358 1546.1924)" width="651.5" height="3"/>
		<rect x="1156.2" y="1662.1" transform="matrix(0.7071 -0.7071 0.7071 0.7071 -742.2697 1535.1686)" width="651.5" height="3"/>
		<rect x="1145.2" y="1651.1" transform="matrix(0.7071 -0.7071 0.7071 0.7071 -737.7034 1524.1449)" width="651.5" height="3"/>
		<rect x="1134.2" y="1640" transform="matrix(0.7071 -0.7071 0.7071 0.7071 -733.1373 1513.1211)" width="651.5" height="3"/>
		<rect x="1123.2" y="1629" transform="matrix(0.7071 -0.7071 0.7071 0.7071 -728.5707 1502.0967)" width="651.5" height="3"/>
		<rect x="1112.1" y="1618" transform="matrix(0.7071 -0.7071 0.7071 0.7071 -724.0043 1491.0721)" width="651.5" height="3"/>
		<rect x="1101.1" y="1607" transform="matrix(0.7071 -0.7071 0.7071 0.7071 -719.438 1480.0483)" width="651.5" height="3"/>
		<rect x="1090.1" y="1595.9" transform="matrix(0.7071 -0.7071 0.7071 0.7071 -714.8719 1469.0247)" width="651.5" height="3"/>
		<rect x="1079.1" y="1584.9" transform="matrix(0.7071 -0.7071 0.7071 0.7071 -710.3057 1458.0009)" width="651.5" height="3"/>
		<rect x="1068.1" y="1573.9" transform="matrix(0.7071 -0.7071 0.7071 0.7071 -705.7395 1446.9771)" width="651.5" height="3"/>
		<rect x="1057" y="1562.9" transform="matrix(0.7071 -0.7071 0.7071 0.7071 -701.173 1435.9526)" width="651.5" height="3"/>
		<rect x="1046" y="1551.8" transform="matrix(0.7071 -0.7071 0.7071 0.7071 -696.6065 1424.9281)" width="651.5" height="3"/>
		<rect x="1035" y="1540.8" transform="matrix(0.7071 -0.7071 0.7071 0.7071 -692.0403 1413.9043)" width="651.5" height="3"/>
		<rect x="1024" y="1529.8" transform="matrix(0.7071 -0.7071 0.7071 0.7071 -687.4741 1402.8806)" width="651.5" height="3"/>
		<rect x="1012.9" y="1518.8" transform="matrix(0.7071 -0.7071 0.7071 0.7071 -682.908 1391.8568)" width="651.5" height="3"/>
		<rect x="1001.9" y="1507.8" transform="matrix(0.7071 -0.7071 0.7071 0.7071 -678.3417 1380.8331)" width="651.5" height="3"/>
		<rect x="990.9" y="1496.7" transform="matrix(0.7071 -0.7071 0.7071 0.7071 -673.7754 1369.8083)" width="651.5" height="3"/>
		<rect x="979.9" y="1485.7" transform="matrix(0.7071 -0.7071 0.7071 0.7071 -669.2087 1358.7843)" width="651.5" height="3"/>
		<rect x="968.8" y="1474.7" transform="matrix(0.7071 -0.7071 0.7071 0.7071 -664.6425 1347.7606)" width="651.5" height="3"/>
		<rect x="957.8" y="1463.7" transform="matrix(0.7071 -0.7071 0.7071 0.7071 -660.0764 1336.7366)" width="651.5" height="3"/>
		<rect x="946.8" y="1452.6" transform="matrix(0.7071 -0.7071 0.7071 0.7071 -655.5102 1325.7128)" width="651.5" height="3"/>
		<rect x="935.8" y="1441.6" transform="matrix(0.7071 -0.7071 0.7071 0.7071 -650.944 1314.6891)" width="651.5" height="3"/>
		<rect x="924.7" y="1430.6" transform="matrix(0.7071 -0.7071 0.7071 0.7071 -646.3774 1303.6648)" width="651.5" height="3"/>
	</g>
</g>
<path d="M1397.7,1782.5c-0.8,0-1.5-0.2-2.2-0.6c-1.4-0.8-2.3-2.3-2.3-3.9v-267.6l-76.4-84.4c-1.2-1.3-1.5-3.2-0.8-4.8
	c0.7-1.6,2.3-2.7,4.1-2.7h115.3c1.1,0,2.2,0.4,3,1.1l44.5,39.8c1,0.9,1.5,2.1,1.5,3.3v266.9c0,1.6-0.8,3.1-2.2,3.9l-82.3,48.3
	C1399.2,1782.3,1398.5,1782.5,1397.7,1782.5z M1330.3,1427.5l70.7,78.2c0.7,0.8,1.2,1.9,1.2,3v261.5l73.3-43v-262.3l-41.8-37.3
	H1330.3z"/>
<g>
	<defs>
		<polygon id="SVGID_19_" points="579.8,1359.7 679.5,1326.2 1494.8,1280.3 1593,1359.7 		"/>
	</defs>
	<clipPath id="SVGID_20_">
		<use xlink:href="#SVGID_19_"  style="overflow:visible;"/>
	</clipPath>
	<g class="st52">
		<path d="M1940,1539.7H436.9v-510.6H1940V1539.7z M439.9,1536.8H1937v-504.6H439.9V1536.8z"/>
		<rect x="438.4" y="1529.8" width="1500.2" height="3"/>
		<rect x="438.4" y="1522.8" width="1500.2" height="3"/>
		<rect x="438.4" y="1515.9" width="1500.2" height="3"/>
		<rect x="438.4" y="1508.9" width="1500.2" height="3"/>
		<rect x="438.4" y="1502" width="1500.2" height="3"/>
		<rect x="438.4" y="1495" width="1500.2" height="3"/>
		<rect x="438.4" y="1488.1" width="1500.2" height="3"/>
		<rect x="438.4" y="1481.1" width="1500.2" height="3"/>
		<rect x="438.4" y="1474.2" width="1500.2" height="3"/>
		<rect x="438.4" y="1467.2" width="1500.2" height="3"/>
		<rect x="438.4" y="1460.3" width="1500.2" height="3"/>
		<rect x="438.4" y="1453.3" width="1500.2" height="3"/>
		<rect x="438.4" y="1446.4" width="1500.2" height="3"/>
		<rect x="438.4" y="1439.4" width="1500.2" height="3"/>
		<rect x="438.4" y="1432.5" width="1500.2" height="3"/>
		<rect x="438.4" y="1425.5" width="1500.2" height="3"/>
		<rect x="438.4" y="1418.6" width="1500.2" height="3"/>
		<rect x="438.4" y="1411.6" width="1500.2" height="3"/>
		<rect x="438.4" y="1404.6" width="1500.2" height="3"/>
		<rect x="438.4" y="1397.7" width="1500.2" height="3"/>
		<rect x="438.4" y="1390.7" width="1500.2" height="3"/>
		<rect x="438.4" y="1383.8" width="1500.2" height="3"/>
		<rect x="438.4" y="1376.8" width="1500.2" height="3"/>
		<rect x="438.4" y="1369.9" width="1500.2" height="3"/>
		<rect x="438.4" y="1362.9" width="1500.2" height="3"/>
		<rect x="438.4" y="1356" width="1500.2" height="3"/>
		<rect x="438.4" y="1349" width="1500.2" height="3"/>
		<rect x="438.4" y="1342.1" width="1500.2" height="3"/>
		<rect x="438.4" y="1335.1" width="1500.2" height="3"/>
		<rect x="438.4" y="1328.2" width="1500.2" height="3"/>
		<rect x="438.4" y="1321.2" width="1500.2" height="3"/>
		<rect x="438.4" y="1314.3" width="1500.2" height="3"/>
		<rect x="438.4" y="1307.3" width="1500.2" height="3"/>
		<rect x="438.4" y="1300.4" width="1500.2" height="3"/>
		<rect x="438.4" y="1293.4" width="1500.2" height="3"/>
		<rect x="438.4" y="1286.4" width="1500.2" height="3"/>
		<rect x="438.4" y="1279.5" width="1500.2" height="3"/>
		<rect x="438.4" y="1272.5" width="1500.2" height="3"/>
		<rect x="438.4" y="1265.6" width="1500.2" height="3"/>
		<rect x="438.4" y="1258.6" width="1500.2" height="3"/>
		<rect x="438.4" y="1251.7" width="1500.2" height="3"/>
		<rect x="438.4" y="1244.7" width="1500.2" height="3"/>
		<rect x="438.4" y="1237.8" width="1500.2" height="3"/>
		<rect x="438.4" y="1230.8" width="1500.2" height="3"/>
		<rect x="438.4" y="1223.9" width="1500.2" height="3"/>
		<rect x="438.4" y="1216.9" width="1500.2" height="3"/>
		<rect x="438.4" y="1210" width="1500.2" height="3"/>
		<rect x="438.4" y="1203" width="1500.2" height="3"/>
		<rect x="438.4" y="1196.1" width="1500.2" height="3"/>
		<rect x="438.4" y="1189.1" width="1500.2" height="3"/>
		<rect x="438.4" y="1182.2" width="1500.2" height="3"/>
		<rect x="438.4" y="1175.2" width="1500.2" height="3"/>
		<rect x="438.4" y="1168.2" width="1500.2" height="3"/>
		<rect x="438.4" y="1161.3" width="1500.2" height="3"/>
		<rect x="438.4" y="1154.3" width="1500.2" height="3"/>
		<rect x="438.4" y="1147.4" width="1500.2" height="3"/>
		<rect x="438.4" y="1140.4" width="1500.2" height="3"/>
		<rect x="438.4" y="1133.5" width="1500.2" height="3"/>
		<rect x="438.4" y="1126.5" width="1500.2" height="3"/>
		<rect x="438.4" y="1119.6" width="1500.2" height="3"/>
		<rect x="438.4" y="1112.6" width="1500.2" height="3"/>
		<rect x="438.4" y="1105.7" width="1500.2" height="3"/>
		<rect x="438.4" y="1098.7" width="1500.2" height="3"/>
		<rect x="438.4" y="1091.8" width="1500.2" height="3"/>
		<rect x="438.4" y="1084.8" width="1500.2" height="3"/>
		<rect x="438.4" y="1077.9" width="1500.2" height="3"/>
		<rect x="438.4" y="1070.9" width="1500.2" height="3"/>
		<rect x="438.4" y="1064" width="1500.2" height="3"/>
		<rect x="438.4" y="1057" width="1500.2" height="3"/>
		<rect x="438.4" y="1050" width="1500.2" height="3"/>
		<rect x="438.4" y="1043.1" width="1500.2" height="3"/>
		<rect x="438.4" y="1036.1" width="1500.2" height="3"/>
	</g>
</g>
<polygon points="1800.3,1449.7 1785,1445.4 1785,1280.3 1799.2,1280.3 "/>
<g>
	<path d="M370.6,1807.4h109.6c15,0,28.8,8.4,35.8,21.7l67.7,130.4l-61.3-2.4l-69-67L370.6,1807.4z"/>
	<path d="M586.2,1961.1l-64.4-2.5l-69.4-67.4l-85.3-85.3h113.2c15.7,0,29.9,8.6,37.1,22.5L586.2,1961.1z M523,1955.7l58.1,2.3
		l-66.5-128.1c-6.7-12.9-19.9-20.9-34.4-20.9h-106l80.2,80.2L523,1955.7z"/>
</g>
<g>
	<defs>
		<path id="SVGID_21_" d="M515.5,1519.9h107.1c2.8,0,5.1,2.3,5.1,5.1v179.5H515.5V1519.9z"/>
	</defs>
	<clipPath id="SVGID_22_">
		<use xlink:href="#SVGID_21_"  style="overflow:visible;"/>
	</clipPath>
	<g class="st53">
		<path d="M876.9,1854.8h-487v-428.3h487V1854.8z M395.8,1848.8h475.1v-416.4H395.8V1848.8z"/>
		<rect x="401" y="1429.4" width="6" height="422.4"/>
		<rect x="412.2" y="1429.4" width="6" height="422.4"/>
		<rect x="423.4" y="1429.4" width="6" height="422.4"/>
		<rect x="434.6" y="1429.4" width="6" height="422.4"/>
		<rect x="445.8" y="1429.4" width="6" height="422.4"/>
		<rect x="457" y="1429.4" width="6" height="422.4"/>
		<rect x="468.2" y="1429.4" width="6" height="422.4"/>
		<rect x="479.4" y="1429.4" width="6" height="422.4"/>
		<rect x="490.5" y="1429.4" width="6" height="422.4"/>
		<rect x="501.7" y="1429.4" width="6" height="422.4"/>
		<rect x="512.9" y="1429.4" width="6" height="422.4"/>
		<rect x="524.1" y="1429.4" width="6" height="422.4"/>
		<rect x="535.3" y="1429.4" width="6" height="422.4"/>
		<rect x="546.5" y="1429.4" width="6" height="422.4"/>
		<rect x="557.7" y="1429.4" width="6" height="422.4"/>
		<rect x="568.9" y="1429.4" width="6" height="422.4"/>
		<rect x="580" y="1429.4" width="6" height="422.4"/>
		<rect x="591.2" y="1429.4" width="6" height="422.4"/>
		<rect x="602.4" y="1429.4" width="6" height="422.4"/>
		<rect x="613.6" y="1429.4" width="6" height="422.4"/>
		<rect x="624.8" y="1429.4" width="6" height="422.4"/>
		<rect x="636" y="1429.4" width="6" height="422.4"/>
		<rect x="647.2" y="1429.4" width="6" height="422.4"/>
		<rect x="658.4" y="1429.4" width="6" height="422.4"/>
		<rect x="669.5" y="1429.4" width="6" height="422.4"/>
		<rect x="680.7" y="1429.4" width="6" height="422.4"/>
		<rect x="691.9" y="1429.4" width="6" height="422.4"/>
		<rect x="703.1" y="1429.4" width="6" height="422.4"/>
		<rect x="714.3" y="1429.4" width="6" height="422.4"/>
		<rect x="725.5" y="1429.4" width="6" height="422.4"/>
		<rect x="736.7" y="1429.4" width="6" height="422.4"/>
		<rect x="747.8" y="1429.4" width="6" height="422.4"/>
		<rect x="759" y="1429.4" width="6" height="422.4"/>
		<rect x="770.2" y="1429.4" width="6" height="422.4"/>
		<rect x="781.4" y="1429.4" width="6" height="422.4"/>
		<rect x="792.6" y="1429.4" width="6" height="422.4"/>
		<rect x="803.8" y="1429.4" width="6" height="422.4"/>
		<rect x="815" y="1429.4" width="6" height="422.4"/>
		<rect x="826.2" y="1429.4" width="6" height="422.4"/>
		<rect x="837.3" y="1429.4" width="6" height="422.4"/>
		<rect x="848.5" y="1429.4" width="6" height="422.4"/>
		<rect x="859.7" y="1429.4" width="6" height="422.4"/>
	</g>
</g>
<g>
	<defs>
		<path id="SVGID_23_" d="M695.9,1496.5v261.1c0,6,4.9,10.9,10.9,10.9h425.7v-109.9c0-45.8-32.1-85.3-76.9-94.8l-351.4-74.2
			C699.9,1488.8,695.9,1492.1,695.9,1496.5z"/>
	</defs>
	<clipPath id="SVGID_24_">
		<use xlink:href="#SVGID_23_"  style="overflow:visible;"/>
	</clipPath>
	<g class="st54">
		<path d="M921.2,2282.9l-603.7-603.7l634.7-634.7l603.7,603.7L921.2,2282.9z M321.7,1679.2l599.4,599.4l630.5-630.5l-599.4-599.4
			L321.7,1679.2z"/>
		<rect x="202.6" y="1375.4" transform="matrix(0.7071 -0.7071 0.7071 0.7071 -783.2855 862.8391)" width="894.6" height="3"/>
		<rect x="216.6" y="1389.4" transform="matrix(0.7071 -0.7071 0.7071 0.7071 -789.0805 876.829)" width="894.6" height="3"/>
		<rect x="230.6" y="1403.4" transform="matrix(0.7071 -0.7071 0.7071 0.7071 -794.8751 890.8188)" width="894.6" height="3"/>
		<rect x="244.6" y="1417.4" transform="matrix(0.7071 -0.7071 0.7071 0.7071 -800.6697 904.8083)" width="894.6" height="3"/>
		<rect x="258.6" y="1431.4" transform="matrix(0.7071 -0.7071 0.7071 0.7071 -806.4647 918.7983)" width="894.6" height="3"/>
		<rect x="272.5" y="1445.4" transform="matrix(0.7071 -0.7071 0.7071 0.7071 -812.2594 932.7878)" width="894.6" height="3"/>
		<rect x="286.5" y="1459.4" transform="matrix(0.7071 -0.7071 0.7071 0.7071 -818.0539 946.7775)" width="894.6" height="3"/>
		<rect x="300.5" y="1473.4" transform="matrix(0.7071 -0.7071 0.7071 0.7071 -823.8489 960.7675)" width="894.6" height="3"/>
		<rect x="314.5" y="1487.3" transform="matrix(0.7071 -0.7071 0.7071 0.7071 -829.6436 974.757)" width="894.6" height="3"/>
		<rect x="328.5" y="1501.3" transform="matrix(0.7071 -0.7071 0.7071 0.7071 -835.4381 988.7468)" width="894.6" height="3"/>
		<rect x="342.5" y="1515.3" transform="matrix(0.7071 -0.7071 0.7071 0.7071 -841.2332 1002.7368)" width="894.6" height="3"/>
		<rect x="356.5" y="1529.3" transform="matrix(0.7071 -0.7071 0.7071 0.7071 -847.0277 1016.7265)" width="894.6" height="3"/>
		<rect x="370.5" y="1543.3" transform="matrix(0.7071 -0.7071 0.7071 0.7071 -852.8199 1030.7075)" width="894.6" height="3"/>
		<rect x="384.5" y="1557.3" transform="matrix(0.7071 -0.7071 0.7071 0.7071 -858.6174 1044.7061)" width="894.6" height="3"/>
		<rect x="398.5" y="1571.3" transform="matrix(0.7071 -0.7071 0.7071 0.7071 -864.4114 1058.6956)" width="894.6" height="3"/>
		<rect x="412.4" y="1585.3" transform="matrix(0.7071 -0.7071 0.7071 0.7071 -870.2067 1072.6851)" width="894.6" height="3"/>
		<rect x="426.4" y="1599.3" transform="matrix(0.7071 -0.7071 0.7071 0.7071 -876.0018 1086.6749)" width="894.6" height="3"/>
		<rect x="440.4" y="1613.3" transform="matrix(0.7071 -0.7071 0.7071 0.7071 -881.7957 1100.6648)" width="894.6" height="3"/>
		<rect x="454.4" y="1627.2" transform="matrix(0.7071 -0.7071 0.7071 0.7071 -887.5909 1114.6542)" width="894.6" height="3"/>
		<rect x="468.4" y="1641.2" transform="matrix(0.7071 -0.7071 0.7071 0.7071 -893.386 1128.6442)" width="894.6" height="3"/>
		<rect x="482.4" y="1655.2" transform="matrix(0.7071 -0.7071 0.7071 0.7071 -899.1799 1142.634)" width="894.6" height="3"/>
		<rect x="496.4" y="1669.2" transform="matrix(0.7071 -0.7071 0.7071 0.7071 -904.9752 1156.6234)" width="894.6" height="3"/>
		<rect x="510.4" y="1683.2" transform="matrix(0.7071 -0.7071 0.7071 0.7071 -910.7702 1170.6134)" width="894.6" height="3"/>
		<rect x="524.4" y="1697.2" transform="matrix(0.7071 -0.7071 0.7071 0.7071 -916.5641 1184.6033)" width="894.6" height="3"/>
		<rect x="538.4" y="1711.2" transform="matrix(0.7071 -0.7071 0.7071 0.7071 -922.3594 1198.5927)" width="894.6" height="3"/>
		<rect x="552.3" y="1725.2" transform="matrix(0.7071 -0.7071 0.7071 0.7071 -928.1539 1212.5825)" width="894.6" height="3"/>
		<rect x="566.3" y="1739.2" transform="matrix(0.7071 -0.7071 0.7071 0.7071 -933.9484 1226.5725)" width="894.6" height="3"/>
		<rect x="580.3" y="1753.2" transform="matrix(0.7071 -0.7071 0.7071 0.7071 -939.7436 1240.5619)" width="894.6" height="3"/>
		<rect x="594.3" y="1767.1" transform="matrix(0.7071 -0.7071 0.7071 0.7071 -945.5381 1254.5518)" width="894.6" height="3"/>
		<rect x="608.3" y="1781.1" transform="matrix(0.7071 -0.7071 0.7071 0.7071 -951.3326 1268.5417)" width="894.6" height="3"/>
		<rect x="622.3" y="1795.1" transform="matrix(0.7071 -0.7071 0.7071 0.7071 -957.1278 1282.5311)" width="894.6" height="3"/>
		<rect x="636.3" y="1809.1" transform="matrix(0.7071 -0.7071 0.7071 0.7071 -962.9224 1296.521)" width="894.6" height="3"/>
		<rect x="650.3" y="1823.1" transform="matrix(0.7071 -0.7071 0.7071 0.7071 -968.7171 1310.5101)" width="894.6" height="3"/>
		<rect x="664.3" y="1837.1" transform="matrix(0.7071 -0.7071 0.7071 0.7071 -974.5121 1324.5004)" width="894.6" height="3"/>
		<rect x="678.2" y="1851.1" transform="matrix(0.7071 -0.7071 0.7071 0.7071 -980.3066 1338.4902)" width="894.6" height="3"/>
		<rect x="692.2" y="1865.1" transform="matrix(0.7071 -0.7071 0.7071 0.7071 -986.1013 1352.4794)" width="894.6" height="3"/>
		<rect x="706.2" y="1879.1" transform="matrix(0.7071 -0.7071 0.7071 0.7071 -991.8963 1366.4696)" width="894.6" height="3"/>
		<rect x="720.2" y="1893.1" transform="matrix(0.7071 -0.7071 0.7071 0.7071 -997.6908 1380.4594)" width="894.6" height="3"/>
		<rect x="734.2" y="1907" transform="matrix(0.7071 -0.7071 0.7071 0.7071 -1003.4856 1394.4486)" width="894.6" height="3"/>
		<rect x="748.2" y="1921" transform="matrix(0.7071 -0.7071 0.7071 0.7071 -1009.2805 1408.4388)" width="894.6" height="3"/>
		<rect x="762.2" y="1935" transform="matrix(0.7071 -0.7071 0.7071 0.7071 -1015.0751 1422.4286)" width="894.6" height="3"/>
		<rect x="776.2" y="1949" transform="matrix(0.7071 -0.7071 0.7071 0.7071 -1020.8698 1436.4178)" width="894.6" height="3"/>
	</g>
</g>
<path d="M1419.5,1966.3c0,0-0.1,0-0.1,0l-849.1-2.7l0.1-32.6l849.1,2.7c0,0,0,0,0,0c2.1,0,4.1-1.1,5.2-2.9l178.8-284l3.8-188.9
	l-3.4-49.1c-3-10.8-1.7,4.5,9.6,4.2l102.9-3.1l85.3-1.2v45c0,5.7-5.3,9.8-10.8,8.4l-78-19.5l-70.3,2.1l-6.3,8.7v202.8l-183.8,292
	C1445.2,1959.5,1433,1966.3,1419.5,1966.3z"/>
<path d="M1509.6,1696.6H1480v-1.5h29.6c3.1,0,5.6-2.5,5.6-5.6v-74.3c0-3.8-3.1-6.9-6.9-6.9H1480v-1.5h28.3c4.6,0,8.3,3.7,8.3,8.3
	v74.3C1516.6,1693.4,1513.5,1696.6,1509.6,1696.6z"/>
<g>
	<rect x="1509.4" y="1632.6" width="21.9" height="35.7"/>
	<path d="M1532,1669.1h-23.4v-37.2h23.4V1669.1z M1510.1,1667.6h20.4v-34.2h-20.4V1667.6z"/>
</g>
</svg>
