<?xml version="1.0" encoding="utf-8"?>
<!-- Generator: Adobe Illustrator 22.1.0, SVG Export Plug-In . SVG Version: 6.00 Build 0)  -->
<svg version="1.1" id="Слой_1" xmlns="http://www.w3.org/2000/svg" xmlns:xlink="http://www.w3.org/1999/xlink" x="0px" y="0px"
	 viewBox="0 0 2080 2080" style="enable-background:new 0 0 2080 2080;" xml:space="preserve">
<style type="text/css">
	.st0{fill:#FFFFFF;}
	.st1{fill:#C8C6E5;}
	.st2{fill:#FDAC40;}
	.st3{fill:#EBCAA0;}
	.st4{fill:none;stroke:#FDAC40;stroke-width:4;stroke-linecap:round;stroke-miterlimit:10;}
	.st5{fill:none;stroke:#826DFD;stroke-width:4;stroke-linecap:round;stroke-linejoin:round;stroke-miterlimit:10;}
	.st6{fill:#826DFD;}
	.st7{fill:none;stroke:#000000;stroke-width:6;stroke-linecap:round;stroke-miterlimit:10;}
	.st8{fill:none;stroke:#000000;stroke-width:3;stroke-linecap:round;stroke-miterlimit:10;}
	.st9{fill:none;stroke:#000000;stroke-width:4;stroke-linecap:round;stroke-linejoin:round;stroke-miterlimit:10;}
	.st10{fill:none;stroke:#000000;stroke-width:6;stroke-linecap:round;stroke-linejoin:round;stroke-miterlimit:10;}
	.st11{fill:none;stroke:#000000;stroke-width:3;stroke-miterlimit:10;}
	.st12{fill:none;stroke:#000000;stroke-width:7;stroke-linecap:round;stroke-miterlimit:10;}
	.st13{fill:none;stroke:#000000;stroke-width:3;stroke-linecap:round;stroke-linejoin:round;stroke-miterlimit:10;}
	.st14{fill:none;stroke:#000000;stroke-width:5;stroke-miterlimit:10;}
	.st15{fill:none;stroke:#000000;stroke-width:2;stroke-linecap:round;stroke-linejoin:round;stroke-miterlimit:10;}
	.st16{fill:none;stroke:#000000;stroke-width:8;stroke-linecap:round;stroke-linejoin:round;stroke-miterlimit:10;}
	.st17{fill:none;stroke:#000000;stroke-width:3;stroke-linejoin:round;stroke-miterlimit:10;}
	.st18{fill:none;stroke:#000000;stroke-width:5;stroke-linecap:round;stroke-linejoin:round;stroke-miterlimit:10;}
	.st19{fill:none;stroke:#000000;stroke-width:2;stroke-miterlimit:10;}
	.st20{fill:none;stroke:#000000;stroke-width:2;stroke-linecap:round;stroke-miterlimit:10;}
	.st21{stroke:#000000;stroke-width:5;stroke-linecap:round;stroke-linejoin:round;stroke-miterlimit:10;}
	.st22{stroke:#000000;stroke-width:3;stroke-linecap:round;stroke-linejoin:round;stroke-miterlimit:10;}
	.st23{fill:none;stroke:#8378BF;stroke-width:5;stroke-linecap:round;stroke-linejoin:round;stroke-miterlimit:10;}
	.st24{fill:none;stroke:#826DFD;stroke-width:3;stroke-linecap:round;stroke-linejoin:round;stroke-miterlimit:10;}
	.st25{fill:none;stroke:#FDAC40;stroke-width:3;stroke-linecap:round;stroke-linejoin:round;stroke-miterlimit:10;}
	.st26{fill:none;stroke:#FDAC40;stroke-width:7;stroke-miterlimit:10;}
	.st27{fill:none;stroke:#000000;stroke-width:11;stroke-linecap:round;stroke-linejoin:round;stroke-miterlimit:10;}
	.st28{fill:none;stroke:#333333;stroke-width:5;stroke-linecap:round;stroke-miterlimit:10;stroke-dasharray:20;}
	.st29{fill:#FADC8C;}
	.st30{fill:none;stroke:#333333;stroke-width:5;stroke-linecap:round;stroke-miterlimit:10;stroke-dasharray:44.5321,44.5321;}
	.st31{fill:#333333;}
	.st32{fill:#F29F76;}
	.st33{fill:#7BD9E5;}
	.st34{fill:none;}
	.st35{fill:#65C8D0;}
	.st36{fill:#7BD9E5;stroke:#7BD9E5;stroke-miterlimit:10;}
	.st37{fill:none;stroke:#333333;stroke-linecap:round;stroke-linejoin:round;stroke-miterlimit:10;}
	.st38{fill:#7BD9E5;stroke:#333333;stroke-miterlimit:10;}
	.st39{fill:#8FACCC;}
	.st40{fill:#F9E958;}
	.st41{fill:#231F20;}
	.st42{fill:none;stroke:#333333;stroke-width:3;stroke-linecap:round;stroke-miterlimit:10;}
	.st43{clip-path:url(#SVGID_2_);}
	.st44{clip-path:url(#SVGID_4_);}
	.st45{clip-path:url(#SVGID_6_);}
	.st46{clip-path:url(#SVGID_8_);}
	.st47{clip-path:url(#SVGID_10_);}
	.st48{clip-path:url(#SVGID_12_);}
	.st49{clip-path:url(#SVGID_14_);}
	.st50{clip-path:url(#SVGID_16_);}
	.st51{clip-path:url(#SVGID_18_);}
	.st52{clip-path:url(#SVGID_20_);}
	.st53{clip-path:url(#SVGID_22_);}
	.st54{clip-path:url(#SVGID_24_);}
	.st55{clip-path:url(#SVGID_26_);}
	.st56{clip-path:url(#SVGID_28_);}
	.st57{fill:#FF7300;}
	.st58{clip-path:url(#SVGID_30_);}
	.st59{fill:#020100;}
	.st60{fill:#FF6D00;}
	.st61{clip-path:url(#SVGID_32_);}
	.st62{clip-path:url(#SVGID_34_);fill:none;stroke:#2C1017;stroke-width:3.4838;stroke-miterlimit:10;}
	.st63{clip-path:url(#SVGID_36_);fill:none;stroke:#2C1017;stroke-width:3.4838;stroke-miterlimit:10;}
	.st64{clip-path:url(#SVGID_38_);fill:none;stroke:#2C1017;stroke-width:3.4838;stroke-miterlimit:10;}
	.st65{clip-path:url(#SVGID_40_);fill:none;stroke:#2C1017;stroke-width:3.4838;stroke-miterlimit:10;}
	.st66{clip-path:url(#SVGID_32_);fill:none;stroke:#231F20;stroke-width:2.6129;stroke-miterlimit:10;}
	.st67{clip-path:url(#SVGID_42_);fill:none;stroke:#231F20;stroke-width:0.871;stroke-miterlimit:10;}
	.st68{clip-path:url(#SVGID_44_);fill:none;stroke:#231F20;stroke-width:0.871;stroke-miterlimit:10;}
	.st69{clip-path:url(#SVGID_46_);fill:#231F20;}
	.st70{clip-path:url(#SVGID_46_);fill:none;stroke:#231F20;stroke-width:2.6129;stroke-miterlimit:10;}
	.st71{clip-path:url(#SVGID_46_);fill:#FFFFFF;}
	.st72{clip-path:url(#SVGID_46_);fill:none;stroke:#231F20;stroke-width:1.7419;stroke-miterlimit:10;}
	.st73{clip-path:url(#SVGID_48_);fill:#231F20;}
	.st74{clip-path:url(#SVGID_48_);fill:#FFFFFF;}
	.st75{fill:none;stroke:#000000;stroke-width:1.5;stroke-miterlimit:10;}
	.st76{fill:none;stroke:#000000;stroke-miterlimit:10;}
	.st77{fill:none;stroke:#000000;stroke-width:0.75;stroke-miterlimit:10;}
	.st78{stroke:#000000;stroke-miterlimit:10;}
	.st79{clip-path:url(#SVGID_49_);}
	.st80{clip-path:url(#SVGID_50_);}
	.st81{clip-path:url(#SVGID_51_);}
	.st82{clip-path:url(#SVGID_52_);}
	.st83{fill:none;stroke:#000000;stroke-width:0.25;stroke-miterlimit:10;}
	.st84{clip-path:url(#SVGID_53_);}
	.st85{fill:none;stroke:#000000;stroke-width:0.5;stroke-miterlimit:10;}
	.st86{clip-path:url(#SVGID_54_);}
	.st87{clip-path:url(#SVGID_55_);}
	.st88{clip-path:url(#SVGID_56_);}
	.st89{clip-path:url(#SVGID_57_);}
	.st90{clip-path:url(#SVGID_58_);}
	.st91{clip-path:url(#SVGID_59_);}
	.st92{clip-path:url(#SVGID_60_);}
	.st93{clip-path:url(#SVGID_61_);}
	.st94{clip-path:url(#SVGID_62_);}
	.st95{clip-path:url(#SVGID_63_);}
	.st96{clip-path:url(#SVGID_64_);}
	.st97{clip-path:url(#SVGID_65_);}
	.st98{stroke:#000000;stroke-width:0.75;stroke-miterlimit:10;}
	.st99{clip-path:url(#SVGID_67_);}
	.st100{clip-path:url(#SVGID_69_);}
	.st101{fill:none;stroke:#000000;stroke-width:6;stroke-miterlimit:10;}
	.st102{clip-path:url(#SVGID_71_);}
	.st103{clip-path:url(#SVGID_73_);}
	.st104{stroke:#000000;stroke-width:0.5;stroke-miterlimit:10;}
	.st105{clip-path:url(#SVGID_75_);}
	.st106{clip-path:url(#SVGID_77_);}
	.st107{stroke:#000000;stroke-width:0.25;stroke-miterlimit:10;}
	.st108{clip-path:url(#SVGID_79_);}
	.st109{clip-path:url(#SVGID_80_);}
	.st110{clip-path:url(#SVGID_81_);}
	.st111{clip-path:url(#SVGID_82_);}
	.st112{clip-path:url(#SVGID_83_);}
	.st113{clip-path:url(#SVGID_84_);}
	.st114{clip-path:url(#SVGID_86_);}
	.st115{stroke:#000000;stroke-linecap:round;stroke-linejoin:round;stroke-miterlimit:10;}
	.st116{clip-path:url(#SVGID_88_);}
	.st117{fill:none;stroke:#000000;stroke-width:0.25;stroke-linecap:round;stroke-linejoin:round;stroke-miterlimit:10;}
	.st118{stroke:#000000;stroke-width:0.25;stroke-linecap:round;stroke-linejoin:round;stroke-miterlimit:10;}
	.st119{clip-path:url(#SVGID_90_);}
	.st120{clip-path:url(#SVGID_92_);}
	.st121{clip-path:url(#SVGID_94_);}
	.st122{clip-path:url(#SVGID_96_);}
	.st123{fill:#F3E0B5;}
	.st124{clip-path:url(#SVGID_98_);}
	.st125{fill:#F7E7C5;}
	.st126{fill:none;stroke:#FFFFFF;stroke-width:3;stroke-miterlimit:10;}
	.st127{clip-path:url(#SVGID_100_);}
	.st128{fill:none;stroke:#FFFFFF;stroke-width:2;stroke-miterlimit:10;}
	.st129{fill:none;stroke:#FFFFFF;stroke-width:30;stroke-miterlimit:10;}
	.st130{fill:#FFFFFF;stroke:#FFFFFF;stroke-miterlimit:10;}
	.st131{stroke:#FFFFFF;stroke-miterlimit:10;}
	.st132{clip-path:url(#SVGID_102_);}
	.st133{fill:none;stroke:#FFFFFF;stroke-width:7;stroke-miterlimit:10;}
	.st134{fill:none;stroke:#FFFFFF;stroke-width:19;stroke-miterlimit:10;}
	.st135{fill:none;stroke:#FFFFFF;stroke-width:11;stroke-miterlimit:10;}
	.st136{fill:#FFFFFF;stroke:#FFFFFF;stroke-width:7;stroke-linecap:round;stroke-linejoin:round;stroke-miterlimit:10;}
	.st137{fill:none;stroke:#FFFFFF;stroke-width:0.5;stroke-miterlimit:10;}
	.st138{clip-path:url(#SVGID_104_);}
	.st139{fill:none;stroke:#FFFFFF;stroke-width:8;stroke-miterlimit:10;}
	.st140{fill:none;stroke:#FFFFFF;stroke-width:10;stroke-linejoin:bevel;stroke-miterlimit:10;}
	.st141{clip-path:url(#SVGID_106_);}
	.st142{clip-path:url(#SVGID_108_);}
	.st143{clip-path:url(#SVGID_110_);}
	.st144{clip-path:url(#SVGID_112_);}
	.st145{stroke:#000000;stroke-width:2;stroke-miterlimit:10;}
	.st146{fill:none;stroke:#000000;stroke-width:45;stroke-miterlimit:10;}
	.st147{stroke:#FFFFFF;stroke-width:4;stroke-miterlimit:10;}
	.st148{fill:none;stroke:#FFFFFF;stroke-width:4;stroke-miterlimit:10;}
	.st149{fill:#FFFFFF;stroke:#FFFFFF;stroke-width:4;stroke-miterlimit:10;}
	.st150{clip-path:url(#SVGID_114_);}
	.st151{opacity:0.51;fill:#339999;stroke:#000000;stroke-width:2;stroke-miterlimit:10;}
	.st152{opacity:0.18;fill:#FFCCFF;stroke:#000000;stroke-width:2;stroke-miterlimit:10;}
	.st153{opacity:4.000000e-02;fill:#FFCCFF;stroke:#000000;stroke-width:2;stroke-miterlimit:10;}
	.st154{opacity:0.18;fill:#003333;stroke:#000000;stroke-width:2;stroke-miterlimit:10;}
	.st155{opacity:0.46;fill:#99FFFF;stroke:#000000;stroke-width:2;stroke-miterlimit:10;}
	.st156{opacity:0.18;fill:#CC99FF;stroke:#000000;stroke-width:2;stroke-miterlimit:10;}
	.st157{opacity:0.47;fill:#FFCCFF;stroke:#000000;stroke-width:2;stroke-miterlimit:10;}
	.st158{opacity:0.11;fill:#333399;stroke:#000000;stroke-width:2;stroke-miterlimit:10;}
	.st159{opacity:0.11;fill:#99FFFF;stroke:#000000;stroke-width:2;stroke-miterlimit:10;}
	.st160{opacity:0.18;fill:#9999FF;stroke:#000000;stroke-width:2;stroke-miterlimit:10;}
	.st161{opacity:0.18;fill:none;stroke:#000000;stroke-width:2;stroke-miterlimit:10;}
	.st162{opacity:0.68;fill:#FFFFFF;}
	.st163{opacity:0.18;fill:#6666FF;stroke:#000000;stroke-width:2;stroke-miterlimit:10;}
	.st164{fill:#FFFFFF;stroke:#000000;stroke-width:2;stroke-miterlimit:10;}
	.st165{fill:none;stroke:#000000;stroke-width:0.5;stroke-linecap:round;stroke-linejoin:round;}
	.st166{opacity:0.36;fill:#FFFFFF;stroke:#000000;stroke-width:0.5;stroke-linecap:round;stroke-linejoin:round;}
	.st167{opacity:0.37;fill:#CCFFFF;stroke:#000000;stroke-width:0.5;stroke-linecap:round;stroke-linejoin:round;}
	.st168{opacity:0.69;fill:#E6FFFE;stroke:#000000;stroke-width:0.5;stroke-linecap:round;stroke-linejoin:round;}
	.st169{opacity:0.8;fill:#FFFFFF;stroke:#000000;stroke-width:0.5;stroke-linecap:round;stroke-linejoin:round;}
	.st170{opacity:0.43;fill:#CCFFFF;stroke:#000000;stroke-width:0.5;stroke-linecap:round;stroke-linejoin:round;}
	.st171{opacity:0.82;fill:#FFFFFF;stroke:#000000;stroke-width:0.5;stroke-linecap:round;stroke-linejoin:round;}
	.st172{opacity:0.76;fill:#FFFFFF;stroke:#000000;stroke-width:0.5;stroke-linecap:round;stroke-linejoin:round;}
	.st173{opacity:0.47;fill:#6633CC;stroke:#000000;stroke-width:0.5;stroke-linecap:round;stroke-linejoin:round;}
	.st174{opacity:0.51;fill:#CCFFFF;stroke:#000000;stroke-width:0.5;stroke-linecap:round;stroke-linejoin:round;}
	.st175{opacity:0.4;fill:#000033;stroke:#000000;stroke-width:0.5;stroke-linecap:round;stroke-linejoin:round;}
	.st176{opacity:0.43;fill:#330033;stroke:#000000;stroke-width:0.5;stroke-linecap:round;stroke-linejoin:round;}
	.st177{opacity:0.1;fill:#9966FF;stroke:#000000;stroke-width:2;stroke-miterlimit:10;}
	.st178{opacity:0.23;fill:#330033;stroke:#000000;stroke-width:2;stroke-miterlimit:10;}
	.st179{opacity:0.18;}
	.st180{fill:#FFCCFF;}
	.st181{opacity:0.51;}
	.st182{fill:#339999;}
	.st183{opacity:4.000000e-02;}
	.st184{fill:#003333;}
	.st185{opacity:0.46;}
	.st186{fill:#99FFFF;}
	.st187{fill:#CC99FF;}
	.st188{opacity:0.47;}
	.st189{opacity:0.11;}
	.st190{fill:#333399;}
	.st191{fill:#9999FF;}
	.st192{opacity:0.18;fill:#FFFFFF;}
	.st193{opacity:0.62;}
	.st194{fill:#6666FF;}
	.st195{opacity:0.42;}
	.st196{fill:#9C62A0;}
	.st197{fill:none;stroke:#FFFFFF;stroke-width:0.5;stroke-linecap:round;stroke-linejoin:round;}
	.st198{opacity:0.36;}
	.st199{opacity:0.37;}
	.st200{fill:#CCFFFF;}
	.st201{fill:none;stroke:#FFFFFF;stroke-width:4;stroke-linecap:round;stroke-linejoin:round;}
	.st202{opacity:0.69;}
	.st203{fill:#E6FFFE;}
	.st204{opacity:0.8;}
	.st205{opacity:0.43;}
	.st206{opacity:0.82;}
	.st207{opacity:0.76;}
	.st208{fill:#6633CC;}
	.st209{opacity:0.4;}
	.st210{fill:#000033;}
	.st211{fill:#330033;}
	.st212{opacity:0.1;}
	.st213{fill:#9966FF;}
	.st214{opacity:0.72;}
	.st215{fill:#333366;}
	.st216{fill:#E3E825;stroke:#42210B;stroke-width:10;stroke-linejoin:round;stroke-miterlimit:10;}
	.st217{fill:#C69C6D;stroke:#42210B;stroke-width:10;stroke-linejoin:round;stroke-miterlimit:10;}
	.st218{fill:#42210B;stroke:#42210B;stroke-width:10;stroke-linejoin:round;stroke-miterlimit:10;}
	.st219{fill:#E53C70;stroke:#42210B;stroke-width:10;stroke-linejoin:round;stroke-miterlimit:10;}
	.st220{fill:#F27C08;stroke:#42210B;stroke-width:10;stroke-linejoin:round;stroke-miterlimit:10;}
	.st221{fill:#AA4913;}
	.st222{fill:#D68A63;}
	.st223{fill:#EAC598;}
	.st224{fill:#F26692;}
	.st225{fill:#EDAF77;}
	.st226{fill:#FBB03B;stroke:#7A5D3B;stroke-width:12;stroke-linecap:round;stroke-miterlimit:10;}
	.st227{fill:none;stroke:#42210B;stroke-width:10;stroke-linejoin:round;stroke-miterlimit:10;}
	.st228{fill:#087F2C;stroke:#42210B;stroke-width:10;stroke-linejoin:round;stroke-miterlimit:10;}
	.st229{fill:#98D14E;}
	.st230{fill:#80A574;stroke:#071103;stroke-width:14;stroke-linejoin:round;stroke-miterlimit:10;}
	.st231{fill:#EF2E2E;stroke:#071103;stroke-width:14;stroke-linejoin:round;stroke-miterlimit:10;}
	.st232{fill:#5D7554;stroke:#051101;stroke-width:14;stroke-linejoin:round;stroke-miterlimit:10;}
	.st233{fill:none;stroke:#6B996E;stroke-width:40;stroke-linecap:round;stroke-miterlimit:10;}
	.st234{fill:none;stroke:#203316;stroke-width:14;stroke-linejoin:round;stroke-miterlimit:10;}
	.st235{fill:none;stroke:#071103;stroke-width:14;stroke-linejoin:round;stroke-miterlimit:10;}
	.st236{fill:#42210B;}
	.st237{fill:#47683E;}
	.st238{fill:#5D7554;stroke:#071103;stroke-width:14;stroke-linejoin:round;stroke-miterlimit:10;}
	.st239{fill:#E3E825;stroke:#071103;stroke-width:14;stroke-linejoin:round;stroke-miterlimit:10;}
	.st240{fill:#F4F490;}
	.st241{fill:#E53C70;stroke:#071103;stroke-width:14;stroke-linejoin:round;stroke-miterlimit:10;}
	.st242{fill:#071103;stroke:#071103;stroke-width:14;stroke-linejoin:round;stroke-miterlimit:10;}
	.st243{fill:#E53C70;stroke:#EF95B1;stroke-width:14;stroke-linecap:round;stroke-linejoin:round;stroke-miterlimit:10;}
	.st244{fill:#E3E825;stroke:#071103;stroke-width:10;stroke-linejoin:round;stroke-miterlimit:10;}
	.st245{fill:#071103;}
	.st246{fill:#FFFF00;}
	.st247{fill:none;stroke:#752525;stroke-width:4;stroke-miterlimit:10;}
	.st248{fill:none;stroke:#AA3333;stroke-width:5;stroke-miterlimit:10;}
	.st249{fill:none;stroke:#ED1C24;stroke-width:3;stroke-miterlimit:10;}
	.st250{fill:#AA3333;}
	.st251{fill:#F94B4B;}
	.st252{fill:none;stroke:#AA3333;stroke-width:9;stroke-miterlimit:10;}
	.st253{fill:#FC7E7E;}
	.st254{fill:#FC7E7E;stroke:#FC7E7E;stroke-width:7;stroke-miterlimit:10;}
	.st255{fill:none;stroke:#FC7E7E;stroke-width:9;stroke-miterlimit:10;}
	.st256{fill:none;stroke:#FCFAFA;stroke-width:4;stroke-miterlimit:10;}
	.st257{fill:#681D1D;}
	.st258{fill:#BA4FB0;}
	.st259{fill:#A068A0;}
	.st260{fill:#E0A6E0;}
	.st261{fill:none;stroke:#540E56;stroke-width:4;stroke-miterlimit:10;}
	.st262{fill:#7A347A;}
	.st263{fill:#007F82;}
	.st264{fill:#04A8A8;}
	.st265{fill:none;stroke:#764977;stroke-width:3;stroke-miterlimit:10;}
	.st266{fill:#3ECCC5;}
	.st267{fill:none;stroke:#004242;stroke-width:3;stroke-miterlimit:10;}
	.st268{fill:none;stroke:#7C0C00;stroke-width:3;stroke-miterlimit:10;}
	.st269{fill:#004242;}
	.st270{fill:#510600;}
	.st271{fill:#FF866E;}
	.st272{fill:#D30B0B;}
	.st273{fill:none;stroke:#F200FF;stroke-width:3;stroke-miterlimit:10;}
	.st274{fill:none;stroke:#F200FF;stroke-miterlimit:10;}
	.st275{fill:none;stroke:#04070F;stroke-width:3;stroke-miterlimit:10;}
	.st276{fill:#005654;}
</style>
<rect x="-1989" y="-3424" class="st0" width="14249" height="14249"/>
<g>
	<rect x="629.4" y="840.1" class="st145" width="765.1" height="984.7"/>
	<path class="st146" d="M746.3,857.1c0,0,63.4-422.2,96.6-455.4c33.1-33.1,47.8-152.6,189.5-83.2s213.2,538.6,213.2,538.6"/>
	<path class="st147" d="M918.5,1243.3c0,0-123.2-60.9-158.4-25.7c-35.2,35.2-62.3,33.9-62.3,88s84,77.2,119.2,77.2
		S1049.9,1350.2,918.5,1243.3z"/>
	<path class="st147" d="M728,1259.3c-11.6,9.4-51.6,31.6,6.2,89.4c57.8,57.8,259.7-1.5,207.3-53.9c-52.4-52.4-82.4-68.6-98.6-60.1
		c-16.2,8.5-29.3,13.9-44.7,13.9s-4.6-20-32.4-18.5C749.6,1234.6,752.7,1239.2,728,1259.3z"/>
	<path class="st148" d="M877,1373.4c3,28.1,7.5,87.9,10.5,90.8c17,17,115.6,15.4,161.8,119.4c46.2,104,107.1-695,107.1-695
		s37-46.2,55.5,0c18.5,46.2-22.3,601.8,0,624.1c22.3,22.3,35.4,33.9,53.2,16.2s11.6-612.5,30-631c18.5-18.5,50.9-18.5,50.9,16.2
		s16.2,626.4,0,675c-16.2,48.5-59.3,173.4-100.2,173.4c-23.5,0-190.1,6.1-331.1,7.8c-6.1,0.1-12.2,0.1-18.2,0.2
		c-55.3-1-110,1.3-165.6-3.5c-10.1-1.2-16.5-2.6-18.3-4.5c-2.7-2.7-5.6-10.3-8.7-21.5c-1.5-5.6-3.1-12-4.7-19.2
		c-5.1-20.2-7.4-40.3-11.1-60.5c-1.2-7.4-2.3-14.8-3.4-22.2c-4.3-29.7-8.1-59.6-12.2-89.6c-0.6-5.4-1.3-10.6-1.8-15.7
		c-4.1-35.6-6.6-64-6.6-74.1c0-34.7-10.8-562.5-10.8-562.5s25.4-50.9,48.5,0c0,0-2.2,244,35.5,340"/>
	<path class="st148" d="M798.7,1206.7c14.7-114.1-0.6-331.9-0.6-331.9s39.3-43.9,50.9,0c0,0,7.2,190.3,16.6,346.7"/>
	<path class="st147" d="M708,1313c0,0,63.9-65.2,95.5-38.3c11.8,10.1-71.7,74-71.7,74"/>
	<path class="st147" d="M930.5,1284.3c0,0-83.8-44.3-86.1-10.4c-1.3,18.4,86.3,58.6,86.3,58.6"/>
	<ellipse class="st0" cx="785.8" cy="1279.3" rx="9.2" ry="5.4"/>
	<ellipse class="st149" cx="859.8" cy="1274.3" rx="7.7" ry="3.5"/>
	<g>
		<path class="st148" d="M780.4,1325.5c5.4-5.5,15.9,1.7,34.7,3.9c23.8,2.7,38.8-5.3,40.8-0.8c1.5,3.4-6,10.5-12.3,14.6
			c-22.5,14.5-58.8,9.3-64.7-5.4C777.3,1334,777.5,1328.5,780.4,1325.5z"/>
		<path class="st148" d="M798.1,1327.1v9.2h-10.8v-13.1 M798.1,1327.1v9.2h10.8v-9.2 M808.9,1327.1v9.2h10.8v-6.2 M819.7,1330.2v6.2
			h10.8v-6.2 M830.5,1330.2v6.2h10.8v-7.7 M841.3,1328.6v7.7h9.2l1.5-9.2"/>
		<line class="st148" x1="778.2" y1="1335.7" x2="787.3" y2="1336.3"/>
		<line class="st148" x1="785" y1="1345" x2="840" y2="1345.4"/>
		<polyline class="st148" points="798.1,1345 798.1,1350.4 807.1,1351.9 807.1,1345.4 816.6,1345.6 816.6,1351.9 825.1,1350.6 
			825.1,1345 		"/>
	</g>
	<path class="st148" d="M665.6,894.8c0,0-3.9-37.8-12.3-54.7"/>
	<path class="st148" d="M677.9,894.8c0,0-6.2-38.5,2.3-54.7"/>
	<path class="st148" d="M691,891c0,0-0.8-37,6.9-50.9"/>
	<path class="st148" d="M817.4,887.1c0,0-11.6-22.3-11.6-47"/>
	<path class="st148" d="M828.2,887.1c0,0-6.2-23.1-2.3-47"/>
	<path class="st148" d="M837.4,883.3c0,0,4.6-16.2,4.6-43.1"/>
	<path class="st148" d="M1171.8,898.7c0,0-15.4-23.9-10-58.6"/>
	<path class="st148" d="M1184.9,897.2c0,0-6.2-33.1,0-57"/>
	<path class="st148" d="M1199.6,898.7c0,0,8.5-29.3,6.9-58.6"/>
	<g>
		<path class="st0" d="M1307.2,914.6c-0.6-0.8-1-1.5-1.4-2.2c-0.4-0.7-0.8-1.4-1.2-2.2c-0.4-0.7-0.8-1.5-1.1-2.2
			c-0.4-0.7-0.8-1.5-1.1-2.2c-0.7-1.5-1.3-3-1.9-4.5l-0.9-2.3l-0.8-2.3c-2-6.1-3.4-12.4-4.3-18.8c-0.2-1.6-0.3-3.2-0.5-4.8
			c-0.1-0.8-0.2-1.6-0.2-2.4l-0.1-2.4c0-1.6-0.1-3.2-0.1-4.8l0.1-4.8l0.1-2.4l0.2-2.4l0.4-4.7c0.1-0.8,0.2-1.6,0.3-2.3l0.4-2.3
			l0.8-4.7l-0.3,4.7l-0.2,2.3c-0.1,0.8-0.1,1.6-0.1,2.3l0,4.7l0,2.3l0.1,2.3l0.3,4.7c0.1,1.6,0.4,3.1,0.5,4.6l0.3,2.3
			c0.1,0.8,0.3,1.5,0.4,2.3c0.3,1.5,0.5,3.1,0.9,4.6c1.4,6,3.2,12,5.6,17.6l0.9,2.1l1,2.1c0.6,1.4,1.4,2.7,2.1,4
			c0.4,0.7,0.8,1.3,1.2,1.9c0.4,0.6,0.8,1.3,1.2,1.9c0.4,0.6,0.8,1.2,1.3,1.8c0.2,0.3,0.4,0.6,0.7,0.9c0.2,0.3,0.5,0.6,0.6,0.8
			L1307.2,914.6z"/>
	</g>
	<g>
		<path class="st0" d="M1317.4,908.8c-0.4-3-0.7-5.8-1-8.8c-0.3-2.9-0.4-5.8-0.6-8.7c-0.2-5.8-0.2-11.6,0-17.3
			c0.2-5.8,0.8-11.5,1.7-17.2c0.8-5.7,2.2-11.3,3.7-16.7c-0.9,5.6-1.6,11.3-1.7,16.9c-0.2,5.7-0.1,11.3,0.3,16.9
			c0.4,5.6,1,11.2,1.9,16.8c0.5,2.8,0.9,5.5,1.5,8.3c0.6,2.7,1.2,5.5,1.9,8.1L1317.4,908.8z"/>
	</g>
	<g>
		<path class="st0" d="M1331.2,911.5c2.1-5.6,4-11.4,5.7-17.3c1.7-5.9,3.2-11.8,4.6-17.7c1.4-6,2.5-12,3.4-18
			c0.9-6.1,1.5-12.2,1.8-18.3c0.2,6.1,0.2,12.3-0.2,18.5c-0.4,6.2-0.9,12.3-1.7,18.5c-0.8,6.1-1.8,12.3-3,18.3
			c-1.2,6.1-2.5,12.1-4.2,18.2L1331.2,911.5z"/>
	</g>
	<path class="st0" d="M818.9,1294.7c0,0-15.4,9.2-10.8,13.1c4.6,3.9,29.3,7.7,29.3,3.9c0-3.9,0-12.3-9.2-14.6
		C818.9,1294.7,818.9,1294.7,818.9,1294.7z"/>
	<g>
		<defs>
			<path id="SVGID_113_" d="M788.1,1540.2c0,0-0.6,143.5,18.8,154.9c19.4,11.4,235.1,6.8,242,0c6.8-6.8-55.2-141.2-81.4-148
				c-26.2-6.8-136.6-34.7-155.4-24.5S788.1,1540.2,788.1,1540.2z"/>
		</defs>
		<clipPath id="SVGID_2_">
			<use xlink:href="#SVGID_113_"  style="overflow:visible;"/>
		</clipPath>
		<g class="st43">
			<path class="st128" d="M793.2,1510h235.7v254.5H793.2c0,0,0-6.6,0-17.6c0-5.5,0-12.1,0.1-19.6c0-5.2,0.2-10.4,0.6-15.5
				c0.4-5.2,1.1-10.3,1.9-15.5c1.7-12,6.7-23.1,11.7-34.2c0.7-1.6,1.4-3.2,2.2-4.7c4-10.7,15.3-14.1,22.7-22
				c1.1-1.7,2.3-3.4,1.7-5.1c-6.8-10.8-17.6-17.1-22.5-28.6c-0.7-1.7-1.4-3.5-2.1-5.2c-6.9-17.5-13.9-34.8-15.8-53.7
				c-0.6-6.1-0.9-12.2-0.6-18.5C793.2,1515.2,793.2,1510,793.2,1510z"/>
			<line class="st128" x1="1015" y1="1510" x2="1015" y2="1764.5"/>
			<line class="st128" x1="1001.1" y1="1510" x2="1001.1" y2="1764.5"/>
			<line class="st128" x1="987.3" y1="1510" x2="987.3" y2="1764.5"/>
			<line class="st128" x1="973.4" y1="1510" x2="973.4" y2="1764.5"/>
			<path class="st128" d="M959.5,1510c0,0,0,11.7,0,30c0,6.1,0,13,0.1,20.4c3.2,43.5,2.1,86.8-0.1,129.8c0,4.2,0,8.3,0,12.2
				c0,35.7,0,62,0,62"/>
			<path class="st128" d="M945.7,1510c0,0,0,5.2,0,14.1c0,4.5,0,9.8,0,16c0.1,8.7-0.5,17.2,1.2,26.3c5.1,37.6,4.6,73.4-0.6,111
				c-1.1,8.5-0.6,16.5-0.6,25.1c0,4,0,7.8,0,11.5c0,29.7,0,50.5,0,50.5"/>
			<path class="st128" d="M931.8,1510c0,0,0,5.2,0,14.1c0,4.5,0,9.8,0,16c-0.3,5.8,0.3,12.1,1.4,17.8c9.1,45.5,7.4,87.1-1.1,132.6
				c-0.6,4,0,8-0.3,12c0,4,0,7.8,0,11.5c0,29.7,0,50.5,0,50.5"/>
			<path class="st128" d="M918,1510c0,0,0,5.2,0,14.1c0,4.5,0,9.8,0,16c13,54.2,12.4,108.3,0,162.5c0,4,0,7.8,0,11.5
				c0,29.7,0,50.5,0,50.5"/>
			<path class="st128" d="M904.1,1510c0,0,0,5.2,0,14.1c0,4.5,0,9.8,0.3,15.9c0.4,3.7,0.8,7.4,1.3,11s1.2,7.2,1.9,10.8
				c7.5,33,21.1,66.5,9.8,100.5c-1.2,4.7-2.5,9.4-4,14.1c-1.5,4.7-3,9.3-4.6,14c-1.7,5.1-2.8,10.8-3.1,16.2c-0.5,4.6-1,9.1-1.3,13.7
				c-0.3,4.6-0.4,9.3-0.3,14c0,6.1,0,11.5,0,16c0,8.9,0,14.1,0,14.1"/>
			<path class="st128" d="M890.2,1510c0,0,0,5.2,0,14.1c0,4.5,0,9.8,0.1,16c0.5,3.6,1.1,7.2,1.8,10.8c1.2,4.7,1.2,9.3,2.9,13.3
				c17.6,38.7,27.3,80.8,5.5,119.7c-2,5.3-4,10.5-5.7,15.7c-1.3,4.7-2.2,9.4-2.9,14.1c-0.7,4.7-1.3,9.5-1.6,14.3
				c-0.2,5.5-0.2,10.6-0.2,15c0,13.3,0,21.4,0,21.4"/>
			<path class="st128" d="M876.4,1510c0,0,0,5.2,0,14.1c0,4.5,0,9.8,0.1,16c1,6.4,2.1,12.6,4.4,18.9c9.1,23.3,23.9,43.8,26.2,68.9
				c2.8,26.2-13.7,47.8-23.7,70.7c-1.6,4.7-2.8,9.4-3.9,14.2c-1,4.8-1.8,9.6-2.4,14.4c-0.7,7.6-0.8,14.3-0.8,19.8
				c0,11,0,17.6,0,17.6"/>
			<path class="st128" d="M862.5,1510c0,0,0,5.2,0,14.1c0,4.5,0,9.8,0.3,16c5.6,25.2,20.4,46.2,31.7,69.6
				c17.6,33.6-12.5,62.1-24,91.3c-1.5,4.3-2.8,8.6-4,12.9c-1.1,4.4-2.1,8.8-2.8,13.2c-1.1,7.6-1.2,14.3-1.2,19.8c0,11,0,17.6,0,17.6
				"/>
			<path class="st128" d="M848.6,1510c0,0,0,5.2,0,14.1c-0.1,6.4,0.5,12.8,1.5,19c2.8,22.2,17.9,38.2,29.8,56.4
				c1.2,1.8,2.3,3.7,3.4,5.5c11.7,16,12.8,39.3-1.2,54.4c-1.1,1.7-2.2,3.4-3.3,5c-7.9,11.7-16.6,22.7-21.4,36.2
				c-1.8,4.9-3.4,9.9-4.7,14.9c-2.7,10.1-4.3,20.4-4.1,31.2c0,11,0,17.6,0,17.6"/>
			<path class="st128" d="M834.8,1510c0,0,0,5.2,0,14.1c-0.6,4.7,0,8.7,0.5,13.2c3.2,25.9,18.6,44.9,34,65.8
				c1.2,1.6,2.4,3.2,3.7,4.8c15.8,14.2,13.5,38.7-2.9,51.2c-1.4,1.7-2.7,3.4-4,5.1c-8.9,11.8-17.4,23-22.8,36.3
				c-1.9,5-3.6,10-4.9,15c-2.7,10.1-4.2,20.5-3.6,31.3c0,11,0,17.6,0,17.6"/>
			<path class="st128" d="M820.9,1510c0,0,0,5.2,0,14.1c-0.1,7,0.7,13.8,2.3,20.6c2.5,11.4,6.5,22.3,12.7,32.5
				c5.1,8.1,11.8,16.3,17.5,24.8c1.1,1.7,2.2,3.4,3.5,5.2c6.3,9.3,20,15,18.3,27.5c-1.7,13.1-16.5,17.6-23.8,27.4
				c-1.2,1.6-2.3,3.1-3.5,4.6c-8.1,10.7-16,20.8-20.1,34.1c-1.3,3.7-2.5,7.4-3.4,11.2c-2.8,11.3-4.3,22.8-3.5,34.8
				c0,11,0,17.6,0,17.6"/>
			<path class="st128" d="M807,1510c0,0,0,5.2,0,14.1c0.1,5.2,0.4,10.2,1,15.3c1.7,21.2,12.3,38.8,22.8,56.6c1,1.6,1.9,3.3,2.9,4.9
				c6.1,9.9,14.1,16.7,23.8,23c3.4,2.3,6.8,6.3,5.1,10.2c-3.4,9.7-15.4,11.4-23.3,17.6c-2.3,2.3-5.1,4-6.9,6.7c-1,1.5-2,2.9-3,4.4
				c-7.6,11.6-13.8,23-17.4,36.4c-1.1,3.9-1.9,7.8-2.6,11.7c-2.1,11.8-3.1,23.8-2.3,36c0,11,0,17.6,0,17.6"/>
		</g>
	</g>
</g>
</svg>
