<?xml version="1.0" encoding="utf-8"?>
<!-- Generator: Adobe Illustrator 22.1.0, SVG Export Plug-In . SVG Version: 6.00 Build 0)  -->
<svg version="1.1" id="Слой_1" xmlns="http://www.w3.org/2000/svg" xmlns:xlink="http://www.w3.org/1999/xlink" x="0px" y="0px"
	 viewBox="0 0 2080 2080" style="enable-background:new 0 0 2080 2080;" xml:space="preserve">
<style type="text/css">
	.st0{fill:#FFFFFF;}
	.st1{fill:#C8C6E5;}
	.st2{fill:#FDAC40;}
	.st3{fill:#EBCAA0;}
	.st4{fill:none;stroke:#FDAC40;stroke-width:4;stroke-linecap:round;stroke-miterlimit:10;}
	.st5{fill:none;stroke:#826DFD;stroke-width:4;stroke-linecap:round;stroke-linejoin:round;stroke-miterlimit:10;}
	.st6{fill:#826DFD;}
	.st7{fill:none;stroke:#000000;stroke-width:6;stroke-linecap:round;stroke-miterlimit:10;}
	.st8{fill:none;stroke:#000000;stroke-width:3;stroke-linecap:round;stroke-miterlimit:10;}
	.st9{fill:none;stroke:#000000;stroke-width:4;stroke-linecap:round;stroke-linejoin:round;stroke-miterlimit:10;}
	.st10{fill:none;stroke:#000000;stroke-width:6;stroke-linecap:round;stroke-linejoin:round;stroke-miterlimit:10;}
	.st11{fill:none;stroke:#000000;stroke-width:3;stroke-miterlimit:10;}
	.st12{fill:none;stroke:#000000;stroke-width:7;stroke-linecap:round;stroke-miterlimit:10;}
	.st13{fill:none;stroke:#000000;stroke-width:3;stroke-linecap:round;stroke-linejoin:round;stroke-miterlimit:10;}
	.st14{fill:none;stroke:#000000;stroke-width:5;stroke-miterlimit:10;}
	.st15{fill:none;stroke:#000000;stroke-width:2;stroke-linecap:round;stroke-linejoin:round;stroke-miterlimit:10;}
	.st16{fill:none;stroke:#000000;stroke-width:8;stroke-linecap:round;stroke-linejoin:round;stroke-miterlimit:10;}
	.st17{fill:none;stroke:#000000;stroke-width:3;stroke-linejoin:round;stroke-miterlimit:10;}
	.st18{fill:none;stroke:#000000;stroke-width:5;stroke-linecap:round;stroke-linejoin:round;stroke-miterlimit:10;}
	.st19{fill:none;stroke:#000000;stroke-width:2;stroke-miterlimit:10;}
	.st20{fill:none;stroke:#000000;stroke-width:2;stroke-linecap:round;stroke-miterlimit:10;}
	.st21{stroke:#000000;stroke-width:5;stroke-linecap:round;stroke-linejoin:round;stroke-miterlimit:10;}
	.st22{stroke:#000000;stroke-width:3;stroke-linecap:round;stroke-linejoin:round;stroke-miterlimit:10;}
	.st23{fill:none;stroke:#8378BF;stroke-width:5;stroke-linecap:round;stroke-linejoin:round;stroke-miterlimit:10;}
	.st24{fill:none;stroke:#826DFD;stroke-width:3;stroke-linecap:round;stroke-linejoin:round;stroke-miterlimit:10;}
	.st25{fill:none;stroke:#FDAC40;stroke-width:3;stroke-linecap:round;stroke-linejoin:round;stroke-miterlimit:10;}
	.st26{fill:none;stroke:#FDAC40;stroke-width:7;stroke-miterlimit:10;}
	.st27{fill:none;stroke:#000000;stroke-width:11;stroke-linecap:round;stroke-linejoin:round;stroke-miterlimit:10;}
	.st28{fill:none;stroke:#333333;stroke-width:5;stroke-linecap:round;stroke-miterlimit:10;stroke-dasharray:20;}
	.st29{fill:#FADC8C;}
	.st30{fill:none;stroke:#333333;stroke-width:5;stroke-linecap:round;stroke-miterlimit:10;stroke-dasharray:44.5321,44.5321;}
	.st31{fill:#333333;}
	.st32{fill:#F29F76;}
	.st33{fill:#7BD9E5;}
	.st34{fill:none;}
	.st35{fill:#65C8D0;}
	.st36{fill:#7BD9E5;stroke:#7BD9E5;stroke-miterlimit:10;}
	.st37{fill:none;stroke:#333333;stroke-linecap:round;stroke-linejoin:round;stroke-miterlimit:10;}
	.st38{fill:#7BD9E5;stroke:#333333;stroke-miterlimit:10;}
	.st39{fill:#8FACCC;}
	.st40{fill:#F9E958;}
	.st41{fill:#231F20;}
	.st42{fill:none;stroke:#333333;stroke-width:3;stroke-linecap:round;stroke-miterlimit:10;}
	.st43{clip-path:url(#SVGID_2_);}
	.st44{clip-path:url(#SVGID_4_);}
	.st45{clip-path:url(#SVGID_6_);}
	.st46{clip-path:url(#SVGID_8_);}
	.st47{clip-path:url(#SVGID_10_);}
	.st48{clip-path:url(#SVGID_12_);}
	.st49{clip-path:url(#SVGID_14_);}
	.st50{clip-path:url(#SVGID_16_);}
	.st51{clip-path:url(#SVGID_18_);}
	.st52{clip-path:url(#SVGID_20_);}
	.st53{clip-path:url(#SVGID_22_);}
	.st54{clip-path:url(#SVGID_24_);}
	.st55{clip-path:url(#SVGID_26_);}
	.st56{clip-path:url(#SVGID_28_);}
	.st57{fill:#FF7300;}
	.st58{clip-path:url(#SVGID_30_);}
	.st59{fill:#020100;}
	.st60{fill:#FF6D00;}
	.st61{clip-path:url(#SVGID_32_);}
	.st62{clip-path:url(#SVGID_34_);fill:none;stroke:#2C1017;stroke-width:3.4838;stroke-miterlimit:10;}
	.st63{clip-path:url(#SVGID_36_);fill:none;stroke:#2C1017;stroke-width:3.4838;stroke-miterlimit:10;}
	.st64{clip-path:url(#SVGID_38_);fill:none;stroke:#2C1017;stroke-width:3.4838;stroke-miterlimit:10;}
	.st65{clip-path:url(#SVGID_40_);fill:none;stroke:#2C1017;stroke-width:3.4838;stroke-miterlimit:10;}
	.st66{clip-path:url(#SVGID_32_);fill:none;stroke:#231F20;stroke-width:2.6129;stroke-miterlimit:10;}
	.st67{clip-path:url(#SVGID_42_);fill:none;stroke:#231F20;stroke-width:0.871;stroke-miterlimit:10;}
	.st68{clip-path:url(#SVGID_44_);fill:none;stroke:#231F20;stroke-width:0.871;stroke-miterlimit:10;}
	.st69{clip-path:url(#SVGID_46_);fill:#231F20;}
	.st70{clip-path:url(#SVGID_46_);fill:none;stroke:#231F20;stroke-width:2.6129;stroke-miterlimit:10;}
	.st71{clip-path:url(#SVGID_46_);fill:#FFFFFF;}
	.st72{clip-path:url(#SVGID_46_);fill:none;stroke:#231F20;stroke-width:1.7419;stroke-miterlimit:10;}
	.st73{clip-path:url(#SVGID_48_);fill:#231F20;}
	.st74{clip-path:url(#SVGID_48_);fill:#FFFFFF;}
	.st75{fill:none;stroke:#000000;stroke-width:1.5;stroke-miterlimit:10;}
	.st76{fill:none;stroke:#000000;stroke-miterlimit:10;}
	.st77{fill:none;stroke:#000000;stroke-width:0.75;stroke-miterlimit:10;}
	.st78{stroke:#000000;stroke-miterlimit:10;}
	.st79{clip-path:url(#SVGID_49_);}
	.st80{clip-path:url(#SVGID_50_);}
	.st81{clip-path:url(#SVGID_51_);}
	.st82{clip-path:url(#SVGID_52_);}
	.st83{fill:none;stroke:#000000;stroke-width:0.25;stroke-miterlimit:10;}
	.st84{clip-path:url(#SVGID_53_);}
	.st85{fill:none;stroke:#000000;stroke-width:0.5;stroke-miterlimit:10;}
	.st86{clip-path:url(#SVGID_54_);}
	.st87{clip-path:url(#SVGID_55_);}
	.st88{clip-path:url(#SVGID_56_);}
	.st89{clip-path:url(#SVGID_57_);}
	.st90{clip-path:url(#SVGID_58_);}
	.st91{clip-path:url(#SVGID_59_);}
	.st92{clip-path:url(#SVGID_60_);}
	.st93{clip-path:url(#SVGID_61_);}
	.st94{clip-path:url(#SVGID_62_);}
	.st95{clip-path:url(#SVGID_63_);}
	.st96{clip-path:url(#SVGID_64_);}
	.st97{clip-path:url(#SVGID_65_);}
	.st98{stroke:#000000;stroke-width:0.75;stroke-miterlimit:10;}
	.st99{clip-path:url(#SVGID_67_);}
	.st100{clip-path:url(#SVGID_69_);}
	.st101{fill:none;stroke:#000000;stroke-width:6;stroke-miterlimit:10;}
	.st102{clip-path:url(#SVGID_71_);}
	.st103{clip-path:url(#SVGID_73_);}
	.st104{stroke:#000000;stroke-width:0.5;stroke-miterlimit:10;}
	.st105{clip-path:url(#SVGID_75_);}
	.st106{clip-path:url(#SVGID_77_);}
	.st107{stroke:#000000;stroke-width:0.25;stroke-miterlimit:10;}
	.st108{clip-path:url(#SVGID_79_);}
	.st109{clip-path:url(#SVGID_80_);}
	.st110{clip-path:url(#SVGID_81_);}
	.st111{clip-path:url(#SVGID_82_);}
	.st112{clip-path:url(#SVGID_83_);}
	.st113{clip-path:url(#SVGID_84_);}
	.st114{clip-path:url(#SVGID_86_);}
	.st115{stroke:#000000;stroke-linecap:round;stroke-linejoin:round;stroke-miterlimit:10;}
	.st116{clip-path:url(#SVGID_88_);}
	.st117{fill:none;stroke:#000000;stroke-width:0.25;stroke-linecap:round;stroke-linejoin:round;stroke-miterlimit:10;}
	.st118{stroke:#000000;stroke-width:0.25;stroke-linecap:round;stroke-linejoin:round;stroke-miterlimit:10;}
	.st119{clip-path:url(#SVGID_90_);}
	.st120{clip-path:url(#SVGID_92_);}
	.st121{clip-path:url(#SVGID_94_);}
	.st122{clip-path:url(#SVGID_96_);}
	.st123{fill:#F3E0B5;}
	.st124{clip-path:url(#SVGID_98_);}
	.st125{fill:#F7E7C5;}
	.st126{fill:none;stroke:#FFFFFF;stroke-width:3;stroke-miterlimit:10;}
	.st127{clip-path:url(#SVGID_100_);}
	.st128{fill:none;stroke:#FFFFFF;stroke-width:2;stroke-miterlimit:10;}
	.st129{fill:none;stroke:#FFFFFF;stroke-width:30;stroke-miterlimit:10;}
	.st130{fill:#FFFFFF;stroke:#FFFFFF;stroke-miterlimit:10;}
	.st131{stroke:#FFFFFF;stroke-miterlimit:10;}
	.st132{clip-path:url(#SVGID_102_);}
	.st133{fill:none;stroke:#FFFFFF;stroke-width:7;stroke-miterlimit:10;}
	.st134{fill:none;stroke:#FFFFFF;stroke-width:19;stroke-miterlimit:10;}
	.st135{fill:none;stroke:#FFFFFF;stroke-width:11;stroke-miterlimit:10;}
	.st136{fill:#FFFFFF;stroke:#FFFFFF;stroke-width:7;stroke-linecap:round;stroke-linejoin:round;stroke-miterlimit:10;}
	.st137{fill:none;stroke:#FFFFFF;stroke-width:0.5;stroke-miterlimit:10;}
	.st138{clip-path:url(#SVGID_104_);}
	.st139{fill:none;stroke:#FFFFFF;stroke-width:8;stroke-miterlimit:10;}
	.st140{fill:none;stroke:#FFFFFF;stroke-width:10;stroke-linejoin:bevel;stroke-miterlimit:10;}
	.st141{clip-path:url(#SVGID_106_);}
	.st142{clip-path:url(#SVGID_108_);}
	.st143{clip-path:url(#SVGID_110_);}
	.st144{clip-path:url(#SVGID_112_);}
	.st145{stroke:#000000;stroke-width:2;stroke-miterlimit:10;}
	.st146{fill:none;stroke:#000000;stroke-width:45;stroke-miterlimit:10;}
	.st147{stroke:#FFFFFF;stroke-width:4;stroke-miterlimit:10;}
	.st148{fill:none;stroke:#FFFFFF;stroke-width:4;stroke-miterlimit:10;}
	.st149{fill:#FFFFFF;stroke:#FFFFFF;stroke-width:4;stroke-miterlimit:10;}
	.st150{clip-path:url(#SVGID_114_);}
	.st151{opacity:0.51;fill:#339999;stroke:#000000;stroke-width:2;stroke-miterlimit:10;}
	.st152{opacity:0.18;fill:#FFCCFF;stroke:#000000;stroke-width:2;stroke-miterlimit:10;}
	.st153{opacity:4.000000e-02;fill:#FFCCFF;stroke:#000000;stroke-width:2;stroke-miterlimit:10;}
	.st154{opacity:0.18;fill:#003333;stroke:#000000;stroke-width:2;stroke-miterlimit:10;}
	.st155{opacity:0.46;fill:#99FFFF;stroke:#000000;stroke-width:2;stroke-miterlimit:10;}
	.st156{opacity:0.18;fill:#CC99FF;stroke:#000000;stroke-width:2;stroke-miterlimit:10;}
	.st157{opacity:0.47;fill:#FFCCFF;stroke:#000000;stroke-width:2;stroke-miterlimit:10;}
	.st158{opacity:0.11;fill:#333399;stroke:#000000;stroke-width:2;stroke-miterlimit:10;}
	.st159{opacity:0.11;fill:#99FFFF;stroke:#000000;stroke-width:2;stroke-miterlimit:10;}
	.st160{opacity:0.18;fill:#9999FF;stroke:#000000;stroke-width:2;stroke-miterlimit:10;}
	.st161{opacity:0.18;fill:none;stroke:#000000;stroke-width:2;stroke-miterlimit:10;}
	.st162{opacity:0.68;fill:#FFFFFF;}
	.st163{opacity:0.18;fill:#6666FF;stroke:#000000;stroke-width:2;stroke-miterlimit:10;}
	.st164{fill:#FFFFFF;stroke:#000000;stroke-width:2;stroke-miterlimit:10;}
	.st165{fill:none;stroke:#000000;stroke-width:0.5;stroke-linecap:round;stroke-linejoin:round;}
	.st166{opacity:0.36;fill:#FFFFFF;stroke:#000000;stroke-width:0.5;stroke-linecap:round;stroke-linejoin:round;}
	.st167{opacity:0.37;fill:#CCFFFF;stroke:#000000;stroke-width:0.5;stroke-linecap:round;stroke-linejoin:round;}
	.st168{opacity:0.69;fill:#E6FFFE;stroke:#000000;stroke-width:0.5;stroke-linecap:round;stroke-linejoin:round;}
	.st169{opacity:0.8;fill:#FFFFFF;stroke:#000000;stroke-width:0.5;stroke-linecap:round;stroke-linejoin:round;}
	.st170{opacity:0.43;fill:#CCFFFF;stroke:#000000;stroke-width:0.5;stroke-linecap:round;stroke-linejoin:round;}
	.st171{opacity:0.82;fill:#FFFFFF;stroke:#000000;stroke-width:0.5;stroke-linecap:round;stroke-linejoin:round;}
	.st172{opacity:0.76;fill:#FFFFFF;stroke:#000000;stroke-width:0.5;stroke-linecap:round;stroke-linejoin:round;}
	.st173{opacity:0.47;fill:#6633CC;stroke:#000000;stroke-width:0.5;stroke-linecap:round;stroke-linejoin:round;}
	.st174{opacity:0.51;fill:#CCFFFF;stroke:#000000;stroke-width:0.5;stroke-linecap:round;stroke-linejoin:round;}
	.st175{opacity:0.4;fill:#000033;stroke:#000000;stroke-width:0.5;stroke-linecap:round;stroke-linejoin:round;}
	.st176{opacity:0.43;fill:#330033;stroke:#000000;stroke-width:0.5;stroke-linecap:round;stroke-linejoin:round;}
	.st177{opacity:0.1;fill:#9966FF;stroke:#000000;stroke-width:2;stroke-miterlimit:10;}
	.st178{opacity:0.23;fill:#330033;stroke:#000000;stroke-width:2;stroke-miterlimit:10;}
	.st179{opacity:0.18;}
	.st180{fill:#FFCCFF;}
	.st181{opacity:0.51;}
	.st182{fill:#339999;}
	.st183{opacity:4.000000e-02;}
	.st184{fill:#003333;}
	.st185{opacity:0.46;}
	.st186{fill:#99FFFF;}
	.st187{fill:#CC99FF;}
	.st188{opacity:0.47;}
	.st189{opacity:0.11;}
	.st190{fill:#333399;}
	.st191{fill:#9999FF;}
	.st192{opacity:0.18;fill:#FFFFFF;}
	.st193{opacity:0.62;}
	.st194{fill:#6666FF;}
	.st195{opacity:0.42;}
	.st196{fill:#9C62A0;}
	.st197{fill:none;stroke:#FFFFFF;stroke-width:0.5;stroke-linecap:round;stroke-linejoin:round;}
	.st198{opacity:0.36;}
	.st199{opacity:0.37;}
	.st200{fill:#CCFFFF;}
	.st201{fill:none;stroke:#FFFFFF;stroke-width:4;stroke-linecap:round;stroke-linejoin:round;}
	.st202{opacity:0.69;}
	.st203{fill:#E6FFFE;}
	.st204{opacity:0.8;}
	.st205{opacity:0.43;}
	.st206{opacity:0.82;}
	.st207{opacity:0.76;}
	.st208{fill:#6633CC;}
	.st209{opacity:0.4;}
	.st210{fill:#000033;}
	.st211{fill:#330033;}
	.st212{opacity:0.1;}
	.st213{fill:#9966FF;}
	.st214{opacity:0.72;}
	.st215{fill:#333366;}
	.st216{fill:#E3E825;stroke:#42210B;stroke-width:10;stroke-linejoin:round;stroke-miterlimit:10;}
	.st217{fill:#C69C6D;stroke:#42210B;stroke-width:10;stroke-linejoin:round;stroke-miterlimit:10;}
	.st218{fill:#42210B;stroke:#42210B;stroke-width:10;stroke-linejoin:round;stroke-miterlimit:10;}
	.st219{fill:#E53C70;stroke:#42210B;stroke-width:10;stroke-linejoin:round;stroke-miterlimit:10;}
	.st220{fill:#F27C08;stroke:#42210B;stroke-width:10;stroke-linejoin:round;stroke-miterlimit:10;}
	.st221{fill:#AA4913;}
	.st222{fill:#D68A63;}
	.st223{fill:#EAC598;}
	.st224{fill:#F26692;}
	.st225{fill:#EDAF77;}
	.st226{fill:#FBB03B;stroke:#7A5D3B;stroke-width:12;stroke-linecap:round;stroke-miterlimit:10;}
	.st227{fill:none;stroke:#42210B;stroke-width:10;stroke-linejoin:round;stroke-miterlimit:10;}
	.st228{fill:#087F2C;stroke:#42210B;stroke-width:10;stroke-linejoin:round;stroke-miterlimit:10;}
	.st229{fill:#98D14E;}
	.st230{fill:#80A574;stroke:#071103;stroke-width:14;stroke-linejoin:round;stroke-miterlimit:10;}
	.st231{fill:#EF2E2E;stroke:#071103;stroke-width:14;stroke-linejoin:round;stroke-miterlimit:10;}
	.st232{fill:#5D7554;stroke:#051101;stroke-width:14;stroke-linejoin:round;stroke-miterlimit:10;}
	.st233{fill:none;stroke:#6B996E;stroke-width:40;stroke-linecap:round;stroke-miterlimit:10;}
	.st234{fill:none;stroke:#203316;stroke-width:14;stroke-linejoin:round;stroke-miterlimit:10;}
	.st235{fill:none;stroke:#071103;stroke-width:14;stroke-linejoin:round;stroke-miterlimit:10;}
	.st236{fill:#42210B;}
	.st237{fill:#47683E;}
	.st238{fill:#5D7554;stroke:#071103;stroke-width:14;stroke-linejoin:round;stroke-miterlimit:10;}
	.st239{fill:#E3E825;stroke:#071103;stroke-width:14;stroke-linejoin:round;stroke-miterlimit:10;}
	.st240{fill:#F4F490;}
	.st241{fill:#E53C70;stroke:#071103;stroke-width:14;stroke-linejoin:round;stroke-miterlimit:10;}
	.st242{fill:#071103;stroke:#071103;stroke-width:14;stroke-linejoin:round;stroke-miterlimit:10;}
	.st243{fill:#E53C70;stroke:#EF95B1;stroke-width:14;stroke-linecap:round;stroke-linejoin:round;stroke-miterlimit:10;}
	.st244{fill:#E3E825;stroke:#071103;stroke-width:10;stroke-linejoin:round;stroke-miterlimit:10;}
	.st245{fill:#071103;}
	.st246{fill:#FFFF00;}
	.st247{fill:none;stroke:#752525;stroke-width:4;stroke-miterlimit:10;}
	.st248{fill:none;stroke:#AA3333;stroke-width:5;stroke-miterlimit:10;}
	.st249{fill:none;stroke:#ED1C24;stroke-width:3;stroke-miterlimit:10;}
	.st250{fill:#AA3333;}
	.st251{fill:#F94B4B;}
	.st252{fill:none;stroke:#AA3333;stroke-width:9;stroke-miterlimit:10;}
	.st253{fill:#FC7E7E;}
	.st254{fill:#FC7E7E;stroke:#FC7E7E;stroke-width:7;stroke-miterlimit:10;}
	.st255{fill:none;stroke:#FC7E7E;stroke-width:9;stroke-miterlimit:10;}
	.st256{fill:none;stroke:#FCFAFA;stroke-width:4;stroke-miterlimit:10;}
	.st257{fill:#681D1D;}
	.st258{fill:#BA4FB0;}
	.st259{fill:#A068A0;}
	.st260{fill:#E0A6E0;}
	.st261{fill:none;stroke:#540E56;stroke-width:4;stroke-miterlimit:10;}
	.st262{fill:#7A347A;}
	.st263{fill:#007F82;}
	.st264{fill:#04A8A8;}
	.st265{fill:none;stroke:#764977;stroke-width:3;stroke-miterlimit:10;}
	.st266{fill:#3ECCC5;}
	.st267{fill:none;stroke:#004242;stroke-width:3;stroke-miterlimit:10;}
	.st268{fill:none;stroke:#7C0C00;stroke-width:3;stroke-miterlimit:10;}
	.st269{fill:#004242;}
	.st270{fill:#510600;}
	.st271{fill:#FF866E;}
	.st272{fill:#D30B0B;}
	.st273{fill:none;stroke:#F200FF;stroke-width:3;stroke-miterlimit:10;}
	.st274{fill:none;stroke:#F200FF;stroke-miterlimit:10;}
	.st275{fill:none;stroke:#04070F;stroke-width:3;stroke-miterlimit:10;}
	.st276{fill:#005654;}
</style>
<rect x="-5287" y="-9132" class="st0" width="14249" height="14249"/>
<rect x="-41" y="-139" class="st0" width="2237" height="2380"/>
<g>
	<path d="M226,1434.4v10.4h-44.7v116.9h-12.2v-116.9h-44.7v-10.4H226z"/>
	<path d="M246.7,1434.4c0,30.5-0.1,48.1-0.2,52.7c6.6-13.1,17.2-19.7,31.8-19.7c10.6,0,18.6,2.9,24,8.7c5.4,5.8,8.1,14,8.1,24.8
		v60.8h-11.3v-59.3c0-16.9-7.9-25.4-23.6-25.4c-9.9,0-17.2,3.4-21.9,10.1c-4.7,6.7-7.1,15.5-7.1,26.2v48.4h-11.1v-127.3H246.7z"/>
	<path d="M343,1433.9v18.4h-11.3v-18.4H343z M343,1469.8v91.9h-11.3v-91.9H343z"/>
	<path d="M430.6,1496.6h-10.9c-1.1-13.3-9.4-20-24.8-20c-6.6,0-11.8,1.4-15.6,4.1c-3.9,2.7-5.8,6.4-5.8,11.1c0,2.3,0.4,4.2,1.3,5.9
		c0.8,1.7,1.8,3,2.9,4c1.1,1,2.9,2,5.6,2.9c2.7,1,5,1.7,7,2.2c2,0.5,5.2,1.3,9.6,2.2c3.9,1,7.1,1.7,9.5,2.3c2.4,0.6,5.3,1.6,8.8,3.1
		c3.5,1.5,6.3,3.1,8.3,4.8c2,1.7,3.8,4.1,5.3,7c1.5,2.9,2.2,6.2,2.2,9.9c0,8.5-3.4,15.3-10.1,20.5c-6.7,5.2-15.5,7.8-26.4,7.8
		c-11.8,0-21-2.9-27.5-8.6c-6.6-5.7-10-13.8-10.2-24.3h10.9c0,7.6,2.4,13.5,7.1,17.5c4.8,4.1,11.4,6.1,20,6.1
		c7.5,0,13.6-1.6,18.1-4.9c4.6-3.3,6.9-7.6,6.9-13c0-2.9-0.7-5.4-2.2-7.5c-1.5-2.1-3.5-3.8-6-5.1s-5-2.3-7.4-3
		c-2.4-0.8-5-1.5-7.8-2.1c-0.8-0.1-1.4-0.2-1.8-0.4c-0.8-0.2-2.7-0.7-5.7-1.3c-3-0.7-5.1-1.1-6.3-1.4c-1.2-0.3-3.1-0.9-5.7-1.7
		c-2.6-0.8-4.5-1.6-5.7-2.3c-1.2-0.7-2.7-1.7-4.6-3c-1.8-1.3-3.2-2.7-4.1-4.2c-0.9-1.5-1.7-3.2-2.3-5.3c-0.7-2-1-4.3-1-6.8
		c0-8,3-14.3,9-18.9c6-4.6,14.3-7,24.8-7c10.5,0,18.9,2.5,25.2,7.5C427.4,1479.8,430.6,1487.1,430.6,1496.6z"/>
	<path d="M511.8,1433.9v18.4h-11.3v-18.4H511.8z M511.8,1469.8v91.9h-11.3v-91.9H511.8z"/>
	<path d="M599.3,1496.6h-10.9c-1.1-13.3-9.4-20-24.8-20c-6.6,0-11.8,1.4-15.6,4.1c-3.9,2.7-5.8,6.4-5.8,11.1c0,2.3,0.4,4.2,1.3,5.9
		c0.8,1.7,1.8,3,2.9,4c1.1,1,2.9,2,5.6,2.9c2.7,1,5,1.7,7,2.2c2,0.5,5.2,1.3,9.6,2.2c3.9,1,7.1,1.7,9.5,2.3c2.4,0.6,5.3,1.6,8.8,3.1
		c3.5,1.5,6.3,3.1,8.3,4.8c2,1.7,3.8,4.1,5.3,7c1.5,2.9,2.2,6.2,2.2,9.9c0,8.5-3.4,15.3-10.1,20.5c-6.7,5.2-15.5,7.8-26.4,7.8
		c-11.8,0-21-2.9-27.5-8.6c-6.6-5.7-10-13.8-10.2-24.3h10.9c0,7.6,2.4,13.5,7.1,17.5c4.8,4.1,11.4,6.1,20,6.1
		c7.5,0,13.6-1.6,18.1-4.9c4.6-3.3,6.9-7.6,6.9-13c0-2.9-0.7-5.4-2.2-7.5c-1.5-2.1-3.5-3.8-6-5.1s-5-2.3-7.4-3
		c-2.4-0.8-5-1.5-7.8-2.1c-0.8-0.1-1.4-0.2-1.8-0.4c-0.8-0.2-2.7-0.7-5.7-1.3c-3-0.7-5.1-1.1-6.3-1.4c-1.2-0.3-3.1-0.9-5.7-1.7
		c-2.6-0.8-4.5-1.6-5.7-2.3c-1.2-0.7-2.7-1.7-4.6-3c-1.8-1.3-3.2-2.7-4.1-4.2c-0.9-1.5-1.7-3.2-2.3-5.3c-0.7-2-1-4.3-1-6.8
		c0-8,3-14.3,9-18.9c6-4.6,14.3-7,24.8-7c10.5,0,18.9,2.5,25.2,7.5C596.2,1479.8,599.3,1487.1,599.3,1496.6z"/>
</g>
<rect x="124.6" y="1583.9" width="1276" height="409.6"/>
<path class="st57" d="M375.2,1657.6v262.2h-20.5v-126.7H224.6v126.7h-20.8v-262.2h20.8v114.2h130.1v-114.2H375.2z"/>
<path class="st57" d="M449.1,1657.6v262.2h-20.8v-262.2H449.1z"/>
<path class="st57" d="M503.2,1657.6h93.2c21,0,37.6,6.3,49.9,19c12.3,12.6,18.5,30.9,18.5,54.7c0,25-6.2,44.1-18.6,57.1
	c-12.4,13-29.2,19.5-50.4,19.5h-71.8v112h-20.8V1657.6z M523.9,1679v107.9h66c16.1,0,29.1-4.4,39.1-13.1c10-8.7,15-22.3,15-40.7
	c0-18.2-4.6-31.7-13.7-40.7c-9.2-9-21.9-13.4-38.2-13.4H523.9z"/>
<path class="st0" d="M873.3,1657.6v262.2h-20.5v-126.7H722.8v126.7H702v-262.2h20.8v114.2h130.1v-114.2H873.3z"/>
<path class="st0" d="M1016,1651.3c30.3,0,55,12.8,74.1,38.3c19,25.5,28.6,58.8,28.6,99.8c0,40.8-9.5,73.7-28.4,98.9
	c-18.9,25.2-43.8,37.8-74.5,37.8c-30.5,0-55.2-12.6-73.9-37.9c-18.7-25.3-28.1-58.4-28.1-99.4c0-41,9.4-74.2,28.3-99.4
	C960.7,1664,985.4,1651.3,1016,1651.3z M1015.7,1673.1c-24.2,0-43.8,10.6-58.8,31.7c-15,21.1-22.5,48.9-22.5,83.2
	c0,35.1,7.4,63.3,22.3,84.5c14.9,21.2,34.6,31.9,59.3,31.9c24.6,0,44.4-10.6,59.4-31.7c15-21.1,22.5-49,22.5-83.6s-7.5-62.6-22.6-84
	C1060.2,1683.7,1040.3,1673.1,1015.7,1673.1z"/>
<path class="st0" d="M1159.8,1657.6h93.2c21,0,37.6,6.3,49.9,19c12.3,12.6,18.5,30.9,18.5,54.7c0,25-6.2,44.1-18.6,57.1
	c-12.4,13-29.2,19.5-50.4,19.5h-71.8v112h-20.8V1657.6z M1180.6,1679v107.9h66c16.1,0,29.1-4.4,39.1-13.1c10-8.7,15-22.3,15-40.7
	c0-18.2-4.6-31.7-13.7-40.7c-9.2-9-21.9-13.4-38.2-13.4H1180.6z"/>
<g>
	<polygon class="st0" points="124.6,1139.5 124.6,1382.8 626.1,1382.8 626.1,1238.8 298.4,1238.8 209,1055.1 174.3,1055.1 	"/>
	<path d="M627.8,1384.6H122.9v-245.5l0.2-0.4l50.2-85.3h36.8l89.4,183.7h328.3V1384.6z M126.4,1381.1h498v-140.5h-327L208,1056.9
		h-32.7l-48.9,83.1V1381.1z"/>
</g>
<g>
	<line class="st0" x1="298.4" y1="1238.8" x2="181.7" y2="1256.2"/>
	<rect x="181.1" y="1245.8" transform="matrix(0.9891 -0.1474 0.1474 0.9891 -181.3043 49.0272)" width="118" height="3.5"/>
</g>
<polygon points="1639.2,1776.8 1449.6,1776.8 1398.9,1733.7 1398.9,1583.9 1402.4,1583.9 1402.4,1732.1 1450.9,1773.3 
	1638.7,1773.3 1774.5,1731.3 1818.4,1677.6 1818.4,1341.5 1730.2,1273.1 777.5,1272.9 777.5,1269.4 1731.4,1269.6 1731.8,1270 
	1821.9,1339.8 1821.9,1678.9 1821.5,1679.3 1776.5,1734.4 "/>
<path d="M2018,1995.2h-619.1v-70.6l619.1,30V1995.2z M1402.4,1991.8h612.2v-33.8l-612.2-29.6V1991.8z"/>
<polygon points="2015,1957.4 1993.2,1932.9 1909,1893.3 1677.7,1816.5 1603.4,1806.7 1572.3,1841.3 1476.8,1841.3 1447,1806.6 
	1419.5,1806.6 1402.3,1926.7 1398.9,1926.2 1416.5,1803.1 1448.6,1803.1 1478.4,1837.9 1570.8,1837.9 1602.1,1803 1678.7,1813.1 
	1910.3,1890.1 1910.4,1890.2 1995.3,1930 2017.6,1955.1 "/>
<polygon points="274.2,1146.2 253.7,1146.2 253.7,1142.8 273,1142.8 336.7,1093.7 404.9,952.6 239.9,952.6 193.2,1055.9 
	190.1,1054.4 237.7,949.1 410.4,949.1 339.5,1096 "/>
<polygon points="508.2,953.9 407.6,953.9 407.6,950.4 507.5,950.4 530.8,927.1 310.9,878.2 278.2,889.1 235.8,931.6 240.5,950.5 
	237.1,951.3 232.2,931.4 232.6,929.8 276.1,886.4 276.8,885.9 310.3,874.8 311.2,874.7 534.6,924.4 535.5,927.3 509.4,953.3 "/>
<path d="M1452,1585.6H872.6v-390.7H1452V1585.6z M876.1,1582.2h572.5v-383.8H876.1V1582.2z"/>
<g>
	<polyline class="st57" points="677,1237.6 694.4,1247.5 763.9,1247.5 778.8,1237.6 776.3,1257.5 749,1272.4 699.3,1272.4 
		684.4,1269.9 677,1237.6 	"/>
	<path d="M749,1273h-49.6l-15-2.5l-0.5-0.5l-7.4-32.3l1-0.7l17.2,9.8h69.1l14.7-9.8l1,0.6l-2.5,19.9l-0.3,0.5L749,1273z M685,1269.3
		l14.5,2.4l49.4,0l26.9-14.7l2.3-18.1l-13.7,9.1l-0.4,0.1h-69.5l-0.3-0.1l-16.1-9.2L685,1269.3z"/>
</g>
<polygon points="1377.5,1198.4 1336.8,1198.4 1336.8,1034.5 970.4,1034.5 970.4,1196.6 966.9,1196.6 966.9,1031.1 1340.3,1031.1 
	1340.3,1194.9 1374.1,1194.9 1374.1,1022.1 953,1022.1 953,1196.6 949.6,1196.6 949.6,1018.7 1377.5,1018.7 "/>
<polygon points="750.2,1275.2 700.2,1275.1 685.4,1272.4 684.1,1271.3 677,1253 669.4,1253 659.9,1274.1 658.4,1275.2 626.1,1275.2 
	626.1,1271.7 657.2,1271.7 666.7,1250.5 668.3,1249.5 678.2,1249.5 679.8,1250.6 686.9,1269.1 700.7,1271.7 749.7,1271.7 
	776.6,1255.3 778.4,1258.3 751.1,1274.9 "/>
<polygon points="745.2,1372.1 695.6,1372.1 694.8,1371.9 680.3,1363.8 626.1,1363.8 626.1,1360.4 680.7,1360.4 681.5,1360.6 
	696.1,1368.7 744.7,1368.7 766,1352.8 767.8,1338.2 748.8,1352.4 747.7,1352.8 703,1352.8 703,1349.3 747.2,1349.3 769,1333 
	771.8,1334.6 769.3,1354 768.6,1355.2 746.3,1371.8 "/>
<polygon points="776.7,1261.6 773.3,1260.8 785,1207 764.5,1215.6 763.9,1215.8 696.8,1215.8 696.2,1215.6 675.4,1206.9 682.4,1256 
	679,1256.5 671.5,1204.3 673.9,1202.5 697.2,1212.3 763.5,1212.3 786.8,1202.5 789.1,1204.5 "/>
<polygon points="674.3,1207.9 672.2,1205.2 694.5,1187.8 695.6,1187.5 767.6,1187.5 768.7,1187.9 788.6,1205.3 786.3,1207.9 
	766.9,1190.9 696.2,1190.9 "/>
<polygon points="767.4,1338.5 765.6,1335.6 773.4,1330.6 775.4,1312.6 748.6,1327.6 747.7,1327.8 698.1,1327.8 698.1,1324.3 
	747.3,1324.3 776.7,1307.9 779.2,1309.6 776.8,1331.8 776,1333.1 "/>
<polygon points="779,1310.3 776,1308.6 780.8,1300.7 780.8,1287.4 751,1302.7 750.2,1302.9 700.6,1302.9 700.1,1302.8 690.2,1300 
	691.1,1296.7 700.8,1299.4 749.8,1299.4 781.7,1283 784.2,1284.5 784.2,1301.1 784,1302 "/>
<rect x="777" y="1256.2" transform="matrix(0.9959 -9.053853e-02 9.053853e-02 0.9959 -111.7742 75.7234)" width="3.5" height="27.4"/>
<g>
	<polygon class="st57" points="677.1,1231.1 695.6,1241.3 762.6,1241.3 781.2,1232.6 762.6,1223.9 695.6,1223.9 	"/>
	<path d="M762.6,1242h-67l-0.3-0.1l-18.5-10.3l0.1-1.2l18.7-7.2h67l0.3,0.1l18.6,8.7v1.2L762.6,1242z M695.8,1240.7h66.7l17.2-8
		l-17.2-8h-66.8l-17,6.6L695.8,1240.7z"/>
</g>
<rect x="1448.5" y="1775.1" width="3.5" height="29.8"/>
<rect x="1600" y="1775.1" width="3.5" height="29.8"/>
<path d="M1073.4,1536H973.2l-70.8-70.8V1365l70.8-70.8h100.2l70.8,70.8v100.1L1073.4,1536z M974.6,1532.5h97.3l68.8-68.8v-97.3
	l-68.8-68.8h-97.3l-68.8,68.8v97.3L974.6,1532.5z"/>
<path d="M1358.8,1536h-100.2l-70.8-70.8V1365l70.8-70.8h100.2l70.8,70.8v100.1L1358.8,1536z M1260.1,1532.5h97.3l68.8-68.8v-97.3
	l-68.8-68.8h-97.3l-68.8,68.8v97.3L1260.1,1532.5z"/>
<g>
	<circle class="st57" cx="1023.3" cy="1415.1" r="24.8"/>
	<path d="M1023.3,1441.7c-14.6,0-26.6-11.9-26.6-26.6c0-14.6,11.9-26.6,26.6-26.6c14.6,0,26.6,11.9,26.6,26.6
		C1049.8,1429.7,1037.9,1441.7,1023.3,1441.7z M1023.3,1392c-12.7,0-23.1,10.4-23.1,23.1s10.4,23.1,23.1,23.1
		c12.7,0,23.1-10.4,23.1-23.1S1036,1392,1023.3,1392z"/>
</g>
<g>
	<circle cx="1308.8" cy="1415.1" r="24.8"/>
	<path d="M1308.8,1441.7c-14.6,0-26.6-11.9-26.6-26.6c0-14.6,11.9-26.6,26.6-26.6c14.6,0,26.6,11.9,26.6,26.6
		C1335.3,1429.7,1323.4,1441.7,1308.8,1441.7z M1308.8,1392c-12.7,0-23.1,10.4-23.1,23.1s10.4,23.1,23.1,23.1s23.1-10.4,23.1-23.1
		S1321.5,1392,1308.8,1392z"/>
</g>
<g>
	<polygon points="874.3,1271.1 1450.3,1271.1 1450.3,1196.6 888.6,1196.6 874.3,1196.6 	"/>
	<path d="M1450.3,1272.9H874.3l-1.7-1.7v-74.5l1.7-1.7h575.9l1.7,1.7v74.5L1450.3,1272.9z M876.1,1269.4h572.5v-71H876.1V1269.4z"/>
</g>
<g>
	<polygon points="1450.3,1775.1 1450.3,1804.8 1477.6,1839.6 1571.9,1839.6 1601.7,1804.8 1601.7,1775.1 	"/>
	<path d="M1571.9,1841.3h-94.3l-1.4-0.7l-27.3-34.8l-0.4-1.1v-29.8l1.7-1.7h151.4l1.7,1.7v29.8l-0.4,1.1l-29.8,34.8L1571.9,1841.3z
		 M1478.4,1837.9h92.7l28.9-33.7v-27.4h-148v27.5L1478.4,1837.9z"/>
</g>
<g>
	<rect x="626.1" y="1463.9" width="248.2" height="1.7"/>
</g>
<polygon points="1537.2,1775.9 1502.4,1775.9 1501.5,1775.1 1501.5,1465.6 1450.3,1465.6 1450.3,1463.9 1502.4,1463.9 
	1503.3,1464.7 1503.3,1774.2 1536.3,1774.2 1536.3,1430.9 1450.3,1430.9 1450.3,1429.1 1537.2,1429.1 1538,1430 1538,1775.1 "/>
<rect x="626.1" y="1439.1" width="248.2" height="1.7"/>
<polygon points="1583.8,1775.1 1569.9,1775.1 1569.9,1377.4 1450.3,1377.4 1450.3,1363.5 1576.9,1363.5 1583.8,1370.4 "/>
<polygon points="1641.5,1775.1 1636.3,1775.1 1636.3,1325.8 1450.3,1325.8 1450.3,1320.6 1638.9,1320.6 1641.5,1323.2 "/>
<rect x="787.4" y="1373.4" width="86.9" height="13.9"/>
<rect x="811" y="1321.3" transform="matrix(0.9998 -1.952753e-02 1.952753e-02 0.9998 -25.6912 16.708)" width="63.3" height="5.2"/>
<g>
	<polygon class="st57" points="1595.5,1935.2 1709.7,1825.9 1739.5,1838.4 1640.2,1935.2 	"/>
	<path d="M1640.2,1936h-44.7l-0.6-1.5l114.2-109.2l0.9-0.2l29.8,12.4l0.3,1.4l-99.3,96.8L1640.2,1936z M1597.7,1934.3h42.2
		l98.1-95.7l-28.1-11.7L1597.7,1934.3z"/>
</g>
<polygon points="1720.9,1943.9 1691.1,1941.4 1785.4,1849.5 1807.7,1859.5 "/>
<polygon points="1790.4,1943.9 1775.5,1943.9 1850.2,1869.6 1859.9,1874.4 "/>
<g>
	<polygon points="1409.3,1873.1 1463.9,1845.8 1431.6,1803.6 1419.2,1803.6 	"/>
	<path d="M1409.7,1873.9l-1.2-0.9l9.9-69.5l0.9-0.7h12.4l0.7,0.3l32.3,42.2l-0.3,1.3L1409.7,1873.9z M1420,1804.5l-9.6,67.1
		l52.2-26.1l-31.4-41H1420z"/>
</g>
<polygon points="1578.1,1862.4 1463.9,1862.4 1463.9,1859 1577.3,1859 1614,1817.3 1616.6,1819.6 1579.4,1861.8 "/>
<g>
	<polygon points="1944.3,1906.6 1914.5,1919 1902.1,1951.3 2016.3,1956.3 1993.9,1931.4 	"/>
	<path d="M2016.2,1958l-114.2-5l-1.5-2.4l12.4-32.3l1-1l29.8-12.4l1.4,0l49.6,24.8l0.5,0.4l22.3,24.8L2016.2,1958z M1904.6,1949.7
		l107.7,4.7l-19.4-21.5l-48.6-24.3l-28.4,11.8L1904.6,1949.7z"/>
</g>
<g>
	<polygon points="1730.8,1271.1 1775.5,1732.9 1820.2,1678.2 1820.2,1340.6 	"/>
	<path d="M1774.1,1737.2l-45.5-469.9l93.2,72.5v339.1l-0.4,0.5L1774.1,1737.2z M1732.9,1275l43.9,453.5l41.6-50.9v-336.1
		L1732.9,1275z"/>
</g>
<g>
	<polygon points="1375.8,1196.6 1375.8,1020.4 1398.1,1045.2 1398.1,1221.5 	"/>
	<path d="M1396.8,1222.6l-22.3-24.8l-0.4-1.2v-176.3l3-1.2l22.3,24.8l0.4,1.2v176.3L1396.8,1222.6z M1377.5,1196l18.9,21v-171.1
		l-18.9-21V1196z"/>
</g>
<g>
	<polygon points="1450.3,1196.6 1450.3,1196.6 1475.1,1221.5 1475.1,1583.9 1450.3,1583.9 	"/>
	<path d="M1475.1,1585.6h-24.8l-1.7-1.7v-387.3l3-1.2l24.8,24.8l0.5,1.2v362.4L1475.1,1585.6z M1452,1582.2h21.4v-360l-21.4-21.4
		V1582.2z"/>
</g>
<g>
	<polygon points="1333.6,1295.9 1408.1,1370.4 1408.1,1457.3 1331.1,1534.3 1358.4,1534.3 1427.9,1464.7 1427.9,1365.4 
		1358.4,1295.9 	"/>
	<path d="M1359.1,1536h-32.2l79.4-79.4v-85.4l-76.9-76.9h29.7l70.5,70.5v100.7L1359.1,1536z M1335.3,1532.5h22.4l68.5-68.5v-97.9
		l-68.5-68.5h-19.9l72,72v88.3L1335.3,1532.5z"/>
</g>
<polygon points="1044.3,1535.5 1042,1533 1115.9,1464 1115.9,1371.1 1039.5,1297.2 1041.9,1294.7 1118.8,1369.2 1119.4,1370.4 
	1119.4,1464.7 1118.8,1466 "/>
<g>
	<rect x="593.8" y="1238.8" width="32.3" height="144"/>
	<path d="M626.1,1384.6h-32.3l-1.7-1.7v-144l1.7-1.7h32.3l1.7,1.7v144L626.1,1384.6z M595.6,1381.1h28.8v-140.5h-28.8V1381.1z"/>
</g>
<g>
	<polygon points="124.6,1353 601.3,1323.2 601.3,1382.8 124.6,1382.8 	"/>
	<path d="M601.3,1384.6H124.6l-1.7-1.7V1353l1.6-1.7l476.6-29.8l1.8,1.7v59.6L601.3,1384.6z M126.4,1381.1h473.2v-56l-473.2,29.6
		V1381.1z"/>
</g>
<path d="M524.6,1344.8l-2-1.7v-104.3l1.7-1.7h34.8l1.7,1.7v99.3l-1.5,1.7L524.6,1344.8z M526,1240.6v100.5l31.3-4.5v-96.1H526z"/>
<rect x="485.2" y="1241.3" width="8.7" height="101.8"/>
<polygon points="190.4,1053.9 258.7,1246.3 297.2,1237.6 211.5,1057.6 "/>
<g>
	<polyline points="377.8,1010.5 385.3,1047.7 363,1047.7 	"/>
	<polygon points="385.3,1050.3 363,1050.3 363,1045.1 382.1,1045.1 375.3,1011 380.4,1009.9 387.8,1047.2 	"/>
</g>
<polygon points="338,1094.1 313.1,1091.6 311.9,1091 302.6,1078.1 304.1,1076.9 314.7,1088.8 313.5,1088.2 338.3,1090.7 "/>
<g>
	<polygon class="st57" points="382.4,983.2 358.1,1037.8 291.4,1037.8 312.6,983.2 	"/>
	<path d="M358.1,1039.5h-66.8l-1.6-2.4l21.2-54.6l1.6-1.1h69.8l1.6,2.4l-24.3,54.6L358.1,1039.5z M293.9,1036H357l22.7-51.1h-65.9
		L293.9,1036z"/>
</g>
<g>
	<defs>
		<polygon id="SVGID_29_" points="382.4,983.2 358.1,1037.8 291.4,1037.8 312.6,983.2 		"/>
	</defs>
	<clipPath id="SVGID_2_">
		<use xlink:href="#SVGID_29_"  style="overflow:visible;"/>
	</clipPath>
	<g class="st43">
		<path d="M337.7,1112l-77.1-73.8l0-1.2l89.2-93.3l1.2,0l77.1,73.8l0,1.2l-89.2,93.3L337.7,1112z M262.4,1037.6l75.9,72.6l88-92
			l-75.9-72.6L262.4,1037.6z"/>
		<rect x="248.9" y="997.5" transform="matrix(0.6913 -0.7226 0.7226 0.6913 -624.579 534.675)" width="129.1" height="1.7"/>
		<rect x="256.6" y="1004.8" transform="matrix(0.6913 -0.7226 0.7226 0.6913 -627.5283 542.526)" width="129.1" height="1.7"/>
		<rect x="264.4" y="1012.2" transform="matrix(0.6913 -0.7226 0.7226 0.6913 -630.4787 550.3779)" width="129.1" height="1.7"/>
		<rect x="272.1" y="1019.6" transform="matrix(0.6913 -0.7226 0.7226 0.6913 -633.4279 558.2292)" width="129.1" height="1.7"/>
		<rect x="279.8" y="1027" transform="matrix(0.6913 -0.7226 0.7226 0.6913 -636.3784 566.0809)" width="129.1" height="1.7"/>
		<rect x="287.5" y="1034.3" transform="matrix(0.6913 -0.7226 0.7226 0.6913 -639.3282 573.9322)" width="129.1" height="1.7"/>
		<rect x="295.2" y="1041.7" transform="matrix(0.6913 -0.7226 0.7226 0.6913 -642.278 581.7838)" width="129.1" height="1.7"/>
		<rect x="302.9" y="1049.1" transform="matrix(0.6913 -0.7226 0.7226 0.6913 -645.2278 589.6354)" width="129.1" height="1.7"/>
		<rect x="310.6" y="1056.5" transform="matrix(0.6913 -0.7226 0.7226 0.6913 -648.1777 597.4867)" width="129.1" height="1.7"/>
	</g>
</g>
<g>
	<polygon class="st59" points="317,952.1 277.3,1021.6 197.9,1039 240.1,952.1 	"/>
	<path d="M198.1,1039.9l-1-1.2l42.2-86.9l0.8-0.5h77l0.8,1.3l-39.7,69.5l-0.6,0.4L198.1,1039.9z M240.6,953l-41.2,84.8l77.3-16.9
		l38.8-67.9H240.6z"/>
</g>
<g>
	<polygon class="st0" points="303.4,1005.5 231.4,995.6 221.5,1012.9 211.5,1010.5 223.9,983.2 315.8,983.2 310.8,985.6 	"/>
	<path d="M221,1014.6l-9.9-2.5l-1.2-2.4l12.4-27.3l1.6-1h91.9l0.8,3.3l-4.4,2.2l-7.2,19.2l-1.9,1.1l-70.8-9.8l-9.3,16.4L221,1014.6z
		 M214,1009.3l6.6,1.7l9.3-16.2l1.7-0.9l70.6,9.7l7.1-18.7h-84.3L214,1009.3z"/>
</g>
<g>
	<polyline points="405.2,955.8 406.7,952.1 430,903.7 529.3,926.1 506.9,950.9 	"/>
	<polygon points="406.8,956.5 403.5,955.2 405.1,951.5 428.4,903 430.4,902 529.7,924.4 530.6,927.2 508.2,952 505.6,949.7 
		526,927.1 430.9,905.7 408.2,952.9 	"/>
</g>
<g>
	<path class="st60" d="M363.3,270.9L309.2,460h-13l-44.4-149.3c-3.7-12.4-6.4-22.1-8-29.2c-1.6,6.7-4.3,16.6-8.2,29.7L192.3,460h-13
		l-55-189.1h12.2l41.7,145c3.7,12.9,6.4,23.6,8,31.9c0.9-5.5,3.5-15.9,8-31.3l42.8-145.6H251l43.8,146.9c2.8,9.6,5.5,19.6,8,30
		c1.6-8.7,4.1-18.7,7.4-30l41.7-146.9H363.3z"/>
	<path class="st60" d="M394.9,270.9V346l-0.3,8.8c3.9-10.4,10-18.8,18.2-25c8.2-6.2,18.5-9.3,30.7-9.3c16.1,0,28.2,4.7,36.4,14.1
		c8.1,9.4,12.2,22.1,12.2,38.3V460h-10.6v-85.5c0-13.6-3.2-24.5-9.7-32.7c-6.5-8.1-16.6-12.2-30.4-12.2c-11.3,0-20.8,3.4-28.4,10.2
		c-7.6,6.8-12.8,15.8-15.7,27c-1.6,6.4-2.4,14.4-2.4,24.2V460h-10.6V270.9H394.9z"/>
	<path class="st60" d="M646,450.4v8.5c-3,1.1-6.6,1.6-10.9,1.6c-6,0-10.1-1.6-12.4-4.9c-2.2-3.3-3.3-9.3-3.3-17.9V431
		c-5.8,11.3-12.9,19.6-21.3,24.8c-8.3,5.2-19,7.8-31.9,7.8c-14.2,0-25.2-3.4-33.1-10.1c-7.9-6.7-11.8-16-11.8-27.9
		c0-25,17.4-38.9,52.1-41.7c18.2-1.4,29.6-2.6,34-3.6c4.4-1,7.5-2.9,9.3-5.7c1.2-1.9,1.9-6.6,1.9-14.1c0-10.3-3.3-18.1-9.8-23.4
		c-6.6-5.3-16.1-8-28.7-8c-25.3,0-39,12.1-41.2,36.4h-10.1c0.9-14.7,5.8-25.9,14.9-33.7c9-7.8,21.5-11.7,37.5-11.7
		c18.2,0,31.7,4.9,40.4,14.6c2.5,2.8,4.3,6.2,5.6,10.2c1.2,4,1.9,7.2,2,9.7c0.1,2.5,0.1,6.4,0.1,11.7v70.4c0,2.7,0,4.6,0.1,5.8
		c0.1,1.2,0.4,2.7,1.1,4.3c0.6,1.6,1.6,2.7,3.1,3.5c1.4,0.7,3.3,1.1,5.6,1.1C640.8,451.5,643.1,451.1,646,450.4z M618.9,383
		c-2.7,2.3-5.8,4-9.3,5c-5.5,1.8-15.2,3.4-29.2,4.8c-14,1.4-24.5,3.7-31.6,6.9c-10.6,4.8-15.9,13.1-15.9,25c0,9.2,3.2,16.5,9.6,21.8
		c6.4,5.3,15,8,25.8,8c14.5,0,26.6-4.5,36.3-13.5c9.6-9,14.5-20.4,14.5-34V383z"/>
	<path class="st60" d="M717.9,324v9.3h-29.2v92.2c0,4.1,0,6.9,0.1,8.4c0.1,1.5,0.4,3.7,0.9,6.5c0.5,2.8,1.4,4.8,2.7,6
		c1.2,1.2,3.1,2.2,5.4,3.2c2.4,1,5.4,1.5,8.9,1.5c3,0,6.7-0.4,11.2-1.1v9.8c-5.1,0.7-9.4,1.1-12.8,1.1c-5.3,0-9.7-0.7-13.3-2.1
		c-3.5-1.4-6.2-3-8.1-4.6c-1.9-1.7-3.2-4.4-4.1-8.2c-0.9-3.8-1.4-6.9-1.5-9.4c-0.1-2.5-0.1-6.5-0.1-12c0-1.4,0-2.5,0-3.2v-87.9
		h-25.2V324h25.2v-42.8h10.6V324H717.9z"/>
	<path class="st60" d="M762,270.9v22.6c0,9.6-1.1,17.6-3.3,24.2c-2.2,6.6-6.8,11.3-13.7,14.3v-9c5.8-3.7,8.9-12,9-25h-5.3v-27.1H762
		z"/>
	<path class="st60" d="M903.1,363.6h-10.9c-1.1-12-5.1-20.7-12.1-26c-7-5.3-17-8-29.9-8c-11.3,0-20.3,2.4-27,7.2s-10,11.2-10,19.4
		c0,2.1,0.2,4.1,0.7,5.8c0.4,1.8,1,3.3,1.6,4.6c0.6,1.3,1.6,2.7,3.1,4c1.4,1.3,2.6,2.4,3.5,3.2c0.9,0.8,2.4,1.7,4.6,2.7
		c2.2,1,3.9,1.7,4.9,2.1c1.1,0.4,3,1,5.8,1.7c2.8,0.7,4.8,1.2,6,1.6c1.1,0.4,3.4,0.9,6.6,1.6c3.3,0.7,5.4,1.2,6.5,1.3
		c6.5,1.4,11.2,2.5,14.1,3.3c2.8,0.8,7.1,2.3,12.8,4.5c5.7,2.2,9.9,4.5,12.6,6.9c2.7,2.4,5.3,5.7,7.6,10c2.3,4.3,3.5,9.1,3.5,14.6
		c0,12-4.9,21.7-14.7,29.1s-22.8,11-38.9,11c-17.2,0-30.7-4.4-40.6-13.1c-9.9-8.8-14.9-21-14.9-36.8h10.6c0,13.5,3.9,23.6,11.8,30.3
		c7.9,6.7,19.1,10.1,33.6,10.1c12.6,0,22.8-2.7,30.7-8.2c7.9-5.5,11.8-12.8,11.8-21.8c0-3.9-0.9-7.4-2.8-10.5
		c-1.9-3.1-3.9-5.6-6-7.4c-2.1-1.9-5.4-3.6-9.7-5.3c-4.3-1.7-7.6-2.8-9.8-3.3c-2.2-0.5-5.7-1.3-10.5-2.4c-1.6-0.4-2.7-0.6-3.5-0.8
		c-1.2-0.4-3.7-0.9-7.3-1.7c-3.6-0.8-6.3-1.4-8.1-1.7c-1.8-0.4-4.3-1-7.7-2c-3.4-1-5.9-1.9-7.7-2.8c-1.8-0.9-4-2-6.6-3.3
		c-2.7-1.3-4.7-2.8-6.1-4.5c-1.4-1.7-2.9-3.6-4.4-5.7c-1.5-2.1-2.6-4.5-3.2-7.2c-0.6-2.7-0.9-5.6-0.9-8.8c0-11.5,4.4-20.5,13.1-27.1
		c8.8-6.5,20.9-9.8,36.5-9.8c15.8,0,28.2,3.7,37.3,11C898.2,338.6,902.9,349.4,903.1,363.6z"/>
</g>
<g>
	<path d="M351,533.5v152.6c0,67.7-33.8,101.5-101.5,101.5c-35.2,0-61.2-8.4-77.9-25.2c-16.7-16.8-25-42.5-25-77V533.5h43.8v160.7
		c0,38.3,20,57.4,59.9,57.4c12.1,0,22.1-1.6,29.9-4.9c7.8-3.3,13.6-8.3,17.3-15.1c3.7-6.8,6.3-14.1,7.7-21.9
		c1.4-7.8,2.1-17.6,2.1-29.2v-147H351z"/>
	<path d="M410.8,533.5H519c26.8,0,48,6.4,63.5,19.1c15.5,12.7,23.3,31.7,23.3,56.9c0,23.8-7.2,42.6-21.7,56.5
		c-14.5,13.9-34.2,20.8-59.2,20.8h-70.4v95.9h-43.8V533.5z M454.6,569.9v81.6h60.9c31.7,0,47.6-13.7,47.6-41
		c0-27.1-17.2-40.6-51.5-40.6H454.6z"/>
	<path d="M702.7,713.8c0-15.2,1.6-27.5,4.7-36.9c3.2-9.5,9.6-18.7,19.4-27.8c0.9-0.9,3.2-3,6.8-6.1c3.6-3.2,6-5.3,7.2-6.5
		c1.2-1.2,3.2-3.2,6-6.1c2.8-2.9,4.7-5.3,5.8-7.2c1.1-1.9,2.3-4.3,3.9-7.2c1.5-2.9,2.6-5.8,3.2-8.8c0.6-2.9,0.9-6,0.9-9.3
		c0-10.3-3.4-18.7-10.2-25.2c-6.8-6.5-15.5-9.8-26.3-9.8c-27.3,0-41.4,16.6-42.4,49.7h-40.3c1.2-25.9,8.8-46.4,22.8-61.4
		c14-15.1,34.2-22.6,60.6-22.6c23.6,0,42.5,6.4,56.9,19.1c14.4,12.7,21.5,29.5,21.5,50.2c0,7.7-0.8,14.6-2.5,20.7
		c-1.6,6.1-4.6,11.8-8.8,17.2c-4.2,5.4-7.9,9.7-11.2,13c-3.3,3.3-8.5,7.9-15.8,14c-11.7,10-18.7,17.3-21,21.9
		c-2.3,4.6-3.5,14.3-3.5,29.2H702.7z M698.9,782.7v-44.5H744v44.5H698.9z"/>
</g>
</svg>
