<?xml version="1.0" encoding="utf-8"?>
<!-- Generator: Adobe Illustrator 22.1.0, SVG Export Plug-In . SVG Version: 6.00 Build 0)  -->
<svg version="1.1" id="Слой_1" xmlns="http://www.w3.org/2000/svg" xmlns:xlink="http://www.w3.org/1999/xlink" x="0px" y="0px"
	 viewBox="0 0 2080 2080" style="enable-background:new 0 0 2080 2080;" xml:space="preserve">
<style type="text/css">
	.st0{fill:#FFFFFF;}
	.st1{fill:#C8C6E5;}
	.st2{fill:#FDAC40;}
	.st3{fill:#EBCAA0;}
	.st4{fill:none;stroke:#FDAC40;stroke-width:4;stroke-linecap:round;stroke-miterlimit:10;}
	.st5{fill:none;stroke:#826DFD;stroke-width:4;stroke-linecap:round;stroke-linejoin:round;stroke-miterlimit:10;}
	.st6{fill:#826DFD;}
	.st7{fill:none;stroke:#000000;stroke-width:6;stroke-linecap:round;stroke-miterlimit:10;}
	.st8{fill:none;stroke:#000000;stroke-width:3;stroke-linecap:round;stroke-miterlimit:10;}
	.st9{fill:none;stroke:#000000;stroke-width:4;stroke-linecap:round;stroke-linejoin:round;stroke-miterlimit:10;}
	.st10{fill:none;stroke:#000000;stroke-width:6;stroke-linecap:round;stroke-linejoin:round;stroke-miterlimit:10;}
	.st11{fill:none;stroke:#000000;stroke-width:3;stroke-miterlimit:10;}
	.st12{fill:none;stroke:#000000;stroke-width:7;stroke-linecap:round;stroke-miterlimit:10;}
	.st13{fill:none;stroke:#000000;stroke-width:3;stroke-linecap:round;stroke-linejoin:round;stroke-miterlimit:10;}
	.st14{fill:none;stroke:#000000;stroke-width:5;stroke-miterlimit:10;}
	.st15{fill:none;stroke:#000000;stroke-width:2;stroke-linecap:round;stroke-linejoin:round;stroke-miterlimit:10;}
	.st16{fill:none;stroke:#000000;stroke-width:8;stroke-linecap:round;stroke-linejoin:round;stroke-miterlimit:10;}
	.st17{fill:none;stroke:#000000;stroke-width:3;stroke-linejoin:round;stroke-miterlimit:10;}
	.st18{fill:none;stroke:#000000;stroke-width:5;stroke-linecap:round;stroke-linejoin:round;stroke-miterlimit:10;}
	.st19{fill:none;stroke:#000000;stroke-width:2;stroke-miterlimit:10;}
	.st20{fill:none;stroke:#000000;stroke-width:2;stroke-linecap:round;stroke-miterlimit:10;}
	.st21{stroke:#000000;stroke-width:5;stroke-linecap:round;stroke-linejoin:round;stroke-miterlimit:10;}
	.st22{stroke:#000000;stroke-width:3;stroke-linecap:round;stroke-linejoin:round;stroke-miterlimit:10;}
	.st23{fill:none;stroke:#8378BF;stroke-width:5;stroke-linecap:round;stroke-linejoin:round;stroke-miterlimit:10;}
	.st24{fill:none;stroke:#826DFD;stroke-width:3;stroke-linecap:round;stroke-linejoin:round;stroke-miterlimit:10;}
	.st25{fill:none;stroke:#FDAC40;stroke-width:3;stroke-linecap:round;stroke-linejoin:round;stroke-miterlimit:10;}
	.st26{fill:none;stroke:#FDAC40;stroke-width:7;stroke-miterlimit:10;}
	.st27{fill:none;stroke:#000000;stroke-width:11;stroke-linecap:round;stroke-linejoin:round;stroke-miterlimit:10;}
	.st28{fill:none;stroke:#333333;stroke-width:5;stroke-linecap:round;stroke-miterlimit:10;stroke-dasharray:20;}
	.st29{fill:#FADC8C;}
	.st30{fill:none;stroke:#333333;stroke-width:5;stroke-linecap:round;stroke-miterlimit:10;stroke-dasharray:44.5321,44.5321;}
	.st31{fill:#333333;}
	.st32{fill:#F29F76;}
	.st33{fill:#7BD9E5;}
	.st34{fill:none;}
	.st35{fill:#65C8D0;}
	.st36{fill:#7BD9E5;stroke:#7BD9E5;stroke-miterlimit:10;}
	.st37{fill:none;stroke:#333333;stroke-linecap:round;stroke-linejoin:round;stroke-miterlimit:10;}
	.st38{fill:#7BD9E5;stroke:#333333;stroke-miterlimit:10;}
	.st39{fill:#8FACCC;}
	.st40{fill:#F9E958;}
	.st41{fill:#231F20;}
	.st42{fill:none;stroke:#333333;stroke-width:3;stroke-linecap:round;stroke-miterlimit:10;}
	.st43{clip-path:url(#SVGID_2_);}
	.st44{clip-path:url(#SVGID_4_);}
	.st45{clip-path:url(#SVGID_6_);}
	.st46{clip-path:url(#SVGID_8_);}
	.st47{clip-path:url(#SVGID_10_);}
	.st48{clip-path:url(#SVGID_12_);}
	.st49{clip-path:url(#SVGID_14_);}
	.st50{clip-path:url(#SVGID_16_);}
	.st51{clip-path:url(#SVGID_18_);}
	.st52{clip-path:url(#SVGID_20_);}
	.st53{clip-path:url(#SVGID_22_);}
	.st54{clip-path:url(#SVGID_24_);}
	.st55{clip-path:url(#SVGID_26_);}
	.st56{clip-path:url(#SVGID_28_);}
	.st57{fill:#FF7300;}
	.st58{clip-path:url(#SVGID_30_);}
	.st59{fill:#020100;}
	.st60{fill:#FF6D00;}
	.st61{clip-path:url(#SVGID_32_);}
	.st62{clip-path:url(#SVGID_34_);fill:none;stroke:#2C1017;stroke-width:3.4838;stroke-miterlimit:10;}
	.st63{clip-path:url(#SVGID_36_);fill:none;stroke:#2C1017;stroke-width:3.4838;stroke-miterlimit:10;}
	.st64{clip-path:url(#SVGID_38_);fill:none;stroke:#2C1017;stroke-width:3.4838;stroke-miterlimit:10;}
	.st65{clip-path:url(#SVGID_40_);fill:none;stroke:#2C1017;stroke-width:3.4838;stroke-miterlimit:10;}
	.st66{clip-path:url(#SVGID_32_);fill:none;stroke:#231F20;stroke-width:2.6129;stroke-miterlimit:10;}
	.st67{clip-path:url(#SVGID_42_);fill:none;stroke:#231F20;stroke-width:0.871;stroke-miterlimit:10;}
	.st68{clip-path:url(#SVGID_44_);fill:none;stroke:#231F20;stroke-width:0.871;stroke-miterlimit:10;}
	.st69{clip-path:url(#SVGID_46_);fill:#231F20;}
	.st70{clip-path:url(#SVGID_46_);fill:none;stroke:#231F20;stroke-width:2.6129;stroke-miterlimit:10;}
	.st71{clip-path:url(#SVGID_46_);fill:#FFFFFF;}
	.st72{clip-path:url(#SVGID_46_);fill:none;stroke:#231F20;stroke-width:1.7419;stroke-miterlimit:10;}
	.st73{clip-path:url(#SVGID_48_);fill:#231F20;}
	.st74{clip-path:url(#SVGID_48_);fill:#FFFFFF;}
	.st75{fill:none;stroke:#000000;stroke-width:1.5;stroke-miterlimit:10;}
	.st76{fill:none;stroke:#000000;stroke-miterlimit:10;}
	.st77{fill:none;stroke:#000000;stroke-width:0.75;stroke-miterlimit:10;}
	.st78{stroke:#000000;stroke-miterlimit:10;}
	.st79{clip-path:url(#SVGID_49_);}
	.st80{clip-path:url(#SVGID_50_);}
	.st81{clip-path:url(#SVGID_51_);}
	.st82{clip-path:url(#SVGID_52_);}
	.st83{fill:none;stroke:#000000;stroke-width:0.25;stroke-miterlimit:10;}
	.st84{clip-path:url(#SVGID_53_);}
	.st85{fill:none;stroke:#000000;stroke-width:0.5;stroke-miterlimit:10;}
	.st86{clip-path:url(#SVGID_54_);}
	.st87{clip-path:url(#SVGID_55_);}
	.st88{clip-path:url(#SVGID_56_);}
	.st89{clip-path:url(#SVGID_57_);}
	.st90{clip-path:url(#SVGID_58_);}
	.st91{clip-path:url(#SVGID_59_);}
	.st92{clip-path:url(#SVGID_60_);}
	.st93{clip-path:url(#SVGID_61_);}
	.st94{clip-path:url(#SVGID_62_);}
	.st95{clip-path:url(#SVGID_63_);}
	.st96{clip-path:url(#SVGID_64_);}
	.st97{clip-path:url(#SVGID_65_);}
	.st98{stroke:#000000;stroke-width:0.75;stroke-miterlimit:10;}
	.st99{clip-path:url(#SVGID_67_);}
	.st100{clip-path:url(#SVGID_69_);}
	.st101{fill:none;stroke:#000000;stroke-width:6;stroke-miterlimit:10;}
	.st102{clip-path:url(#SVGID_71_);}
	.st103{clip-path:url(#SVGID_73_);}
	.st104{stroke:#000000;stroke-width:0.5;stroke-miterlimit:10;}
	.st105{clip-path:url(#SVGID_75_);}
	.st106{clip-path:url(#SVGID_77_);}
	.st107{stroke:#000000;stroke-width:0.25;stroke-miterlimit:10;}
	.st108{clip-path:url(#SVGID_79_);}
	.st109{clip-path:url(#SVGID_80_);}
	.st110{clip-path:url(#SVGID_81_);}
	.st111{clip-path:url(#SVGID_82_);}
	.st112{clip-path:url(#SVGID_83_);}
	.st113{clip-path:url(#SVGID_84_);}
	.st114{clip-path:url(#SVGID_86_);}
	.st115{stroke:#000000;stroke-linecap:round;stroke-linejoin:round;stroke-miterlimit:10;}
	.st116{clip-path:url(#SVGID_88_);}
	.st117{fill:none;stroke:#000000;stroke-width:0.25;stroke-linecap:round;stroke-linejoin:round;stroke-miterlimit:10;}
	.st118{stroke:#000000;stroke-width:0.25;stroke-linecap:round;stroke-linejoin:round;stroke-miterlimit:10;}
	.st119{clip-path:url(#SVGID_90_);}
	.st120{clip-path:url(#SVGID_92_);}
	.st121{clip-path:url(#SVGID_94_);}
	.st122{clip-path:url(#SVGID_96_);}
	.st123{fill:#F3E0B5;}
	.st124{clip-path:url(#SVGID_98_);}
	.st125{fill:#F7E7C5;}
	.st126{fill:none;stroke:#FFFFFF;stroke-width:3;stroke-miterlimit:10;}
	.st127{clip-path:url(#SVGID_100_);}
	.st128{fill:none;stroke:#FFFFFF;stroke-width:2;stroke-miterlimit:10;}
	.st129{fill:none;stroke:#FFFFFF;stroke-width:30;stroke-miterlimit:10;}
	.st130{fill:#FFFFFF;stroke:#FFFFFF;stroke-miterlimit:10;}
	.st131{stroke:#FFFFFF;stroke-miterlimit:10;}
	.st132{clip-path:url(#SVGID_102_);}
	.st133{fill:none;stroke:#FFFFFF;stroke-width:7;stroke-miterlimit:10;}
	.st134{fill:none;stroke:#FFFFFF;stroke-width:19;stroke-miterlimit:10;}
	.st135{fill:none;stroke:#FFFFFF;stroke-width:11;stroke-miterlimit:10;}
	.st136{fill:#FFFFFF;stroke:#FFFFFF;stroke-width:7;stroke-linecap:round;stroke-linejoin:round;stroke-miterlimit:10;}
	.st137{fill:none;stroke:#FFFFFF;stroke-width:0.5;stroke-miterlimit:10;}
	.st138{clip-path:url(#SVGID_104_);}
	.st139{fill:none;stroke:#FFFFFF;stroke-width:8;stroke-miterlimit:10;}
	.st140{fill:none;stroke:#FFFFFF;stroke-width:10;stroke-linejoin:bevel;stroke-miterlimit:10;}
	.st141{clip-path:url(#SVGID_106_);}
	.st142{clip-path:url(#SVGID_108_);}
	.st143{clip-path:url(#SVGID_110_);}
	.st144{clip-path:url(#SVGID_112_);}
	.st145{stroke:#000000;stroke-width:2;stroke-miterlimit:10;}
	.st146{fill:none;stroke:#000000;stroke-width:45;stroke-miterlimit:10;}
	.st147{stroke:#FFFFFF;stroke-width:4;stroke-miterlimit:10;}
	.st148{fill:none;stroke:#FFFFFF;stroke-width:4;stroke-miterlimit:10;}
	.st149{fill:#FFFFFF;stroke:#FFFFFF;stroke-width:4;stroke-miterlimit:10;}
	.st150{clip-path:url(#SVGID_114_);}
	.st151{opacity:0.51;fill:#339999;stroke:#000000;stroke-width:2;stroke-miterlimit:10;}
	.st152{opacity:0.18;fill:#FFCCFF;stroke:#000000;stroke-width:2;stroke-miterlimit:10;}
	.st153{opacity:4.000000e-02;fill:#FFCCFF;stroke:#000000;stroke-width:2;stroke-miterlimit:10;}
	.st154{opacity:0.18;fill:#003333;stroke:#000000;stroke-width:2;stroke-miterlimit:10;}
	.st155{opacity:0.46;fill:#99FFFF;stroke:#000000;stroke-width:2;stroke-miterlimit:10;}
	.st156{opacity:0.18;fill:#CC99FF;stroke:#000000;stroke-width:2;stroke-miterlimit:10;}
	.st157{opacity:0.47;fill:#FFCCFF;stroke:#000000;stroke-width:2;stroke-miterlimit:10;}
	.st158{opacity:0.11;fill:#333399;stroke:#000000;stroke-width:2;stroke-miterlimit:10;}
	.st159{opacity:0.11;fill:#99FFFF;stroke:#000000;stroke-width:2;stroke-miterlimit:10;}
	.st160{opacity:0.18;fill:#9999FF;stroke:#000000;stroke-width:2;stroke-miterlimit:10;}
	.st161{opacity:0.18;fill:none;stroke:#000000;stroke-width:2;stroke-miterlimit:10;}
	.st162{opacity:0.68;fill:#FFFFFF;}
	.st163{opacity:0.18;fill:#6666FF;stroke:#000000;stroke-width:2;stroke-miterlimit:10;}
	.st164{fill:#FFFFFF;stroke:#000000;stroke-width:2;stroke-miterlimit:10;}
	.st165{fill:none;stroke:#000000;stroke-width:0.5;stroke-linecap:round;stroke-linejoin:round;}
	.st166{opacity:0.36;fill:#FFFFFF;stroke:#000000;stroke-width:0.5;stroke-linecap:round;stroke-linejoin:round;}
	.st167{opacity:0.37;fill:#CCFFFF;stroke:#000000;stroke-width:0.5;stroke-linecap:round;stroke-linejoin:round;}
	.st168{opacity:0.69;fill:#E6FFFE;stroke:#000000;stroke-width:0.5;stroke-linecap:round;stroke-linejoin:round;}
	.st169{opacity:0.8;fill:#FFFFFF;stroke:#000000;stroke-width:0.5;stroke-linecap:round;stroke-linejoin:round;}
	.st170{opacity:0.43;fill:#CCFFFF;stroke:#000000;stroke-width:0.5;stroke-linecap:round;stroke-linejoin:round;}
	.st171{opacity:0.82;fill:#FFFFFF;stroke:#000000;stroke-width:0.5;stroke-linecap:round;stroke-linejoin:round;}
	.st172{opacity:0.76;fill:#FFFFFF;stroke:#000000;stroke-width:0.5;stroke-linecap:round;stroke-linejoin:round;}
	.st173{opacity:0.47;fill:#6633CC;stroke:#000000;stroke-width:0.5;stroke-linecap:round;stroke-linejoin:round;}
	.st174{opacity:0.51;fill:#CCFFFF;stroke:#000000;stroke-width:0.5;stroke-linecap:round;stroke-linejoin:round;}
	.st175{opacity:0.4;fill:#000033;stroke:#000000;stroke-width:0.5;stroke-linecap:round;stroke-linejoin:round;}
	.st176{opacity:0.43;fill:#330033;stroke:#000000;stroke-width:0.5;stroke-linecap:round;stroke-linejoin:round;}
	.st177{opacity:0.1;fill:#9966FF;stroke:#000000;stroke-width:2;stroke-miterlimit:10;}
	.st178{opacity:0.23;fill:#330033;stroke:#000000;stroke-width:2;stroke-miterlimit:10;}
	.st179{opacity:0.18;}
	.st180{fill:#FFCCFF;}
	.st181{opacity:0.51;}
	.st182{fill:#339999;}
	.st183{opacity:4.000000e-02;}
	.st184{fill:#003333;}
	.st185{opacity:0.46;}
	.st186{fill:#99FFFF;}
	.st187{fill:#CC99FF;}
	.st188{opacity:0.47;}
	.st189{opacity:0.11;}
	.st190{fill:#333399;}
	.st191{fill:#9999FF;}
	.st192{opacity:0.18;fill:#FFFFFF;}
	.st193{opacity:0.62;}
	.st194{fill:#6666FF;}
	.st195{opacity:0.42;}
	.st196{fill:#9C62A0;}
	.st197{fill:none;stroke:#FFFFFF;stroke-width:0.5;stroke-linecap:round;stroke-linejoin:round;}
	.st198{opacity:0.36;}
	.st199{opacity:0.37;}
	.st200{fill:#CCFFFF;}
	.st201{fill:none;stroke:#FFFFFF;stroke-width:4;stroke-linecap:round;stroke-linejoin:round;}
	.st202{opacity:0.69;}
	.st203{fill:#E6FFFE;}
	.st204{opacity:0.8;}
	.st205{opacity:0.43;}
	.st206{opacity:0.82;}
	.st207{opacity:0.76;}
	.st208{fill:#6633CC;}
	.st209{opacity:0.4;}
	.st210{fill:#000033;}
	.st211{fill:#330033;}
	.st212{opacity:0.1;}
	.st213{fill:#9966FF;}
	.st214{opacity:0.72;}
	.st215{fill:#333366;}
	.st216{fill:#E3E825;stroke:#42210B;stroke-width:10;stroke-linejoin:round;stroke-miterlimit:10;}
	.st217{fill:#C69C6D;stroke:#42210B;stroke-width:10;stroke-linejoin:round;stroke-miterlimit:10;}
	.st218{fill:#42210B;stroke:#42210B;stroke-width:10;stroke-linejoin:round;stroke-miterlimit:10;}
	.st219{fill:#E53C70;stroke:#42210B;stroke-width:10;stroke-linejoin:round;stroke-miterlimit:10;}
	.st220{fill:#F27C08;stroke:#42210B;stroke-width:10;stroke-linejoin:round;stroke-miterlimit:10;}
	.st221{fill:#AA4913;}
	.st222{fill:#D68A63;}
	.st223{fill:#EAC598;}
	.st224{fill:#F26692;}
	.st225{fill:#EDAF77;}
	.st226{fill:#FBB03B;stroke:#7A5D3B;stroke-width:12;stroke-linecap:round;stroke-miterlimit:10;}
	.st227{fill:none;stroke:#42210B;stroke-width:10;stroke-linejoin:round;stroke-miterlimit:10;}
	.st228{fill:#087F2C;stroke:#42210B;stroke-width:10;stroke-linejoin:round;stroke-miterlimit:10;}
	.st229{fill:#98D14E;}
	.st230{fill:#80A574;stroke:#071103;stroke-width:14;stroke-linejoin:round;stroke-miterlimit:10;}
	.st231{fill:#EF2E2E;stroke:#071103;stroke-width:14;stroke-linejoin:round;stroke-miterlimit:10;}
	.st232{fill:#5D7554;stroke:#051101;stroke-width:14;stroke-linejoin:round;stroke-miterlimit:10;}
	.st233{fill:none;stroke:#6B996E;stroke-width:40;stroke-linecap:round;stroke-miterlimit:10;}
	.st234{fill:none;stroke:#203316;stroke-width:14;stroke-linejoin:round;stroke-miterlimit:10;}
	.st235{fill:none;stroke:#071103;stroke-width:14;stroke-linejoin:round;stroke-miterlimit:10;}
	.st236{fill:#42210B;}
	.st237{fill:#47683E;}
	.st238{fill:#5D7554;stroke:#071103;stroke-width:14;stroke-linejoin:round;stroke-miterlimit:10;}
	.st239{fill:#E3E825;stroke:#071103;stroke-width:14;stroke-linejoin:round;stroke-miterlimit:10;}
	.st240{fill:#F4F490;}
	.st241{fill:#E53C70;stroke:#071103;stroke-width:14;stroke-linejoin:round;stroke-miterlimit:10;}
	.st242{fill:#071103;stroke:#071103;stroke-width:14;stroke-linejoin:round;stroke-miterlimit:10;}
	.st243{fill:#E53C70;stroke:#EF95B1;stroke-width:14;stroke-linecap:round;stroke-linejoin:round;stroke-miterlimit:10;}
	.st244{fill:#E3E825;stroke:#071103;stroke-width:10;stroke-linejoin:round;stroke-miterlimit:10;}
	.st245{fill:#071103;}
	.st246{fill:#FFFF00;}
	.st247{fill:none;stroke:#752525;stroke-width:4;stroke-miterlimit:10;}
	.st248{fill:none;stroke:#AA3333;stroke-width:5;stroke-miterlimit:10;}
	.st249{fill:none;stroke:#ED1C24;stroke-width:3;stroke-miterlimit:10;}
	.st250{fill:#AA3333;}
	.st251{fill:#F94B4B;}
	.st252{fill:none;stroke:#AA3333;stroke-width:9;stroke-miterlimit:10;}
	.st253{fill:#FC7E7E;}
	.st254{fill:#FC7E7E;stroke:#FC7E7E;stroke-width:7;stroke-miterlimit:10;}
	.st255{fill:none;stroke:#FC7E7E;stroke-width:9;stroke-miterlimit:10;}
	.st256{fill:none;stroke:#FCFAFA;stroke-width:4;stroke-miterlimit:10;}
	.st257{fill:#681D1D;}
	.st258{fill:#BA4FB0;}
	.st259{fill:#A068A0;}
	.st260{fill:#E0A6E0;}
	.st261{fill:none;stroke:#540E56;stroke-width:4;stroke-miterlimit:10;}
	.st262{fill:#7A347A;}
	.st263{fill:#007F82;}
	.st264{fill:#04A8A8;}
	.st265{fill:none;stroke:#764977;stroke-width:3;stroke-miterlimit:10;}
	.st266{fill:#3ECCC5;}
	.st267{fill:none;stroke:#004242;stroke-width:3;stroke-miterlimit:10;}
	.st268{fill:none;stroke:#7C0C00;stroke-width:3;stroke-miterlimit:10;}
	.st269{fill:#004242;}
	.st270{fill:#510600;}
	.st271{fill:#FF866E;}
	.st272{fill:#D30B0B;}
	.st273{fill:none;stroke:#F200FF;stroke-width:3;stroke-miterlimit:10;}
	.st274{fill:none;stroke:#F200FF;stroke-miterlimit:10;}
	.st275{fill:none;stroke:#04070F;stroke-width:3;stroke-miterlimit:10;}
	.st276{fill:#005654;}
</style>
<rect x="-7911" y="-6684" class="st0" width="14249" height="14249"/>
<rect class="st0" width="2080" height="2080"/>
<g>
	<defs>
		<polygon id="SVGID_3_" points="-1422,762.2 -625.5,762.2 -625.5,380.4 -691.4,380.4 -691.4,720.2 -1422,720.2 		"/>
	</defs>
	<clipPath id="SVGID_2_">
		<use xlink:href="#SVGID_3_"  style="overflow:visible;"/>
	</clipPath>
	<g class="st43">
		<path d="M-694.9,1724.4l-0.9-1.2L-1771.9,364l1.2-0.9l709.4-561.6l0.9,1.2L15.6,1161.9l-1.2,0.9L-694.9,1724.4z M-1767.7,364.5
			l1073.3,1355.8l705.8-558.8L-1061.9-194.3L-1767.7,364.5z"/>
	</g>
</g>
<g>
	<rect x="1396.8" y="199.5" width="21" height="49.7"/>
	<path d="M1390.4,338.2h-10.3v-35.6h10.3V338.2z M1381.7,336.6h7v-32.4h-7V336.6z"/>
	<path d="M1390.4,301.2h-10.3v-7.3h10.3V301.2z M1381.7,299.6h7v-4.1h-7V299.6z"/>
	<g>
		<polygon points="664.2,65.4 664.2,199.5 1425.8,199.5 1425.8,65.4 1413.5,65.4 1413.5,92.8 675.7,92.8 675.7,65.4 		"/>
		<polygon points="1418.7,65.4 1413.5,65.4 1413.5,60.1 675.9,60.1 675.9,65.4 670.6,65.4 670.6,54.9 1418.7,54.9 		"/>
		<path d="M1401.6,602H687.7c-9.4,0-17.1-7.7-17.1-17.1V199.5h5.3V585c0,6.5,5.3,11.8,11.8,11.8h713.9c6.5,0,11.8-5.3,11.8-11.8
			V199.5h5.3V585C1418.7,594.4,1411,602,1401.6,602z"/>
		<rect x="671.1" y="199.5" width="21" height="49.7"/>
		<polygon class="st0" points="1035.9,175.1 1035.9,164.8 1029,164.8 1044.7,149.1 1060.9,165.3 1053.1,165.3 1053.1,175.1 		"/>
		<polygon points="1032.1,249.2 1060.9,249.2 1046.5,229.1 		"/>
		<g>
			<rect x="785.7" y="199.5" width="12.3" height="399.9"/>
		</g>
		<g>
			<rect x="850.2" y="197.2" width="3.5" height="399.9"/>
		</g>
		<g>
			<rect x="791.9" y="181.5" width="60.1" height="67.7"/>
			<path d="M852.9,250.1H791v-69.5h61.9V250.1z M792.7,248.4h58.4v-66h-58.4V248.4z"/>
		</g>
		<path d="M821.9,331.2c-11.4,0-20.7-9.3-20.7-20.7c0-11.4,9.3-20.7,20.7-20.7s20.7,9.3,20.7,20.7
			C842.6,321.9,833.4,331.2,821.9,331.2z M821.9,293.3c-9.5,0-17.2,7.7-17.2,17.2c0,9.5,7.7,17.2,17.2,17.2s17.2-7.7,17.2-17.2
			C839.1,301,831.4,293.3,821.9,293.3z"/>
		<path d="M821.9,405.2c-9.3,0-18.3-1.7-27-5.1l1.3-3.3c8.2,3.2,16.9,4.8,25.7,4.8c10.4,0,18.9-1.1,29.3-6.3l1.6,3.1
			C841.8,404.1,832.8,405.2,821.9,405.2z"/>
		<path d="M821.9,417c-9.3,0-18.3-1.7-27-5.1l1.3-3.3c8.2,3.2,16.9,4.8,25.7,4.8c10.4,0,18.9-1.1,29.3-6.3l1.6,3.1
			C841.8,415.8,832.8,417,821.9,417z"/>
		<path d="M821.9,428.7c-9.3,0-18.3-1.7-27-5.1l1.3-3.3c8.2,3.2,16.9,4.8,25.7,4.8c10.4,0,18.9-1.1,29.3-6.3l1.6,3.1
			C841.8,427.6,832.8,428.7,821.9,428.7z"/>
		<path d="M821.9,381.7c-9.3,0-18.3-1.7-27-5.1l1.3-3.3c8.2,3.2,16.9,4.8,25.7,4.8c10.4,0,18.9-1.1,29.3-6.3l1.6,3.1
			C841.8,380.5,832.8,381.7,821.9,381.7z"/>
		<path d="M821.9,438.3c-9.7,0-19.2-1.8-28.2-5.3l3.8-9.8c7.8,3,16,4.6,24.4,4.6c11.8,0,19-1.6,27.7-5.9l3.5,9.4
			C841.6,437.1,833,438.3,821.9,438.3z"/>
		<path d="M821.9,393.4c-9.3,0-18.3-1.7-27-5.1l1.3-3.3c8.2,3.2,16.9,4.8,25.7,4.8c10.4,0,18.9-1.1,29.3-6.3l1.6,3.1
			C841.8,392.3,832.8,393.4,821.9,393.4z"/>
		<rect x="817.6" y="256.8" width="8.8" height="26.3"/>
		<polygon points="799.1,294.3 787.9,283.1 786.7,269.6 805.3,288.1 		"/>
		<polygon points="844.3,293.9 838.1,287.7 852.2,273.6 852.5,285.7 		"/>
		<polygon points="852,346.3 838.5,332.9 844.7,326.7 852,333.9 		"/>
		<polygon points="852.8,315.1 849.2,315.1 849.2,306.3 852.8,306.3 		"/>
		<polygon points="786.8,351.6 790.2,336 799.4,326.9 805.6,333.2 		"/>
		<rect x="808.8" y="346.8" transform="matrix(8.202849e-03 -1 1 8.202849e-03 463.9727 1170.1981)" width="26.3" height="8.8"/>
		<g>
			<path d="M1258.1,337.4v-37.2c0-3.1,3.1-5.6,6.9-5.6h24.7v8.2h-23.5v7.5h16.6v4.3h-16.6v22.8H1258.1z"/>
			<path d="M1267.1,338.2h-9.7v-38c0-3.5,3.5-6.4,7.7-6.4h25.6v9.8h-23.5v5.9h16.6v5.9h-16.6V338.2z M1259,336.6h6.5v-22.8h16.6
				v-2.6h-16.6v-9.1h23.5v-6.6H1265c-3.4,0-6.1,2.1-6.1,4.7V336.6z"/>
		</g>
		<g>
			<path d="M1297.6,294.7v28.5c0,7.9,7.9,14.3,17.7,14.3l0,0c9.8,0,17.7-6.4,17.7-14.3v-28.5h-7.8v28.7c0,4.3-4.3,7.7-9.6,7.7l0,0
				c-5.3,0-9.6-3.5-9.6-7.7v-28.7H1297.6z"/>
			<path d="M1315.3,338.2c-10.2,0-18.5-6.8-18.5-15.1v-29.3h10v29.5c0,3.8,3.9,6.9,8.8,6.9c4.8,0,8.8-3.1,8.8-6.9v-29.5h9.5v29.3
				C1333.9,331.5,1325.6,338.2,1315.3,338.2z M1298.4,295.5v27.6c0,7.4,7.6,13.5,16.9,13.5c9.3,0,16.9-6,16.9-13.5v-27.6h-6.2v27.9
				c0,4.7-4.7,8.6-10.4,8.6s-10.4-3.8-10.4-8.6v-27.9H1298.4z"/>
		</g>
		<path d="M1358.5,338.2h-3.3c-8,0-14.6-5.3-14.6-11.9v-5.4h9.7v3.8c0,2.5,2.6,4.5,5.8,4.5c3.2,0,5.8-2,5.8-4.5v-30.8h10.3V327
			C1372.3,333.2,1366.1,338.2,1358.5,338.2z M1342.3,322.5v3.8c0,5.7,5.8,10.3,12.9,10.3h3.3c6.7,0,12.2-4.3,12.2-9.7v-31.5h-7v29.2
			c0,3.4-3.3,6.2-7.4,6.2s-7.4-2.8-7.4-6.2v-2.1H1342.3z"/>
		<path d="M1376.5,576.7H972.8V351.7h418.5V562C1391.3,570.1,1384.6,576.7,1376.5,576.7z M974.6,575h401.9c7.2,0,13-5.8,13-13V353.4
			h-415V575z"/>
		<g>
			<defs>
				<path id="SVGID_25_" d="M1257.3,575.9h126.9c8.2-2,6.4-19.1,6.4-31.2V352.5h-133.2V575.9z"/>
			</defs>
			<clipPath id="SVGID_4_">
				<use xlink:href="#SVGID_25_"  style="overflow:visible;"/>
			</clipPath>
			<g class="st44">
				<path d="M1533,661h-294.1V-42H1533V661z M1242.3,657.5h287.1v-696h-287.1V657.5z"/>
				<rect x="1240.6" y="641.2" width="290.6" height="3.5"/>
				<rect x="1240.6" y="624.9" width="290.6" height="3.5"/>
				<rect x="1240.6" y="608.7" width="290.6" height="3.5"/>
				<rect x="1240.6" y="592.4" width="290.6" height="3.5"/>
				<rect x="1240.6" y="576.1" width="290.6" height="3.5"/>
				<rect x="1240.6" y="559.9" width="290.6" height="3.5"/>
				<rect x="1240.6" y="543.6" width="290.6" height="3.5"/>
				<rect x="1240.6" y="527.3" width="290.6" height="3.5"/>
				<rect x="1240.6" y="511.1" width="290.6" height="3.5"/>
				<rect x="1240.6" y="494.8" width="290.6" height="3.5"/>
				<rect x="1240.6" y="478.5" width="290.6" height="3.5"/>
				<rect x="1240.6" y="462.3" width="290.6" height="3.5"/>
				<rect x="1240.6" y="446" width="290.6" height="3.5"/>
				<rect x="1240.6" y="429.7" width="290.6" height="3.5"/>
				<rect x="1240.6" y="413.5" width="290.6" height="3.5"/>
				<rect x="1240.6" y="397.2" width="290.6" height="3.5"/>
				<rect x="1240.6" y="380.9" width="290.6" height="3.5"/>
				<rect x="1240.6" y="364.7" width="290.6" height="3.5"/>
				<rect x="1240.6" y="348.4" width="290.6" height="3.5"/>
				<rect x="1240.6" y="332.1" width="290.6" height="3.5"/>
				<rect x="1240.6" y="315.9" width="290.6" height="3.5"/>
				<rect x="1240.6" y="299.6" width="290.6" height="3.5"/>
				<rect x="1240.6" y="283.3" width="290.6" height="3.5"/>
				<rect x="1240.6" y="267.1" width="290.6" height="3.5"/>
				<rect x="1240.6" y="250.8" width="290.6" height="3.5"/>
				<rect x="1240.6" y="234.5" width="290.6" height="3.5"/>
				<rect x="1240.6" y="218.3" width="290.6" height="3.5"/>
				<rect x="1240.6" y="202" width="290.6" height="3.5"/>
				<rect x="1240.6" y="185.7" width="290.6" height="3.5"/>
				<rect x="1240.6" y="169.5" width="290.6" height="3.5"/>
				<rect x="1240.6" y="153.2" width="290.6" height="3.5"/>
				<rect x="1240.6" y="136.9" width="290.6" height="3.5"/>
				<rect x="1240.6" y="120.7" width="290.6" height="3.5"/>
				<rect x="1240.6" y="104.4" width="290.6" height="3.5"/>
				<rect x="1240.6" y="88.1" width="290.6" height="3.5"/>
				<rect x="1240.6" y="71.9" width="290.6" height="3.5"/>
				<rect x="1240.6" y="55.6" width="290.6" height="3.5"/>
				<rect x="1240.6" y="39.3" width="290.6" height="3.5"/>
				<rect x="1240.6" y="23" width="290.6" height="3.5"/>
				<rect x="1240.6" y="6.8" width="290.6" height="3.5"/>
			</g>
		</g>
		<g>
			<path d="M1417.8,134.2H671.5V55.7h746.3V134.2z M675,130.7h739.3V59.2H675V130.7z"/>
			<rect x="688.8" y="57.5" width="3.5" height="74.9"/>
			<rect x="706" y="57.5" width="3.5" height="74.9"/>
			<rect x="723.3" y="57.5" width="3.5" height="74.9"/>
			<rect x="740.6" y="57.5" width="3.5" height="74.9"/>
			<rect x="757.9" y="57.5" width="3.5" height="74.9"/>
			<rect x="775.1" y="57.5" width="3.5" height="74.9"/>
			<rect x="792.4" y="57.5" width="3.5" height="74.9"/>
			<rect x="809.7" y="57.5" width="3.5" height="74.9"/>
			<rect x="827" y="57.5" width="3.5" height="74.9"/>
			<rect x="844.2" y="57.5" width="3.5" height="74.9"/>
			<rect x="861.5" y="57.5" width="3.5" height="74.9"/>
			<rect x="878.8" y="57.5" width="3.5" height="74.9"/>
			<rect x="896.1" y="57.5" width="3.5" height="74.9"/>
			<rect x="913.3" y="57.5" width="3.5" height="74.9"/>
			<rect x="930.6" y="57.5" width="3.5" height="74.9"/>
			<rect x="947.9" y="57.5" width="3.5" height="74.9"/>
			<rect x="965.2" y="57.5" width="3.5" height="74.9"/>
			<rect x="982.4" y="57.5" width="3.5" height="74.9"/>
			<rect x="999.7" y="57.5" width="3.5" height="74.9"/>
			<rect x="1017" y="57.5" width="3.5" height="74.9"/>
			<rect x="1034.3" y="57.5" width="3.5" height="74.9"/>
			<rect x="1051.6" y="57.5" width="3.5" height="74.9"/>
			<rect x="1068.8" y="57.5" width="3.5" height="74.9"/>
			<rect x="1086.1" y="57.5" width="3.5" height="74.9"/>
			<rect x="1103.4" y="57.5" width="3.5" height="74.9"/>
			<rect x="1120.7" y="57.5" width="3.5" height="74.9"/>
			<rect x="1137.9" y="57.5" width="3.5" height="74.9"/>
			<rect x="1155.2" y="57.5" width="3.5" height="74.9"/>
			<rect x="1172.5" y="57.5" width="3.5" height="74.9"/>
			<rect x="1189.8" y="57.5" width="3.5" height="74.9"/>
			<rect x="1207" y="57.5" width="3.5" height="74.9"/>
			<rect x="1224.3" y="57.5" width="3.5" height="74.9"/>
			<rect x="1241.6" y="57.5" width="3.5" height="74.9"/>
			<rect x="1258.9" y="57.5" width="3.5" height="74.9"/>
			<rect x="1276.1" y="57.5" width="3.5" height="74.9"/>
			<rect x="1293.4" y="57.5" width="3.5" height="74.9"/>
			<rect x="1310.7" y="57.5" width="3.5" height="74.9"/>
			<rect x="1328" y="57.5" width="3.5" height="74.9"/>
			<rect x="1345.2" y="57.5" width="3.5" height="74.9"/>
			<rect x="1362.5" y="57.5" width="3.5" height="74.9"/>
			<rect x="1379.8" y="57.5" width="3.5" height="74.9"/>
			<rect x="1397.1" y="57.5" width="3.5" height="74.9"/>
		</g>
		<path d="M710,555.8c-4.4,0-8.8-1.1-12-3.4c-5.5-4-5.5-5.5-5.3-15.7c0-2.3,0.1-5.2,0.1-8.6v-15c0.1-7.1,7.5-12.5,17.3-12.5
			c5.8,0,10.9,2,14.1,5.4c2.1,2.3,3.1,5,2.9,7.7c0,2.7-2.6,2.8-3.5,2.8h-6c-2.9,0.1-3.9-1.3-4.3-2.5c-0.4-1.2-1-2.5-2.9-2.7
			c-2-0.2-3.6,1-4.1,2.4c-0.6,1.8-0.7,4-0.3,6.5c0.1,0.6,0.7,0.9,1.9,0.7c1.8-0.2,3.9-0.3,6.5-0.3c8.7,0.2,12.7,6.6,12.7,10.8
			c0,2.1,0.1,3.9,0.1,5.5c0.3,9.1,0.3,11.6-5,15.4C719,554.6,714.5,555.8,710,555.8z M710.1,502.3c-8.8,0-15.4,4.6-15.5,10.7v15
			c0,3.5-0.1,6.3-0.1,8.7c-0.2,10-0.2,10.8,4.6,14.3c6.3,4.6,16.8,3.7,22.1-0.1c4.6-3.3,4.6-4.9,4.3-13.9c0-1.6-0.1-3.4-0.1-5.6
			c0-3.6-3.5-8.9-11-9.1c-2.5,0-4.5,0.1-6.3,0.3c-2.5,0.3-3.6-0.9-3.8-2.1c-0.5-2.8-0.4-5.3,0.3-7.4c0.7-2,3-3.9,6-3.5
			c3.2,0.4,4,2.8,4.4,3.9c0.2,0.6,0.7,1.3,2.6,1.3h6c1.8-0.1,1.8-0.6,1.8-1.1c0.2-2.3-0.7-4.5-2.4-6.4
			C720.1,504.1,715.4,502.3,710.1,502.3z M709.6,546.6c-0.1,0-0.1,0-0.2,0c-2.6-0.1-4.9-2.1-5.1-4.5c-0.5-3.9-0.4-7.2,0.2-9.9l0-0.2
			c0.1-0.4,0.2-0.9,0.6-1.4c0.6-1.3,2.2-2.2,4.1-2.3c2.1-0.1,4,0.7,4.9,2.1c1.2,1.8,1.2,2.6,1.2,5.5l0,1.6c0,2.9,0,3.8-0.1,4.2
			c0,1.3-0.6,2.4-1.5,3.3C712.6,546,711,546.6,709.6,546.6z M709.7,530c-0.1,0-0.2,0-0.3,0c-1.3,0.1-2.3,0.6-2.7,1.4
			c-0.2,0.4-0.3,0.7-0.4,1l0,0.2c-0.6,2.5-0.7,5.6-0.2,9.3c0.2,1.7,1.9,2.9,3.4,3c0.9,0,2.1-0.3,3-1.2c0.6-0.6,1-1.4,1-2.2l0.1-0.3
			c0-0.5,0-2,0-3.7l0-1.6c0-2.8,0-3.2-0.9-4.6C712.1,530.5,711,530,709.7,530z"/>
		<g>
			<path d="M770,527.5v14.4c0.2,9.4-14.6,16-26.3,10.6c-5.4-2.5-8-6-7.9-10.5c0-3.4,0.1-13,0-28.7c0-2.5,0.5-4.3,1.5-5.4
				c4.1-4.8,8.9-7.1,14.5-7c2.7,0,4,0.1,3.6,0c6.9,0.4,11.5,5,12.7,6.7c1.3,1.8,1.9,3.6,1.9,5.3V527.5z M758,538.9v-21.9
				c0-2.5,0.4-4.5-2.4-6.3c-1.9-1.3-4.9-1.1-6.7,0.3c-1.6,1.3-1.9,3.7-1.9,5.5c-0.1,6.7-0.1,13.9,0,21.7c0,2.2,0.3,3.7,1.4,5.1
				c2.2,2.6,7.7,2.2,9.1-0.9C757.8,541.5,758,540.4,758,538.9z"/>
			<path d="M752.7,555.3c-3.1,0-6.3-0.6-9.4-2.1c-5.7-2.7-8.5-6.5-8.4-11.3l0-3.4c0-5,0.1-13.3,0-25.2c0-2.7,0.6-4.7,1.7-6
				c4.2-5,9.3-7.4,15.2-7.3c0,0,0,0,0,0c1.2,0,2.1,0,2.7,0c0.4,0,0.7,0,0.8,0l0,0.5l0.1-0.5c7.3,0.4,12.2,5.3,13.3,7
				c1.4,1.9,2.1,3.8,2.1,5.8v29c0.1,3.8-2.1,7.4-6.1,10C761.8,553.9,757.4,555.3,752.7,555.3z M751.3,501.8c-5.1,0-9.6,2.2-13.3,6.7
				c-0.9,1-1.3,2.6-1.3,4.8c0.1,12,0,20.3,0,25.2l0,3.4c-0.1,4.1,2.3,7.3,7.4,9.7c7.2,3.4,15.2,1.8,19.8-1.2
				c3.5-2.3,5.3-5.3,5.3-8.5v-29c0-1.6-0.6-3.2-1.8-4.8c-1-1.5-5.4-5.9-11.9-6.3c-0.3,0-0.6,0-1,0c-0.6,0-1.5,0-2.7,0
				C751.6,501.8,751.4,501.8,751.3,501.8z M752.6,545.9c-2,0-3.8-0.7-4.9-2c-1.4-1.6-1.6-3.4-1.6-5.7c-0.1-7.8-0.1-15.1,0-21.7
				c0-2.9,0.8-5,2.2-6.2c2.2-1.7,5.5-1.8,7.7-0.4c2.9,1.8,2.9,4,2.8,6.2l0,0.8v21.9c0,1.5-0.2,2.7-0.6,3.8c-0.8,1.7-2.5,2.8-4.7,3.1
				C753.3,545.9,753,545.9,752.6,545.9z M752.5,510.7c-1.1,0-2.2,0.3-3.1,1c-1,0.9-1.6,2.5-1.6,4.9c-0.1,6.7-0.1,13.9,0,21.7
				c0,2.2,0.3,3.5,1.2,4.5c0.9,1.1,2.6,1.6,4.4,1.3c1.6-0.2,2.8-1,3.3-2c0.3-0.8,0.4-1.9,0.4-3.2l0-22.8c0-2.1,0.1-3.4-2-4.7
				C754.4,510.9,753.5,510.7,752.5,510.7z"/>
		</g>
		<rect x="673.2" y="248.4" width="79.6" height="1.8"/>
		<rect x="1257.3" y="248.4" width="158.8" height="1.8"/>
		<g>
			<rect x="791.9" y="501.4" width="60.1" height="98"/>
			<path d="M852.9,600.3H791v-99.7h61.9V600.3z M792.7,598.5h58.4v-96.2h-58.4V598.5z"/>
		</g>
	</g>
</g>
<g>
	<g>
		<path d="M1298.7,1176.8v-15c0.1-6.3,6.7-11.6,16.4-11.6c10,0,16.6,6,16.1,12.1c0,1.3-0.7,1.9-2.6,2c-0.8,0-1.7,0-3,0h-2.9
			c-1.9,0.1-3-0.6-3.4-1.9c-0.4-1.2-1.1-3-3.6-3.3c-2.4-0.3-4.5,1.3-5.1,2.9c-0.7,1.9-0.8,4.3-0.3,7c0.2,1.1,1.2,1.6,2.8,1.4
			c1.9-0.2,4.1-0.3,6.4-0.3c8.3,0.2,11.9,6.2,11.9,10c0.2,14,1.3,16-4.6,20.2c-5.8,4.2-16.8,4.6-23.1,0.1
			C1297.1,1195.9,1298.7,1195.1,1298.7,1176.8z M1319.3,1186.2c0-4.3,0.2-4.8-1-6.7c-1.5-2.3-6.3-2.2-7.5,0.2
			c-0.3,0.4-0.4,1-0.5,1.3c-0.6,2.5-0.7,5.8-0.2,9.7c0.2,2.1,2.2,3.7,4.3,3.7c2,0.1,4.9-1.4,4.9-4.3
			C1319.3,1190.1,1319.3,1188.7,1319.3,1186.2z"/>
		<path d="M1315,1204.5c-4.4,0-8.8-1.1-12-3.4c-5.5-4-5.5-5.5-5.3-15.7c0-2.3,0.1-5.2,0.1-8.6v-15c0.1-7.1,7.5-12.5,17.3-12.5
			c5.8,0,10.9,2,14.1,5.4c2.1,2.3,3.1,5,2.9,7.7c0,2.7-2.6,2.8-3.5,2.8h-6c-2.9,0.1-3.9-1.3-4.3-2.5c-0.4-1.2-1-2.5-2.9-2.7
			c-2-0.2-3.6,1-4.1,2.4c-0.7,1.8-0.7,4-0.3,6.5c0.1,0.6,0.7,0.9,1.9,0.7c1.8-0.2,3.9-0.3,6.5-0.3c8.7,0.2,12.7,6.6,12.7,10.8
			c0,2.1,0.1,3.9,0.1,5.5c0.3,9.1,0.3,11.6-5,15.4C1323.9,1203.4,1319.4,1204.5,1315,1204.5z M1315.1,1151
			c-8.8,0-15.4,4.6-15.5,10.7v15c0,3.5-0.1,6.3-0.1,8.7c-0.2,10-0.2,10.8,4.6,14.3c6.3,4.6,16.8,3.7,22.1-0.1
			c4.6-3.3,4.6-4.9,4.3-13.9c0-1.6-0.1-3.5-0.1-5.6c0-3.6-3.5-8.9-11-9.1c-2.5,0-4.5,0.1-6.3,0.3c-2.4,0.3-3.6-0.9-3.8-2.1
			c-0.5-2.8-0.4-5.3,0.3-7.4c0.7-2,3.1-3.9,6-3.5c3.2,0.4,4,2.8,4.4,3.9c0.2,0.6,0.6,1.3,2.6,1.3h6c1.8-0.1,1.8-0.6,1.8-1.1
			c0.2-2.3-0.7-4.5-2.4-6.4C1325,1152.8,1320.4,1151,1315.1,1151z M1314.5,1195.4c-0.1,0-0.1,0-0.2,0c-2.6-0.1-4.9-2.1-5.1-4.5
			c-0.5-3.9-0.4-7.2,0.2-9.9l0.1-0.2c0.1-0.4,0.2-0.9,0.6-1.4c0.6-1.3,2.2-2.2,4.1-2.3c2-0.1,4,0.7,4.9,2.1c1.2,1.8,1.2,2.6,1.2,5.5
			l0,1.6c0,2.9,0,3.8-0.1,4.2c0,1.3-0.6,2.4-1.5,3.3C1317.5,1194.8,1316,1195.4,1314.5,1195.4z M1314.6,1178.7c-0.1,0-0.2,0-0.3,0
			c-1.3,0.1-2.3,0.6-2.7,1.4c-0.2,0.4-0.3,0.7-0.4,1l-0.1,0.2c-0.6,2.5-0.7,5.6-0.2,9.3c0.2,1.7,1.9,2.9,3.4,3c1,0,2.2-0.4,3-1.2
			c0.6-0.6,1-1.4,1-2.2l0.1-0.3c0-0.5,0-2,0-3.7l0-1.6c0-2.8,0-3.2-0.9-4.6C1317.1,1179.2,1315.9,1178.7,1314.6,1178.7z"/>
	</g>
	<g>
		<path d="M1374.9,1176.2v14.4c0.2,9.4-14.6,16-26.3,10.6c-5.4-2.5-8-6-7.9-10.5c0-3.4,0.1-13,0-28.7c0-2.5,0.5-4.3,1.5-5.4
			c4.1-4.8,8.9-7.1,14.5-7c2.7,0,4,0.1,3.6,0c6.9,0.4,11.5,5,12.7,6.7c1.3,1.8,1.9,3.6,1.9,5.3V1176.2z M1363,1187.6v-21.9
			c0-2.5,0.4-4.5-2.4-6.3c-1.9-1.3-4.9-1.1-6.7,0.3c-1.6,1.3-1.9,3.7-1.9,5.5c-0.1,6.7-0.1,13.9,0,21.7c0,2.2,0.3,3.7,1.4,5.1
			c2.2,2.6,7.7,2.2,9.1-0.9C1362.8,1190.2,1363,1189.1,1363,1187.6z"/>
		<path d="M1357.6,1204c-3.1,0-6.3-0.6-9.4-2.1c-5.7-2.7-8.5-6.5-8.4-11.3l0-3.4c0-5,0.1-13.3,0-25.2c0-2.7,0.6-4.7,1.7-6
			c4.2-5,9.3-7.4,15.2-7.3c1.2,0,2.1,0,2.7,0c0.4,0,0.7,0,0.8,0l0,0.5l0.1-0.5c7.3,0.4,12.2,5.3,13.3,7c1.4,1.9,2.1,3.8,2.1,5.8v29
			c0.1,3.8-2.1,7.4-6.1,10C1366.7,1202.6,1362.3,1204,1357.6,1204z M1356.2,1150.5c-5.1,0-9.6,2.2-13.3,6.7c-0.9,1-1.3,2.6-1.3,4.8
			c0.1,12,0,20.3,0,25.2l0,3.4c-0.1,4.1,2.3,7.3,7.4,9.7c7.2,3.4,15.2,1.8,19.8-1.2c3.5-2.3,5.3-5.3,5.3-8.5v-29
			c0-1.6-0.6-3.2-1.8-4.8c-1-1.5-5.4-5.9-11.9-6.3c-0.3,0-0.6,0-1,0c-0.6,0-1.5,0-2.7,0C1356.5,1150.5,1356.4,1150.5,1356.2,1150.5z
			 M1357.5,1194.6c-2,0-3.8-0.7-4.9-2c-1.4-1.6-1.6-3.4-1.6-5.7c-0.1-7.8-0.1-15.1,0-21.7c0-2.9,0.8-5,2.2-6.2
			c2.1-1.7,5.5-1.8,7.7-0.4c2.9,1.8,2.9,4,2.8,6.2l0,0.8v21.9c0,1.5-0.2,2.7-0.6,3.8c-0.8,1.7-2.5,2.8-4.7,3.1
			C1358.3,1194.6,1357.9,1194.6,1357.5,1194.6z M1357.4,1159.4c-1.1,0-2.2,0.3-3.1,1c-1,0.9-1.6,2.5-1.6,4.9
			c-0.1,6.6-0.1,13.9,0,21.7c0,2.2,0.3,3.5,1.2,4.5c0.9,1.1,2.6,1.6,4.4,1.3c1.6-0.2,2.8-1,3.3-2.1c0.3-0.8,0.4-1.9,0.4-3.2l0-22.8
			c0-2.1,0.1-3.4-2-4.7C1359.3,1159.6,1358.4,1159.4,1357.4,1159.4z"/>
	</g>
	<path d="M1426.6,904.5H663.3V768.7h13.3v27.4h736v-27.4h14.1V904.5z M665,902.8h759.9V770.4h-10.6v27.4H674.8v-27.4H665V902.8z"/>
	<path d="M1401.6,1306.2H687.7c-9.4,0-17.1-7.7-17.1-17.1V903.7h5.3v385.5c0,6.5,5.3,11.8,11.8,11.8h713.9c6.5,0,11.8-5.3,11.8-11.8
		V903.7h5.3v385.5C1418.7,1298.5,1411.1,1306.2,1401.6,1306.2z"/>
	<rect x="671.1" y="903.7" width="21" height="49.7"/>
	<rect x="1396.8" y="903.7" width="21" height="49.7"/>
	<polygon points="1035.9,879.3 1035.9,869 1029,869 1044.7,853.3 1060.9,869.5 1053.1,869.5 1053.1,879.3 	"/>
	<rect x="673.2" y="952.5" width="79.6" height="1.8"/>
	<rect x="1257.3" y="952.5" width="158.8" height="1.8"/>
	<g>
		<polygon points="675.7,797 675.7,758.2 1412.6,755.6 1412.6,797 		"/>
		<path d="M1415.2,799.6H673.1v-44l2.6,0l739.5-2.6V799.6z M678.4,794.3H1410v-36.2l-731.6,2.6V794.3z"/>
	</g>
	<path d="M788.7,1281.1h-79.1c-10.1,0-18.4-8.2-18.4-18.4v-162h97.5V1281.1z M692.9,1102.5v160.2c0,9.2,7.5,16.6,16.6,16.6h77.3
		v-176.8H692.9z"/>
	<path d="M811.1,1282h-1.8v-182.1h179.8v4.1C989.1,1202.1,909.3,1282,811.1,1282z M812.9,1103.4v175.1
		c95.4-0.9,172.8-78.9,172.8-174.5v-0.6H812.9z"/>
	<path d="M811.1,1190.1h-0.9v-89.3h88.2v2C898.4,1150.9,859.2,1190.1,811.1,1190.1z M812,1102.5v85.8c46.8-0.5,84.7-38.7,84.7-85.5
		v-0.3H812z"/>
	<g>
		<path d="M811.2,1102.1v44.7h0c24.4,0,44.1-19.8,44.1-44.1v-0.6H811.2z"/>
		<path d="M811.2,1147.7h-0.9v-46.5h45.9v1.5C856.2,1127.5,836,1147.7,811.2,1147.7z M812,1102.9v43c23.4-0.5,42.2-19.5,42.4-43H812
			z"/>
	</g>
	<path d="M811.1,1214.3v-1.8c63.8,0,113.8-48.7,113.8-110.9h1.8C926.7,1164.8,875.9,1214.3,811.1,1214.3z"/>
	<path d="M811.1,1202.6v-1.8c54.9,0,99.5-43.9,100.1-98.1l-0.1,0l-0.3-1.7l2.2-0.3v1C913,1157.3,867.3,1202.6,811.1,1202.6z"/>
	<path d="M810.6,1208.4v-1.8c60,0,107-46.1,107-105h1.8C919.4,1161.5,871.6,1208.4,810.6,1208.4z"/>
	<path d="M811.1,1196.6v-1.8c52.1,0,92.8-40.9,92.8-93.2h1.8C905.7,1154.9,864.1,1196.6,811.1,1196.6z"/>
	<path d="M811.1,1183.9v-8.8c44.9,0,71.7-37.4,71.7-73.5h8.8C891.5,1142.1,861.4,1183.9,811.1,1183.9z"/>
	<path d="M1375.2,1213.4h-293v-112.6h305.2l0,100.4C1387.5,1207.9,1382,1213.4,1375.2,1213.4z M1084,1211.7h291.2
		c5.8,0,10.5-4.7,10.5-10.5l0-98.6H1084V1211.7z"/>
	<g>
		<polygon points="692.1,998.9 743.1,998.9 743.1,1007.7 722.7,1007.7 722.7,1045.6 713.1,1045.6 713.1,1007.7 692.1,1007.7 		"/>
		<path d="M722.7,1046.5h-9.7c-0.5,0-0.9-0.4-0.9-0.9v-37.1h-20.1c-0.5,0-0.9-0.4-0.9-0.9v-8.8c0-0.5,0.4-0.9,0.9-0.9h51.1
			c0.5,0,0.9,0.4,0.9,0.9v8.8c0,0.5-0.4,0.9-0.9,0.9h-19.6v37.1C723.6,1046.1,723.2,1046.5,722.7,1046.5z M713.9,1044.8h7.9v-37.1
			c0-0.5,0.4-0.9,0.9-0.9h19.6v-7h-49.3v7h20.1c0.5,0,0.9,0.4,0.9,0.9V1044.8z"/>
	</g>
	<g>
		<path d="M767.9,998.9l15.9,12v22.8l-15.9,12h-17.8v-46.7H767.9z M758,1007.7v30.3h6l12-8v-14.3l-12-8H758z"/>
		<path d="M767.9,1046.5h-17.8c-0.5,0-0.9-0.4-0.9-0.9v-46.7c0-0.5,0.4-0.9,0.9-0.9h17.8c0.2,0,0.4,0.1,0.5,0.2l15.9,12
			c0.2,0.2,0.3,0.4,0.3,0.7v22.8c0,0.3-0.1,0.5-0.3,0.7l-15.9,12C768.3,1046.4,768.1,1046.5,767.9,1046.5z M751,1044.8h16.6
			l15.3-11.5v-21.9l-15.3-11.5H751V1044.8z M764,1038.9h-6c-0.5,0-0.9-0.4-0.9-0.9v-30.3c0-0.5,0.4-0.9,0.9-0.9h6
			c0.2,0,0.3,0.1,0.5,0.1l12,8c0.2,0.2,0.4,0.4,0.4,0.7v14.3c0,0.3-0.1,0.6-0.4,0.7l-12,8C764.3,1038.9,764.2,1038.9,764,1038.9z
			 M758.9,1037.2h4.8l11.4-7.6v-13.4l-11.4-7.6h-4.8V1037.2z"/>
	</g>
	<g>
		<polygon points="792.1,998.9 792.1,1045.6 801.1,1045.6 801.1,1022.9 818.1,1045.6 826.9,1045.6 807.1,1018.6 824.1,998.9 
			815.4,998.9 800.3,1016.2 800.5,998.9 		"/>
		<path d="M826.9,1046.5h-8.8c-0.3,0-0.5-0.1-0.7-0.4l-15.4-20.7v20.1c0,0.5-0.4,0.9-0.9,0.9h-9c-0.5,0-0.9-0.4-0.9-0.9v-46.7
			c0-0.5,0.4-0.9,0.9-0.9h8.4c0.2,0,0.5,0.1,0.6,0.3c0.2,0.2,0.3,0.4,0.3,0.6l-0.2,14.9l13.5-15.5c0.2-0.2,0.4-0.3,0.7-0.3h8.8
			c0.3,0,0.7,0.2,0.8,0.5c0.1,0.3,0.1,0.7-0.1,0.9l-16.6,19.2l19.4,26.4c0.2,0.3,0.2,0.6,0.1,0.9
			C827.5,1046.3,827.2,1046.5,826.9,1046.5z M818.5,1044.8h6.6l-18.7-25.6c-0.2-0.3-0.2-0.8,0-1.1l15.8-18.2h-6.5l-14.8,17
			c-0.2,0.3-0.6,0.4-1,0.2c-0.3-0.1-0.6-0.5-0.6-0.8l0.3-16.4H793v44.9h7.2v-21.9c0-0.4,0.2-0.7,0.6-0.8c0.4-0.1,0.8,0,1,0.3
			L818.5,1044.8z"/>
	</g>
	<g>
		<defs>
			<polygon id="SVGID_27_" points="692.1,1179.5 692.1,1216 787.8,1215.5 787.8,1179.5 			"/>
		</defs>
		<clipPath id="SVGID_6_">
			<use xlink:href="#SVGID_27_"  style="overflow:visible;"/>
		</clipPath>
		<g class="st45">
			<path d="M846.1,1324.9H650.9v-267h195.2V1324.9z M652.6,1323.2h191.7v-263.5H652.6V1323.2z"/>
			<rect x="651.8" y="1317" width="193.5" height="1.8"/>
			<rect x="651.8" y="1310.8" width="193.5" height="1.8"/>
			<rect x="651.8" y="1304.6" width="193.5" height="1.8"/>
			<rect x="651.8" y="1298.5" width="193.5" height="1.8"/>
			<rect x="651.8" y="1292.3" width="193.5" height="1.8"/>
			<rect x="651.8" y="1286.1" width="193.5" height="1.8"/>
			<rect x="651.8" y="1280" width="193.5" height="1.8"/>
			<rect x="651.8" y="1273.8" width="193.5" height="1.8"/>
			<rect x="651.8" y="1267.6" width="193.5" height="1.8"/>
			<rect x="651.8" y="1261.5" width="193.5" height="1.8"/>
			<rect x="651.8" y="1255.3" width="193.5" height="1.8"/>
			<rect x="651.8" y="1249.1" width="193.5" height="1.8"/>
			<rect x="651.8" y="1243" width="193.5" height="1.8"/>
			<rect x="651.8" y="1236.8" width="193.5" height="1.8"/>
			<rect x="651.8" y="1230.6" width="193.5" height="1.8"/>
			<rect x="651.8" y="1224.4" width="193.5" height="1.8"/>
			<rect x="651.8" y="1218.3" width="193.5" height="1.8"/>
			<rect x="651.8" y="1212.1" width="193.5" height="1.8"/>
			<rect x="651.8" y="1205.9" width="193.5" height="1.8"/>
			<rect x="651.8" y="1199.8" width="193.5" height="1.8"/>
			<rect x="651.8" y="1193.6" width="193.5" height="1.8"/>
			<rect x="651.8" y="1187.4" width="193.5" height="1.8"/>
			<rect x="651.8" y="1181.3" width="193.5" height="1.8"/>
			<rect x="651.8" y="1175.1" width="193.5" height="1.8"/>
			<rect x="651.8" y="1168.9" width="193.5" height="1.8"/>
			<rect x="651.8" y="1162.8" width="193.5" height="1.8"/>
			<rect x="651.8" y="1156.6" width="193.5" height="1.8"/>
			<rect x="651.8" y="1150.4" width="193.5" height="1.8"/>
			<rect x="651.8" y="1144.2" width="193.5" height="1.8"/>
			<rect x="651.8" y="1138.1" width="193.5" height="1.8"/>
			<rect x="651.8" y="1131.9" width="193.5" height="1.8"/>
			<rect x="651.8" y="1125.7" width="193.5" height="1.8"/>
			<rect x="651.8" y="1119.6" width="193.5" height="1.8"/>
			<rect x="651.8" y="1113.4" width="193.5" height="1.8"/>
			<rect x="651.8" y="1107.2" width="193.5" height="1.8"/>
			<rect x="651.8" y="1101.1" width="193.5" height="1.8"/>
			<rect x="651.8" y="1094.9" width="193.5" height="1.8"/>
			<rect x="651.8" y="1088.7" width="193.5" height="1.8"/>
			<rect x="651.8" y="1082.6" width="193.5" height="1.8"/>
			<rect x="651.8" y="1076.4" width="193.5" height="1.8"/>
			<rect x="651.8" y="1070.2" width="193.5" height="1.8"/>
			<rect x="651.8" y="1064.1" width="193.5" height="1.8"/>
		</g>
	</g>
</g>
<g>
	<path d="M712.9,2031.2c-1.9,0-3.5-1.6-3.5-3.5v-34.3c0-1.9,1.6-3.5,3.5-3.5s3.5,1.6,3.5,3.5v34.3
		C716.4,2029.7,714.8,2031.2,712.9,2031.2z"/>
	<path d="M735.7,2031.2c-1.9,0-3.5-1.6-3.5-3.5v-34.3c0-1.9,1.6-3.5,3.5-3.5s3.5,1.6,3.5,3.5v34.3
		C739.2,2029.7,737.6,2031.2,735.7,2031.2z"/>
	<path d="M758.4,2031.2c-1.9,0-3.5-1.6-3.5-3.5v-34.3c0-1.9,1.6-3.5,3.5-3.5s3.5,1.6,3.5,3.5v34.3
		C761.9,2029.7,760.4,2031.2,758.4,2031.2z"/>
	<path d="M781.2,2031.2c-1.9,0-3.5-1.6-3.5-3.5v-34.3c0-1.9,1.6-3.5,3.5-3.5s3.5,1.6,3.5,3.5v34.3
		C784.7,2029.7,783.1,2031.2,781.2,2031.2z"/>
	<path d="M804,2031.2c-1.9,0-3.5-1.6-3.5-3.5v-34.3c0-1.9,1.6-3.5,3.5-3.5s3.5,1.6,3.5,3.5v34.3
		C807.5,2029.7,805.9,2031.2,804,2031.2z"/>
	<path d="M826.7,2031.2c-1.9,0-3.5-1.6-3.5-3.5v-34.3c0-1.9,1.6-3.5,3.5-3.5c1.9,0,3.5,1.6,3.5,3.5v34.3
		C830.2,2029.7,828.7,2031.2,826.7,2031.2z"/>
	<path d="M849.5,2031.2c-1.9,0-3.5-1.6-3.5-3.5v-34.3c0-1.9,1.6-3.5,3.5-3.5c1.9,0,3.5,1.6,3.5,3.5v34.3
		C853,2029.7,851.4,2031.2,849.5,2031.2z"/>
	<path d="M872.2,2031.2c-1.9,0-3.5-1.6-3.5-3.5v-34.3c0-1.9,1.6-3.5,3.5-3.5s3.5,1.6,3.5,3.5v34.3
		C875.7,2029.7,874.2,2031.2,872.2,2031.2z"/>
	<g>
		<path class="st0" d="M1428.5,1630.3h-0.4c-23,0-41.7-18.7-41.7-41.7v-108.9H710.6v108.9c0,23-18.7,41.7-41.7,41.7h-7.4v308.9h12.3
			c4.8,0,8.8,3.9,8.8,8.8l0,0c0,4.8-3.9,8.8-8.8,8.8h-12.3v74.6h38.6V1997h187.4v34.3h541v-74.6h-19.3c-4.8,0-8.8-3.9-8.8-8.8l0,0
			c0-4.8,3.9-8.8,8.8-8.8h19.3V1630.3z"/>
		<path d="M1430.2,2033H885.7v-34.3H701.8v34.3h-42.1v-78.1h14.1c3.9,0,7-3.1,7-7s-3.1-7-7-7h-14.1v-312.4h9.2
			c22,0,39.9-17.9,39.9-39.9V1478h679.4v110.6c0,22,17.9,39.9,39.9,39.9h2.1v312.4h-21c-3.9,0-7,3.1-7,7s3.1,7,7,7h21V2033z
			 M889.2,2029.5h537.5v-71.1h-17.5c-5.8,0-10.5-4.7-10.5-10.5c0-5.8,4.7-10.5,10.5-10.5h17.5V1632c-23.3-0.7-42-19.9-42-43.4
			v-107.1H712.3v107.1c0,23.9-19.5,43.4-43.4,43.4h-5.7v305.4h10.6c5.8,0,10.5,4.7,10.5,10.5c0,5.8-4.7,10.5-10.5,10.5h-10.6v71.1
			h35.1v-34.3h190.9V2029.5z"/>
	</g>
	<path d="M1428.5,1636.4c-3.4,0-6.1-2.7-6.1-6.1v-142l-754.7,0v142c0,3.4-2.7,6.1-6.1,6.1c-3.4,0-6.1-2.7-6.1-6.1V1476l779.2,0
		v154.3C1434.6,1633.7,1431.8,1636.4,1428.5,1636.4z"/>
	<path d="M1340.9,1511.9H750v-29.8c0-1,0.8-1.8,1.8-1.8c1,0,1.8,0.8,1.8,1.8v26.3h583.9v-26.3c0-1,0.8-1.8,1.8-1.8s1.8,0.8,1.8,1.8
		V1511.9z"/>
	<path d="M1307.4,1589.6H779.1v-79.4c0-0.5,0.4-0.9,0.9-0.9s0.9,0.4,0.9,0.9v77.6h524.7v-77.6c0-0.5,0.4-0.9,0.9-0.9
		c0.5,0,0.9,0.4,0.9,0.9V1589.6z"/>
	<path d="M1049,1761.3l-0.2-5.7c0-0.4-2-39.5-36-78.1c-31.4-35.7-97.2-78.2-232.8-78.2c-0.5,0-0.9-0.4-0.9-0.9s0.4-0.9,0.9-0.9
		c60.2,0,111.8,8.3,153.5,24.6c33.4,13.1,60.6,31.3,80.7,54.3c27.8,31.6,34.4,63.6,35.9,74.9c3.8-11.1,16.6-43.2,46.8-74.9
		c34.2-36,98.3-78.9,209.6-78.9c0.5,0,0.9,0.4,0.9,0.9s-0.4,0.9-0.9,0.9c-110.6,0-174.3,42.6-208.3,78.3
		c-36.8,38.7-47.5,77.8-47.6,78.2L1049,1761.3z"/>
	<g>
		<circle class="st0" cx="1051.1" cy="1750.5" r="15.5"/>
		<path d="M1051.1,1769.6c-10.5,0-19-8.5-19-19c0-10.5,8.5-19,19-19c10.5,0,19,8.5,19,19C1070.2,1761,1061.6,1769.6,1051.1,1769.6z
			 M1051.1,1738.5c-6.6,0-12,5.4-12,12s5.4,12,12,12c6.6,0,12-5.4,12-12S1057.8,1738.5,1051.1,1738.5z"/>
	</g>
	<g>
		<circle cx="780" cy="1598.3" r="9.6"/>
		<path d="M780,1608.8c-5.8,0-10.5-4.7-10.5-10.5c0-5.8,4.7-10.5,10.5-10.5s10.5,4.7,10.5,10.5
			C790.5,1604.1,785.8,1608.8,780,1608.8z M780,1589.6c-4.8,0-8.8,3.9-8.8,8.8s3.9,8.8,8.8,8.8s8.8-3.9,8.8-8.8
			S784.9,1589.6,780,1589.6z"/>
	</g>
	<path d="M684.3,1924.2c-6.3,0-11.4-5.1-11.4-11.4s5.1-11.4,11.4-11.4c6.3,0,11.4,5.1,11.4,11.4S690.6,1924.2,684.3,1924.2z
		 M684.3,1904.9c-4.3,0-7.9,3.5-7.9,7.9s3.5,7.9,7.9,7.9c4.3,0,7.9-3.5,7.9-7.9S688.7,1904.9,684.3,1904.9z"/>
	<path d="M1408.6,1922c-6.3,0-11.4-5.1-11.4-11.4c0-6.3,5.1-11.4,11.4-11.4c6.3,0,11.4,5.1,11.4,11.4
		C1420,1916.9,1414.9,1922,1408.6,1922z M1408.6,1902.8c-4.3,0-7.9,3.5-7.9,7.9c0,4.3,3.5,7.9,7.9,7.9s7.9-3.5,7.9-7.9
		C1416.5,1906.3,1413,1902.8,1408.6,1902.8z"/>
	<g>
		<circle cx="1306.5" cy="1598.3" r="9.6"/>
		<path d="M1306.5,1608.8c-5.8,0-10.5-4.7-10.5-10.5c0-5.8,4.7-10.5,10.5-10.5c5.8,0,10.5,4.7,10.5,10.5
			C1317,1604.1,1312.3,1608.8,1306.5,1608.8z M1306.5,1589.6c-4.8,0-8.8,3.9-8.8,8.8s3.9,8.8,8.8,8.8c4.8,0,8.8-3.9,8.8-8.8
			S1311.3,1589.6,1306.5,1589.6z"/>
	</g>
	<g>
		<path class="st0" d="M1059.3,1970.1H1043c-2.6,0-4.8-2.1-4.8-4.8v-53.6h25.9v53.6C1064.1,1968,1061.9,1970.1,1059.3,1970.1z"/>
		<path d="M1055.7,1971h-9.2c-5.1,0-9.3-4.1-9.3-9.3v-50.9h27.7v50.9C1065,1966.8,1060.8,1971,1055.7,1971z M1039,1912.6v49.1
			c0,4.1,3.4,7.5,7.5,7.5h9.2c4.1,0,7.5-3.4,7.5-7.5v-49.1H1039z"/>
	</g>
	<g>
		<rect x="1038.2" y="1917.3" width="25.9" height="12.3"/>
	</g>
	<g>
		<rect x="1038.2" y="1937.9" width="25.9" height="1.8"/>
	</g>
	<g>
		<rect x="1037.6" y="1947.6" width="25.9" height="1.8"/>
	</g>
	<g>
		<rect x="1038.8" y="1957.3" width="25.9" height="1.8"/>
	</g>
	<g>
		<rect x="780" y="1534.7" width="526.5" height="21.5"/>
		<path d="M1307.4,1557.1H779.1v-23.3h528.2V1557.1z M780.9,1555.3h524.7v-19.8H780.9V1555.3z"/>
	</g>
	<g>
		<circle class="st0" cx="874.9" cy="1787" r="32.7"/>
		<path d="M874.9,1820.6c-18.5,0-33.6-15.1-33.6-33.6c0-18.5,15.1-33.6,33.6-33.6c18.5,0,33.6,15.1,33.6,33.6
			C908.4,1805.5,893.4,1820.6,874.9,1820.6z M874.9,1755.2c-17.5,0-31.8,14.3-31.8,31.8c0,17.5,14.3,31.8,31.8,31.8
			c17.5,0,31.8-14.3,31.8-31.8C906.7,1769.5,892.4,1755.2,874.9,1755.2z"/>
	</g>
	<path d="M874.9,1875.4c-48.8,0-88.4-39.7-88.4-88.4c0-48.8,39.7-88.4,88.4-88.4s88.4,39.7,88.4,88.4
		C963.3,1835.8,923.6,1875.4,874.9,1875.4z M874.9,1707.3c-43.9,0-79.7,35.7-79.7,79.7s35.7,79.7,79.7,79.7s79.7-35.7,79.7-79.7
		S918.8,1707.3,874.9,1707.3z"/>
	<path d="M874.9,1858.9c-39.6,0-71.9-32.3-71.9-71.9s32.2-71.9,71.9-71.9s71.9,32.2,71.9,71.9S914.5,1858.9,874.9,1858.9z
		 M874.9,1716.9c-38.7,0-70.1,31.5-70.1,70.1c0,38.7,31.5,70.1,70.1,70.1s70.1-31.5,70.1-70.1C945,1748.3,913.6,1716.9,874.9,1716.9
		z"/>
	<rect x="873.1" y="1759.1" transform="matrix(1 -2.461465e-03 2.461465e-03 1 -4.347 2.1588)" width="3.5" height="16"/>
	<rect x="859" y="1764.9" transform="matrix(0.7053 -0.7089 0.7089 0.7053 -1003.1306 1132.5894)" width="3.5" height="16"/>
	<rect x="846.9" y="1785.3" transform="matrix(1 -6.835778e-03 6.835778e-03 1 -12.1962 5.8859)" width="16" height="3.5"/>
	<rect x="852.8" y="1799.4" transform="matrix(0.7022 -0.712 0.712 0.7022 -1026.0298 1149.2687)" width="16" height="3.5"/>
	<rect x="873.1" y="1799" transform="matrix(1 -1.819346e-03 1.819346e-03 1 -3.286 1.5947)" width="3.5" height="16"/>
	<rect x="887.2" y="1793.1" transform="matrix(0.7058 -0.7084 0.7084 0.7058 -1014.4291 1159.7161)" width="3.5" height="16"/>
	<rect x="893" y="1779.1" transform="matrix(3.531656e-03 -1 1 3.531656e-03 -895.483 2675.6123)" width="3.5" height="16"/>
	<rect x="882.1" y="1772.4" transform="matrix(0.761 -0.6487 0.6487 0.761 -938.1822 1001.3172)" width="16" height="3.5"/>
	<circle cx="874.9" cy="1787" r="4.1"/>
	<g>
		<circle class="st0" cx="1212.8" cy="1788.1" r="32.7"/>
		<path d="M1212.8,1821.6c-18.5,0-33.6-15.1-33.6-33.6s15.1-33.6,33.6-33.6c18.5,0,33.6,15.1,33.6,33.6S1231.3,1821.6,1212.8,1821.6
			z M1212.8,1756.3c-17.5,0-31.8,14.3-31.8,31.8c0,17.5,14.3,31.8,31.8,31.8c17.5,0,31.8-14.3,31.8-31.8
			C1244.6,1770.5,1230.3,1756.3,1212.8,1756.3z"/>
	</g>
	<path d="M1212.8,1876.5c-48.8,0-88.4-39.7-88.4-88.4s39.7-88.4,88.4-88.4c48.8,0,88.4,39.7,88.4,88.4S1261.6,1876.5,1212.8,1876.5z
		 M1212.8,1708.4c-43.9,0-79.7,35.7-79.7,79.7s35.7,79.7,79.7,79.7s79.7-35.7,79.7-79.7S1256.7,1708.4,1212.8,1708.4z"/>
	<path d="M1212.8,1860c-39.6,0-71.9-32.2-71.9-71.9s32.2-71.9,71.9-71.9s71.9,32.3,71.9,71.9S1252.4,1860,1212.8,1860z
		 M1212.8,1717.9c-38.7,0-70.1,31.5-70.1,70.1c0,38.7,31.5,70.1,70.1,70.1s70.1-31.5,70.1-70.1
		C1282.9,1749.4,1251.5,1717.9,1212.8,1717.9z"/>
	<rect x="1211" y="1760.2" transform="matrix(1 -2.568485e-03 2.568485e-03 1 -4.5375 3.1208)" width="3.5" height="16"/>
	<rect x="1196.9" y="1766" transform="matrix(0.7053 -0.7089 0.7089 0.7053 -904.3533 1372.5984)" width="3.5" height="16"/>
	<rect x="1184.9" y="1786.4" transform="matrix(1 -6.835778e-03 6.835778e-03 1 -12.1957 8.1958)" width="16" height="3.5"/>
	<rect x="1190.8" y="1800.5" transform="matrix(0.7022 -0.712 0.712 0.7022 -926.1672 1390.1708)" width="16" height="3.5"/>
	<rect x="1211" y="1800" transform="matrix(1 -1.926366e-03 1.926366e-03 1 -3.4806 2.3396)" width="3.5" height="16"/>
	<rect x="1225.1" y="1794.2" transform="matrix(0.7058 -0.7084 0.7084 0.7058 -915.7356 1399.2596)" width="3.5" height="16"/>
	<rect x="1231" y="1780.2" transform="matrix(3.424637e-03 -1 1 3.424637e-03 -559.7114 3014.7813)" width="3.5" height="16"/>
	<rect x="1220" y="1773.4" transform="matrix(0.761 -0.6487 0.6487 0.761 -858.1341 1220.775)" width="16" height="3.5"/>
	<circle cx="1212.8" cy="1788.1" r="4.1"/>
</g>
</svg>
