<?xml version="1.0" encoding="utf-8"?>
<!-- Generator: Adobe Illustrator 22.1.0, SVG Export Plug-In . SVG Version: 6.00 Build 0)  -->
<svg version="1.1" id="Слой_1" xmlns="http://www.w3.org/2000/svg" xmlns:xlink="http://www.w3.org/1999/xlink" x="0px" y="0px"
	 viewBox="0 0 666 826" style="enable-background:new 0 0 666 826;" xml:space="preserve">
<style type="text/css">
	.st0{fill:none;stroke:#231F20;stroke-width:19;stroke-miterlimit:10;}
	.st1{clip-path:url(#SVGID_2_);}
	.st2{fill:none;stroke:#231F20;stroke-miterlimit:10;}
	.st3{clip-path:url(#SVGID_4_);}
	.st4{fill:none;stroke:#231F20;stroke-width:6;stroke-miterlimit:10;}
	.st5{fill:none;stroke:#000000;stroke-width:6;stroke-miterlimit:10;}
	.st6{fill:none;stroke:#231F20;stroke-width:6;stroke-linecap:round;stroke-linejoin:round;stroke-miterlimit:10;}
	.st7{fill:none;stroke:#000000;stroke-width:6;stroke-linecap:round;stroke-linejoin:round;stroke-miterlimit:10;}
	.st8{fill:#231F20;stroke:#231F20;stroke-width:3;stroke-linecap:round;stroke-linejoin:round;stroke-miterlimit:10;}
	.st9{clip-path:url(#SVGID_6_);}
	.st10{fill:none;stroke:#231F20;stroke-width:3;stroke-linecap:round;stroke-linejoin:round;stroke-miterlimit:10;}
	.st11{clip-path:url(#SVGID_8_);}
	.st12{fill:none;stroke:#231F20;stroke-width:4;stroke-miterlimit:10;}
	.st13{fill:#231F20;stroke:#231F20;stroke-width:6;stroke-miterlimit:10;}
	.st14{stroke:#231F20;stroke-width:6;stroke-miterlimit:10;}
	.st15{clip-path:url(#SVGID_10_);}
	.st16{clip-path:url(#SVGID_12_);}
	.st17{fill:none;stroke:#231F20;stroke-width:2;stroke-miterlimit:10;}
	.st18{clip-path:url(#SVGID_14_);}
	.st19{fill:#FFFFFF;}
	.st20{fill:#FFFFFF;stroke:#231F20;stroke-width:6;stroke-miterlimit:10;}
	.st21{fill:#231F20;stroke:#231F20;stroke-miterlimit:10;}
	.st22{fill:#231F20;}
</style>
<path class="st0" d="M669,824"/>
<g>
	<defs>
		<path id="SVGID_1_" d="M340.5,189c-3.2,0-6-2.4-6.4-5.6c-0.5-3.6,2-6.8,5.6-7.3l58-8c3.6-0.5,6.8,2,7.3,5.6c0.5,3.6-2,6.8-5.6,7.3
			l-58,8C341.1,189,340.8,189,340.5,189z"/>
	</defs>
	<clipPath id="SVGID_2_">
		<use xlink:href="#SVGID_1_"  style="overflow:visible;"/>
	</clipPath>
	<g class="st1">
		
			<rect x="314.5" y="141.5" transform="matrix(0.4495 -0.8933 0.8933 0.4495 39.3819 429.9059)" class="st2" width="108" height="83"/>
		<line class="st2" x1="379.2" y1="248.8" x2="427.7" y2="152.4"/>
		<line class="st2" x1="377.1" y1="247.8" x2="425.6" y2="151.3"/>
		<line class="st2" x1="374.9" y1="246.7" x2="423.5" y2="150.2"/>
		<line class="st2" x1="372.8" y1="245.6" x2="421.4" y2="149.2"/>
		<line class="st2" x1="370.7" y1="244.6" x2="419.3" y2="148.1"/>
		<line class="st2" x1="368.6" y1="243.5" x2="417.1" y2="147"/>
		<line class="st2" x1="366.5" y1="242.4" x2="415" y2="146"/>
		<line class="st2" x1="364.3" y1="241.4" x2="412.9" y2="144.9"/>
		<line class="st2" x1="362.2" y1="240.3" x2="410.8" y2="143.8"/>
		<line class="st2" x1="360.1" y1="239.2" x2="408.7" y2="142.8"/>
		<line class="st2" x1="358" y1="238.2" x2="406.5" y2="141.7"/>
		<line class="st2" x1="355.9" y1="237.1" x2="404.4" y2="140.6"/>
		<line class="st2" x1="353.8" y1="236" x2="402.3" y2="139.6"/>
		<line class="st2" x1="351.6" y1="235" x2="400.2" y2="138.5"/>
		<line class="st2" x1="349.5" y1="233.9" x2="398.1" y2="137.4"/>
		<line class="st2" x1="347.4" y1="232.8" x2="396" y2="136.4"/>
		<line class="st2" x1="345.3" y1="231.8" x2="393.8" y2="135.3"/>
		<line class="st2" x1="343.2" y1="230.7" x2="391.7" y2="134.2"/>
		<line class="st2" x1="341" y1="229.6" x2="389.6" y2="133.2"/>
		<line class="st2" x1="338.9" y1="228.6" x2="387.5" y2="132.1"/>
		<line class="st2" x1="336.8" y1="227.5" x2="385.4" y2="131"/>
		<line class="st2" x1="334.7" y1="226.4" x2="383.2" y2="130"/>
		<line class="st2" x1="332.6" y1="225.4" x2="381.1" y2="128.9"/>
		<line class="st2" x1="330.5" y1="224.3" x2="379" y2="127.8"/>
		<line class="st2" x1="328.3" y1="223.2" x2="376.9" y2="126.8"/>
		<line class="st2" x1="326.2" y1="222.2" x2="374.8" y2="125.7"/>
		<line class="st2" x1="324.1" y1="221.1" x2="372.7" y2="124.6"/>
		<line class="st2" x1="322" y1="220" x2="370.5" y2="123.6"/>
		<line class="st2" x1="319.9" y1="219" x2="368.4" y2="122.5"/>
		<line class="st2" x1="317.7" y1="217.9" x2="366.3" y2="121.4"/>
		<line class="st2" x1="315.6" y1="216.8" x2="364.2" y2="120.4"/>
		<line class="st2" x1="313.5" y1="215.8" x2="362.1" y2="119.3"/>
		<line class="st2" x1="311.4" y1="214.7" x2="359.9" y2="118.2"/>
		<line class="st2" x1="309.3" y1="213.6" x2="357.8" y2="117.2"/>
	</g>
</g>
<g>
	<defs>
		<path id="SVGID_3_" d="M440.6,183.2c-3.2-0.3-5.7-2.9-5.9-6.2c-0.1-3.6,2.6-6.6,6.2-6.8l58.5-2.4c3.6-0.1,6.6,2.6,6.8,6.2
			c0.1,3.6-2.6,6.6-6.2,6.8l-58.5,2.4C441.2,183.2,440.9,183.2,440.6,183.2z"/>
	</defs>
	<clipPath id="SVGID_4_">
		<use xlink:href="#SVGID_3_"  style="overflow:visible;"/>
	</clipPath>
	<g class="st3">
		
			<rect x="415.1" y="138.4" transform="matrix(0.5332 -0.846 0.846 0.5332 66.7772 480.7909)" class="st2" width="108" height="83"/>
		<line class="st2" x1="473.4" y1="246.4" x2="531" y2="155.1"/>
		<line class="st2" x1="471.4" y1="245.2" x2="529" y2="153.8"/>
		<line class="st2" x1="469.4" y1="243.9" x2="527" y2="152.5"/>
		<line class="st2" x1="467.4" y1="242.6" x2="524.9" y2="151.3"/>
		<line class="st2" x1="465.4" y1="241.4" x2="522.9" y2="150"/>
		<line class="st2" x1="463.3" y1="240.1" x2="520.9" y2="148.7"/>
		<line class="st2" x1="461.3" y1="238.8" x2="518.9" y2="147.5"/>
		<line class="st2" x1="459.3" y1="237.6" x2="516.9" y2="146.2"/>
		<line class="st2" x1="457.3" y1="236.3" x2="514.9" y2="144.9"/>
		<line class="st2" x1="455.3" y1="235" x2="512.9" y2="143.7"/>
		<line class="st2" x1="453.3" y1="233.8" x2="510.9" y2="142.4"/>
		<line class="st2" x1="451.3" y1="232.5" x2="508.9" y2="141.2"/>
		<line class="st2" x1="449.3" y1="231.3" x2="506.9" y2="139.9"/>
		<line class="st2" x1="447.3" y1="230" x2="504.9" y2="138.6"/>
		<line class="st2" x1="445.3" y1="228.7" x2="502.9" y2="137.4"/>
		<line class="st2" x1="443.3" y1="227.5" x2="500.9" y2="136.1"/>
		<line class="st2" x1="441.3" y1="226.2" x2="498.9" y2="134.8"/>
		<line class="st2" x1="439.3" y1="224.9" x2="496.9" y2="133.6"/>
		<line class="st2" x1="437.3" y1="223.7" x2="494.9" y2="132.3"/>
		<line class="st2" x1="435.3" y1="222.4" x2="492.9" y2="131"/>
		<line class="st2" x1="433.3" y1="221.1" x2="490.8" y2="129.8"/>
		<line class="st2" x1="431.3" y1="219.9" x2="488.8" y2="128.5"/>
		<line class="st2" x1="429.2" y1="218.6" x2="486.8" y2="127.2"/>
		<line class="st2" x1="427.2" y1="217.3" x2="484.8" y2="126"/>
		<line class="st2" x1="425.2" y1="216.1" x2="482.8" y2="124.7"/>
		<line class="st2" x1="423.2" y1="214.8" x2="480.8" y2="123.5"/>
		<line class="st2" x1="421.2" y1="213.6" x2="478.8" y2="122.2"/>
		<line class="st2" x1="419.2" y1="212.3" x2="476.8" y2="120.9"/>
		<line class="st2" x1="417.2" y1="211" x2="474.8" y2="119.7"/>
		<line class="st2" x1="415.2" y1="209.8" x2="472.8" y2="118.4"/>
		<line class="st2" x1="413.2" y1="208.5" x2="470.8" y2="117.1"/>
		<line class="st2" x1="411.2" y1="207.2" x2="468.8" y2="115.9"/>
		<line class="st2" x1="409.2" y1="206" x2="466.8" y2="114.6"/>
		<line class="st2" x1="407.2" y1="204.7" x2="464.8" y2="113.3"/>
	</g>
</g>
<path class="st4" d="M1,826l92.2-305.2c3-9.8,10.8-17.4,20.7-20L320,446c0,0,67,149,168,0l179,33.5"/>
<line class="st4" x1="318.5" y1="434.5" x2="331" y2="354"/>
<line class="st4" x1="486.1" y1="438.5" x2="474" y2="384"/>
<path class="st5" d="M288.5,391"/>
<path class="st5" d="M295,142"/>
<path class="st4" d="M519,95l-9.9-39.2c-4.5-17.3-20-29.3-37.9-29.3H339c-18,0-33.6,12.2-38,29.6l-21.6,86.4h252"/>
<path class="st6" d="M279.5,142.5l95.3-40.1c12.3-5.2,25.6-7.9,39-7.9H579c8.3,0,11.4,10.8,4.4,15.2l-51.9,32.8H279.5z"/>
<path class="st7" d="M237.5,161.5"/>
<path class="st6" d="M428,229l24.2,52.5c2.8,7.2-2.5,14.9-10.2,14.9h-23"/>
<polyline class="st6" points="338.5,198.5 397.5,198.5 397.5,226.5 364.5,226.5 364.5,212.5 "/>
<polyline class="st6" points="441.5,198.5 500.5,198.5 500.5,226.5 467.5,226.5 467.5,212.5 "/>
<polyline class="st6" points="451.5,337.5 398.5,333.5 385.5,322.5 "/>
<line class="st6" x1="396.5" y1="347.5" x2="428.5" y2="350.5"/>
<polyline class="st8" points="365.4,211 377.4,211 377.4,224.6 365.4,224.6 "/>
<polyline class="st8" points="467.4,211 479.4,211 479.4,224.6 467.4,224.6 "/>
<polyline class="st4" points="521,142.5 521,316 453,413 375,403 300,319 "/>
<polyline class="st4" points="295,142 253,351 223,359 205,348 "/>
<polyline class="st4" points="282,142 256,273 226,281 208,270 "/>
<polyline class="st4" points="281.9,140.3 250.6,234 230.6,234.4 228,217 "/>
<polyline class="st4" points="315,142 280,308 250,316 232,305 "/>
<line class="st4" x1="279" y1="308" x2="265" y2="379"/>
<line class="st4" x1="333.5" y1="142.5" x2="293" y2="359"/>
<g>
	<defs>
		<path id="SVGID_5_" d="M279.5,142.5l95.3-40.1c12.3-5.2,25.6-7.9,39-7.9H579c8.3,0,11.4,10.8,4.4,15.2l-51.9,32.8H279.5z"/>
	</defs>
	<clipPath id="SVGID_6_">
		<use xlink:href="#SVGID_5_"  style="overflow:visible;"/>
	</clipPath>
	<g class="st9">
		<polygon class="st10" points="875.8,197.1 382.9,619.4 88.2,263.6 581,-144.7 		"/>
		<line class="st10" x1="585.5" y1="-134.5" x2="96.6" y2="273.8"/>
		<line class="st10" x1="593.9" y1="-124.3" x2="105" y2="284"/>
		<line class="st10" x1="602.3" y1="-114.2" x2="113.5" y2="294.1"/>
		<line class="st10" x1="610.7" y1="-104" x2="121.9" y2="304.3"/>
		<line class="st10" x1="619.1" y1="-93.8" x2="130.3" y2="314.4"/>
		<line class="st10" x1="627.6" y1="-83.7" x2="138.7" y2="324.6"/>
		<line class="st10" x1="636" y1="-73.5" x2="147.1" y2="334.8"/>
		<line class="st10" x1="644.4" y1="-63.3" x2="155.6" y2="344.9"/>
		<line class="st10" x1="652.8" y1="-53.2" x2="164" y2="355.1"/>
		<line class="st10" x1="661.3" y1="-43" x2="172.4" y2="365.3"/>
		<line class="st10" x1="669.7" y1="-46.8" x2="180.8" y2="375.4"/>
		<line class="st10" x1="678.1" y1="-36.7" x2="189.2" y2="385.6"/>
		<line class="st10" x1="686.5" y1="-26.5" x2="197.7" y2="395.8"/>
		<line class="st10" x1="698.9" y1="-16.4" x2="206.1" y2="405.9"/>
		<line class="st10" x1="707.4" y1="7.8" x2="214.5" y2="416.1"/>
		<line class="st10" x1="715.8" y1="18" x2="222.9" y2="426.3"/>
		<line class="st10" x1="724.2" y1="28.1" x2="231.4" y2="436.4"/>
		<line class="st10" x1="732.6" y1="38.3" x2="239.8" y2="446.6"/>
		<line class="st10" x1="737" y1="48.5" x2="248.2" y2="456.8"/>
		<line class="st10" x1="745.5" y1="58.6" x2="256.6" y2="466.9"/>
		<line class="st10" x1="753.9" y1="68.8" x2="265" y2="477.1"/>
		<line class="st10" x1="762.3" y1="79" x2="273.5" y2="487.3"/>
		<line class="st10" x1="770.7" y1="89.1" x2="281.9" y2="497.4"/>
		<line class="st10" x1="779.1" y1="99.3" x2="290.3" y2="507.6"/>
		<line class="st10" x1="787.6" y1="109.5" x2="298.7" y2="517.8"/>
		<line class="st10" x1="796" y1="119.6" x2="307.1" y2="527.9"/>
		<line class="st10" x1="804.4" y1="129.8" x2="315.6" y2="538.1"/>
		<line class="st10" x1="812.8" y1="140" x2="324" y2="548.3"/>
		<line class="st10" x1="821.3" y1="150.1" x2="332.4" y2="558.4"/>
		<line class="st10" x1="829.7" y1="160.3" x2="340.8" y2="568.6"/>
		<line class="st10" x1="838.1" y1="170.5" x2="349.2" y2="578.7"/>
		<line class="st10" x1="846.5" y1="180.6" x2="357.7" y2="588.9"/>
		<line class="st10" x1="854.9" y1="190.8" x2="366.1" y2="599.1"/>
		<line class="st10" x1="863.4" y1="187" x2="374.5" y2="595.2"/>
	</g>
	<use xlink:href="#SVGID_5_"  style="overflow:visible;fill:none;stroke:#231F20;stroke-miterlimit:10;"/>
</g>
<g>
	<defs>
		<polyline id="SVGID_7_" points="351,701 351,832 294,832 294,701 351,701 		"/>
	</defs>
	<clipPath id="SVGID_8_">
		<use xlink:href="#SVGID_7_"  style="overflow:visible;"/>
	</clipPath>
	<g class="st11">
		<rect x="197" y="504" class="st12" width="261" height="430"/>
		<line class="st12" x1="197" y1="917.7" x2="458" y2="917.7"/>
		<line class="st12" x1="197" y1="909.4" x2="458" y2="909.4"/>
		<line class="st12" x1="197" y1="897.1" x2="458" y2="897.1"/>
		<line class="st12" x1="197" y1="884.9" x2="458" y2="884.9"/>
		<line class="st12" x1="197" y1="872.6" x2="458" y2="872.6"/>
		<line class="st12" x1="197" y1="860.3" x2="458" y2="860.3"/>
		<line class="st12" x1="197" y1="848" x2="458" y2="848"/>
		<line class="st12" x1="197" y1="835.7" x2="458" y2="835.7"/>
		<line class="st12" x1="197" y1="823.4" x2="458" y2="823.4"/>
		<line class="st12" x1="197" y1="811.1" x2="458" y2="811.1"/>
		<line class="st12" x1="197" y1="798.9" x2="458" y2="798.9"/>
		<line class="st12" x1="197" y1="786.6" x2="458" y2="786.6"/>
		<line class="st12" x1="197" y1="774.3" x2="458" y2="774.3"/>
		<line class="st12" x1="197" y1="762" x2="458" y2="762"/>
		<line class="st12" x1="197" y1="749.7" x2="458" y2="749.7"/>
		<line class="st12" x1="197" y1="737.4" x2="458" y2="737.4"/>
		<line class="st12" x1="197" y1="725.1" x2="458" y2="725.1"/>
		<line class="st12" x1="197" y1="712.9" x2="458" y2="712.9"/>
		<line class="st12" x1="197" y1="700.6" x2="458" y2="700.6"/>
		<line class="st12" x1="197" y1="688.3" x2="458" y2="688.3"/>
		<line class="st12" x1="197" y1="676" x2="458" y2="676"/>
		<line class="st12" x1="197" y1="663.7" x2="458" y2="663.7"/>
		<line class="st12" x1="197" y1="651.4" x2="458" y2="651.4"/>
		<line class="st12" x1="197" y1="639.1" x2="458" y2="639.1"/>
		<line class="st12" x1="197" y1="626.9" x2="458" y2="626.9"/>
		<line class="st12" x1="197" y1="614.6" x2="458" y2="614.6"/>
		<line class="st12" x1="197" y1="602.3" x2="458" y2="602.3"/>
		<line class="st12" x1="197" y1="590" x2="458" y2="590"/>
		<line class="st12" x1="197" y1="577.7" x2="458" y2="577.7"/>
		<line class="st12" x1="197" y1="561.4" x2="458" y2="561.4"/>
		<line class="st12" x1="197" y1="549.1" x2="458" y2="549.1"/>
		<line class="st12" x1="197" y1="536.9" x2="458" y2="536.9"/>
		<line class="st12" x1="197" y1="524.6" x2="458" y2="524.6"/>
		<line class="st12" x1="197" y1="512.3" x2="458" y2="512.3"/>
	</g>
</g>
<line class="st4" x1="351" y1="705.5" x2="351" y2="828"/>
<path class="st4" d="M292,442c0,0,93,224.5,219-1"/>
<polygon class="st13" points="283,141 374,103 388,99 402,94 440,95 487,94 517,94 515,83 508,55 500,41 490,33 478,27 446,27 
	376,27 332,27 319,33 306,44 "/>
<line class="st14" x1="531" y1="257" x2="531" y2="142"/>
<g>
	<defs>
		<path id="SVGID_9_" d="M314.5,145.5l-35,162c0,0-17,10-19,8s34-174,34-174L314.5,145.5z"/>
	</defs>
	<clipPath id="SVGID_10_">
		<use xlink:href="#SVGID_9_"  style="overflow:visible;"/>
	</clipPath>
	<g class="st15">
		<rect x="181.5" y="124.5" class="st10" width="286" height="284"/>
		<line class="st10" x1="181.5" y1="400.4" x2="467.5" y2="400.4"/>
		<line class="st10" x1="181.5" y1="392.3" x2="467.5" y2="392.3"/>
		<line class="st10" x1="181.5" y1="384.2" x2="467.5" y2="384.2"/>
		<line class="st10" x1="181.5" y1="376" x2="467.5" y2="376"/>
		<line class="st10" x1="181.5" y1="367.9" x2="467.5" y2="367.9"/>
		<line class="st10" x1="181.5" y1="359.8" x2="467.5" y2="359.8"/>
		<line class="st10" x1="181.5" y1="351.7" x2="467.5" y2="351.7"/>
		<line class="st10" x1="181.5" y1="343.6" x2="467.5" y2="343.6"/>
		<line class="st10" x1="181.5" y1="335.5" x2="467.5" y2="335.5"/>
		<line class="st10" x1="181.5" y1="327.4" x2="467.5" y2="327.4"/>
		<line class="st10" x1="181.5" y1="319.2" x2="467.5" y2="319.2"/>
		<line class="st10" x1="181.5" y1="311.1" x2="467.5" y2="311.1"/>
		<line class="st10" x1="181.5" y1="303" x2="467.5" y2="303"/>
		<line class="st10" x1="181.5" y1="294.9" x2="467.5" y2="294.9"/>
		<line class="st10" x1="181.5" y1="286.8" x2="467.5" y2="286.8"/>
		<line class="st10" x1="181.5" y1="278.7" x2="467.5" y2="278.7"/>
		<line class="st10" x1="181.5" y1="270.6" x2="467.5" y2="270.6"/>
		<line class="st10" x1="181.5" y1="262.4" x2="467.5" y2="262.4"/>
		<line class="st10" x1="181.5" y1="254.3" x2="467.5" y2="254.3"/>
		<line class="st10" x1="181.5" y1="246.2" x2="467.5" y2="246.2"/>
		<line class="st10" x1="181.5" y1="238.1" x2="467.5" y2="238.1"/>
		<line class="st10" x1="181.5" y1="230" x2="467.5" y2="230"/>
		<line class="st10" x1="181.5" y1="221.9" x2="467.5" y2="221.9"/>
		<line class="st10" x1="181.5" y1="213.8" x2="467.5" y2="213.8"/>
		<line class="st10" x1="181.5" y1="205.6" x2="467.5" y2="205.6"/>
		<line class="st10" x1="181.5" y1="197.5" x2="467.5" y2="197.5"/>
		<line class="st10" x1="181.5" y1="189.4" x2="467.5" y2="189.4"/>
		<line class="st10" x1="181.5" y1="181.3" x2="467.5" y2="181.3"/>
		<line class="st10" x1="181.5" y1="173.2" x2="467.5" y2="173.2"/>
		<line class="st10" x1="181.5" y1="165.1" x2="467.5" y2="165.1"/>
		<line class="st10" x1="181.5" y1="157" x2="467.5" y2="157"/>
		<line class="st10" x1="181.5" y1="148.8" x2="467.5" y2="148.8"/>
		<line class="st10" x1="181.5" y1="140.7" x2="467.5" y2="140.7"/>
		<line class="st10" x1="181.5" y1="132.6" x2="467.5" y2="132.6"/>
	</g>
</g>
<g>
	<defs>
		<polygon id="SVGID_11_" points="522,146 531,140 547,282 520,282 		"/>
	</defs>
	<clipPath id="SVGID_12_">
		<use xlink:href="#SVGID_11_"  style="overflow:visible;"/>
	</clipPath>
	<g class="st16">
		<rect x="483" y="101" class="st17" width="103" height="261"/>
		<line class="st17" x1="483" y1="354.5" x2="586" y2="354.5"/>
		<line class="st17" x1="483" y1="347.1" x2="586" y2="347.1"/>
		<line class="st17" x1="483" y1="339.6" x2="586" y2="339.6"/>
		<line class="st17" x1="483" y1="332.2" x2="586" y2="332.2"/>
		<line class="st17" x1="483" y1="324.7" x2="586" y2="324.7"/>
		<line class="st17" x1="483" y1="317.3" x2="586" y2="317.3"/>
		<line class="st17" x1="483" y1="309.8" x2="586" y2="309.8"/>
		<line class="st17" x1="483" y1="302.3" x2="586" y2="302.3"/>
		<line class="st17" x1="483" y1="294.9" x2="586" y2="294.9"/>
		<line class="st17" x1="483" y1="287.4" x2="586" y2="287.4"/>
		<line class="st17" x1="483" y1="280" x2="586" y2="280"/>
		<line class="st17" x1="483" y1="272.5" x2="586" y2="272.5"/>
		<line class="st17" x1="483" y1="265.1" x2="586" y2="265.1"/>
		<line class="st17" x1="483" y1="257.6" x2="586" y2="257.6"/>
		<line class="st17" x1="483" y1="250.1" x2="586" y2="250.1"/>
		<line class="st17" x1="483" y1="242.7" x2="586" y2="242.7"/>
		<line class="st17" x1="483" y1="235.2" x2="586" y2="235.2"/>
		<line class="st17" x1="483" y1="227.8" x2="586" y2="227.8"/>
		<line class="st17" x1="483" y1="220.3" x2="586" y2="220.3"/>
		<line class="st17" x1="483" y1="212.9" x2="586" y2="212.9"/>
		<line class="st17" x1="483" y1="205.4" x2="586" y2="205.4"/>
		<line class="st17" x1="483" y1="197.9" x2="586" y2="197.9"/>
		<line class="st17" x1="483" y1="190.5" x2="586" y2="190.5"/>
		<line class="st17" x1="483" y1="183" x2="586" y2="183"/>
		<line class="st17" x1="483" y1="175.6" x2="586" y2="175.6"/>
		<line class="st17" x1="483" y1="168.1" x2="586" y2="168.1"/>
		<line class="st17" x1="483" y1="160.7" x2="586" y2="160.7"/>
		<line class="st17" x1="483" y1="153.2" x2="586" y2="153.2"/>
		<line class="st17" x1="483" y1="145.7" x2="586" y2="145.7"/>
		<line class="st17" x1="483" y1="138.3" x2="586" y2="138.3"/>
		<line class="st17" x1="483" y1="130.8" x2="586" y2="130.8"/>
		<line class="st17" x1="483" y1="123.4" x2="586" y2="123.4"/>
		<line class="st17" x1="483" y1="115.9" x2="586" y2="115.9"/>
		<line class="st17" x1="483" y1="108.5" x2="586" y2="108.5"/>
	</g>
</g>
<g>
	<defs>
		<rect id="SVGID_13_" x="568" y="578" width="38" height="247"/>
	</defs>
	<clipPath id="SVGID_14_">
		<use xlink:href="#SVGID_13_"  style="overflow:visible;"/>
	</clipPath>
	<g class="st18">
		<polygon class="st17" points="526.5,858 526.5,551.5 771.5,551.5 771.5,854 		"/>
		<line class="st17" x1="764.4" y1="854" x2="764.4" y2="551.5"/>
		<line class="st17" x1="757.3" y1="854" x2="757.3" y2="551.5"/>
		<line class="st17" x1="750.2" y1="854" x2="750.2" y2="551.5"/>
		<line class="st17" x1="743" y1="854" x2="743" y2="551.5"/>
		<line class="st17" x1="735.9" y1="854" x2="735.9" y2="551.5"/>
		<line class="st17" x1="728.8" y1="854" x2="728.8" y2="551.5"/>
		<line class="st17" x1="725.7" y1="854" x2="725.7" y2="551.5"/>
		<line class="st17" x1="718.6" y1="854" x2="718.6" y2="551.5"/>
		<line class="st17" x1="711.5" y1="854" x2="711.5" y2="551.5"/>
		<line class="st17" x1="704.4" y1="854" x2="704.4" y2="551.5"/>
		<line class="st17" x1="697.2" y1="854" x2="697.2" y2="551.5"/>
		<line class="st17" x1="690.1" y1="854" x2="690.1" y2="551.5"/>
		<line class="st17" x1="683" y1="854" x2="683" y2="551.5"/>
		<line class="st17" x1="675.9" y1="854" x2="675.9" y2="551.5"/>
		<line class="st17" x1="668.8" y1="854" x2="668.8" y2="551.5"/>
		<line class="st17" x1="661.7" y1="854" x2="661.7" y2="551.5"/>
		<line class="st17" x1="654.6" y1="854" x2="654.6" y2="551.5"/>
		<line class="st17" x1="647.4" y1="854" x2="647.4" y2="551.5"/>
		<line class="st17" x1="640.3" y1="858" x2="640.3" y2="551.5"/>
		<line class="st17" x1="633.2" y1="858" x2="633.2" y2="551.5"/>
		<line class="st17" x1="626.1" y1="858" x2="626.1" y2="551.5"/>
		<line class="st17" x1="619" y1="858" x2="619" y2="551.5"/>
		<line class="st17" x1="611.9" y1="858" x2="611.9" y2="551.5"/>
		<line class="st17" x1="604.8" y1="858" x2="604.8" y2="551.5"/>
		<line class="st17" x1="597.6" y1="858" x2="597.6" y2="551.5"/>
		<line class="st17" x1="590.5" y1="858" x2="590.5" y2="551.5"/>
		<line class="st17" x1="583.4" y1="858" x2="583.4" y2="551.5"/>
		<line class="st17" x1="576.3" y1="858" x2="576.3" y2="551.5"/>
		<line class="st17" x1="569.2" y1="858" x2="569.2" y2="551.5"/>
		<line class="st17" x1="562.1" y1="858" x2="562.1" y2="551.5"/>
		<line class="st17" x1="555" y1="858" x2="555" y2="551.5"/>
		<line class="st17" x1="547.8" y1="858" x2="547.8" y2="551.5"/>
		<line class="st17" x1="540.7" y1="858" x2="540.7" y2="551.5"/>
		<line class="st17" x1="533.6" y1="858" x2="533.6" y2="551.5"/>
	</g>
</g>
<polygon class="st19" points="547,706 550,813 582,813 582,785 589,785 589,755 596,754 596,735 574,736 575,706 "/>
<polyline class="st20" points="575.1,725.4 575.1,705.5 470.2,705.5 "/>
<polyline class="st4" points="596,755.3 596,735.4 477.5,735.1 "/>
<polyline class="st4" points="589.3,785.1 589.3,765.3 483.3,764.9 "/>
<polyline class="st4" points="579.3,815 579.3,795.2 475.8,794.8 "/>
<polyline class="st4" points="483.6,695.1 483.6,675.9 441.4,675.9 394,695.1 "/>
<path class="st4" d="M568,683V578H404.3c-29.4,0-53.3,23.8-53.3,53.3l1,69.8h-94.5L158,767"/>
<rect x="256.5" y="701.5" class="st21" width="37.5" height="122"/>
<polygon class="st21" points="486.5,435.5 511,439.5 501.9,456.7 472.2,498.3 447.1,522.5 418.4,538.2 389,541.5 359.1,529.3 
	331.3,504.9 302.8,465.3 295.5,448.5 291.5,441.5 316.5,435.5 327.5,449.5 351.5,482.5 375.5,498.5 399.5,502.5 429.5,494.5 
	461.5,470.5 "/>
<polyline class="st12" points="500,693 500,674 516,674 516,693 "/>
<polyline class="st4" points="500,674 497,674 497,604 "/>
<polyline class="st4" points="520,604 520,674 515,674 "/>
<polygon class="st22" points="496.5,628 518,628 518,673 497,673 "/>
<line class="st17" x1="508.5" y1="604" x2="508.5" y2="635"/>
<line class="st17" x1="503.5" y1="604" x2="503.5" y2="635"/>
<line class="st17" x1="513.5" y1="604" x2="513.5" y2="635"/>
<line class="st4" x1="494" y1="598" x2="523" y2="598"/>
<line class="st4" x1="205" y1="734.5" x2="239" y2="621.5"/>
</svg>
