<?xml version="1.0" encoding="utf-8"?>
<!-- Generator: Adobe Illustrator 22.1.0, SVG Export Plug-In . SVG Version: 6.00 Build 0)  -->
<svg version="1.1" id="Слой_1" xmlns="http://www.w3.org/2000/svg" xmlns:xlink="http://www.w3.org/1999/xlink" x="0px" y="0px"
	 viewBox="0 0 363 1074" style="enable-background:new 0 0 363 1074;" xml:space="preserve">
<style type="text/css">
	.st0{fill:#231F20;}
	.st1{clip-path:url(#SVGID_2_);}
	.st2{fill:none;stroke:#231F20;stroke-width:3;stroke-miterlimit:10;}
</style>
<g>
	<g>
		<path class="st0" d="M235.2,587.8c0,10.4-2.3,20.5-6.8,30c-4.3,9.1-10.3,17.2-18,24.2c-15.5,14.1-36,21.9-57.6,22l-0.1-29.9
			c29-0.1,52.6-20.9,52.6-46.3c0-25.1-24.2-46.3-52.8-46.3v-29.9c21.7,0,42.2,7.8,57.8,21.9c7.7,7,13.8,15.1,18.1,24.2
			C233,567.2,235.2,577.4,235.2,587.8z"/>
		<path class="st0" d="M274.4,354.8c0,24-8.4,46.7-23.7,63.9c-7.6,8.6-16.4,15.3-26.2,20c-10.4,5-21.4,7.5-32.7,7.5
			c-11.3,0-22.3-2.5-32.6-7.5c-9.8-4.7-18.6-11.4-26.2-20c-15.2-17.2-23.7-39.8-23.8-63.7l29.9-0.1c0.1,33.8,23.8,61.4,52.7,61.4
			c28.6,0,52.7-28.2,52.7-61.6H274.4z"/>
		<rect x="109.3" y="357.1" class="st0" width="29.9" height="306.9"/>
		<rect x="152.7" y="464.8" class="st0" width="123.3" height="29.9"/>
		<rect x="176.9" y="355" class="st0" width="29.9" height="32"/>
		<rect x="246.6" y="571.9" class="st0" width="29.9" height="32"/>
	</g>
	<g>
		<defs>
			<rect id="SVGID_1_" y="16" width="363" height="1080"/>
		</defs>
		<clipPath id="SVGID_2_">
			<use xlink:href="#SVGID_1_"  style="overflow:visible;"/>
		</clipPath>
		<g class="st1">
			<rect x="-185.6" y="16" class="st2" width="827.9" height="1084"/>
			<line class="st2" x1="-185.6" y1="1074.2" x2="642.3" y2="1074.2"/>
			<line class="st2" x1="-185.6" y1="1048.4" x2="642.3" y2="1048.4"/>
			<line class="st2" x1="-185.6" y1="1022.6" x2="642.3" y2="1022.6"/>
			<line class="st2" x1="-185.6" y1="996.8" x2="642.3" y2="996.8"/>
			<line class="st2" x1="-185.6" y1="971" x2="642.3" y2="971"/>
			<line class="st2" x1="-185.6" y1="945.1" x2="642.3" y2="945.1"/>
			<line class="st2" x1="-185.6" y1="919.3" x2="642.3" y2="919.3"/>
			<line class="st2" x1="-185.6" y1="893.5" x2="642.3" y2="893.5"/>
			<line class="st2" x1="-185.6" y1="867.7" x2="642.3" y2="867.7"/>
			<line class="st2" x1="-185.6" y1="841.9" x2="642.3" y2="841.9"/>
			<line class="st2" x1="-185.6" y1="816.1" x2="642.3" y2="816.1"/>
			<line class="st2" x1="-185.6" y1="790.3" x2="642.3" y2="790.3"/>
			<line class="st2" x1="-185.6" y1="764.5" x2="642.3" y2="764.5"/>
			<line class="st2" x1="-185.6" y1="738.7" x2="642.3" y2="738.7"/>
			<line class="st2" x1="-185.6" y1="712.9" x2="642.3" y2="712.9"/>
			<line class="st2" x1="-185.6" y1="687" x2="642.3" y2="687"/>
			<line class="st2" x1="-185.6" y1="661.2" x2="642.3" y2="661.2"/>
			<line class="st2" x1="-185.6" y1="635.4" x2="642.3" y2="635.4"/>
			<line class="st2" x1="-185.6" y1="609.6" x2="642.3" y2="609.6"/>
			<line class="st2" x1="-185.6" y1="583.8" x2="642.3" y2="583.8"/>
			<line class="st2" x1="-185.6" y1="558" x2="642.3" y2="558"/>
			<line class="st2" x1="-185.6" y1="532.2" x2="642.3" y2="532.2"/>
			<line class="st2" x1="-185.6" y1="506.4" x2="642.3" y2="506.4"/>
			<line class="st2" x1="-185.6" y1="480.6" x2="642.3" y2="480.6"/>
			<line class="st2" x1="-185.6" y1="454.8" x2="642.3" y2="454.8"/>
			<line class="st2" x1="-185.6" y1="429" x2="642.3" y2="429"/>
			<line class="st2" x1="-185.6" y1="403.1" x2="642.3" y2="403.1"/>
			<line class="st2" x1="-185.6" y1="377.3" x2="642.3" y2="377.3"/>
			<line class="st2" x1="-185.6" y1="351.5" x2="642.3" y2="351.5"/>
			<line class="st2" x1="-185.6" y1="325.7" x2="642.3" y2="325.7"/>
			<line class="st2" x1="-185.6" y1="299.9" x2="642.3" y2="299.9"/>
			<line class="st2" x1="-185.6" y1="274.1" x2="642.3" y2="274.1"/>
			<line class="st2" x1="-185.6" y1="248.3" x2="642.3" y2="248.3"/>
			<line class="st2" x1="-185.6" y1="222.5" x2="642.3" y2="222.5"/>
			<line class="st2" x1="-185.6" y1="196.7" x2="642.3" y2="196.7"/>
			<line class="st2" x1="-185.6" y1="170.9" x2="642.3" y2="170.9"/>
			<line class="st2" x1="-185.6" y1="145" x2="642.3" y2="145"/>
			<line class="st2" x1="-185.6" y1="119.2" x2="642.3" y2="119.2"/>
			<line class="st2" x1="-185.6" y1="93.4" x2="642.3" y2="93.4"/>
			<line class="st2" x1="-185.6" y1="67.6" x2="642.3" y2="67.6"/>
			<line class="st2" x1="-185.6" y1="41.8" x2="642.3" y2="41.8"/>
		</g>
	</g>
</g>
</svg>
