<?xml version="1.0" encoding="utf-8"?>
<!-- Generator: Adobe Illustrator 22.1.0, SVG Export Plug-In . SVG Version: 6.00 Build 0)  -->
<svg version="1.1" id="Слой_1" xmlns="http://www.w3.org/2000/svg" xmlns:xlink="http://www.w3.org/1999/xlink" x="0px" y="0px"
	 viewBox="0 0 1039 693" style="enable-background:new 0 0 1039 693;" xml:space="preserve">
<style type="text/css">
	.st0{fill:none;stroke:#231F20;stroke-width:70;stroke-linejoin:round;stroke-miterlimit:10;}
	.st1{fill:none;stroke:#231F20;stroke-width:40;stroke-miterlimit:10;}
	.st2{clip-path:url(#SVGID_2_);}
	.st3{fill:none;stroke:#231F20;stroke-width:7;stroke-miterlimit:10;}
	.st4{clip-path:url(#SVGID_4_);}
</style>
<path class="st0" d="M459.6,232.8c0,95.8-71.3,174.7-157.9,174.7c-86.4,0-157.6-78.4-157.9-174"/>
<path class="st0" d="M902.5,508.6c-108.3,0-197.5-78.7-197.5-174.4c0-95.4,88.6-174,196.6-174.4"/>
<line class="st0" x1="896.6" y1="159.9" x2="105.2" y2="159.9"/>
<line class="st0" x1="580.3" y1="551" x2="580.3" y2="233.2"/>
<line class="st0" x1="819.4" y1="334.3" x2="902" y2="334.3"/>
<line class="st0" x1="260.2" y1="514" x2="342.8" y2="514"/>
<rect x="33" y="43" class="st1" width="972" height="612"/>
<g>
	<defs>
		<rect id="SVGID_1_" x="33" y="28" width="972" height="612"/>
	</defs>
	<clipPath id="SVGID_2_">
		<use xlink:href="#SVGID_1_"  style="overflow:visible;"/>
	</clipPath>
	<g class="st2">
		<rect x="-471" y="-1633" class="st3" width="2070" height="3746"/>
		<line class="st3" x1="-471" y1="2043.6" x2="1599" y2="2043.6"/>
		<line class="st3" x1="-471" y1="1974.3" x2="1599" y2="1974.3"/>
		<line class="st3" x1="-471" y1="1904.9" x2="1599" y2="1904.9"/>
		<line class="st3" x1="-471" y1="1835.5" x2="1599" y2="1835.5"/>
		<line class="st3" x1="-471" y1="1766.1" x2="1599" y2="1766.1"/>
		<line class="st3" x1="-471" y1="1696.8" x2="1599" y2="1696.8"/>
		<line class="st3" x1="-471" y1="1627.4" x2="1599" y2="1627.4"/>
		<line class="st3" x1="-471" y1="1558" x2="1599" y2="1558"/>
		<line class="st3" x1="-471" y1="1488.7" x2="1599" y2="1488.7"/>
		<line class="st3" x1="-471" y1="1419.3" x2="1599" y2="1419.3"/>
		<line class="st3" x1="-471" y1="1349.9" x2="1599" y2="1349.9"/>
		<line class="st3" x1="-471" y1="1280.6" x2="1599" y2="1280.6"/>
		<line class="st3" x1="-471" y1="1211.2" x2="1599" y2="1211.2"/>
		<line class="st3" x1="-471" y1="1141.8" x2="1599" y2="1141.8"/>
		<line class="st3" x1="-471" y1="1072.4" x2="1599" y2="1072.4"/>
		<line class="st3" x1="-471" y1="1003.1" x2="1599" y2="1003.1"/>
		<line class="st3" x1="-471" y1="933.7" x2="1599" y2="933.7"/>
		<line class="st3" x1="-471" y1="864.3" x2="1599" y2="864.3"/>
		<line class="st3" x1="-471" y1="795" x2="1599" y2="795"/>
		<line class="st3" x1="-471" y1="725.6" x2="1599" y2="725.6"/>
		<line class="st3" x1="-471" y1="656.2" x2="1599" y2="656.2"/>
		<line class="st3" x1="-471" y1="586.9" x2="1599" y2="586.9"/>
		<line class="st3" x1="-471" y1="517.5" x2="1599" y2="517.5"/>
		<line class="st3" x1="-471" y1="448.1" x2="1599" y2="448.1"/>
		<line class="st3" x1="-471" y1="378.7" x2="1599" y2="378.7"/>
		<line class="st3" x1="-471" y1="309.4" x2="1599" y2="309.4"/>
		<line class="st3" x1="-471" y1="240" x2="1599" y2="240"/>
		<line class="st3" x1="-471" y1="170.6" x2="1599" y2="170.6"/>
		<line class="st3" x1="-471" y1="101.3" x2="1599" y2="101.3"/>
		<line class="st3" x1="-471" y1="31.9" x2="1599" y2="31.9"/>
		<line class="st3" x1="-471" y1="-37.5" x2="1599" y2="-37.5"/>
		<line class="st3" x1="-471" y1="-106.9" x2="1599" y2="-106.9"/>
		<line class="st3" x1="-471" y1="-176.2" x2="1599" y2="-176.2"/>
		<line class="st3" x1="-471" y1="-245.6" x2="1599" y2="-245.6"/>
		<line class="st3" x1="-471" y1="-315" x2="1599" y2="-315"/>
		<line class="st3" x1="-471" y1="-384.3" x2="1599" y2="-384.3"/>
		<line class="st3" x1="-471" y1="-453.7" x2="1599" y2="-453.7"/>
		<line class="st3" x1="-471" y1="-523.1" x2="1599" y2="-523.1"/>
		<line class="st3" x1="-471" y1="-592.4" x2="1599" y2="-592.4"/>
		<line class="st3" x1="-471" y1="-661.8" x2="1599" y2="-661.8"/>
		<line class="st3" x1="-471" y1="-731.2" x2="1599" y2="-731.2"/>
		<line class="st3" x1="-471" y1="-800.6" x2="1599" y2="-800.6"/>
		<line class="st3" x1="-471" y1="-869.9" x2="1599" y2="-869.9"/>
		<line class="st3" x1="-471" y1="-939.3" x2="1599" y2="-939.3"/>
		<line class="st3" x1="-471" y1="-1008.7" x2="1599" y2="-1008.7"/>
		<line class="st3" x1="-471" y1="-1078" x2="1599" y2="-1078"/>
		<line class="st3" x1="-471" y1="-1147.4" x2="1599" y2="-1147.4"/>
		<line class="st3" x1="-471" y1="-1216.8" x2="1599" y2="-1216.8"/>
		<line class="st3" x1="-471" y1="-1286.1" x2="1599" y2="-1286.1"/>
		<line class="st3" x1="-471" y1="-1355.5" x2="1599" y2="-1355.5"/>
		<line class="st3" x1="-471" y1="-1424.9" x2="1599" y2="-1424.9"/>
		<line class="st3" x1="-471" y1="-1494.3" x2="1599" y2="-1494.3"/>
		<line class="st3" x1="-471" y1="-1563.6" x2="1599" y2="-1563.6"/>
	</g>
</g>
<path class="st0" d="M-1016.4,50.8c0,95.8-71.3,174.7-157.9,174.7c-86.4,0-157.6-78.4-157.9-174"/>
<path class="st0" d="M-573.5,326.6c-108.3,0-197.5-78.7-197.5-174.4c0-95.4,88.6-174,196.6-174.4"/>
<line class="st0" x1="-579.4" y1="-22.1" x2="-1370.8" y2="-22.1"/>
<line class="st0" x1="-895.7" y1="369" x2="-895.7" y2="51.2"/>
<line class="st0" x1="-656.6" y1="152.3" x2="-574" y2="152.3"/>
<line class="st0" x1="-1215.8" y1="332" x2="-1133.2" y2="332"/>
<rect x="-1443" y="-139" class="st1" width="972" height="612"/>
<g>
	<defs>
		<rect id="SVGID_3_" x="-1443" y="-154" width="972" height="612"/>
	</defs>
	<clipPath id="SVGID_4_">
		<use xlink:href="#SVGID_3_"  style="overflow:visible;"/>
	</clipPath>
	<g class="st4">
		<rect x="-1947" y="-748" class="st3" width="2070" height="1932"/>
		<line class="st3" x1="-1947" y1="1148.2" x2="123" y2="1148.2"/>
		<line class="st3" x1="-1947" y1="1112.4" x2="123" y2="1112.4"/>
		<line class="st3" x1="-1947" y1="1076.7" x2="123" y2="1076.7"/>
		<line class="st3" x1="-1947" y1="1040.9" x2="123" y2="1040.9"/>
		<line class="st3" x1="-1947" y1="1005.1" x2="123" y2="1005.1"/>
		<line class="st3" x1="-1947" y1="969.3" x2="123" y2="969.3"/>
		<line class="st3" x1="-1947" y1="933.6" x2="123" y2="933.6"/>
		<line class="st3" x1="-1947" y1="897.8" x2="123" y2="897.8"/>
		<line class="st3" x1="-1947" y1="862" x2="123" y2="862"/>
		<line class="st3" x1="-1947" y1="826.2" x2="123" y2="826.2"/>
		<line class="st3" x1="-1947" y1="790.4" x2="123" y2="790.4"/>
		<line class="st3" x1="-1947" y1="754.7" x2="123" y2="754.7"/>
		<line class="st3" x1="-1947" y1="718.9" x2="123" y2="718.9"/>
		<line class="st3" x1="-1947" y1="683.1" x2="123" y2="683.1"/>
		<line class="st3" x1="-1947" y1="647.3" x2="123" y2="647.3"/>
		<line class="st3" x1="-1947" y1="611.6" x2="123" y2="611.6"/>
		<line class="st3" x1="-1947" y1="575.8" x2="123" y2="575.8"/>
		<line class="st3" x1="-1947" y1="540" x2="123" y2="540"/>
		<line class="st3" x1="-1947" y1="504.2" x2="123" y2="504.2"/>
		<line class="st3" x1="-1947" y1="468.4" x2="123" y2="468.4"/>
		<line class="st3" x1="-1947" y1="432.7" x2="123" y2="432.7"/>
		<line class="st3" x1="-1947" y1="396.9" x2="123" y2="396.9"/>
		<line class="st3" x1="-1947" y1="361.1" x2="123" y2="361.1"/>
		<line class="st3" x1="-1947" y1="325.3" x2="123" y2="325.3"/>
		<line class="st3" x1="-1947" y1="289.6" x2="123" y2="289.6"/>
		<line class="st3" x1="-1947" y1="253.8" x2="123" y2="253.8"/>
		<line class="st3" x1="-1947" y1="218" x2="123" y2="218"/>
		<line class="st3" x1="-1947" y1="182.2" x2="123" y2="182.2"/>
		<line class="st3" x1="-1947" y1="146.4" x2="123" y2="146.4"/>
		<line class="st3" x1="-1947" y1="110.7" x2="123" y2="110.7"/>
		<line class="st3" x1="-1947" y1="74.9" x2="123" y2="74.9"/>
		<line class="st3" x1="-1947" y1="39.1" x2="123" y2="39.1"/>
		<line class="st3" x1="-1947" y1="3.3" x2="123" y2="3.3"/>
		<line class="st3" x1="-1947" y1="-32.4" x2="123" y2="-32.4"/>
		<line class="st3" x1="-1947" y1="-68.2" x2="123" y2="-68.2"/>
		<line class="st3" x1="-1947" y1="-104" x2="123" y2="-104"/>
		<line class="st3" x1="-1947" y1="-139.8" x2="123" y2="-139.8"/>
		<line class="st3" x1="-1947" y1="-175.6" x2="123" y2="-175.6"/>
		<line class="st3" x1="-1947" y1="-211.3" x2="123" y2="-211.3"/>
		<line class="st3" x1="-1947" y1="-247.1" x2="123" y2="-247.1"/>
		<line class="st3" x1="-1947" y1="-282.9" x2="123" y2="-282.9"/>
		<line class="st3" x1="-1947" y1="-318.7" x2="123" y2="-318.7"/>
		<line class="st3" x1="-1947" y1="-354.4" x2="123" y2="-354.4"/>
		<line class="st3" x1="-1947" y1="-390.2" x2="123" y2="-390.2"/>
		<line class="st3" x1="-1947" y1="-426" x2="123" y2="-426"/>
		<line class="st3" x1="-1947" y1="-461.8" x2="123" y2="-461.8"/>
		<line class="st3" x1="-1947" y1="-497.6" x2="123" y2="-497.6"/>
		<line class="st3" x1="-1947" y1="-533.3" x2="123" y2="-533.3"/>
		<line class="st3" x1="-1947" y1="-569.1" x2="123" y2="-569.1"/>
		<line class="st3" x1="-1947" y1="-604.9" x2="123" y2="-604.9"/>
		<line class="st3" x1="-1947" y1="-640.7" x2="123" y2="-640.7"/>
		<line class="st3" x1="-1947" y1="-676.4" x2="123" y2="-676.4"/>
		<line class="st3" x1="-1947" y1="-712.2" x2="123" y2="-712.2"/>
	</g>
</g>
</svg>
