<svg xmlns="http://www.w3.org/2000/svg" viewBox="0 0 526.47 494.98"><defs><style>.cls-1,.cls-3{fill:none;}.cls-1,.cls-2,.cls-3,.cls-4,.cls-5,.cls-7,.cls-8{stroke:#000;}.cls-1,.cls-2,.cls-3,.cls-4,.cls-5{stroke-linecap:round;stroke-linejoin:round;}.cls-1,.cls-4,.cls-5{stroke-width:4px;}.cls-2,.cls-3{stroke-width:2px;}.cls-4,.cls-6,.cls-7{fill:#fff;}.cls-7,.cls-8{stroke-miterlimit:10;stroke-width:3px;}</style></defs><title>QALogo</title><g id="Слой_2" data-name="Слой 2"><path class="cls-1" d="M276.44,415s33.14-.62,40-7.5,55.62-62.79-9.64-213.39"/><path class="cls-1" d="M274.89,302.12s-9.49,78.07-5.33,93.77c10,10,8,26.06,1,26.06s-39.67-3.17-39.67-3.17"/><circle class="cls-2" cx="226.02" cy="274.63" r="3.62"/><circle class="cls-3" cx="225.34" cy="274.63" r="8.94"/><circle class="cls-1" cx="225.34" cy="274.63" r="22.75"/><path class="cls-1" d="M170.39,225.45s23.25,36.24,72.25,23.35,57-36.85,57-36.85"/><path class="cls-1" d="M286.89,59.45s29.07,15.36,25.2,60"/><path class="cls-1" d="M149.7,62.45s30.53-12.33,50.53,24"/><path class="cls-1" d="M249.39,86.45s24-33.5,37.5-27S292,106.1,292,106.1"/><path class="cls-1" d="M143.87,119.46s-7.86-50,5.83-57,33.19,32,33.19,32"/><path class="cls-1" d="M218.89,86.45s-119.33,10-74.66,97S312.39,217,314.89,176s9-58-48.5-83C240.89,86.45,241.39,86.45,218.89,86.45Z"/><path class="cls-1" d="M359.84,403.55q7.61-12.74,5.31-14.89-3-2.82-23.09,12.59"/><path class="cls-1" d="M396,397.3q.78-14.82-2.25-15.65-4-1.09-14.55,21.9"/><path class="cls-1" d="M426.3,381.13q-3.27-14.47-6.42-14.44-4.12,0-8,25"/><path class="cls-1" d="M450.89,356.12q-7.68-12.69-10.66-11.67-3.9,1.35.31,26.29"/><path class="cls-1" d="M338.34,363.91s61.55,7.54,80.55-42,57.5-13,43.5,18-66.33,85.15-134.91,56.83"/><path class="cls-1" d="M144.23,302.12l38.66,100.66s-7.33,12,0,19.34,42.67,2,48-3.34c0,0-10-72.33-17-108.33"/><path class="cls-1" d="M160.23,207.45s-39.34,61.33-43.34,103.33,24,108,43.34,108,19.7-2.12,19.7-2.12"/><path class="cls-4" d="M134.22,132s182-11.21,193.26,0-14.91,45.5-55.5,49-129.84-5.25-144.09-19.5S131.46,132.12,134.22,132Z"/><path class="cls-5" d="M143.56,142.12s139.32-2.92,147.32-2.92,25.92.15,27.18,1.42-13.17,20-27.17,23.83-126.38-.84-141.19-4.17S130.23,146.12,143.56,142.12Z"/><ellipse class="cls-6" cx="268.69" cy="152.53" rx="7.75" ry="6.5"/><path class="cls-7" d="M194.23,370.62s-28,3.5-26.34,10.66,3.67,16.5,16.67,13.34,44.33-7,45.67-10-.67-18.34-2.17-18.34S194.23,370.62,194.23,370.62Z"/><rect class="cls-7" x="188.06" y="365.44" width="28.17" height="30.67" rx="5" ry="5" transform="translate(-93.15 66.68) rotate(-15.27)"/><rect class="cls-8" x="192.7" y="371.12" width="17.73" height="19.3" rx="5" ry="5" transform="translate(-93.17 66.53) rotate(-15.27)"/></g></svg>