<?xml version="1.0" encoding="utf-8"?>
<!-- Generator: Adobe Illustrator 22.1.0, SVG Export Plug-In . SVG Version: 6.00 Build 0)  -->
<svg version="1.1" id="Слой_1" xmlns="http://www.w3.org/2000/svg" xmlns:xlink="http://www.w3.org/1999/xlink" x="0px" y="0px"
	 viewBox="0 0 120 108" style="enable-background:new 0 0 120 108;" xml:space="preserve">
<title>Sewing Machine</title>
<path d="M99.1,34.2v12.5h4.7V34.2H99.1z M102.2,45.1h-1.6v-9.4h1.6V45.1z"/>
<rect x="28.8" y="59.7" width="1.6" height="7"/>
<path d="M97.3,24.8H19.5c-1.8,0-3.2,1.4-3.3,3.1v28.6c0,1.8,1.5,3.2,3.3,3.1h20.1c1.8,0,3.2-1.4,3.3-3.2v-4.7c0,0,0.1-0.1,0.2-0.1
	h30.8c0,0,0.1,0,0.1,0l0,0v23.8h26.6V28C100.6,26.2,99.1,24.8,97.3,24.8z M99.1,74H75.5V51.8c0-0.9-0.8-1.6-1.7-1.6c0,0,0,0,0,0H43
	c-0.9,0-1.7,0.7-1.7,1.6c0,0,0,0,0,0v4.8c0,0.9-0.8,1.6-1.7,1.6c0,0,0,0,0,0H19.5c-0.9,0-1.7-0.7-1.7-1.6c0,0,0,0,0,0V28
	c0-0.9,0.8-1.6,1.7-1.6c0,0,0,0,0,0h77.8c0.9,0,1.7,0.7,1.7,1.6c0,0,0,0,0,0V74z"/>
<path d="M51.6,20.9h-6.7c-2,0-3.7,1.6-3.7,3.7v1.8h14.1v-1.8C55.3,22.6,53.7,20.9,51.6,20.9z M53.8,24.8H42.8v-0.2
	c0-1.2,1-2.1,2.1-2.1h6.7c1.2,0,2.1,0.9,2.1,2.1v0L53.8,24.8z"/>
<path d="M30.9,20.9h-1.3c-2,0-3.7,1.6-3.7,3.7c0,0,0,0,0,0v1.8h8.6v-1.8C34.6,22.6,33,20.9,30.9,20.9z M33,24.8h-5.4v-0.2
	c0-1.2,1-2.1,2.1-2.1h1.3c1.1,0,2,0.9,2.1,2.1V24.8z"/>
<path d="M80.5,18.6h-0.3c-1.4,0-2.6,1.2-2.6,2.6v5.2H83v-5.2C83,19.7,81.9,18.6,80.5,18.6z M81.5,24.8h-2.3v-3.7c0-0.6,0.4-1,1-1
	h0.3c0.6,0,1,0.4,1,1L81.5,24.8z"/>
<path d="M11.6,77.9v12.5h89.1V77.9H11.6z M99.1,88.9H13.1v-9.4h85.9V88.9z"/>
<path d="M85,31.1c-3.9,0-7,3.1-7,7s3.1,7,7,7s7-3.1,7-7S88.9,31.1,85,31.1L85,31.1z M85,43.6c-3,0-5.5-2.4-5.5-5.5s2.4-5.5,5.5-5.5
	s5.5,2.4,5.5,5.5S88,43.6,85,43.6L85,43.6z"/>
<path d="M89.7,50.6c-2.4,0-4.3,1.9-4.3,4.3s1.9,4.3,4.3,4.3s4.3-1.9,4.3-4.3S92.1,50.6,89.7,50.6L89.7,50.6z M89.7,57.6
	c-1.5,0-2.7-1.2-2.7-2.7s1.2-2.7,2.7-2.7c1.5,0,2.7,1.2,2.7,2.7C92.4,56.4,91.2,57.6,89.7,57.6C89.7,57.6,89.7,57.6,89.7,57.6
	L89.7,57.6z"/>
<polygon points="30.3,72.2 30.3,72.2 30.3,66.7 29.5,66.7 "/>
<rect x="30.3" y="63.1" width="0.8" height="0.8"/>
<rect x="31.1" y="62.3" width="0.8" height="2.3"/>
<rect x="28" y="64.6" width="0.8" height="0.8"/>
<rect x="27.2" y="63.9" width="0.8" height="2.3"/>
<path d="M12.6,74c-1.4,0-2.6,1.2-2.6,2.6c0,0,0,0,0,0v0.3c0,1.4,1.2,2.6,2.6,2.6h88V74H12.6z M99.1,77.9H12.6c-0.6,0-1-0.4-1-1v-0.3
	c0-0.6,0.4-1,1-1h86.5L99.1,77.9z"/>
<path d="M106.9,24.8h-1.6c-1.7,0-3.1,1.4-3.1,3.1v25c0,1.7,1.4,3.1,3.1,3.1h1.6c1.7,0,3.1-1.4,3.1-3.1v-25
	C110,26.2,108.6,24.8,106.9,24.8z M108.4,52.9c0,0.9-0.7,1.6-1.6,1.6h-1.6c-0.9,0-1.6-0.7-1.6-1.6v-25c0-0.9,0.7-1.6,1.6-1.6h1.6
	c0.9,0,1.6,0.7,1.6,1.6V52.9z"/>
</svg>
