<?xml version="1.0" encoding="utf-8"?>
<!-- Generator: Adobe Illustrator 22.1.0, SVG Export Plug-In . SVG Version: 6.00 Build 0)  -->
<svg version="1.1" id="Слой_1" xmlns="http://www.w3.org/2000/svg" xmlns:xlink="http://www.w3.org/1999/xlink" x="0px" y="0px"
	 viewBox="0 0 100 103.8" style="enable-background:new 0 0 100 103.8;" xml:space="preserve">
<path d="M27,1.9H10.8v9.4c-2.7,0.2-6.5,1.9-6.5,6.2c0,4.6,4.2,6.5,6.5,6.9v3.7c-2.7,0.2-6.5,1.9-6.5,6.2c0,4.6,4.2,6.5,6.5,6.9v3.7
	c-2.7,0.2-6.5,1.9-6.5,6.2c0,4.6,4.2,6.5,6.5,6.9v3.7c-2.7,0.2-6.5,1.9-6.5,6.2c0,4.6,4.2,6.5,6.5,6.9v3.7c-2.7,0.2-6.5,2-6.5,6.2
	c0,4.6,4.2,6.5,6.5,6.9V99H27h58.2V1.9H27z M8.3,17.5c0-1.7,1.6-2.1,2.5-2.2v5C9.9,20,8.3,19.2,8.3,17.5z M8.3,34.3
	c0-1.7,1.6-2.1,2.5-2.2v5C9.9,36.7,8.3,36,8.3,34.3z M8.3,51.1c0-1.7,1.6-2.1,2.5-2.2v5C9.9,53.5,8.3,52.8,8.3,51.1z M8.3,67.9
	c0-1.7,1.6-2.1,2.5-2.2v5C9.9,70.3,8.3,69.6,8.3,67.9z M8.3,84.7c0-1.7,1.6-2.1,2.5-2.2v5C9.9,87.1,8.3,86.4,8.3,84.7z M23.8,95.7
	h-9.7V82.4h4c1.1,0,2-0.9,2-2s-0.9-2-2-2h-4V65.6h4c1.1,0,2-0.9,2-2s-0.9-2-2-2h-4V48.8h4c1.1,0,2-0.9,2-2s-0.9-2-2-2h-4V32h4
	c1.1,0,2-0.9,2-2s-0.9-2-2-2h-4V15.2h4c1.1,0,2-0.9,2-2s-0.9-2-2-2h-4V5.1h9.7V95.7z M82,95.7H27V5.1h55V95.7z"/>
</svg>
