<?xml version="1.0" encoding="utf-8"?>
<!-- Generator: Adobe Illustrator 22.1.0, SVG Export Plug-In . SVG Version: 6.00 Build 0)  -->
<svg version="1.1" xmlns="http://www.w3.org/2000/svg" xmlns:xlink="http://www.w3.org/1999/xlink" x="0px" y="0px"
	 viewBox="0 0 50.2 47" style="enable-background:new 0 0 50.2 47;" xml:space="preserve">
<g id="Слой_2">
</g>
<g id="Слой_1">
	<g>
		<path d="M49,32.1C49,32.1,49,32.1,49,32.1c0-0.1,0-0.1,0-0.2c0,0,0,0,0,0c0,0,0,0,0,0c0,0,0-0.1-0.1-0.1c0,0,0,0,0-0.1l0,0
			c0,0,0,0,0,0L28.1,7.9c0,0,0,0,0,0c0,0-0.1-0.1-0.1-0.1c0,0,0,0,0,0c-0.3-1.7-1.6-3-3.2-3c0,0,0,0,0,0c0,0,0,0,0,0
			c0,0-0.1,0-0.1,0c0,0-0.1,0-0.1,0L3.6,12c-0.1,0-0.1,0.1-0.2,0.1C2,12.5,1,13.9,1,15.6c0,0.6,0.1,1.1,0.3,1.7c0,0,0,0.1,0.1,0.1
			l17.8,20.7c0,0,0,0,0.1,0.1c0,0,0,0,0.1,0c0.1,0,0.2,0.1,0.3,0.1c0.1,0,0.1,0,0.2,0l2.1-0.7l5.3,6.1c0,0,0,0,0,0c0,0,0,0,0,0
			c0,0.1,0.1,0.2,0.2,0.2c0,0,0,0,0,0c0.1,0,0.2,0.1,0.3,0.1c0.1,0,0.1,0,0.2,0l20.9-7.4c0.2-0.1,0.3-0.3,0.3-0.5c0,0,0,0,0,0
			L49,32.1L49,32.1z M22.3,36.6C22.3,36.6,22.3,36.6,22.3,36.6l-15-17.2V17l19.8,22.7v2.4L22.3,36.6z M27.6,8.8l20.1,23.1l-19.9,7
			L7.7,15.9L27.6,8.8z M28.1,39.9l19.9-7v3l-19.9,7C28.1,42.8,28.1,39.9,28.1,39.9z M27,8L7.5,14.9c-0.2-1.1-0.9-2.1-1.8-2.6
			l19.1-6.6C25.9,5.8,26.8,6.7,27,8z M19.7,37.3L2.2,16.8C2.1,16.5,2,16.1,2,15.6c0-1.5,1-2.7,2.3-2.7c1.2,0,2.1,1,2.2,2.3
			c0,0,0,0,0,0c0,0,0,0.1-0.1,0.1c0,0,0,0,0,0c0,0,0,0,0,0c0,0,0,0,0,0c0,0,0,0.1,0,0.1c0,0,0,0,0,0c0,0,0,0.1,0,0.1c0,0,0,0,0,0
			c0,0,0,0,0,0v1.1c0,0.1,0,0.2,0,0.2v2.6c0,0,0,0,0,0.1c0,0,0,0.1,0,0.1c0,0,0,0.1,0.1,0.1c0,0,0,0,0,0.1l14.6,16.8L19.7,37.3z"/>
		<path d="M16.9,20.1c0.1,0.3,0.3,0.5,0.6,0.6c-0.3,0.9,0.3,1.2,0.3,1.2l5.8,2.5c0,0,0.1,0,0.1,0c0.1,0,0.3-0.1,0.3-0.2
			c0.1-0.2,0-0.4-0.2-0.4l-5.8-2.5c0,0-0.1-0.1,0-0.3l6.9,3c0.2,0.1,0.3,0.1,0.5,0.1c0.1,0,0.3,0,0.4-0.1l9.4,4
			c0.1,0.1,0.3,0.1,0.4,0.1c0.4,0,0.8-0.2,0.9-0.6c0.2-0.5,0-1.1-0.5-1.3l-9.4-4c-0.1-0.3-0.4-0.5-0.7-0.6l-7.4-3.2
			c-0.7-0.3-1.5,0-1.8,0.7C16.8,19.4,16.8,19.8,16.9,20.1z M18.2,19.4C18.2,19.4,18.3,19.4,18.2,19.4l6.6,2.8l0.9,0.4
			c0.1,0,0.2,0.2,0.1,0.3c0,0.1-0.1,0.1-0.2,0.1l-1-0.4l-6.5-2.8c-0.1,0-0.2-0.2-0.1-0.3C18,19.4,18.1,19.4,18.2,19.4z"/>
	</g>
</g>
</svg>
