<?xml version="1.0" encoding="utf-8"?>
<!-- Generator: Adobe Illustrator 22.1.0, SVG Export Plug-In . SVG Version: 6.00 Build 0)  -->
<svg version="1.1" id="Слой_1" xmlns="http://www.w3.org/2000/svg" xmlns:xlink="http://www.w3.org/1999/xlink" x="0px" y="0px"
	 viewBox="0 0 100 101" style="enable-background:new 0 0 100 101;" xml:space="preserve">
<path d="M88.9,80.5H71.7c-0.6,0-1,0.4-1,1s0.4,1,1,1h17.2c0.6,0,1-0.4,1-1S89.5,80.5,88.9,80.5z"/>
<path d="M11,82.5h15.6c0.6,0,1-0.4,1-1s-0.4-1-1-1H11c-0.6,0-1,0.4-1,1S10.4,82.5,11,82.5z"/>
<path d="M18.9,10.3c-0.3-0.3-0.8-0.4-1.2-0.2c-3.8,1.9-6.1,5.6-6.1,9.8c0,6,4.9,10.9,10.9,10.9c4.2,0,7.9-2.3,9.8-6.1
	c0.2-0.4,0.1-0.8-0.2-1.2c-0.3-0.3-0.8-0.4-1.2-0.2c-1.3,0.6-2.6,0.9-4,0.9c-4.9,0-8.9-4-8.9-8.9c0-1.4,0.3-2.7,0.9-3.9
	C19.3,11.1,19.2,10.6,18.9,10.3z M27.1,26.3c0.6,0,1.2-0.1,1.8-0.2c-1.6,1.7-3.9,2.6-6.3,2.6c-4.9,0-8.9-4-8.9-8.9
	c0-2.4,1-4.7,2.6-6.3c-0.1,0.6-0.2,1.2-0.2,1.8C16.2,21.4,21.1,26.3,27.1,26.3z"/>
<path d="M89,59.3C89,59.3,89,59.3,89,59.3c-0.6,0-1,0.4-1,1l0,5.3L50.9,10.9c-0.4-0.5-1.3-0.5-1.7,0L12.1,65.6l0-5.7
	c0-0.6-0.4-1-1-1c0,0,0,0,0,0c-0.6,0-1,0.4-1,1l0,8.9c0,0.4,0.3,0.8,0.7,1c0.1,0,0.2,0,0.3,0c0.3,0,0.6-0.2,0.8-0.4l5.8-8.6v8
	c0,0.6,0.4,1,1,1h22.3c1.1,3.7,4.6,6.4,8.7,6.4c0,0,0.1,0,0.1,0c0,0,0,0,0,0c0,0,0.1,0,0.1,0c4-0.1,7.3-2.7,8.4-6.4h22.9
	c0.6,0,1-0.4,1-1v-8l5.8,8.6c0.2,0.4,0.7,0.5,1.1,0.4c0.4-0.1,0.7-0.5,0.7-1l0-8.6C90,59.7,89.6,59.3,89,59.3z M49.9,74.2
	c-0.1,0-0.1,0-0.2,0c-1.7,0-3.1-1.4-3.1-3.2c0-1.1,1.7-3.8,3.2-5.7c1.5,2,3.2,4.6,3.2,5.7C53,72.8,51.6,74.2,49.9,74.2z M54.9,71.9
	c0-0.3,0.1-0.6,0.1-0.9c0-2.5-3.7-7.1-4.4-8c-0.4-0.5-1.2-0.5-1.5,0c-0.7,0.9-4.4,5.4-4.4,8c0,0.4,0.1,0.8,0.1,1.2
	c-1.3-1.3-2.1-3.1-2.1-5c0-3,4.5-9.4,7.1-12.5c2.5,3.2,7.1,9.5,7.1,12.5C56.8,69,56.1,70.7,54.9,71.9z M50.5,52.5
	c-0.4-0.5-1.2-0.5-1.5,0c-0.8,1-8.3,10.1-8.3,14.8c0,0.2,0,0.4,0,0.6H30.6v-6.6c1.3-1.1,5.6-4.7,10-10.1c3.6-4.4,7.6-10.6,9.5-17.7
	c1.8,7.1,5.9,13.3,9.5,17.7c4.4,5.4,8.7,9.1,10,10.1v6.6H58.7c0-0.2,0-0.4,0-0.6C58.8,62.6,51.3,53.5,50.5,52.5z M80.3,67.9h-8.8
	v-7.1c0-0.3-0.1-0.6-0.4-0.8c-0.2-0.2-20.1-15.7-20.1-34.1c0-0.6-0.4-1-1-1s-1,0.4-1,1c0,18.4-19.9,34-20.1,34.1
	c-0.2,0.2-0.4,0.5-0.4,0.8v7.1h-8.8v-10L50,13.2l30.3,44.6L80.3,67.9L80.3,67.9z"/>
<path d="M65.2,80.7c0.1-0.2,0.1-0.5,0-0.8l-1.5-4.2c-0.2-0.5-0.7-0.8-1.3-0.6l-12.3,4.1l-12.9-3.6c-0.5-0.1-1.1,0.2-1.2,0.7
	l-1.3,4.3c-0.1,0.3,0,0.5,0.1,0.8s0.3,0.4,0.6,0.5l3.7,1l-3.1,1c-0.3,0.1-0.5,0.3-0.6,0.5c-0.1,0.2-0.1,0.5,0,0.8l1.5,4.2
	c0.1,0.4,0.5,0.7,0.9,0.7c0.1,0,0.2,0,0.3-0.1l11.7-3.9l12.7,3.6c0.1,0,0.2,0,0.3,0c0.4,0,0.8-0.3,1-0.7l1.3-4.3
	c0.1-0.3,0-0.5-0.1-0.8s-0.3-0.4-0.6-0.5l-3.6-1l3.7-1.2C64.9,81.1,65.1,81,65.2,80.7z M37,80.1l0.7-2.4l9.1,2.6l-4.2,1.4L37,80.1z
	 M62.9,85.1l-0.7,2.4L53.3,85l4.2-1.4L62.9,85.1z M38.5,87.7l-0.8-2.4l24.5-8.1l0.8,2.4L38.5,87.7z"/>
</svg>
