<?xml version="1.0" encoding="utf-8"?>
<!-- Generator: Adobe Illustrator 22.1.0, SVG Export Plug-In . SVG Version: 6.00 Build 0)  -->
<svg version="1.1" id="Слой_1" xmlns="http://www.w3.org/2000/svg" xmlns:xlink="http://www.w3.org/1999/xlink" x="0px" y="0px"
	 viewBox="0 0 85 87" style="enable-background:new 0 0 85 87;" xml:space="preserve">
<style type="text/css">
	.st0{fill:#040000;}
</style>
<title>2</title>
<path class="st0" d="M33.2,24c0.2,0.7,0.9,1.1,1.6,0.9s1.1-0.9,0.9-1.6c0-0.1-0.1-0.2-0.1-0.3l-3.7-8.5c-0.2-0.7-0.9-1.1-1.6-0.9
	s-1.1,0.9-0.9,1.6c0,0.1,0.1,0.2,0.1,0.3L33.2,24z"/>
<path class="st0" d="M72.6,58.2c-0.2-0.7-1-1-1.7-0.8L19.6,75.1c-0.7,0.2-1,1-0.8,1.7c0.2,0.7,1,1,1.7,0.8l0,0l51.3-17.7
	C72.4,59.6,72.8,58.9,72.6,58.2C72.6,58.2,72.6,58.2,72.6,58.2z"/>
<path class="st0" d="M23.9,42.1h0.2c0.6,0,1.2-0.5,1.3-1.1c1.8-10.1,12-12.4,13.2-12.6c2.2,0,5.4,3.9,6,7.4c0.3,2-0.2,3.2-1.6,3.7
	c-15.5,5.3-10.8,24.9-10.7,25.1c0.2,0.7,0.9,1.1,1.6,0.9c0.6-0.2,1-0.8,0.9-1.5c0-0.2-4.2-17.2,8.8-21.9c4.9,1,9.7,8.2,9.6,14.6
	c0,0.7,0.6,1.3,1.3,1.3c0,0,0,0,0,0l0,0c0.7,0,1.3-0.6,1.3-1.3c0-6.8-4.3-13.9-9.5-16.4c1-1.4,1.3-3.2,0.9-4.9c-0.6-2.8-2-5.3-4-7.3
	c5.3-0.7,13.3-2.8,15.5-9.1c0.2-0.7-0.2-1.4-0.8-1.6c-0.7-0.2-1.4,0.1-1.6,0.8c-2.5,7.3-16.5,7.6-17.6,7.7h-0.4
	c-1.1,0.2-13.3,2.8-15.4,14.7C22.7,41.3,23.1,41.9,23.9,42.1C23.8,42.1,23.9,42.1,23.9,42.1z"/>
</svg>
