<?xml version="1.0" encoding="utf-8"?>
<!-- Generator: Adobe Illustrator 22.1.0, SVG Export Plug-In . SVG Version: 6.00 Build 0)  -->
<svg version="1.1" id="Слой_1" xmlns="http://www.w3.org/2000/svg" xmlns:xlink="http://www.w3.org/1999/xlink" x="0px" y="0px"
	 viewBox="0 0 97.3 99" style="enable-background:new 0 0 97.3 99;" xml:space="preserve">
<style type="text/css">
	.st0{display:none;}
	.st1{display:inline;}
	.st2{fill:none;stroke:#000000;stroke-width:2;stroke-linecap:round;stroke-miterlimit:10;}
	.st3{fill:none;stroke:#000000;stroke-width:2;stroke-linecap:round;stroke-linejoin:round;stroke-miterlimit:10;}
	.st4{stroke:#006699;stroke-width:2;stroke-linecap:round;stroke-linejoin:round;stroke-miterlimit:10;}
	.st5{fill:none;stroke:#006699;stroke-width:2;stroke-linecap:round;stroke-linejoin:round;stroke-miterlimit:10;}
	.st6{stroke:#006699;stroke-width:2;stroke-linecap:round;stroke-miterlimit:10;}
	.st7{fill:none;stroke:#006699;stroke-width:2;stroke-linecap:round;stroke-miterlimit:10;}
	.st8{fill:none;stroke:#000000;stroke-width:2;stroke-linejoin:round;stroke-miterlimit:10;}
	.st9{display:inline;fill:none;stroke:#000000;stroke-width:2;stroke-linecap:round;stroke-miterlimit:10;}
	.st10{display:inline;stroke:#000000;stroke-width:2;stroke-linecap:round;stroke-miterlimit:10;}
</style>
<g class="st0">
	<g class="st1">
		<path class="st2" d="M70,63.4V85c0,2.8-2.2,5-5,5H15c-2.8,0-5-2.2-5-5V15c0-2.8,2.2-5,5-5h45l10,10v29.3"/>
		<polyline class="st2" points="48,78.3 20,78.3 20,28.3 60,28.3 60,59.3 		"/>
		<g>
			<path class="st2" d="M53.2,66.1l28.3-28.3c2-2,5.1-2,7.1,0l0,0c2,2,2,5.1,0,7.1L60.3,73.1"/>
			<polyline class="st3" points="60.3,73.1 49.6,76.7 49.6,76.7 53.2,66.1 			"/>
			<line class="st2" x1="77.9" y1="41.3" x2="85" y2="48.4"/>
			<line class="st2" x1="53.2" y1="66.1" x2="60.3" y2="73.1"/>
			<line class="st3" x1="49.6" y1="76.7" x2="48" y2="78.3"/>
		</g>
		<polyline class="st2" points="59,10 59,21 70,21 		"/>
		<line class="st2" x1="46.8" y1="51.6" x2="59.5" y2="38.9"/>
		<line class="st2" x1="20" y1="78.3" x2="43.2" y2="55.1"/>
		<line class="st2" x1="47.2" y1="46.2" x2="59.5" y2="33.9"/>
		<line class="st2" x1="20" y1="73.3" x2="37.8" y2="55.5"/>
		<line class="st2" x1="30" y1="78.3" x2="59.5" y2="48.9"/>
		<line class="st2" x1="25" y1="78.3" x2="59.5" y2="43.9"/>
		<line class="st2" x1="40" y1="78.3" x2="60" y2="58.3"/>
		<line class="st2" x1="35" y1="78.3" x2="60" y2="53.3"/>
		<line class="st2" x1="45.3" y1="43" x2="59.5" y2="28.9"/>
		<line class="st2" x1="20" y1="68.3" x2="34.7" y2="53.6"/>
		<line class="st2" x1="42.2" y1="41.2" x2="55" y2="28.3"/>
		<line class="st2" x1="20" y1="63.3" x2="32.8" y2="50.5"/>
		<line class="st2" x1="36.8" y1="41.6" x2="50" y2="28.3"/>
		<line class="st2" x1="20" y1="58.3" x2="33.2" y2="45.1"/>
		<line class="st2" x1="20" y1="53.3" x2="45" y2="28.3"/>
		<line class="st2" x1="20" y1="48.3" x2="40" y2="28.3"/>
		<line class="st2" x1="20" y1="43.3" x2="35" y2="28.3"/>
		<line class="st2" x1="20" y1="38.3" x2="30" y2="28.3"/>
		<line class="st2" x1="20" y1="33.3" x2="25" y2="28.3"/>
		<circle class="st2" cx="40" cy="48.3" r="7.5"/>
	</g>
</g>
<g class="st0">
	<g class="st1">
		<path class="st4" d="M70,63.4V85c0,2.8-2.2,5-5,5H15c-2.8,0-5-2.2-5-5V15c0-2.8,2.2-5,5-5h45l10,10v29.3"/>
		<polyline class="st4" points="48,78.3 20,78.3 20,28.3 60,28.3 60,59.3 		"/>
		<g>
			<g>
				
					<rect x="51.6" y="52.2" transform="matrix(0.7071 -0.7071 0.7071 0.7071 -20.2392 65.6178)" class="st4" width="35" height="10"/>
				<path class="st4" d="M77.9,41.3l3.5-3.5c2-2,5.1-2,7.1,0l0,0c2,2,2,5.1,0,7.1L85,48.4L77.9,41.3z"/>
				<polygon class="st4" points="60.3,73.1 49.6,76.7 49.6,76.7 53.2,66.1 				"/>
				<line class="st5" x1="53.2" y1="66.1" x2="60.3" y2="73.1"/>
				<line class="st5" x1="49.6" y1="76.7" x2="48" y2="78.3"/>
			</g>
		</g>
		<polygon class="st4" points="70,21 59,21 59,10 60,10 70,20 		"/>
		<g>
			<line class="st5" x1="46.8" y1="51.6" x2="59.5" y2="38.9"/>
			<line class="st5" x1="20" y1="78.3" x2="43.2" y2="55.1"/>
			<line class="st5" x1="47.2" y1="46.2" x2="59.5" y2="33.9"/>
			<line class="st5" x1="20" y1="73.3" x2="37.8" y2="55.5"/>
			<line class="st5" x1="30" y1="78.3" x2="59.5" y2="48.9"/>
			<line class="st5" x1="25" y1="78.3" x2="59.5" y2="43.9"/>
			<line class="st5" x1="40" y1="78.3" x2="60" y2="58.3"/>
			<line class="st5" x1="35" y1="78.3" x2="60" y2="53.3"/>
			<line class="st5" x1="45.3" y1="43" x2="59.5" y2="28.9"/>
			<line class="st5" x1="20" y1="68.3" x2="34.7" y2="53.6"/>
			<line class="st5" x1="42.2" y1="41.2" x2="55" y2="28.3"/>
			<line class="st5" x1="20" y1="63.3" x2="32.8" y2="50.5"/>
			<line class="st5" x1="36.8" y1="41.6" x2="50" y2="28.3"/>
			<line class="st5" x1="20" y1="58.3" x2="33.2" y2="45.1"/>
			<line class="st5" x1="20" y1="53.3" x2="45" y2="28.3"/>
			<line class="st5" x1="20" y1="48.3" x2="40" y2="28.3"/>
			<line class="st5" x1="20" y1="43.3" x2="35" y2="28.3"/>
			<line class="st5" x1="20" y1="38.3" x2="30" y2="28.3"/>
			<line class="st5" x1="20" y1="33.3" x2="25" y2="28.3"/>
		</g>
		<circle class="st4" cx="40" cy="48.3" r="7.5"/>
	</g>
</g>
<g class="st0">
	<g class="st1">
		<path class="st6" d="M70,63.4V85c0,2.8-2.2,5-5,5H15c-2.8,0-5-2.2-5-5V15c0-2.8,2.2-5,5-5h45l10,10v29.3"/>
		<g>
			<g>
				
					<rect x="51.6" y="52.2" transform="matrix(0.7071 -0.7071 0.7071 0.7071 -20.2392 65.6178)" class="st4" width="35" height="10"/>
				<path class="st4" d="M77.9,41.3l3.5-3.5c2-2,5.1-2,7.1,0l0,0c2,2,2,5.1,0,7.1L85,48.4L77.9,41.3z"/>
				<polygon class="st4" points="60.3,73.1 49.6,76.7 49.6,76.7 53.2,66.1 				"/>
				<line class="st5" x1="53.2" y1="66.1" x2="60.3" y2="73.1"/>
				<line class="st5" x1="49.6" y1="76.7" x2="48" y2="78.3"/>
			</g>
		</g>
		<polyline class="st6" points="48,78.3 20,78.3 20,28.3 60,28.3 60,59.3 		"/>
		<polygon class="st4" points="70,21 59,21 59,10 60,10 70,20 		"/>
		<line class="st7" x1="46.8" y1="51.6" x2="59.5" y2="38.9"/>
		<line class="st7" x1="20" y1="78.3" x2="43.2" y2="55.1"/>
		<line class="st7" x1="47.2" y1="46.2" x2="59.5" y2="33.9"/>
		<line class="st7" x1="20" y1="73.3" x2="37.8" y2="55.5"/>
		<line class="st7" x1="30" y1="78.3" x2="59.5" y2="48.9"/>
		<line class="st7" x1="25" y1="78.3" x2="59.5" y2="43.9"/>
		<line class="st7" x1="40" y1="78.3" x2="60" y2="58.3"/>
		<line class="st7" x1="35" y1="78.3" x2="60" y2="53.3"/>
		<line class="st7" x1="45.3" y1="43" x2="59.5" y2="28.9"/>
		<line class="st7" x1="20" y1="68.3" x2="34.7" y2="53.6"/>
		<line class="st7" x1="42.2" y1="41.2" x2="55" y2="28.3"/>
		<line class="st7" x1="20" y1="63.3" x2="32.8" y2="50.5"/>
		<line class="st7" x1="36.8" y1="41.6" x2="50" y2="28.3"/>
		<line class="st7" x1="20" y1="58.3" x2="33.2" y2="45.1"/>
		<line class="st7" x1="20" y1="53.3" x2="45" y2="28.3"/>
		<line class="st7" x1="20" y1="48.3" x2="40" y2="28.3"/>
		<line class="st7" x1="20" y1="43.3" x2="35" y2="28.3"/>
		<line class="st7" x1="20" y1="38.3" x2="30" y2="28.3"/>
		<line class="st7" x1="20" y1="33.3" x2="25" y2="28.3"/>
		<circle class="st4" cx="40" cy="48.3" r="7.5"/>
	</g>
</g>
<g>
	<path d="M89.2,37.1c-1.1-1.1-2.6-1.8-4.2-1.8c-1.6,0-3.1,0.6-4.2,1.8l-3.5,3.5L71,46.8V21v-1v-0.4l-0.3-0.3l-10-10L60.4,9H60h-1H15
		c-3.3,0-6,2.7-6,6v70c0,3.3,2.7,6,6,6h50c3.3,0,6-2.7,6-6V63.8l14.7-14.7l3.5-3.5c1.1-1.1,1.8-2.6,1.8-4.2S90.4,38.2,89.2,37.1z
		 M60.3,71.7l-5.7-5.7l23.3-23.3l5.7,5.7L60.3,71.7z M48.8,76.1l-1.2,1.2h-5.2l8.9-8.9L48.8,76.1z M37.4,77.3L59,55.7v2.2L39.6,77.3
		H37.4z M32.4,77.3L59,50.7v2.2L34.6,77.3H32.4z M27.4,77.3L59,45.7V48c-0.1,0-0.2,0.1-0.2,0.2L29.6,77.3H27.4z M22.4,77.3
		l21.4-21.4c1.6-0.8,2.9-2.1,3.7-3.7L59,40.7V43c-0.1,0-0.2,0.1-0.2,0.2L24.6,77.3H22.4z M27.6,29.3L21,35.9v-2.2l4.4-4.4
		C25.4,29.3,27.6,29.3,27.6,29.3z M32.6,29.3L21,40.9v-2.2l9.4-9.4C30.4,29.3,32.6,29.3,32.6,29.3z M37.6,29.3L21,45.9v-2.2
		l14.4-14.4C35.4,29.3,37.6,29.3,37.6,29.3z M42.6,29.3L21,50.9v-2.2l19.4-19.4C40.4,29.3,42.6,29.3,42.6,29.3z M47.6,29.3
		L36.2,40.8c-1.6,0.8-2.9,2.1-3.7,3.7L21,55.9v-2.2l24.4-24.4C45.4,29.3,47.6,29.3,47.6,29.3z M57.6,29.3L45.3,41.7
		c-0.4-0.3-0.8-0.6-1.3-0.9l11.5-11.5C55.4,29.3,57.6,29.3,57.6,29.3z M40,54.8c-3.6,0-6.5-2.9-6.5-6.5s2.9-6.5,6.5-6.5
		s6.5,2.9,6.5,6.5S43.6,54.8,40,54.8z M21,58.7l10.5-10.5c0,0,0,0.1,0,0.1c0,0.6,0.1,1.3,0.2,1.9L21,60.9V58.7z M21,63.7l11.5-11.5
		c0.2,0.5,0.5,0.9,0.9,1.3L21,65.9V63.7z M21,68.7L34.7,55c0.4,0.3,0.8,0.6,1.3,0.9L21,70.9V68.7z M59,33c-0.1,0-0.2,0.1-0.2,0.2
		L47.5,44.4c-0.2-0.5-0.5-0.9-0.9-1.3L59,30.7V33z M48.3,46.5L59,35.7V38c-0.1,0-0.2,0.1-0.2,0.2L48.5,48.4c0,0,0-0.1,0-0.1
		C48.5,47.7,48.4,47.1,48.3,46.5z M41.9,40c-0.6-0.1-1.2-0.2-1.9-0.2c0,0-0.1,0-0.1,0l10.5-10.5h2.2L41.9,40z M21,30.9v-1.6h1.6
		L21,30.9z M21,73.7l17.1-17.1c0.6,0.1,1.2,0.2,1.9,0.2c0,0,0.1,0,0.1,0L21,75.9V73.7z M58.4,72.7l-7.2,2.4l2.4-7.2L58.4,72.7z
		 M69,85c0,2.2-1.8,4-4,4H15c-2.2,0-4-1.8-4-4V15c0-2.2,1.8-4,4-4h43v10c0,0.6,0.4,1,1,1h10v26.8l-8,8V27.3H35c0,0,0,0,0,0H19v52h29
		c0.1,0,0.1,0,0.2,0c0.1,0,0.1,0,0.2,0c0.1-0.1,0.2-0.1,0.3-0.2l1.5-1.5l10.4-3.5c0,0,0,0,0,0c0,0,0,0,0,0c0,0,0,0,0,0
		c0.1,0,0.2-0.1,0.3-0.2c0,0,0,0,0,0l8-8V85z"/>
</g>
<g class="st0">
	<g class="st1">
		<g>
			<polyline class="st3" points="60,73.1 49.4,76.7 49.4,76.7 53,66.1 			"/>
			<path d="M76.5,41.1L76.5,41.1l4.2-4.2c2.3-2.3,6.1-2.3,8.5,0l0,0c2.3,2.3,2.3,6.1,0,8.5L85,49.6L76.5,41.1z"/>
			<polyline class="st8" points="84.8,48.4 60,73.1 53,66.1 77.7,41.3 			"/>
			<line class="st3" x1="49.4" y1="76.7" x2="47.8" y2="78.3"/>
		</g>
	</g>
	<path class="st9" d="M70,63.4V85c0,2.8-2.2,5-5,5H15c-2.8,0-5-2.2-5-5V15c0-2.8,2.2-5,5-5h45l10,10v28.3"/>
	<polyline class="st9" points="47.8,78.3 20,78.3 20,28.3 60,28.3 60,58.3 	"/>
	<polyline class="st9" points="59,10 59,21 70,21 	"/>
	<line class="st9" x1="20" y1="78.3" x2="60" y2="38.3"/>
	<line class="st9" x1="46.2" y1="47.2" x2="60" y2="33.3"/>
	<line class="st9" x1="20" y1="73.3" x2="38.8" y2="54.5"/>
	<line class="st9" x1="30" y1="78.3" x2="59.5" y2="48.9"/>
	<line class="st9" x1="25" y1="78.3" x2="59.5" y2="43.9"/>
	<line class="st9" x1="40" y1="78.3" x2="60" y2="58.3"/>
	<line class="st9" x1="35" y1="78.3" x2="60" y2="53.3"/>
	<line class="st9" x1="45.3" y1="43" x2="59.5" y2="28.9"/>
	<line class="st9" x1="20" y1="68.3" x2="34.7" y2="53.6"/>
	<line class="st9" x1="41.2" y1="42.2" x2="55" y2="28.3"/>
	<line class="st9" x1="20" y1="63.3" x2="33.8" y2="49.5"/>
	<line class="st9" x1="20.2" y1="58.1" x2="50" y2="28.3"/>
	<line class="st9" x1="20" y1="53.3" x2="45" y2="28.3"/>
	<line class="st9" x1="20" y1="48.3" x2="40" y2="28.3"/>
	<line class="st9" x1="20" y1="43.3" x2="35" y2="28.3"/>
	<line class="st9" x1="20" y1="38.3" x2="30" y2="28.3"/>
	<line class="st9" x1="20" y1="33.3" x2="25" y2="28.3"/>
	<circle class="st10" cx="40" cy="48.3" r="7.5"/>
</g>
</svg>
