<?xml version="1.0" encoding="utf-8"?>
<!-- Generator: Adobe Illustrator 22.1.0, SVG Export Plug-In . SVG Version: 6.00 Build 0)  -->
<svg version="1.1"
	 id="Слой_1" xmlns:cc="http://creativecommons.org/ns#" xmlns:dc="http://purl.org/dc/elements/1.1/" xmlns:inkscape="http://www.inkscape.org/namespaces/inkscape" xmlns:rdf="http://www.w3.org/1999/02/22-rdf-syntax-ns#" xmlns:sodipodi="http://sodipodi.sourceforge.net/DTD/sodipodi-0.dtd" xmlns:svg="http://www.w3.org/2000/svg"
	 xmlns="http://www.w3.org/2000/svg" xmlns:xlink="http://www.w3.org/1999/xlink" x="0px" y="0px" viewBox="0 0 78.3 89.3"
	 style="enable-background:new 0 0 78.3 89.3;" xml:space="preserve">
<g transform="translate(0,-952.36218)">
	<path d="M39.8,956.1C19.5,956.1,3,972.6,3,992.8s16.4,36.7,36.7,36.7s36.7-16.4,36.7-36.7S60,956.1,39.8,956.1z M39.8,968.8
		c13.2,0,24,10.8,24,24s-10.8,24-24,24s-24-10.8-24-24S26.5,968.8,39.8,968.8z M39.8,972.8c-11.1,0-20,8.9-20,20
		c0,11.1,8.9,20,20,20s20-8.9,20-20C59.8,981.8,50.8,972.8,39.8,972.8z M16.5,1026.2l-8.8,13.9h64l-8.8-13.9
		c-6.6,4.6-14.6,7.3-23.3,7.3S23.1,1030.8,16.5,1026.2z"/>
</g>
</svg>
