<?xml version="1.0" encoding="utf-8"?>
<!-- Generator: Adobe Illustrator 22.1.0, SVG Export Plug-In . SVG Version: 6.00 Build 0)  -->
<svg version="1.1" id="Слой_1" xmlns="http://www.w3.org/2000/svg" xmlns:xlink="http://www.w3.org/1999/xlink" x="0px" y="0px"
	 viewBox="0 0 100 93.7" style="enable-background:new 0 0 100 93.7;" xml:space="preserve">
<path d="M95.6,71.1C92,68.3,88,66.3,83.8,65c3.5-2.9,6.6-6.4,9-10.5c0.2-0.3,0.2-0.6,0.1-0.9c-0.1-0.3-0.4-0.5-0.7-0.6
	c-4.4-1.2-8.9-1.5-13.2-1.1c1.9-3.7,3.2-7.8,3.8-12.1c0-0.3-0.1-0.6-0.3-0.8c-0.2-0.2-0.5-0.3-0.8-0.3c-4.2,0.6-8.2,1.8-11.8,3.6
	c0.3-4.2,0-8.4-1.2-12.6c-0.1-0.3-0.3-0.5-0.6-0.7c-0.3-0.1-0.6-0.1-0.9,0.1c-2.6,1.5-4.9,3.3-7,5.3c-1.6-6.6-4.7-12.9-9.5-18.5
	c-0.4-0.4-1.1-0.4-1.5,0c-4.8,5.6-7.9,11.9-9.5,18.5c-2.1-2-4.4-3.8-7-5.3c-0.3-0.2-0.6-0.2-0.9-0.1c-0.3,0.1-0.5,0.4-0.6,0.7
	c-1.1,4.2-1.5,8.5-1.2,12.6c-3.6-1.8-7.6-3-11.8-3.6c-0.3,0-0.6,0.1-0.8,0.3c-0.2,0.2-0.3,0.5-0.3,0.8c0.6,4.3,1.9,8.4,3.8,12.1
	c-4.4-0.4-8.8-0.1-13.2,1.1c-0.3,0.1-0.5,0.3-0.7,0.6c0,0.3,0,0.7,0.1,0.9c2.4,4.1,5.5,7.6,9,10.5C12,66.3,8,68.3,4.4,71.1
	C4.1,71.3,4,71.6,4,71.9s0.1,0.6,0.4,0.8c6.8,5.2,15,7.8,23.1,7.8c7.9,0,15.8-2.5,22.5-7.4c6.7,4.9,14.6,7.4,22.5,7.4
	c8.2,0,16.3-2.6,23.1-7.8c0.2-0.2,0.4-0.5,0.4-0.8S95.9,71.3,95.6,71.1z M90.4,54.7c-2.4,3.8-5.5,7.1-9,9.7c-3.7-0.9-7.5-1.2-11.3-1
	c3-2.7,5.6-5.8,7.7-9.3C82,53.6,86.2,53.7,90.4,54.7z M67.1,31.5c0.9,4,1.1,8,0.7,12c-2.4,1.4-4.6,3-6.6,4.8
	c0.4-3.9,0.3-7.8-0.4-11.6C62.6,34.7,64.7,33,67.1,31.5z M60.7,51.5c2-2.1,4.2-4,6.7-5.5c0.4-0.2,0.8-0.5,1.2-0.7
	c0.4-0.2,0.7-0.4,1.1-0.6c3.4-1.8,7.1-3.2,11-3.8c-0.7,4.1-2.1,7.9-4,11.4c-0.2,0.4-0.4,0.7-0.6,1.1c-0.2,0.4-0.5,0.8-0.7,1.2
	c-2.3,3.6-5.3,6.7-8.7,9.2c-0.7,0.5-1.3,0.9-2,1.4c-1.3,0.8-2.7,1.6-4.2,2.3c-1.1,0.5-2.2,1-3.3,1.4c-0.5,0.2-0.9,0.3-1.4,0.4
	c-0.9,0.3-1.7,0.5-2.6,0.7c-0.1,0-0.2,0-0.3,0.1c-0.1,0-0.2,0-0.3,0.1c0.5-0.6,0.9-1.2,1.3-1.8l0.1-0.1c0.2-0.3,0.4-0.6,0.6-1
	c0.8-1.3,1.6-2.6,2.2-3.9c0.4-0.8,0.8-1.5,1.1-2.3C59.1,57.8,60.1,54.7,60.7,51.5z M32.9,31.5c2.4,1.5,4.5,3.2,6.4,5.2
	c-0.7,3.9-0.8,7.8-0.4,11.6c-2-1.8-4.2-3.5-6.6-4.8C31.8,39.5,32,35.5,32.9,31.5z M19.4,40.9c3.9,0.7,7.6,2,11,3.8
	c0.4,0.2,0.7,0.4,1.1,0.6c0.4,0.2,0.8,0.5,1.2,0.7c2.5,1.6,4.7,3.4,6.7,5.5c0.6,3.2,1.5,6.3,2.8,9.3c0.3,0.8,0.7,1.6,1.1,2.3
	c0.7,1.3,1.4,2.6,2.2,3.9c0.2,0.3,0.4,0.6,0.6,1l0.1,0.1c0.4,0.6,0.9,1.2,1.3,1.8c-0.1,0-0.2,0-0.3-0.1c-0.1,0-0.2,0-0.3-0.1
	c-0.9-0.2-1.7-0.4-2.6-0.7c-0.5-0.1-0.9-0.3-1.4-0.4c-1.1-0.4-2.2-0.9-3.3-1.4c-1.4-0.7-2.8-1.4-4.2-2.3c-0.7-0.4-1.4-0.9-2-1.4
	C30,61,27,57.8,24.7,54.3c-0.3-0.4-0.5-0.8-0.7-1.2s-0.4-0.7-0.6-1.1C21.5,48.8,20.1,44.9,19.4,40.9z M9.6,54.7
	c4.2-1,8.5-1.1,12.6-0.6c2.1,3.5,4.7,6.6,7.7,9.3c-3.8-0.2-7.6,0.1-11.3,1C15,61.8,12,58.5,9.6,54.7z M46.8,72.9
	c-12.3,7.8-28.2,7.4-40.1-1c3.5-2.5,7.4-4.3,11.5-5.3c0.4-0.1,0.8-0.2,1.2-0.3c0.5-0.1,1-0.2,1.4-0.3c3.9-0.7,7.9-0.8,11.9-0.3
	c3.4,2.5,7.3,4.4,11.4,5.6c0.8,0.2,1.6,0.5,2.5,0.6c0.4,0.1,0.8,0.2,1.3,0.3C47.5,72.4,47.1,72.6,46.8,72.9z M51.2,68.4
	c-0.1,0.1-0.2,0.2-0.2,0.3c-0.1,0.1-0.2,0.3-0.3,0.4s-0.2,0.3-0.3,0.4c0,0,0,0.1-0.1,0.1c0,0.1-0.1,0.1-0.1,0.2s-0.1,0.1-0.1,0.2
	c0-0.1-0.1-0.1-0.1-0.2s-0.1-0.1-0.1-0.2c0,0,0-0.1-0.1-0.1c-0.1-0.1-0.2-0.3-0.3-0.4s-0.2-0.3-0.3-0.4S49,68.5,49,68.4
	c-0.2-0.3-0.4-0.6-0.6-0.9c-0.4-0.5-0.7-1-1-1.5c-2.3-3.5-3.9-7.3-5-11.1c-0.2-0.8-0.4-1.6-0.6-2.4c-0.1-0.6-0.3-1.3-0.4-1.9
	c-0.7-4-0.7-8.1-0.2-12.1c0.1-0.4,0.1-0.9,0.2-1.3c0.1-0.4,0.2-0.8,0.2-1.2c1.3-6.3,4.1-12.5,8.5-17.9c4.4,5.4,7.2,11.6,8.5,17.9
	c0.1,0.4,0.2,0.8,0.2,1.2c0.1,0.4,0.1,0.9,0.2,1.3c0.6,4,0.5,8.1-0.2,12.1c-0.1,0.6-0.2,1.3-0.4,1.9c-0.2,0.8-0.4,1.6-0.6,2.4
	c-1.1,3.9-2.8,7.6-5,11.1c-0.3,0.5-0.7,1-1,1.5C51.6,67.9,51.4,68.1,51.2,68.4z M53.2,72.9c-0.4-0.2-0.7-0.5-1.1-0.7
	c0.4-0.1,0.8-0.2,1.3-0.3c0.8-0.2,1.7-0.4,2.5-0.6c4.1-1.2,8-3.1,11.4-5.6c3.9-0.6,8-0.5,11.9,0.3c0.5,0.1,1,0.2,1.4,0.3
	c0.4,0.1,0.8,0.2,1.2,0.3c4,1.1,7.9,2.8,11.5,5.3C81.4,80.3,65.5,80.6,53.2,72.9z"/>
</svg>
