<?xml version="1.0" encoding="utf-8"?>
<!-- Generator: Adobe Illustrator 22.1.0, SVG Export Plug-In . SVG Version: 6.00 Build 0)  -->
<svg version="1.1" id="Слой_1" xmlns="http://www.w3.org/2000/svg" xmlns:xlink="http://www.w3.org/1999/xlink" x="0px" y="0px"
	 viewBox="0 0 100 100" style="enable-background:new 0 0 100 100;" xml:space="preserve">
<path d="M11,90h78c0.6,0,1-0.4,1-1s-0.4-1-1-1H71.2V72.6c4.3-0.5,7.7-3.8,8.2-8.1c3.6-1.3,6.1-4.8,6.1-8.7c0-1.1-0.2-2.2-0.6-3.2
	c1.6-1.7,2.6-4,2.6-6.4c0-1.7-0.5-3.4-1.3-4.8c0.9-1.5,1.3-3.1,1.3-4.8c0-2.4-0.9-4.7-2.6-6.4c0.4-1,0.6-2.1,0.6-3.2
	c0-3.9-2.5-7.4-6.1-8.7C78.9,13.6,75,10,70.2,10c-4.8,0-8.7,3.6-9.2,8.2c-3.6,1.3-6.1,4.8-6.1,8.7c0,1.1,0.2,2.2,0.6,3.2
	c-1.6,1.7-2.6,4-2.6,6.4c0,1.7,0.5,3.4,1.3,4.8c-0.9,1.5-1.3,3.1-1.3,4.8c0,2.4,0.9,4.7,2.6,6.4c-0.4,1-0.6,2.1-0.6,3.2
	c0,3.9,2.5,7.4,6.1,8.7c0.5,4.3,3.9,7.6,8.2,8.1V88H30.4V53.6c4.6,6.4,12.9,7.1,16.1,7.1c0.8,0,1.3,0,1.3,0c0.5-0.1,1-0.5,0.9-1.1
	c-0.1-0.5-0.5-1-1.1-0.9c-0.1,0-13.3,1.1-17.3-9.3v-7.2c4,5.3,11,5.9,13.7,5.9c0.7,0,1.1,0,1.2,0c0.5-0.1,1-0.5,0.9-1.1
	c-0.1-0.5-0.5-0.9-1.1-0.9c-0.1,0-11.3,1-14.7-7.9v-6.3c1.6,2,3.8,3.4,6.6,4.2c2.3,0.7,4.4,0.8,5.3,0.8c0.4,0,0.6,0,0.6,0
	c0.6,0,1-0.5,0.9-1.1c0-0.6-0.5-1-1.1-0.9c-0.4,0-9.5,0.5-12.4-6.9v-5.3c3.5,3.9,9.2,4,9.7,4c0,0,0,0,0,0c0.6,0,1-0.5,1-1
	c0-0.6-0.5-1-1-1c0,0,0,0,0,0c-0.3,0-7.4-0.1-9.7-5.8v-4.4c2.6,2.6,6.4,3,6.6,3.1c0,0,0.1,0,0.1,0c0.5,0,0.9-0.4,1-0.9
	c0.1-0.5-0.3-1-0.9-1.1c-0.1,0-5.3-0.6-6.9-4.8c0,0,0,0,0,0c0,0,0,0,0,0c0-0.1-0.1-0.1-0.1-0.2c0,0,0,0,0,0c0,0-0.1-0.1-0.1-0.1
	c0,0,0,0,0,0c0,0-0.1-0.1-0.1-0.1c-0.1,0-0.1-0.1-0.2-0.1c0,0,0,0,0,0c0,0,0,0,0,0c0,0-0.1,0-0.1,0c-0.1,0-0.1,0-0.2,0c0,0,0,0,0,0
	c0,0,0,0,0,0c-0.1,0-0.1,0-0.2,0c0,0-0.1,0-0.1,0c0,0,0,0,0,0c0,0,0,0,0,0c-0.1,0-0.1,0.1-0.1,0.1c0,0,0,0,0,0c0,0-0.1,0.1-0.1,0.1
	c0,0,0,0,0,0c0,0-0.1,0.1-0.1,0.1c0,0,0,0,0,0c0,0.1-0.1,0.1-0.1,0.2c0,0,0,0,0,0c0,0,0,0,0,0c-1.5,4.1-6.8,4.7-6.9,4.8
	c-0.5,0.1-0.9,0.5-0.9,1.1c0.1,0.5,0.5,0.9,1,0.9c0,0,0.1,0,0.1,0c0.2,0,4-0.5,6.6-3.1v4.4c-2.2,5.7-9.3,5.8-9.7,5.8c0,0,0,0,0,0
	c-0.6,0-1,0.4-1,1c0,0.6,0.4,1,1,1c0,0,0,0,0,0c0.5,0,6.2-0.1,9.7-4v5.3c-2.9,7.4-12,7-12.4,6.9c-0.6,0-1,0.4-1.1,0.9
	c0,0.6,0.4,1,0.9,1.1c0,0,0.2,0,0.6,0c1,0,3-0.1,5.3-0.8c2.8-0.8,5-2.3,6.6-4.2v6.3C25,46.9,14.1,46,13.7,46c-0.5,0-1,0.4-1.1,0.9
	s0.4,1,0.9,1.1c0,0,0.5,0,1.2,0c2.7,0,9.7-0.6,13.7-5.8v7.2c-1.6,4.3-5,7.2-10,8.6c-3.9,1-7.3,0.7-7.3,0.7c-0.6,0-1,0.4-1.1,0.9
	s0.4,1,0.9,1.1c0,0,0.5,0,1.3,0c3.2,0,11.5-0.7,16.1-7.1V88H11c-0.6,0-1,0.4-1,1S10.4,90,11,90z M63,63.7c0-0.4-0.3-0.8-0.7-0.9
	c-3.1-0.9-5.3-3.8-5.3-7c0-1,0.2-2.1,0.7-3c0.2-0.4,0.1-0.9-0.2-1.2c-1.5-1.4-2.4-3.4-2.4-5.4c0-1.5,0.5-3,1.4-4.2
	c0.2-0.3,0.2-0.8,0-1.2c-0.9-1.2-1.4-2.7-1.4-4.2c0-2.1,0.9-4,2.4-5.4c0.3-0.3,0.4-0.8,0.2-1.2c-0.4-1-0.7-2-0.7-3
	c0-3.2,2.2-6.1,5.3-7c0.4-0.1,0.7-0.5,0.7-0.9c0.1-3.9,3.3-7,7.3-7s7.1,3.1,7.3,7c0,0.4,0.3,0.8,0.7,0.9c3.1,0.9,5.3,3.8,5.3,7
	c0,1-0.2,2.1-0.7,3c-0.2,0.4-0.1,0.9,0.2,1.2c1.5,1.4,2.4,3.4,2.4,5.4c0,1.5-0.5,3-1.4,4.2c-0.2,0.3-0.2,0.8,0,1.2
	c0.9,1.2,1.4,2.7,1.4,4.2c0,2.1-0.9,4-2.4,5.4c-0.3,0.3-0.4,0.8-0.2,1.2c0.4,1,0.7,2,0.7,3c0,3.2-2.2,6.1-5.3,7
	c-0.4,0.1-0.7,0.5-0.7,0.9c-0.2,3.5-2.8,6.4-6.3,6.8V59.1c3.6-0.5,6.4-3.6,6.4-7.3c0-0.6-0.4-1-1-1s-1,0.4-1,1
	c0,2.6-1.9,4.8-4.4,5.2V46.5c3.6-0.5,6.4-3.6,6.4-7.3c0-0.6-0.4-1-1-1s-1,0.4-1,1c0,2.6-1.9,4.8-4.4,5.2V33.8
	c3.6-0.5,6.4-3.6,6.4-7.3c0-0.6-0.4-1-1-1s-1,0.4-1,1c0,2.6-1.9,4.8-4.4,5.2V20.2c0-0.6-0.4-1-1-1s-1,0.4-1,1v11.6
	c-2.5-0.5-4.4-2.6-4.4-5.2c0-0.6-0.4-1-1-1s-1,0.4-1,1c0,3.7,2.8,6.8,6.4,7.3v10.6c-2.5-0.5-4.4-2.6-4.4-5.2c0-0.6-0.4-1-1-1
	s-1,0.4-1,1c0,3.7,2.8,6.8,6.4,7.3v10.6c-2.5-0.5-4.4-2.6-4.4-5.2c0-0.6-0.4-1-1-1s-1,0.4-1,1c0,3.7,2.8,6.8,6.4,7.3v11.4
	C65.8,70.1,63.1,67.2,63,63.7z"/>
</svg>
