<?xml version="1.0" encoding="utf-8"?>
<!-- Generator: Adobe Illustrator 22.1.0, SVG Export Plug-In . SVG Version: 6.00 Build 0)  -->
<svg version="1.1" id="Слой_1" xmlns="http://www.w3.org/2000/svg" xmlns:xlink="http://www.w3.org/1999/xlink" x="0px" y="0px"
	 viewBox="0 0 100 93" style="enable-background:new 0 0 100 93;" xml:space="preserve">
<path d="M79.3,35.6c-1,0-2,0.1-3,0.3l-2.1-10.3v-5.2h5.6c2.4,0,4.3,1.9,4.3,4.3s-1.9,4.3-4.3,4.3v2c3.5,0,6.3-2.8,6.3-6.3
	s-2.8-6.3-6.3-6.3h-7.6v7.3l0.7,3.3H38.3l1.9-3.1v-5.2H28.6l4.3,13.1l-2.7,4.3c-2.8-1.6-6.1-2.5-9.5-2.5c-10.8,0-19.6,8.8-19.6,19.6
	s8.8,19.6,19.6,19.6c10.5,0,19-8.2,19.5-18.6h4.9c0.4,2.1,2.1,3.6,4.2,3.9l4,9.2h5.3v-2h-4l-3.2-7.4c1.7-0.5,3.1-2,3.5-3.8h4.9
	c0.5,10.3,9.1,18.6,19.5,18.6c10.8,0,19.6-8.8,19.6-19.6C98.9,44.4,90.1,35.6,79.3,35.6z M31.4,22.7h6.9v2.6l-4,6.3L31.4,22.7z
	 M20.7,72.7c-9.7,0-17.6-7.9-17.6-17.6S11,37.6,20.7,37.6c3.1,0,6,0.8,8.5,2.2L18.9,56.1h19.3C37.7,65.4,30,72.7,20.7,72.7z
	 M30.9,40.8c4.2,3,7,7.8,7.3,13.3H22.5L30.9,40.8z M50,58.1c-1.7,0-3-1.3-3-3s1.3-3,3-3s3,1.3,3,3S51.7,58.1,50,58.1z M50,50.1
	c-2.4,0-4.4,1.7-4.9,4h-4.9c-0.3-6.2-3.5-11.6-8.3-15l5.2-8.2h36.2l1.1,5.3c-8.1,2.1-14.2,9.3-14.6,17.9h-4.9
	C54.4,51.9,52.4,50.1,50,50.1z M74.8,38.2l3.3,16H61.8C62.2,46.5,67.6,40.1,74.8,38.2z M79.3,72.7c-9.3,0-17-7.3-17.5-16.6h18.7
	l-3.8-18.4c0.8-0.1,1.7-0.2,2.6-0.2c9.7,0,17.6,7.9,17.6,17.6C96.9,64.8,89,72.7,79.3,72.7z"/>
</svg>
