<?xml version="1.0" encoding="utf-8"?>
<!-- Generator: Adobe Illustrator 22.1.0, SVG Export Plug-In . SVG Version: 6.00 Build 0)  -->
<svg version="1.1" id="Слой_1" xmlns="http://www.w3.org/2000/svg" xmlns:xlink="http://www.w3.org/1999/xlink" x="0px" y="0px"
	 viewBox="0 0 32 31.8" style="enable-background:new 0 0 32 31.8;" xml:space="preserve">
<path d="M27.3,13.4c0-6.2-5.1-11.3-11.3-11.3S4.7,7.1,4.7,13.4c0,5.9,4.5,10.8,10.3,11.3v3.3h-3c-0.6,0-1,0.4-1,1s0.4,1,1,1h8
	c0.6,0,1-0.4,1-1s-0.4-1-1-1h-3v-3.3C22.8,24.1,27.3,19.3,27.3,13.4z M6.7,13.4c0-5.1,4.2-9.3,9.3-9.3s9.3,4.2,9.3,9.3
	c0,4.8-3.6,8.8-8.3,9.3v-3.4l4.9-4.9c0.4-0.4,0.4-1,0-1.4s-1-0.4-1.4,0L17,16.4V9.8c0-0.6-0.4-1-1-1s-1,0.4-1,1v6.6l-3.4-3.4
	c-0.4-0.4-1-0.4-1.4,0s-0.4,1,0,1.4l4.9,4.9v3.4C10.3,22.1,6.7,18.2,6.7,13.4z"/>
</svg>
