<?xml version="1.0" encoding="utf-8"?>
<!-- Generator: Adobe Illustrator 22.1.0, SVG Export Plug-In . SVG Version: 6.00 Build 0)  -->
<svg version="1.1" id="Слой_1" xmlns="http://www.w3.org/2000/svg" xmlns:xlink="http://www.w3.org/1999/xlink" x="0px" y="0px"
	 viewBox="0 0 100 96.5" style="enable-background:new 0 0 100 96.5;" xml:space="preserve">
<path d="M89.9,77.3l-6.4,6.4c-2.8,2.8-6.6,4.4-10.6,4.4c-0.6,0-1.2,0-1.9-0.1c-13.4-1.7-28.2-9.7-40.5-22
	c-12.3-12.3-20.4-27.1-22-40.5c-0.6-4.6,1-9.1,4.3-12.4l6.4-6.4c2.3-2.3,6.1-2.3,8.5,0l14.1,14.1c1.1,1.1,1.8,2.6,1.8,4.2
	s-0.6,3.1-1.8,4.2L34,37l25.5,25.5l7.8-7.8c2.3-2.3,6.1-2.3,8.5,0l14.1,14.1C92.2,71.2,92.2,75,89.9,77.3z"/>
</svg>
