<?xml version="1.0" encoding="utf-8"?>
<!-- Generator: Adobe Illustrator 22.1.0, SVG Export Plug-In . SVG Version: 6.00 Build 0)  -->
<svg version="1.1"
	 id="Слой_1" xmlns:cc="http://creativecommons.org/ns#" xmlns:dc="http://purl.org/dc/elements/1.1/" xmlns:inkscape="http://www.inkscape.org/namespaces/inkscape" xmlns:rdf="http://www.w3.org/1999/02/22-rdf-syntax-ns#" xmlns:sodipodi="http://sodipodi.sourceforge.net/DTD/sodipodi-0.dtd" xmlns:svg="http://www.w3.org/2000/svg"
	 xmlns="http://www.w3.org/2000/svg" xmlns:xlink="http://www.w3.org/1999/xlink" x="0px" y="0px" viewBox="0 0 32 33.7"
	 style="enable-background:new 0 0 32 33.7;" xml:space="preserve">
<g transform="translate(275.99997,-37.000012)">
	<g transform="translate(-275.99997,39.000012)">
		<path d="M16,2c-0.1,0-0.2,0.1-0.3,0.2l-9.5,10c-0.2,0.2-0.2,0.5,0,0.7C6.2,13,6.4,13,6.5,13H8v5.4c-0.6,0.4-1,1-1,1.7v3.3
			c0,1.1,0.9,1.9,2,2.1V29h1v-3.5c0.4-0.1,0.8-0.3,1.2-0.5c0,0,0,0,0,0h9.6c0,0,0,0,0.1,0c0.3,0.3,0.7,0.4,1.2,0.5V29h1v-3.5
			c1.1-0.2,2-1,2-2.1v-3.3c0-0.7-0.4-1.3-1-1.7V13h1.5c0.3,0,0.5-0.2,0.5-0.5c0-0.1,0-0.3-0.1-0.3l-1.5-1.6c0,0,0,0,0,0V5.8
			c0-0.3-0.2-0.5-0.5-0.5h-1.7c-0.3,0-0.5,0.2-0.5,0.5v2l-5.3-5.6C16.3,2.1,16.1,2,16,2C16,2,16,2,16,2z M16,3.2l8.3,8.8H7.7L16,3.2
			z M22.7,6.3h0.7v3.2l-0.7-0.7c0,0,0-0.1,0-0.1V6.3z M9,13h14v5c-0.2,0-0.3,0-0.5,0c-1.3,0-2.5,0.9-2.5,2.1v3.3
			c0,0.2,0,0.4,0.1,0.6h-1.5v-7.4c0-0.3-0.2-0.5-0.5-0.5h-4.1c-0.3,0-0.5,0.2-0.5,0.5V24h-1.5c0.1-0.2,0.1-0.4,0.1-0.6v-3.3
			c0-1.2-1.2-2.1-2.5-2.1c-0.2,0-0.3,0-0.5,0V13z M3.5,15C2.2,15,1,15.9,1,17.1v3.3c0,1.1,0.9,1.9,2,2.1V26h1v-3.5
			c1.1-0.2,2-1,2-2.1v-3.3C6,15.9,4.8,15,3.5,15z M28.5,15c-1.3,0-2.5,0.9-2.5,2.1v3.3c0,1.1,0.9,1.9,2,2.1V26h1v-3.5
			c1.1-0.2,2-1,2-2.1v-3.3C31,15.9,29.8,15,28.5,15z M3.5,16C4.4,16,5,16.6,5,17.1v3.3c0,0.5-0.4,0.9-1,1.1V19H3v2.5
			c-0.6-0.2-1-0.6-1-1.1v-3.3C2,16.6,2.6,16,3.5,16z M28.5,16c0.9,0,1.5,0.6,1.5,1.1v3.3c0,0.5-0.4,0.9-1,1.1V19h-1v2.5
			c-0.6-0.2-1-0.6-1-1.1v-3.3C27,16.6,27.6,16,28.5,16z M14.4,17.1h3.1V24h-3.1V17.1z M9.5,19c0.9,0,1.5,0.6,1.5,1.1v3.3
			c0,0.5-0.4,0.9-1,1.1V22H9v2.5c-0.6-0.2-1-0.6-1-1.1v-3.3C8,19.6,8.6,19,9.5,19z M22.5,19c0.9,0,1.5,0.6,1.5,1.1v3.3
			c0,0.5-0.4,0.9-1,1.1V22h-1v2.5c-0.6-0.2-1-0.6-1-1.1v-3.3C21,19.6,21.6,19,22.5,19z"/>
	</g>
</g>
</svg>
